<svg width="40" height="40" fill="none" xmlns="http://www.w3.org/2000/svg"><g clip-path="url(#a)"><path d="M0 20C0 8.954 8.954 0 20 0s20 8.954 20 20-8.954 20-20 20S0 31.046 0 20Z" fill="#FEC200"/><g filter="url(#b)"><path d="M22.405 17.008c-.06-.558-.31-.993-.754-1.304-.439-.311-1.01-.467-1.713-.467-.494 0-.918.075-1.272.224-.354.15-.624.351-.812.607a1.476 1.476 0 0 0-.287.876c0 .273.062.51.185.71.128.2.3.37.518.51.217.137.458.252.722.346.264.094.53.172.8.236l1.226.307c.495.115.97.27 1.426.467.46.196.871.443 1.234.741.366.299.656.659.869 1.08.213.422.32.917.32 1.484 0 .767-.197 1.442-.589 2.026-.392.58-.958 1.033-1.7 1.361-.737.324-1.63.486-2.678.486-1.019 0-1.903-.157-2.653-.473-.746-.315-1.33-.775-1.751-1.38-.418-.606-.644-1.343-.678-2.212h2.333c.034.456.175.835.422 1.138.247.302.569.528.965.677.4.15.848.224 1.343.224.515 0 .967-.077 1.355-.23.392-.158.699-.375.92-.652.222-.281.335-.61.339-.985-.004-.34-.104-.622-.3-.843-.196-.226-.471-.414-.825-.563a7.945 7.945 0 0 0-1.227-.409l-1.49-.383c-1.078-.277-1.93-.697-2.556-1.26-.623-.567-.934-1.319-.934-2.256 0-.771.21-1.447.627-2.026.422-.58.995-1.03 1.72-1.35.724-.323 1.544-.485 2.46-.485.93 0 1.743.162 2.442.486.703.32 1.255.765 1.655 1.336.401.567.608 1.219.62 1.956h-2.282Z" fill="#FEDE00"/></g><g filter="url(#c)"><path d="M40 20c0 11.046-8.954 20-20 20S0 31.046 0 20 8.954 0 20 0s20 8.954 20 20ZM2.946 20c0 9.419 7.635 17.054 17.054 17.054 9.419 0 17.054-7.635 17.054-17.054 0-9.419-7.635-17.054-17.054-17.054C10.581 2.946 2.946 10.58 2.946 20Z" fill="#FEDE00"/></g><g filter="url(#d)"><path d="M27 32.5c2.308-.276 3.118-.994 3.5-3.5.473 2.26 1.26 3.015 3.5 3.5-2.347.468-3.093 1.25-3.5 3.5-.314-2.345-1.169-3.017-3.5-3.5Z" fill="#fff"/><path d="M27 32.5c2.308-.276 3.118-.994 3.5-3.5.473 2.26 1.26 3.015 3.5 3.5-2.347.468-3.093 1.25-3.5 3.5-.314-2.345-1.169-3.017-3.5-3.5Z" stroke="#fff" stroke-width=".5"/></g><g filter="url(#e)"><path d="M6 7.5c1.649-.197 2.227-.71 2.5-2.5.338 1.614.9 2.153 2.5 2.5-1.676.334-2.21.893-2.5 2.5-.224-1.675-.835-2.155-2.5-2.5Z" fill="#fff"/><path d="M6 7.5c1.649-.197 2.227-.71 2.5-2.5.338 1.614.9 2.153 2.5 2.5-1.676.334-2.21.893-2.5 2.5-.224-1.675-.835-2.155-2.5-2.5Z" stroke="#fff" stroke-width=".5"/></g></g><defs><filter id="b" x="12.818" y="11.23" width="14.048" height="17.468" filterUnits="userSpaceOnUse" color-interpolation-filters="sRGB"><feFlood flood-opacity="0" result="BackgroundImageFix"/><feColorMatrix in="SourceAlpha" values="0 0 0 0 0 0 0 0 0 0 0 0 0 0 0 0 0 0 127 0" result="hardAlpha"/><feOffset/><feGaussianBlur stdDeviation="1"/><feComposite in2="hardAlpha" operator="out"/><feColorMatrix values="0 0 0 0 0 0 0 0 0 0 0 0 0 0 0 0 0 0 0.32 0"/><feBlend in2="BackgroundImageFix" result="effect1_dropShadow_253_1356"/><feBlend in="SourceGraphic" in2="effect1_dropShadow_253_1356" result="shape"/></filter><filter id="c" x="-1" y="-2" width="44" height="44" filterUnits="userSpaceOnUse" color-interpolation-filters="sRGB"><feFlood flood-opacity="0" result="BackgroundImageFix"/><feColorMatrix in="SourceAlpha" values="0 0 0 0 0 0 0 0 0 0 0 0 0 0 0 0 0 0 127 0" result="hardAlpha"/><feOffset dx="1"/><feGaussianBlur stdDeviation="1"/><feComposite in2="hardAlpha" operator="out"/><feColorMatrix values="0 0 0 0 0 0 0 0 0 0 0 0 0 0 0 0 0 0 0.12 0"/><feBlend in2="BackgroundImageFix" result="effect1_dropShadow_253_1356"/><feBlend in="SourceGraphic" in2="effect1_dropShadow_253_1356" result="shape"/></filter><filter id="d" x="24.949" y="26.949" width="11.104" height="11.096" filterUnits="userSpaceOnUse" color-interpolation-filters="sRGB"><feFlood flood-opacity="0" result="BackgroundImageFix"/><feColorMatrix in="SourceAlpha" values="0 0 0 0 0 0 0 0 0 0 0 0 0 0 0 0 0 0 127 0" result="hardAlpha"/><feOffset/><feGaussianBlur stdDeviation="1"/><feComposite in2="hardAlpha" operator="out"/><feColorMatrix values="0 0 0 0 0 0 0 0 0 0 0 0 0 0 0 0 0 0 0.24 0"/><feBlend in2="BackgroundImageFix" result="effect1_dropShadow_253_1356"/><feBlend in="SourceGraphic" in2="effect1_dropShadow_253_1356" result="shape"/></filter><filter id="e" x="3.949" y="2.949" width="9.104" height="9.096" filterUnits="userSpaceOnUse" color-interpolation-filters="sRGB"><feFlood flood-opacity="0" result="BackgroundImageFix"/><feColorMatrix in="SourceAlpha" values="0 0 0 0 0 0 0 0 0 0 0 0 0 0 0 0 0 0 127 0" result="hardAlpha"/><feOffset/><feGaussianBlur stdDeviation="1"/><feComposite in2="hardAlpha" operator="out"/><feColorMatrix values="0 0 0 0 0 0 0 0 0 0 0 0 0 0 0 0 0 0 0.24 0"/><feBlend in2="BackgroundImageFix" result="effect1_dropShadow_253_1356"/><feBlend in="SourceGraphic" in2="effect1_dropShadow_253_1356" result="shape"/></filter><clipPath id="a"><path d="M0 20C0 8.954 8.954 0 20 0s20 8.954 20 20-8.954 20-20 20S0 31.046 0 20Z" fill="#fff"/></clipPath></defs></svg>