<svg width="52" height="52" fill="none" xmlns="http://www.w3.org/2000/svg"><g clip-path="url(#a)" fill-rule="evenodd" clip-rule="evenodd"><path opacity=".972" d="M51.95 24.425v8.328a2.11 2.11 0 0 1-1.22 1.066 69.595 69.595 0 0 0-3.757.153c-2.427 5.151-6.388 8.486-11.883 10.004a68.13 68.13 0 0 0-.559 2.285c-.247.755-.738 1.28-1.472 1.574-.975.115-1.957.165-2.946.152-.989.013-1.97-.037-2.945-.152-1.336-.692-1.878-1.792-1.625-3.3-3.558.047-7.113-.02-10.664-.204.26 1.268-.079 2.334-1.016 3.2a5.511 5.511 0 0 1-.914.406c-1.625.067-3.25.067-4.875 0A2.728 2.728 0 0 1 6.5 46.87C2.86 41.52.676 35.63-.05 29.198v-4.265C1.105 17.326 5.337 12.298 12.643 9.85a25.96 25.96 0 0 1 2.438-.508c1.23-3.375 3.633-4.864 7.211-4.469 2.423.51 3.98 1.95 4.672 4.316h2.945c-.017-1.557 0-3.114.05-4.671.13-.455.434-.658.915-.61 3.566.773 5.783 2.94 6.652 6.5 5.679 2.53 9.2 6.83 10.563 12.899.88-.017 1.76 0 2.64.05a2.11 2.11 0 0 1 1.22 1.067Z" fill="#020101"/><path d="M36.816 14.371a34.272 34.272 0 0 1-4.57.05 1.782 1.782 0 0 1-1.219-.862c.277-.16.464-.397.559-.711l.102-7.008c2.311 1.026 3.733 2.787 4.265 5.281.115.876.183 1.756.203 2.64.143.296.363.5.66.61Z" fill="#FD4F7C"/><path d="M23.106 12.745c.957-1.484.788-2.821-.508-4.011-1.757-.882-3.094-.458-4.012 1.27-.33 1.024-.144 1.938.559 2.741a12.093 12.093 0 0 1-2.184-.101c-.812-2.608-.017-4.555 2.387-5.84 2.177-.713 3.988-.188 5.433 1.574.84 1.374.993 2.83.457 4.367h-2.132Z" fill="#FCD962"/><path d="M23.105 12.745h-3.96c-.703-.803-.889-1.717-.56-2.742.918-1.727 2.256-2.15 4.013-1.27 1.296 1.19 1.465 2.528.507 4.012Z" fill="#FFC850"/><path d="M30.012 12.848a9.235 9.235 0 0 1-.102-1.93h-2.64a.696.696 0 0 1-.102.508v-.61h2.844v2.032Z" fill="#7B3246"/><path d="M30.012 12.848c.157.485.495.722 1.015.71.28.467.687.755 1.22.864 1.54.084 3.063.067 4.57-.05a.96.96 0 0 0 .863-.306c.101-.503.186-1.01.254-1.523 4.686 2.493 7.58 6.353 8.683 11.578.22.353.507.624.864.813.088.638.122 1.281.101 1.93-.433.055-.72.293-.863.71-.233 4.48-2.01 8.205-5.332 11.172-.024-.06-.075-.094-.153-.102-1.723.417-3.467.62-5.23.61.175-.895.345-1.792.508-2.691-.102-.762-.508-.999-1.219-.711a1.17 1.17 0 0 0-.355.457c-.055.359-.14.698-.254 1.015-.994-1.868-2.551-2.697-4.672-2.488a4.413 4.413 0 0 0-2.692 1.574c-.017.73-.068 1.44-.152 2.133.017-.78 0-1.558-.05-2.336-.542-.692-1.05-.658-1.524.102-.068.744-.068 1.49 0 2.234.135.22.287.422.457.61-4 .404-7.724-.408-11.172-2.438-.082-.827-.522-1.132-1.32-.914-5.14-4.292-7.256-9.776-6.348-16.453A17.702 17.702 0 0 1 9.902 13c-.023-.04-.057-.057-.101-.05a13.177 13.177 0 0 1 5.18-1.829 6.93 6.93 0 0 0 .203 1.625c-.76-.002-1.116.37-1.067 1.117.085.22.237.373.457.457 4.368.068 8.735.068 13.102 0 .442-.385.51-.825.203-1.32a3.425 3.425 0 0 0-.914-.355c.096-.401.164-.808.203-1.22a.697.697 0 0 0 .102-.507h2.64a9.228 9.228 0 0 0 .102 1.93Z" fill="#FE6890"/><path d="M9.8 12.949c.045-.007.08.01.102.05a17.703 17.703 0 0 0-2.691 6.348C6.303 26.024 8.419 31.51 13.559 35.8a2.771 2.771 0 0 0-.356.508l-.101 9.445a.935.935 0 0 1-.66.559 38.5 38.5 0 0 1-3.962 0 2.593 2.593 0 0 1-.66-.559c-4.173-6.12-6.238-12.891-6.195-20.312.646-5.564 3.372-9.728 8.176-12.492Z" fill="#FD4F7C"/><path d="M38.95 21.583c1.872-.14 3.243.606 4.112 2.234.1.814-.255 1.203-1.066 1.168a2.085 2.085 0 0 0-.355-.254c-.645-1.431-1.677-1.82-3.098-1.168a7.728 7.728 0 0 0-1.016 1.32c-.981.238-1.37-.151-1.168-1.167.548-1.108 1.411-1.819 2.59-2.133Z" fill="#060203"/><path d="M47.48 24.934c.943.096 1.891.13 2.844.101v7.11c-.92.064-1.8-.004-2.64-.204.405-1.5.625-3.023.66-4.57a1.178 1.178 0 0 0-.762-.508c.02-.648-.013-1.29-.102-1.93Z" fill="#FA4E7A"/><path d="M47.684 31.941c.84.2 1.72.268 2.64.204-.895.1-1.81.134-2.742.101-.024-.131.01-.233.102-.305Z" fill="#672032"/><path d="M34.684 37.325a337.164 337.164 0 0 1-1.676 8.023c-.028.502-.282.823-.762.965a46.91 46.91 0 0 1-4.367 0 1.231 1.231 0 0 1-.66-.762 47.051 47.051 0 0 0-.203-4.266c-.474-.3-.914-.266-1.32.102-.14.46-.192.935-.153 1.422-3.149.017-6.297 0-9.445-.05l-1.22-.153v-5.89c3.448 2.029 7.172 2.841 11.173 2.437.54.085.913-.118 1.117-.61.084-.693.135-1.403.152-2.133a4.412 4.412 0 0 1 2.692-1.574c2.121-.209 3.678.62 4.672 2.489Z" fill="#FC4F7C"/><path d="M27.168 38.543c-.204.492-.577.695-1.117.61a4.143 4.143 0 0 1-.457-.61 12.298 12.298 0 0 1 0-2.234c.474-.76.982-.793 1.523-.101.051.777.068 1.556.051 2.335Z" fill="#080304"/><path d="M41.387 38.746a15.906 15.906 0 0 1-5.89 3.352 13.08 13.08 0 0 1 .507-2.844 21.66 21.66 0 0 0 5.23-.61c.078.008.129.041.153.102Z" fill="#FA4E7B"/></g><defs><clipPath id="a"><path fill="#fff" d="M0 0h52v52H0z"/></clipPath></defs></svg>