<svg width="24" height="24" fill="none" xmlns="http://www.w3.org/2000/svg"><g clip-path="url(#a)" fill-rule="evenodd" clip-rule="evenodd" fill="#39F"><path opacity=".975" d="M3.305-.023h17.343c.274.14.454.359.54.656.03 6.14.03 12.281 0 18.422a1.532 1.532 0 0 1-.141.328l-4.43 4.43c-.09.068-.184.123-.281.164H3.305a1.032 1.032 0 0 1-.54-.657c-.03-7.562-.03-15.125 0-22.687.087-.297.266-.516.54-.656ZM4.477 1.71h15v16.266c-1.204-.008-2.407 0-3.61.023a.86.86 0 0 0-.633.586c-.023 1.219-.03 2.437-.023 3.656H4.477V1.711Zm12.468 18c.422-.008.844 0 1.266.023l-1.242 1.243a17.07 17.07 0 0 1-.024-1.266Z"/><path opacity=".94" d="M6.773 4.148c.828-.03 1.18.36 1.055 1.172-.318.55-.764.683-1.336.399-.306-.27-.408-.606-.305-1.008.13-.263.326-.45.586-.563Z"/><path opacity=".968" d="M9.54 4.148c2.5-.007 5 0 7.5.024.59.294.739.74.444 1.336a.888.888 0 0 1-.586.351c-2.421.032-4.843.032-7.265 0-.686-.26-.865-.72-.54-1.382a1.5 1.5 0 0 1 .446-.329Z"/><path opacity=".941" d="M6.82 8.32c.617-.031.976.258 1.078.868-.181.81-.65 1.044-1.406.703-.35-.344-.42-.743-.21-1.195.147-.179.327-.304.538-.375Z"/><path opacity=".967" d="M9.586 8.32c2.469-.008 4.937 0 7.406.024.563.212.759.61.586 1.195a.842.842 0 0 1-.586.492c-2.469.031-4.937.031-7.406 0-.564-.213-.76-.612-.586-1.195a.99.99 0 0 1 .586-.516Z"/><path opacity=".94" d="M6.867 12.492c.884.082 1.173.535.867 1.36-.326.39-.724.476-1.195.257-.376-.306-.477-.688-.305-1.148a.912.912 0 0 1 .633-.469Z"/><path opacity=".968" d="M9.68 12.492c2.406-.008 4.812 0 7.218.024.448.104.698.385.75.843-.008.424-.211.705-.609.844-2.5.031-5 .031-7.5 0-.53-.238-.709-.637-.54-1.195.155-.272.382-.444.68-.516Z"/></g><defs><clipPath id="a"><path fill="#fff" d="M0 0h24v24H0z"/></clipPath></defs></svg>