<svg width="24" height="24" fill="none" xmlns="http://www.w3.org/2000/svg"><g clip-path="url(#a)"><path opacity=".975" fill-rule="evenodd" clip-rule="evenodd" d="M23.977 5.414v15.75a.938.938 0 0 1-.82.563 20.152 20.152 0 0 0-7.196-.961c-1.381.107-2.71.427-3.984.961a13.874 13.874 0 0 0-7.547-.82c-.456.063-.91.14-1.36.234-.765.185-1.53.365-2.297.54-.377-.003-.642-.175-.796-.517V5.415c.116-.217.288-.381.515-.492a15.04 15.04 0 0 1 1.969-.07c-.008-.656 0-1.313.023-1.969a.758.758 0 0 1 .633-.539 11.77 11.77 0 0 1 5.906.75 8.003 8.003 0 0 1 2.954 2.18c1.26-1.444 2.838-2.358 4.734-2.742a12.693 12.693 0 0 1 4.125-.188c.318.054.53.234.633.54.023.655.031 1.312.023 1.968a15.04 15.04 0 0 1 1.969.07c.228.11.4.275.516.492Zm-19.875-1.5a9.557 9.557 0 0 1 4.875 1.008 6.452 6.452 0 0 1 2.132 2.04 710.32 710.32 0 0 1 0 11.53 7.998 7.998 0 0 0-3.164-1.71 12.457 12.457 0 0 0-3.843-.446V3.914Zm14.625 0h1.125v12.422a11.134 11.134 0 0 0-5.672 1.196 7.107 7.107 0 0 0-1.336.96 708.05 708.05 0 0 1 0-11.53c.954-1.428 2.274-2.342 3.96-2.743a18.32 18.32 0 0 1 1.923-.305ZM1.617 6.54h.844c-.008 3.657 0 7.313.023 10.97.15.352.416.54.797.562a10.414 10.414 0 0 1 5.18.68c.296.132.578.288.844.468a20.68 20.68 0 0 0-7.688.54V6.538Zm19.875 0h.844v13.22a20.68 20.68 0 0 0-7.688-.54 8.136 8.136 0 0 1 3.657-1.172c.79-.1 1.579-.093 2.367.024.381-.022.647-.21.797-.563.023-3.656.031-7.312.023-10.969Z" fill="#39F"/></g><defs><clipPath id="a"><path fill="#fff" d="M0 0h24v24H0z"/></clipPath></defs></svg>