<svg width="12" height="13" fill="none" xmlns="http://www.w3.org/2000/svg"><path fill-rule="evenodd" clip-rule="evenodd" d="M6.425 1.424A3.288 3.288 0 0 1 12 3.764a3.294 3.294 0 0 1-.923 2.316l-.007.007-1.645 1.646a3.29 3.29 0 0 1-4.96-.356.55.55 0 0 1 .878-.657 2.194 2.194 0 0 0 3.307.237l1.641-1.643a2.196 2.196 0 0 0-1.562-3.716 2.192 2.192 0 0 0-1.54.613l-.94.936a.548.548 0 1 1-.773-.779l.943-.938.006-.006ZM3.752 4.51a3.287 3.287 0 0 1 3.784 1.113.55.55 0 0 1-.878.657 2.194 2.194 0 0 0-3.308-.237L1.71 7.686a2.196 2.196 0 0 0 1.562 3.716 2.192 2.192 0 0 0 1.539-.613l.934-.934a.548.548 0 1 1 .775.776l-.937.938-.007.007A3.288 3.288 0 0 1 0 9.236 3.294 3.294 0 0 1 .923 6.92l.007-.007 1.645-1.646a3.29 3.29 0 0 1 1.177-.757Z" fill="#39F"/></svg>