<svg width="85" height="28" fill="none" xmlns="http://www.w3.org/2000/svg"><g clip-path="url(#a)"><path d="M77.81 0H7.194l-.768.001c-.215.002-.429.006-.646.01a9.302 9.302 0 0 0-1.406.123 4.519 4.519 0 0 0-3.298 2.399c-.213.42-.361.868-.439 1.332a9.07 9.07 0 0 0-.125 1.402c-.007.214-.008.43-.011.644v16.18c.003.217.004.428.01.645.006.47.048.939.126 1.402.078.464.226.913.44 1.333.212.419.491.8.826 1.13a4.42 4.42 0 0 0 1.136.825c.42.213.87.362 1.335.441.465.077.935.118 1.406.124.217.005.43.008.646.008l.768.001h70.618l.76-.001c.215 0 .434-.003.648-.008.47-.006.94-.047 1.404-.124.466-.08.917-.229 1.34-.441.42-.213.803-.491 1.135-.825a4.47 4.47 0 0 0 .829-1.13c.212-.42.358-.87.434-1.333.079-.464.122-.932.13-1.402.004-.217.004-.428.004-.645.005-.254.005-.507.005-.765V6.676c0-.257 0-.511-.005-.765 0-.215 0-.43-.003-.644a9.433 9.433 0 0 0-.13-1.402 4.623 4.623 0 0 0-.435-1.332 4.533 4.533 0 0 0-1.965-1.96 4.76 4.76 0 0 0-1.34-.439A9.182 9.182 0 0 0 79.22.01l-.647-.009c-.253-.001-.509 0-.761 0Z" fill="#A6A6A6"/><path d="M6.428 27.388c-.214 0-.423-.002-.635-.007a8.928 8.928 0 0 1-1.312-.114 4.138 4.138 0 0 1-1.163-.384 3.795 3.795 0 0 1-.98-.711 3.724 3.724 0 0 1-.717-.978 3.998 3.998 0 0 1-.381-1.16 8.665 8.665 0 0 1-.117-1.313c-.004-.147-.01-.639-.01-.639V5.912s.006-.484.01-.626a8.56 8.56 0 0 1 .116-1.31c.067-.406.196-.798.382-1.164A3.906 3.906 0 0 1 4.479.737 8.86 8.86 0 0 1 5.794.622l.633-.009h72.14l.641.01c.437.004.873.042 1.305.113.408.07.803.198 1.173.383a3.921 3.921 0 0 1 1.695 1.694c.183.364.31.753.376 1.155.072.436.113.878.122 1.32.002.199.002.412.002.624.005.262.005.512.005.764v14.65c0 .255 0 .503-.005.753 0 .227 0 .436-.003.65a8.887 8.887 0 0 1-.12 1.298 4.006 4.006 0 0 1-.38 1.169 3.835 3.835 0 0 1-.712.97c-.287.29-.618.531-.982.716a4.122 4.122 0 0 1-1.171.385 8.82 8.82 0 0 1-1.312.114 26.29 26.29 0 0 1-.63.007l-.761.002-71.383-.002Z" fill="#000"/><path d="M17.887 14.21a3.456 3.456 0 0 1 1.654-2.906 3.553 3.553 0 0 0-2.802-1.51c-1.178-.124-2.321.703-2.922.703-.612 0-1.537-.69-2.533-.67a3.738 3.738 0 0 0-3.14 1.909c-1.357 2.344-.345 5.789.956 7.683.65.928 1.411 1.964 2.406 1.928.974-.04 1.337-.62 2.513-.62 1.164 0 1.505.62 2.52.596 1.045-.017 1.703-.932 2.331-1.868a7.667 7.667 0 0 0 1.066-2.165 3.355 3.355 0 0 1-2.049-3.08ZM15.97 8.547c.57-.682.85-1.559.782-2.443A3.483 3.483 0 0 0 14.5 7.265a3.245 3.245 0 0 0-.803 2.353 2.884 2.884 0 0 0 2.272-1.071Zm14.225 10.45h-3.323l-.798 2.35h-1.407l3.147-8.693h1.462l3.147 8.693h-1.431l-.797-2.35Zm-2.979-1.084h2.634L28.552 14.1h-.037l-1.299 3.813Zm12.004.265c0 1.97-1.057 3.235-2.652 3.235a2.16 2.16 0 0 1-2-1.109h-.03v3.14h-1.304v-8.435h1.262v1.054h.024a2.252 2.252 0 0 1 2.024-1.12c1.613 0 2.676 1.271 2.676 3.235Zm-1.34 0c0-1.283-.666-2.127-1.68-2.127-.997 0-1.667.862-1.667 2.127 0 1.277.67 2.132 1.667 2.132 1.014 0 1.68-.837 1.68-2.132Zm8.335 0c0 1.97-1.057 3.235-2.652 3.235a2.16 2.16 0 0 1-2-1.109h-.03v3.14h-1.305v-8.435h1.263v1.054h.024a2.252 2.252 0 0 1 2.024-1.12c1.613 0 2.676 1.271 2.676 3.235Zm-1.34 0c0-1.283-.666-2.127-1.68-2.127-.997 0-1.667.862-1.667 2.127 0 1.277.67 2.132 1.667 2.132 1.014 0 1.68-.837 1.68-2.132Zm5.963.747c.097.862.937 1.428 2.084 1.428 1.1 0 1.89-.566 1.89-1.343 0-.675-.476-1.079-1.606-1.356l-1.13-.27c-1.6-.386-2.343-1.133-2.343-2.344 0-1.5 1.31-2.53 3.172-2.53 1.841 0 3.104 1.03 3.147 2.53h-1.317c-.08-.868-.798-1.391-1.85-1.391-1.05 0-1.77.53-1.77 1.3 0 .615.46.977 1.584 1.254l.96.235c1.789.422 2.532 1.138 2.532 2.41 0 1.626-1.3 2.644-3.365 2.644-1.934 0-3.239-.995-3.323-2.567h1.335Zm8.168-5.415v1.5h1.209v1.03h-1.209v3.494c0 .542.242.795.773.795.144-.002.287-.012.43-.03v1.024a3.592 3.592 0 0 1-.725.06c-1.287 0-1.788-.482-1.788-1.71V16.04h-.924v-1.03h.924v-1.5h1.31Zm1.909 4.669c0-1.994 1.177-3.247 3.014-3.247 1.842 0 3.015 1.253 3.015 3.247 0 2-1.166 3.247-3.015 3.247-1.848 0-3.014-1.248-3.014-3.247Zm4.7 0c0-1.368-.63-2.175-1.686-2.175-1.057 0-1.685.813-1.685 2.175 0 1.373.628 2.174 1.685 2.174s1.685-.801 1.685-2.174Zm2.405-3.17h1.243v1.078h.03a1.511 1.511 0 0 1 1.53-1.144c.15-.001.3.015.446.048v1.217a1.831 1.831 0 0 0-.586-.079 1.319 1.319 0 0 0-1.302.9c-.06.18-.079.37-.057.558v3.76h-1.305v-6.338Zm9.264 4.477c-.175 1.15-1.3 1.94-2.737 1.94-1.848 0-2.996-1.235-2.996-3.217 0-1.988 1.154-3.277 2.942-3.277 1.758 0 2.864 1.204 2.864 3.126v.445h-4.49v.079a1.647 1.647 0 0 0 1.025 1.674c.217.088.45.13.686.121a1.44 1.44 0 0 0 1.467-.891h1.239Zm-4.41-1.892h3.177a1.522 1.522 0 0 0-.944-1.494 1.534 1.534 0 0 0-.614-.114 1.614 1.614 0 0 0-1.497.99 1.598 1.598 0 0 0-.122.618ZM26.289 7.878h.56a.705.705 0 0 0 .79-.666c0-.385-.29-.634-.784-.634a.749.749 0 0 0-.845.654h-.615a1.306 1.306 0 0 1 .947-1.18c.173-.05.354-.064.533-.041.825 0 1.405.46 1.405 1.123a.969.969 0 0 1-.76.955v.05a.977.977 0 0 1 .931 1.01 1.392 1.392 0 0 1-1.013 1.2c-.179.05-.366.064-.551.041a1.397 1.397 0 0 1-1.409-.707 1.385 1.385 0 0 1-.165-.529h.625c.038.4.406.658.949.658.543 0 .897-.29.897-.698 0-.414-.334-.669-.917-.669h-.578v-.567Zm2.871 1.52c0-.568.425-.895 1.176-.941l.857-.05v-.272c0-.333-.22-.52-.648-.52-.348 0-.589.127-.658.35h-.604c.063-.542.575-.889 1.292-.889.792 0 1.24.394 1.24 1.06v2.153h-.602v-.443h-.05a1.063 1.063 0 0 1-.949.495.958.958 0 0 1-.97-.557.951.951 0 0 1-.083-.386Zm2.032-.27v-.263l-.771.049c-.436.03-.633.177-.633.455 0 .283.247.448.586.448a.747.747 0 0 0 .819-.689ZM33.47 7.66v2.629h-.624V7.137h2.081v.523H33.47Zm5.238 1.051c0 1.002-.508 1.63-1.306 1.63a1.033 1.033 0 0 1-.973-.53h-.05v1.526h-.623v-4.2h.6v.52h.047a1.096 1.096 0 0 1 .993-.573c.804 0 1.312.625 1.312 1.627Zm-.642 0c0-.666-.316-1.068-.845-1.068-.525 0-.853.411-.853 1.071 0 .657.328 1.068.85 1.068.532 0 .848-.402.848-1.07Zm1.472 2.707v-.536c.068.009.136.013.204.012a.542.542 0 0 0 .572-.44l.046-.154-1.144-3.163h.68l.792 2.503h.05l.79-2.503h.66l-1.178 3.282c-.27.767-.569 1.013-1.213 1.013-.052 0-.2-.006-.258-.014Zm3.137-2.023h.62c.062.278.323.423.688.423.416 0 .67-.183.67-.466 0-.304-.228-.449-.67-.449h-.473V8.42h.465c.377 0 .57-.145.57-.408 0-.232-.187-.409-.57-.409-.349 0-.604.148-.644.397h-.601a1.105 1.105 0 0 1 1.245-.923c.752 0 1.181.338 1.181.871a.647.647 0 0 1-.499.645v.05a.71.71 0 0 1 .619.709c0 .599-.512.995-1.293.995-.69 0-1.25-.315-1.308-.952Zm3.499.894V7.137h.618v2.168h.05l1.456-2.168h.619v3.152h-.619v-2.18h-.046l-1.46 2.18h-.618Zm6.149-2.629h-.995v2.629h-.625V7.66h-.995v-.523h2.615v.523Zm3.36 1.778a1.281 1.281 0 0 1-1.37.912 1.44 1.44 0 0 1-1.411-1.013 1.428 1.428 0 0 1-.05-.614 1.45 1.45 0 0 1 .852-1.52c.19-.086.397-.129.606-.127.88 0 1.411.6 1.411 1.59v.216h-2.232v.035a.83.83 0 0 0 .503.836.837.837 0 0 0 .339.067.76.76 0 0 0 .751-.382h.601ZM53.49 8.422h1.596a.757.757 0 0 0-.467-.758.765.765 0 0 0-.31-.058.81.81 0 0 0-.819.816Zm4.838-1.285h1.425c.619 0 .981.312.981.801a.677.677 0 0 1-.534.666v.05a.722.722 0 0 1 .676.726c0 .55-.415.909-1.108.909h-1.44V7.137Zm.618.477v.816h.619c.377 0 .557-.144.557-.41 0-.247-.157-.406-.488-.406h-.688Zm0 1.274v.923h.74c.369 0 .566-.162.566-.46 0-.316-.223-.463-.644-.463h-.661Z" fill="#fff"/></g><defs><clipPath id="a"><path fill="#fff" transform="translate(.5)" d="M0 0h84v28H0z"/></clipPath></defs></svg>