<svg width="16" height="17" fill="none" xmlns="http://www.w3.org/2000/svg"><path opacity=".982" fill-rule="evenodd" clip-rule="evenodd" d="M14.422 1.64c.345-.057.543.084.594.422a.717.717 0 0 1-.11.297L7.22 14.734c-.46.572-1.038.734-1.734.485l-.313-.188-3.984-4.86c-.4-.764-.28-1.436.36-2.015a1.63 1.63 0 0 1 1.405-.187c.156.067.302.15.438.25l2.625 2.406c.136.1.272.1.406 0 2.621-2.944 5.23-5.897 7.828-8.86.063-.037.12-.079.172-.125Z" fill="url(#a)"/><defs><linearGradient id="a" x1="7.987" y1="1.628" x2="7.987" y2="15.332" gradientUnits="userSpaceOnUse"><stop stop-color="#39F"/><stop offset="1" stop-color="#8E88FF"/></linearGradient></defs></svg>