<svg width="24" height="24" fill="none" xmlns="http://www.w3.org/2000/svg"><g clip-path="url(#a)"><path opacity=".978" fill-rule="evenodd" clip-rule="evenodd" d="M11.32-.023h1.313c2.053.404 3.342 1.622 3.867 3.656.065.748.088 1.498.07 2.25a42 42 0 0 1 3.328.07c.281.125.46.336.54.633.507 5.467 1 10.936 1.476 16.406.042.463-.146.792-.563.985H2.602c-.416-.192-.603-.52-.562-.985.48-5.485.972-10.97 1.477-16.453a.997.997 0 0 1 .539-.586 41.998 41.998 0 0 1 3.328-.07c-.26-1.648.122-3.116 1.148-4.406a5.01 5.01 0 0 1 2.79-1.5Zm.422 1.734c1.575.025 2.583.79 3.024 2.297.062.623.085 1.248.07 1.875H9.117c-.015-.627.008-1.252.07-1.875.36-1.32 1.212-2.087 2.555-2.297ZM5.18 7.664h2.203a13.84 13.84 0 0 0 .07 1.922c.325.48.755.598 1.29.351.118-.103.22-.22.304-.351a13.84 13.84 0 0 0 .07-1.922h5.719a13.84 13.84 0 0 0 .07 1.922c.325.48.755.598 1.29.351.118-.103.22-.22.304-.351a13.87 13.87 0 0 0 .07-1.922h2.203c.427 4.86.864 9.72 1.313 14.578H3.867c.443-4.858.88-9.718 1.313-14.578Z" fill="#39F"/></g><defs><clipPath id="a"><path fill="#fff" d="M0 0h24v24H0z"/></clipPath></defs></svg>