<svg width="24" height="24" fill="none" xmlns="http://www.w3.org/2000/svg"><path opacity=".971" fill-rule="evenodd" clip-rule="evenodd" d="M11.79 2.086c1.031-.026 1.883.349 2.554 1.125 2.711 4.86 5.399 9.735 8.062 14.625.477 1.43.14 2.626-1.008 3.586-.45.317-.95.504-1.5.563-5.28.031-10.562.031-15.843 0-1.693-.287-2.6-1.287-2.72-3 .003-.396.073-.779.212-1.149 2.664-4.89 5.351-9.765 8.062-14.625a3.177 3.177 0 0 1 2.18-1.125Zm0 2.063c.381-.027.701.098.96.375 2.606 4.728 5.2 9.462 7.781 14.203.105.613-.137 1.011-.726 1.195-5.219.031-10.438.031-15.657 0-.776-.328-.955-.867-.539-1.617 2.497-4.508 4.981-9.024 7.454-13.547a1.09 1.09 0 0 1 .726-.61Z" fill="#FDAD46"/><path opacity=".961" fill-rule="evenodd" clip-rule="evenodd" d="M11.79 7.945c.628-.034 1.026.247 1.194.844a99.02 99.02 0 0 1 0 4.36c-.184.652-.614.925-1.289.82-.407-.126-.649-.4-.726-.82a101.204 101.204 0 0 1 0-4.36c.094-.462.368-.743.82-.844Z" fill="#FDAD46"/><path opacity=".946" fill-rule="evenodd" clip-rule="evenodd" d="M11.695 15.96c1.052-.018 1.45.482 1.196 1.5-.403.55-.91.666-1.524.352-.47-.433-.541-.925-.21-1.477.162-.156.342-.281.538-.375Z" fill="#FDAD46"/></svg>