<svg width="24" height="24" fill="none" xmlns="http://www.w3.org/2000/svg"><g clip-path="url(#a)" fill-rule="evenodd" clip-rule="evenodd" fill="#39F"><path opacity=".975" d="M11.648-.023h.657l9.422 3.96c.17.129.286.293.351.493.031 2.047.031 4.093 0 6.14-.582 5.577-3.277 9.772-8.086 12.586-.56.289-1.123.562-1.687.82h-.657c-5.058-2.207-8.222-6.004-9.492-11.39a17.368 17.368 0 0 1-.281-2.016 201.116 201.116 0 0 1 0-6.14.926.926 0 0 1 .352-.492C5.37 2.615 8.512 1.293 11.648-.023Zm.188 2.015c.26.027.51.097.75.211a804.448 804.448 0 0 0 7.594 3.164 62.812 62.812 0 0 1-.024 5.11c-.548 4.904-2.946 8.584-7.195 11.039a6.947 6.947 0 0 1-.984.445c-3.442-1.558-5.871-4.09-7.29-7.594a14.081 14.081 0 0 1-.89-3.89 62.812 62.812 0 0 1-.024-5.11C6.47 4.25 9.157 3.125 11.836 1.992Z"/><path opacity=".958" d="M15.54 8.18c.911.124 1.216.624.913 1.5a355.47 355.47 0 0 1-4.851 4.898c-.44.28-.877.28-1.313 0l-2.695-2.695c-.282-.438-.282-.875 0-1.313.443-.346.904-.37 1.383-.07.649.657 1.305 1.305 1.968 1.945a497.337 497.337 0 0 0 4.078-4.054c.167-.1.339-.17.516-.211Z"/></g><defs><clipPath id="a"><path fill="#fff" d="M0 0h24v24H0z"/></clipPath></defs></svg>