<svg width="24" height="24" fill="none" xmlns="http://www.w3.org/2000/svg"><path opacity=".998" fill-rule="evenodd" clip-rule="evenodd" d="M11.414 1.945c4.04-.047 7.125 1.625 9.258 5.016 1.82 3.448 1.773 6.87-.14 10.266-1.874 2.886-4.538 4.472-7.993 4.757-4.04.07-7.126-1.594-9.258-4.992-1.82-3.448-1.773-6.87.14-10.265 1.884-2.884 4.548-4.478 7.993-4.782Z" fill="#2196F3"/><path fill-rule="evenodd" clip-rule="evenodd" d="M11.508 5.977c2.034-.067 3.338.87 3.914 2.812.205 1.565-.334 2.792-1.617 3.68-.255.143-.52.26-.797.352a31.695 31.695 0 0 1-.117 1.547c-.355.603-.847.751-1.477.445a1.216 1.216 0 0 1-.351-.445 10.776 10.776 0 0 1-.047-1.97c.28-.873.865-1.427 1.757-1.663.527-.39.754-.914.68-1.57-.283-.877-.885-1.26-1.805-1.149-.601.164-.984.547-1.148 1.148.033.905-.396 1.334-1.29 1.29a.937.937 0 0 1-.679-.68c-.064-1.764.725-2.975 2.367-3.633.211-.049.414-.103.61-.164Z" fill="#FDFEFE"/><path fill-rule="evenodd" clip-rule="evenodd" d="M11.742 15.961c.862-.005 1.26.417 1.195 1.266-.21.585-.624.828-1.242.726-.655-.31-.85-.802-.586-1.476.155-.245.366-.417.633-.516Z" fill="#FCFDFE"/></svg>