<svg width="48" height="56" viewBox="0 0 48 56" fill="none" xmlns="http://www.w3.org/2000/svg">
<path d="M18.5881 10.872L20.1941 15.332C21.0753 17.777 22.485 19.9975 24.3228 21.8353C26.1605 23.673 28.381 25.0827 30.8261 25.964L35.2861 27.57C35.3741 27.6023 35.4501 27.6608 35.5039 27.7377C35.5576 27.8146 35.5864 27.9062 35.5864 28C35.5864 28.0938 35.5576 28.1853 35.5039 28.2622C35.4501 28.3391 35.3741 28.3977 35.2861 28.43L30.8261 30.036C28.381 30.9172 26.1605 32.3269 24.3228 34.1647C22.485 36.0024 21.0753 38.2229 20.1941 40.668L18.5881 45.128C18.5558 45.216 18.4972 45.2921 18.4203 45.3458C18.3434 45.3995 18.2519 45.4283 18.1581 45.4283C18.0643 45.4283 17.9727 45.3995 17.8958 45.3458C17.8189 45.2921 17.7603 45.216 17.7281 45.128L16.1221 40.668C15.2408 38.2229 13.8311 36.0024 11.9933 34.1647C10.1556 32.3269 7.93507 30.9172 5.49005 30.036L1.03005 28.43C0.941986 28.3977 0.865958 28.3391 0.812248 28.2622C0.758538 28.1853 0.729736 28.0938 0.729736 28C0.729736 27.9062 0.758538 27.8146 0.812248 27.7377C0.865958 27.6608 0.941986 27.6023 1.03005 27.57L5.49005 25.964C7.93507 25.0827 10.1556 23.673 11.9933 21.8353C13.8311 19.9975 15.2408 17.777 16.1221 15.332L17.7281 10.872C17.7595 10.783 17.8177 10.706 17.8947 10.6515C17.9717 10.597 18.0637 10.5677 18.1581 10.5677C18.2524 10.5677 18.3444 10.597 18.4214 10.6515C18.4984 10.706 18.5567 10.783 18.5881 10.872ZM38.6641 0.15397L39.4781 2.41197C39.9247 3.64991 40.6387 4.77419 41.5693 5.70477C42.4998 6.63535 43.6241 7.34936 44.8621 7.79597L47.1201 8.60997C47.1648 8.62626 47.2034 8.65591 47.2307 8.69491C47.258 8.73391 47.2727 8.78036 47.2727 8.82797C47.2727 8.87558 47.258 8.92203 47.2307 8.96103C47.2034 9.00003 47.1648 9.02968 47.1201 9.04597L44.8621 9.85997C43.6241 10.3066 42.4998 11.0206 41.5693 11.9512C40.6387 12.8818 39.9247 14.006 39.4781 15.244L38.6641 17.502C38.6478 17.5467 38.6181 17.5853 38.5791 17.6126C38.5401 17.64 38.4937 17.6546 38.4461 17.6546C38.3984 17.6546 38.352 17.64 38.313 17.6126C38.274 17.5853 38.2443 17.5467 38.2281 17.502L37.4141 15.244C36.9674 14.006 36.2534 12.8818 35.3228 11.9512C34.3923 11.0206 33.268 10.3066 32.0301 9.85997L29.7721 9.04597C29.7273 9.02968 29.6887 9.00003 29.6614 8.96103C29.6341 8.92203 29.6194 8.87558 29.6194 8.82797C29.6194 8.78036 29.6341 8.73391 29.6614 8.69491C29.6887 8.65591 29.7273 8.62626 29.7721 8.60997L32.0301 7.79597C33.268 7.34936 34.3923 6.63535 35.3228 5.70477C36.2534 4.77419 36.9674 3.64991 37.4141 2.41197L38.2281 0.15397C38.2443 0.109236 38.274 0.0705964 38.313 0.0432925C38.352 0.0159886 38.3984 0.00134277 38.4461 0.00134277C38.4937 0.00134277 38.5401 0.0159886 38.5791 0.0432925C38.6181 0.0705964 38.6478 0.109236 38.6641 0.15397ZM38.6641 38.5L39.4781 40.758C39.9247 41.9959 40.6387 43.1202 41.5693 44.0508C42.4998 44.9813 43.6241 45.6954 44.8621 46.142L47.1201 46.956C47.1648 46.9723 47.2034 47.0019 47.2307 47.0409C47.258 47.0799 47.2727 47.1264 47.2727 47.174C47.2727 47.2216 47.258 47.268 47.2307 47.307C47.2034 47.346 47.1648 47.3757 47.1201 47.392L44.8621 48.206C43.6241 48.6526 42.4998 49.3666 41.5693 50.2972C40.6387 51.2278 39.9247 52.352 39.4781 53.59L38.6641 55.848C38.6478 55.8927 38.6181 55.9313 38.5791 55.9586C38.5401 55.986 38.4937 56.0006 38.4461 56.0006C38.3984 56.0006 38.352 55.986 38.313 55.9586C38.274 55.9313 38.2443 55.8927 38.2281 55.848L37.4141 53.59C36.9674 52.352 36.2534 51.2278 35.3228 50.2972C34.3923 49.3666 33.268 48.6526 32.0301 48.206L29.7721 47.392C29.7273 47.3757 29.6887 47.346 29.6614 47.307C29.6341 47.268 29.6194 47.2216 29.6194 47.174C29.6194 47.1264 29.6341 47.0799 29.6614 47.0409C29.6887 47.0019 29.7273 46.9723 29.7721 46.956L32.0301 46.142C33.268 45.6954 34.3923 44.9813 35.3228 44.0508C36.2534 43.1202 36.9674 41.9959 37.4141 40.758L38.2281 38.5C38.3021 38.296 38.5921 38.296 38.6641 38.5Z" fill="white"/>
</svg>
