<svg width="64" height="64" viewBox="0 0 64 64" fill="none" xmlns="http://www.w3.org/2000/svg">
<path d="M22.1538 0H7.38462C3.30621 0 0 3.30621 0 7.38462V22.1538C0 26.2323 3.30621 29.5385 7.38462 29.5385H22.1538C26.2323 29.5385 29.5385 26.2323 29.5385 22.1538V7.38462C29.5385 3.30621 26.2323 0 22.1538 0Z" fill="#0049E8"/>
<path d="M56.6153 0H41.846C37.7676 0 34.4614 3.30621 34.4614 7.38462V22.1538C34.4614 26.2323 37.7676 29.5385 41.846 29.5385H56.6153C60.6937 29.5385 63.9999 26.2323 63.9999 22.1538V7.38462C63.9999 3.30621 60.6937 0 56.6153 0Z" fill="#0049E8"/>
<path d="M22.1538 34.4615H7.38462C3.30621 34.4615 0 37.7678 0 41.8462V56.6154C0 60.6938 3.30621 64 7.38462 64H22.1538C26.2323 64 29.5385 60.6938 29.5385 56.6154V41.8462C29.5385 37.7678 26.2323 34.4615 22.1538 34.4615Z" fill="#0049E8"/>
<path d="M49.2307 64C57.3875 64 63.9999 57.3876 63.9999 49.2308C63.9999 41.074 57.3875 34.4615 49.2307 34.4615C41.0738 34.4615 34.4614 41.074 34.4614 49.2308C34.4614 57.3876 41.0738 64 49.2307 64Z" fill="#0049E8"/>
</svg>
