<svg width="85" height="28" viewBox="0 0 85 28" fill="none" xmlns="http://www.w3.org/2000/svg">
<g clip-path="url(#clip0_473_1556)">
<path d="M77.8108 9.1e-05H7.19301C6.9356 9.1e-05 6.68128 9.1e-05 6.42455 0.001491C6.20964 0.002891 5.99645 0.006958 5.77948 0.010381C5.30812 0.0159123 4.83787 0.0572644 4.37281 0.134078C3.90841 0.212564 3.45855 0.360532 3.03846 0.572978C2.61888 0.787221 2.2355 1.06561 1.90222 1.39804C1.5672 1.72954 1.28793 2.1127 1.07516 2.5328C0.861793 2.95207 0.713847 3.40135 0.636427 3.86513C0.558271 4.32832 0.516214 4.79686 0.510635 5.26653C0.504121 5.48115 0.503433 5.69648 0.5 5.91113V22.0911C0.503433 22.3085 0.504121 22.519 0.510635 22.7364C0.516216 23.2061 0.558272 23.6746 0.636427 24.1378C0.713633 24.6018 0.861588 25.0514 1.07516 25.4708C1.28783 25.8895 1.56714 26.2711 1.90222 26.6008C2.23424 26.9347 2.61787 27.2133 3.03846 27.4259C3.45855 27.6389 3.90836 27.7877 4.37281 27.8674C4.83795 27.9436 5.30815 27.985 5.77948 27.9912C5.99645 27.996 6.20964 27.9987 6.42455 27.9987C6.68127 28.0001 6.93562 28.0001 7.19301 28.0001H77.8108C78.063 28.0001 78.3194 28.0001 78.5717 27.9987C78.7856 27.9987 79.005 27.996 79.2188 27.9912C79.6893 27.9853 80.1586 27.944 80.6228 27.8674C81.0887 27.7872 81.5401 27.6384 81.9622 27.4259C82.3825 27.2132 82.7657 26.9346 83.0975 26.6008C83.4317 26.2698 83.7116 25.8885 83.9269 25.4708C84.1389 25.0511 84.2854 24.6016 84.3615 24.1378C84.4398 23.6745 84.4833 23.2061 84.4918 22.7364C84.4945 22.519 84.4945 22.3085 84.4945 22.0911C84.5 21.8368 84.5 21.5839 84.5 21.3255V6.67538C84.5 6.41903 84.5 6.16474 84.4945 5.91113C84.4945 5.69648 84.4945 5.48115 84.4918 5.2665C84.4833 4.79679 84.4398 4.32836 84.3615 3.8651C84.2852 3.40159 84.1387 2.95234 83.9269 2.53277C83.4936 1.69073 82.8065 1.00531 81.9622 0.572915C81.5401 0.360988 81.0887 0.213059 80.6228 0.134015C80.1587 0.056863 79.6893 0.0154964 79.2188 0.010283C79.005 0.006867 78.7856 0.002765 78.5717 0.0014C78.3194 0 78.063 9.1e-05 77.8108 9.1e-05Z" fill="#A6A6A6"/>
<path d="M6.42795 27.3883C6.21407 27.3883 6.00536 27.3856 5.79317 27.3808C5.35358 27.3751 4.91503 27.3369 4.4811 27.2666C4.07648 27.1971 3.68451 27.0679 3.31812 26.8831C2.95509 26.6998 2.62398 26.4596 2.33748 26.1715C2.04682 25.8868 1.80484 25.5566 1.62111 25.1939C1.43537 24.8289 1.30682 24.4377 1.23995 24.0339C1.16773 23.6 1.12866 23.1612 1.12307 22.7214C1.11862 22.5738 1.11279 22.0822 1.11279 22.0822V5.91182C1.11279 5.91182 1.119 5.42783 1.1231 5.28564C1.12846 4.84652 1.1673 4.40844 1.2393 3.97519C1.3063 3.57026 1.43494 3.17791 1.62079 2.81172C1.80384 2.44934 2.04448 2.11888 2.33338 1.83316C2.62196 1.54472 2.95413 1.3032 3.31778 1.11743C3.68332 0.933247 4.07455 0.804894 4.47835 0.73667C4.91371 0.665667 5.35379 0.627279 5.79489 0.621828L6.42829 0.613281H78.5682L79.2092 0.622171C79.6463 0.627351 80.0824 0.665396 80.5137 0.735984C80.9216 0.805064 81.3169 0.934312 81.6866 1.11948C82.4152 1.49387 83.0079 2.0862 83.3819 2.81343C83.5648 3.17709 83.6914 3.56624 83.7576 3.96767C83.8304 4.40447 83.8712 4.846 83.8796 5.28872C83.8816 5.48696 83.8816 5.6999 83.8816 5.91182C83.8872 6.17432 83.8872 6.42417 83.8872 6.67607V21.3261C83.8872 21.5805 83.8872 21.8286 83.8816 22.0788C83.8816 22.3064 83.8816 22.515 83.8789 22.7296C83.8707 23.1644 83.8306 23.598 83.7589 24.027C83.6934 24.4338 83.5656 24.828 83.3798 25.196C83.1948 25.5547 82.9542 25.8821 82.6669 26.166C82.3802 26.4557 82.0485 26.6973 81.6846 26.8818C81.3159 27.068 80.9212 27.1977 80.5137 27.2666C80.0798 27.3373 79.6412 27.3755 79.2016 27.3808C78.996 27.3856 78.7807 27.3883 78.5717 27.3883L77.8107 27.3897L6.42795 27.3883Z" fill="black"/>
<path d="M17.887 14.2106C17.8945 13.6264 18.0501 13.0535 18.3394 12.5453C18.6286 12.0372 19.042 11.6102 19.5412 11.3042C19.2241 10.8526 18.8057 10.4809 18.3194 10.2187C17.8331 9.95654 17.2921 9.81104 16.7395 9.7938C15.5608 9.67042 14.418 10.4972 13.8173 10.4972C13.205 10.4972 12.2802 9.80605 11.2843 9.82649C10.6401 9.84724 10.0123 10.034 9.46204 10.3687C8.91178 10.7033 8.45784 11.1744 8.14444 11.736C6.78683 14.0799 7.79948 17.5246 9.09995 19.4193C9.7506 20.347 10.511 21.3833 11.506 21.3466C12.4797 21.3063 12.8433 20.7274 14.0186 20.7274C15.183 20.7274 15.5242 21.3466 16.5394 21.3232C17.5842 21.3063 18.2425 20.3913 18.8703 19.4548C19.3378 18.7937 19.6975 18.0631 19.9362 17.29C19.3292 17.034 18.8112 16.6055 18.4468 16.0579C18.0824 15.5103 17.8877 14.8678 17.887 14.2106Z" fill="white"/>
<path d="M15.9694 8.54695C16.5391 7.865 16.8197 6.98848 16.7518 6.10352C15.8814 6.19467 15.0775 6.60946 14.5001 7.26524C14.2179 7.58561 14.0017 7.95831 13.8639 8.36205C13.7261 8.76579 13.6695 9.19265 13.6973 9.61822C14.1326 9.62269 14.5633 9.5286 14.9568 9.34304C15.3504 9.15747 15.6966 8.88528 15.9694 8.54695Z" fill="white"/>
<path d="M30.1947 18.9974H26.872L26.0741 21.3469H24.6667L27.8139 12.6543H29.2761L32.4233 21.3469H30.992L30.1947 18.9974ZM27.2162 17.9132H29.8499L28.5516 14.1001H28.5152L27.2162 17.9132Z" fill="white"/>
<path d="M39.2202 18.178C39.2202 20.1475 38.1632 21.4128 36.568 21.4128C36.1639 21.4339 35.762 21.341 35.4084 21.145C35.0547 20.9489 34.7636 20.6574 34.5684 20.304H34.5382V23.4431H33.2336V15.0089H34.4964V16.063H34.5204C34.7246 15.7113 35.0207 15.4213 35.377 15.224C35.7333 15.0267 36.1366 14.9295 36.544 14.9426C38.157 14.9426 39.2202 16.2141 39.2202 18.178ZM37.8794 18.178C37.8794 16.8949 37.2144 16.0514 36.1999 16.0514C35.2031 16.0514 34.5327 16.9127 34.5327 18.178C34.5327 19.455 35.2031 20.3102 36.1999 20.3102C37.2144 20.3102 37.8794 19.4728 37.8794 18.178Z" fill="white"/>
<path d="M46.2151 18.178C46.2151 20.1475 45.1581 21.4128 43.5629 21.4128C43.1588 21.4339 42.7569 21.341 42.4033 21.1449C42.0496 20.9489 41.7585 20.6574 41.5632 20.304H41.533V23.4431H40.2285V15.0089H41.4912V16.063H41.5152C41.7195 15.7113 42.0155 15.4213 42.3718 15.224C42.7282 15.0267 43.1315 14.9295 43.5389 14.9426C45.1519 14.9426 46.2151 16.2141 46.2151 18.178ZM44.8743 18.178C44.8743 16.8949 44.2093 16.0514 43.1947 16.0514C42.198 16.0514 41.5276 16.9127 41.5276 18.178C41.5276 19.455 42.198 20.3102 43.1947 20.3102C44.2093 20.3102 44.8743 19.4728 44.8743 18.178Z" fill="white"/>
<path d="M50.8383 18.9253C50.935 19.7873 51.7748 20.3533 52.9223 20.3533C54.0219 20.3533 54.8129 19.7873 54.8129 19.0101C54.8129 18.3354 54.3358 17.9314 53.2061 17.6545L52.0764 17.3831C50.4757 16.9976 49.7326 16.2511 49.7326 15.0397C49.7326 13.5399 51.0433 12.5098 52.9045 12.5098C54.7464 12.5098 56.0092 13.5399 56.0517 15.0397H54.7348C54.6559 14.1723 53.9368 13.6486 52.8859 13.6486C51.835 13.6486 51.1159 14.1784 51.1159 14.9495C51.1159 15.5641 51.5752 15.9257 52.6988 16.2025L53.6592 16.4377C55.4477 16.8595 56.1908 17.5759 56.1908 18.8473C56.1908 20.4736 54.8917 21.4922 52.8256 21.4922C50.8925 21.4922 49.5872 20.4975 49.5029 18.9253L50.8383 18.9253Z" fill="white"/>
<path d="M59.0063 13.5098V15.0096H60.2148V16.0397H59.0063V19.5336C59.0063 20.0764 59.2482 20.3293 59.7795 20.3293C59.923 20.3268 60.0662 20.3168 60.2086 20.2992V21.3232C59.9698 21.3677 59.727 21.3879 59.4841 21.3834C58.1974 21.3834 57.6956 20.9014 57.6956 19.6723V16.0397H56.7715V15.0096H57.6955V13.5098H59.0063Z" fill="white"/>
<path d="M60.9146 18.1787C60.9146 16.1847 62.0923 14.9316 63.9288 14.9316C65.7714 14.9316 66.9436 16.1846 66.9436 18.1787C66.9436 20.1782 65.7776 21.4258 63.9288 21.4258C62.0806 21.4258 60.9146 20.1782 60.9146 18.1787ZM65.6144 18.1787C65.6144 16.8108 64.9858 16.0035 63.9287 16.0035C62.8717 16.0035 62.2438 16.817 62.2438 18.1787C62.2438 19.552 62.8717 20.3532 63.9287 20.3532C64.9858 20.3532 65.6144 19.552 65.6144 18.1787Z" fill="white"/>
<path d="M68.0193 15.0088H69.2635V16.0875H69.2937C69.3779 15.7506 69.5758 15.4529 69.8542 15.2444C70.1326 15.0359 70.4745 14.9293 70.8224 14.9425C70.9727 14.942 71.1226 14.9583 71.2693 14.991V16.2078C71.0795 16.15 70.8816 16.1235 70.6832 16.1292C70.4937 16.1216 70.3047 16.1549 70.1294 16.2269C69.954 16.2989 69.7963 16.4079 69.6672 16.5465C69.538 16.685 69.4405 16.8497 69.3812 17.0294C69.3219 17.2091 69.3024 17.3994 69.3238 17.5873V21.3464H68.0193L68.0193 15.0088Z" fill="white"/>
<path d="M77.284 19.4857C77.1085 20.6362 75.9849 21.4258 74.5474 21.4258C72.6986 21.4258 71.551 20.1905 71.551 18.2088C71.551 16.2209 72.7047 14.9316 74.4926 14.9316C76.2509 14.9316 77.3566 16.1361 77.3566 18.0577V18.5034H72.8679V18.582C72.8472 18.8153 72.8765 19.0502 72.9538 19.2713C73.0311 19.4924 73.1548 19.6946 73.3165 19.8643C73.4782 20.0341 73.6743 20.1677 73.8917 20.2561C74.1091 20.3445 74.3429 20.3858 74.5776 20.3771C74.8858 20.4059 75.1952 20.3348 75.4596 20.1741C75.7241 20.0135 75.9295 19.7721 76.0453 19.4857L77.284 19.4857ZM72.8741 17.5942H76.0514C76.0631 17.3845 76.0312 17.1747 75.9578 16.9778C75.8843 16.781 75.7708 16.6014 75.6244 16.4503C75.478 16.2993 75.3019 16.1801 75.1072 16.1001C74.9124 16.0202 74.7031 15.9812 74.4926 15.9857C74.2801 15.9845 74.0695 16.0252 73.873 16.1055C73.6764 16.1858 73.4977 16.3042 73.3472 16.4537C73.1968 16.6033 73.0775 16.781 72.9963 16.9768C72.915 17.1725 72.8735 17.3824 72.8741 17.5942Z" fill="white"/>
<path d="M26.289 7.87815H26.849C26.9454 7.89013 27.0433 7.88205 27.1364 7.85444C27.2295 7.82683 27.3159 7.78028 27.3901 7.71773C27.4643 7.65518 27.5247 7.57798 27.5675 7.49099C27.6103 7.40401 27.6345 7.30913 27.6387 7.21234C27.6387 6.82713 27.3481 6.5783 26.8552 6.5783C26.7564 6.56454 26.6559 6.57065 26.5595 6.59628C26.4631 6.6219 26.3729 6.66652 26.2941 6.7275C26.2153 6.78849 26.1496 6.86459 26.1008 6.95133C26.052 7.03806 26.0211 7.13367 26.01 7.2325H25.395C25.4056 7.05309 25.4531 6.87778 25.5346 6.71747C25.6161 6.55716 25.7298 6.41529 25.8686 6.3007C26.0074 6.18611 26.1684 6.10124 26.3416 6.05139C26.5147 6.00153 26.6963 5.98776 26.8751 6.01092C27.6997 6.01092 28.2804 6.47131 28.2804 7.13406C28.2823 7.35609 28.2078 7.57206 28.0693 7.74592C27.9309 7.91978 27.7368 8.04101 27.5195 8.08939V8.1386C27.7771 8.15 28.0197 8.26264 28.1943 8.4519C28.3688 8.64117 28.4612 8.89166 28.4511 9.14861C28.432 9.33334 28.3762 9.51241 28.2868 9.67533C28.1974 9.83825 28.0763 9.98174 27.9306 10.0974C27.785 10.213 27.6176 10.2985 27.4383 10.3488C27.2591 10.3991 27.0715 10.4133 26.8867 10.3904C26.7015 10.4155 26.5132 10.4033 26.3328 10.3543C26.1525 10.3053 25.9839 10.2207 25.8371 10.1053C25.6903 9.98998 25.5683 9.84635 25.4783 9.68298C25.3883 9.51962 25.3323 9.33986 25.3135 9.15443H25.938C25.9757 9.55399 26.3438 9.81173 26.8867 9.81173C27.4296 9.81173 27.7841 9.52223 27.7841 9.11412C27.7841 8.70021 27.4502 8.44522 26.8668 8.44522H26.289V7.87815Z" fill="white"/>
<path d="M29.1606 9.39765C29.1606 8.83027 29.585 8.50317 30.3363 8.45668L31.1925 8.40747V8.1354C31.1925 7.80249 30.9725 7.6145 30.5454 7.6145C30.1971 7.6145 29.9565 7.74199 29.8866 7.96484H29.2827C29.3464 7.42344 29.8578 7.07617 30.5749 7.07617C31.3673 7.07617 31.8143 7.46957 31.8143 8.1354V10.2891H31.2131V9.84609H31.1637C31.0635 10.005 30.9229 10.1345 30.7561 10.2215C30.5893 10.3084 30.4023 10.3497 30.2143 10.341C30.0816 10.3548 29.9475 10.3406 29.8206 10.2996C29.6937 10.2585 29.5768 10.1913 29.4776 10.1024C29.3783 10.0136 29.2988 9.90492 29.2442 9.78353C29.1896 9.66214 29.1612 9.53069 29.1606 9.39765ZM31.1925 9.12831V8.86479L30.4206 8.91401C29.9853 8.94306 29.7879 9.09072 29.7879 9.36859C29.7879 9.65228 30.0346 9.81737 30.374 9.81737C30.4734 9.82741 30.5739 9.8174 30.6693 9.78794C30.7648 9.75848 30.8534 9.71017 30.9297 9.64588C31.0061 9.58159 31.0687 9.50264 31.1139 9.41372C31.159 9.32481 31.1858 9.22775 31.1925 9.12831Z" fill="white"/>
<path d="M33.4698 7.66035V10.2888H32.8459V7.13672H34.9272V7.66032L33.4698 7.66035Z" fill="white"/>
<path d="M38.7077 8.71125C38.7077 9.71271 38.1997 10.3406 37.4018 10.3406C37.2059 10.3539 37.0103 10.3112 36.8379 10.2174C36.6656 10.1236 36.5237 9.98265 36.429 9.81115H36.3797V11.3366H35.7559V7.13659H36.3564V7.65751H36.403C36.4994 7.48002 36.6431 7.33256 36.8183 7.2314C36.9935 7.13025 37.1933 7.07935 37.3956 7.08432C38.1997 7.0843 38.7077 7.70944 38.7077 8.71125ZM38.066 8.71125C38.066 8.04543 37.75 7.64313 37.2215 7.64313C36.6964 7.64313 36.368 8.05397 36.368 8.71399C36.368 9.37092 36.6964 9.7821 37.2187 9.7821C37.75 9.7821 38.066 9.3798 38.066 8.71125Z" fill="white"/>
<path d="M39.5385 11.4177V10.8821C39.606 10.8907 39.674 10.8946 39.7421 10.8938C39.875 10.9036 40.0069 10.8641 40.1124 10.7829C40.2179 10.7017 40.2896 10.5845 40.3138 10.4539L40.3604 10.3004L39.2163 7.13672H39.8956L40.6881 9.64038H40.7375L41.5272 7.13672H42.1887L41.0103 10.419C40.7402 11.186 40.4414 11.4321 39.797 11.4321C39.7449 11.4321 39.5968 11.4263 39.5385 11.4177Z" fill="white"/>
<path d="M42.6748 9.39514H43.2959C43.3569 9.67304 43.6181 9.81794 43.9835 9.81794C44.3989 9.81794 44.6539 9.63542 44.6539 9.35174C44.6539 9.04788 44.4249 8.90296 43.9835 8.90296H43.5104V8.41966H43.9752C44.3523 8.41966 44.5442 8.27508 44.5442 8.01156C44.5442 7.78016 44.3584 7.60346 43.9752 7.60346C43.6263 7.60346 43.3713 7.75112 43.3308 7.99995H42.7296C42.7746 7.71403 42.9303 7.45712 43.1632 7.28447C43.3961 7.11183 43.6877 7.03724 43.9752 7.07675C44.7265 7.07675 45.1564 7.41548 45.1564 7.948C45.1599 8.09629 45.1122 8.24128 45.0214 8.35874C44.9305 8.4762 44.802 8.55901 44.6573 8.59331V8.64253C44.8296 8.66469 44.9877 8.74915 45.1017 8.87989C45.2157 9.01062 45.2776 9.17853 45.2756 9.35175C45.2756 9.95095 44.7642 10.3474 43.9835 10.3474C43.2931 10.3474 42.7324 10.0319 42.6748 9.39514Z" fill="white"/>
<path d="M46.1741 10.2888V7.13672H46.7924V9.30474H46.8418L48.2985 7.13673H48.9168V10.2888H48.2985V8.10914H48.2519L46.7924 10.2888L46.1741 10.2888Z" fill="white"/>
<path d="M52.323 7.66032H51.3277V10.2887H50.7031V7.66032H49.7078V7.13672H52.323V7.66032Z" fill="white"/>
<path d="M55.6833 9.43805C55.5983 9.72611 55.4145 9.97524 55.1641 10.1419C54.9136 10.3086 54.6124 10.3822 54.313 10.35C54.1047 10.3554 53.8978 10.3157 53.7065 10.2334C53.5152 10.1511 53.3442 10.0283 53.2052 9.87353C53.0663 9.71873 52.9628 9.53564 52.902 9.33697C52.8411 9.13829 52.8244 8.92879 52.8528 8.723C52.8251 8.51658 52.8422 8.30663 52.9029 8.10736C52.9636 7.90809 53.0665 7.72415 53.2047 7.568C53.3429 7.41185 53.5131 7.28713 53.7039 7.20228C53.8946 7.11744 54.1014 7.07445 54.3102 7.07622C55.1897 7.07622 55.721 7.67543 55.721 8.66523V8.88229H53.489V8.91715C53.4791 9.03285 53.4936 9.14933 53.5316 9.25911C53.5695 9.36888 53.6301 9.46953 53.7094 9.55457C53.7886 9.63961 53.8849 9.70718 53.9919 9.75292C54.0989 9.79865 54.2144 9.82156 54.3308 9.82015C54.4799 9.83793 54.631 9.8111 54.7648 9.74305C54.8985 9.67501 55.009 9.56884 55.0821 9.43803L55.6833 9.43805ZM53.489 8.42223H55.0848C55.0927 8.31649 55.0784 8.21028 55.0426 8.11042C55.0069 8.01055 54.9506 7.91924 54.8774 7.84234C54.8042 7.76545 54.7157 7.70467 54.6176 7.66391C54.5194 7.62316 54.4138 7.60332 54.3075 7.60568C54.1996 7.60421 54.0924 7.62434 53.9924 7.66486C53.8925 7.70538 53.8016 7.76548 53.7253 7.8416C53.649 7.91772 53.5888 8.00832 53.5482 8.10805C53.5076 8.20778 53.4875 8.31461 53.489 8.42223Z" fill="white"/>
<path d="M58.3281 7.13672H59.7533C60.3716 7.13672 60.7343 7.44912 60.7343 7.93822C60.7352 8.09341 60.6827 8.24423 60.5855 8.36543C60.4883 8.48663 60.3523 8.57087 60.2003 8.60404V8.65325C60.3849 8.66489 60.5579 8.74677 60.6837 8.88201C60.8095 9.01724 60.8784 9.19548 60.8762 9.37992C60.8762 9.92987 60.4614 10.2888 59.7677 10.2888H58.3281V7.13672ZM58.9465 7.61421V8.43041H59.5648C59.9418 8.43041 60.1221 8.28583 60.1221 8.01923C60.1221 7.77348 59.9651 7.6142 59.634 7.6142L58.9465 7.61421ZM58.9465 8.88775V9.81129H59.6862C60.055 9.81129 60.2524 9.64893 60.2524 9.35089C60.2524 9.03541 60.0289 8.88775 59.608 8.88775L58.9465 8.88775Z" fill="white"/>
</g>
<defs>
<clipPath id="clip0_473_1556">
<rect width="84" height="28" fill="white" transform="translate(0.5)"/>
</clipPath>
</defs>
</svg>
