<?xml version="1.0" encoding="UTF-8" standalone="no"?>
<svg
   version="1.1"
   width="146.74588"
   height="30.612154"
   id="svg7"
   viewBox="0 0 146.74588 30.612154"
   sodipodi:docname="e1d7d57417beecf1606e0560be508bdd.cdr"
   xmlns:inkscape="http://www.inkscape.org/namespaces/inkscape"
   xmlns:sodipodi="http://sodipodi.sourceforge.net/DTD/sodipodi-0.dtd"
   xmlns="http://www.w3.org/2000/svg"
   xmlns:svg="http://www.w3.org/2000/svg">
  <defs
     id="defs11" />
  <sodipodi:namedview
     id="namedview9"
     pagecolor="#ffffff"
     bordercolor="#666666"
     borderopacity="1.0"
     inkscape:pageshadow="2"
     inkscape:pageopacity="0.0"
     inkscape:pagecheckerboard="0" />
  <g
     id="Layer1000"
     transform="translate(-3.9511767,-0.07827564)">
    <path
       d="m 98.8289,15.2374 c 0,-1.7265 -0.3256,-3.3546 -0.9768,-4.8842 C 97.2009,8.8235 96.3073,7.4908 95.1714,6.3549 94.0356,5.219 92.7104,4.3255 91.1959,3.6743 89.6814,3.023 88.061,2.6974 86.3344,2.6974 c -1.6357,0 -3.1804,0.2954 -4.6343,0.886 -1.4539,0.5906 -2.7413,1.4084 -3.862,2.4535 -1.1207,1.045 -2.0294,2.2641 -2.7261,3.6574 -0.6966,1.3934 -1.1207,2.8927 -1.2721,4.4981 v 14.2515 h 2.0446 v -6.255 c 1.151,1.6962 2.6352,3.0517 4.4525,4.0664 1.8174,1.0147 3.8166,1.5221 5.9974,1.5221 1.7266,0 3.347,-0.3333 4.8615,-0.9996 1.5145,-0.6664 2.8397,-1.5675 3.9755,-2.7034 1.1359,-1.1358 2.0295,-2.461 2.6807,-3.9755 0.6512,-1.5145 0.9768,-3.135 0.9768,-4.8615 z m -2.0899,0 c 0,1.4236 -0.2727,2.7715 -0.8179,4.0437 -0.5452,1.2721 -1.2873,2.3777 -2.2262,3.3167 -0.9391,0.939 -2.0446,1.6811 -3.3168,2.2263 -1.2722,0.5452 -2.6201,0.8178 -4.0437,0.8178 -1.4539,0 -2.8093,-0.2726 -4.0664,-0.8178 -1.257,-0.5452 -2.3626,-1.2873 -3.3167,-2.2263 -0.9541,-0.939 -1.7038,-2.0446 -2.249,-3.3167 -0.5453,-1.2722 -0.8178,-2.6201 -0.8178,-4.0437 0,-1.4236 0.2725,-2.7715 0.8178,-4.0437 0.5452,-1.2722 1.2949,-2.3777 2.249,-3.3167 0.9541,-0.939 2.0597,-1.6811 3.3167,-2.2263 1.2571,-0.5453 2.6125,-0.8178 4.0664,-0.8178 1.4236,0 2.7715,0.2725 4.0437,0.8178 1.2722,0.5452 2.3777,1.2873 3.3168,2.2263 0.9389,0.939 1.681,2.0445 2.2262,3.3167 0.5452,1.2722 0.8179,2.6201 0.8179,4.0437 z m 30.7592,0 c 0,-1.7265 -0.3256,-3.3546 -0.9768,-4.8842 -0.6513,-1.5297 -1.5448,-2.8624 -2.6807,-3.9983 -1.1358,-1.1359 -2.461,-2.0294 -3.9755,-2.6806 -1.5145,-0.6513 -3.135,-0.9769 -4.8615,-0.9769 -1.6357,0 -3.1804,0.2954 -4.6343,0.886 -1.454,0.5906 -2.7413,1.4084 -3.862,2.4535 -1.1207,1.045 -2.0294,2.2641 -2.7261,3.6574 -0.6966,1.3934 -1.1207,2.8927 -1.2721,4.4981 v 14.2515 h 2.0445 v -6.255 c 1.151,1.6962 2.6352,3.0517 4.4526,4.0664 1.8174,1.0147 3.8165,1.5221 5.9974,1.5221 1.7265,0 3.347,-0.3333 4.8615,-0.9996 1.5145,-0.6664 2.8397,-1.5675 3.9755,-2.7034 1.1359,-1.1358 2.0294,-2.461 2.6807,-3.9755 0.6512,-1.5145 0.9768,-3.135 0.9768,-4.8615 z m -2.09,0 c 0,1.4236 -0.2726,2.7715 -0.8178,4.0437 -0.5452,1.2721 -1.2873,2.3777 -2.2263,3.3167 -0.939,0.939 -2.0445,1.6811 -3.3167,2.2263 -1.2722,0.5452 -2.6201,0.8178 -4.0437,0.8178 -1.4539,0 -2.8094,-0.2726 -4.0664,-0.8178 -1.257,-0.5452 -2.3626,-1.2873 -3.3167,-2.2263 -0.9542,-0.939 -1.7039,-2.0446 -2.249,-3.3167 -0.5453,-1.2722 -0.8179,-2.6201 -0.8179,-4.0437 0,-1.4236 0.2726,-2.7715 0.8179,-4.0437 0.5451,-1.2722 1.2948,-2.3777 2.249,-3.3167 0.9541,-0.939 2.0597,-1.6811 3.3167,-2.2263 1.257,-0.5453 2.6125,-0.8178 4.0664,-0.8178 1.4236,0 2.7715,0.2725 4.0437,0.8178 1.2722,0.5452 2.3777,1.2873 3.3167,2.2263 0.939,0.939 1.6811,2.0445 2.2263,3.3167 0.5452,1.2722 0.8178,2.6201 0.8178,4.0437 z m 17.8558,1.045 c 0.6361,0 1.242,0.1211 1.8175,0.3634 0.5755,0.2424 1.0752,0.5831 1.4993,1.0223 0.424,0.4393 0.7572,0.9466 0.9995,1.5221 0.2424,0.5755 0.3635,1.1813 0.3635,1.8174 0,0.636 -0.1211,1.2419 -0.3635,1.8174 -0.2423,0.5755 -0.5755,1.0752 -0.9995,1.4993 -0.4241,0.424 -0.9238,0.7573 -1.4993,0.9996 -0.5755,0.2423 -1.1814,0.3635 -1.8175,0.3635 h -12.131 v 2.0445 h 12.131 c 0.9088,0 1.772,-0.1742 2.5898,-0.5225 0.8178,-0.3483 1.5372,-0.833 2.1582,-1.4539 0.6209,-0.6209 1.1056,-1.3403 1.4539,-2.1582 0.3483,-0.8178 0.5225,-1.681 0.5225,-2.5897 0,-0.939 -0.1742,-1.8174 -0.5225,-2.6353 -0.3483,-0.8178 -0.833,-1.5371 -1.4539,-2.158 -0.621,-0.621 -1.3404,-1.1057 -2.1582,-1.454 -0.8178,-0.3484 -1.681,-0.5225 -2.5898,-0.5225 h -5.4067 c -0.636,0 -1.2419,-0.1212 -1.8174,-0.3635 -0.5755,-0.2423 -1.0752,-0.5755 -1.4993,-0.9995 -0.424,-0.4241 -0.7573,-0.9239 -0.9996,-1.4994 -0.2422,-0.5755 -0.3634,-1.1813 -0.3634,-1.8173 0,-0.6361 0.1212,-1.242 0.3634,-1.8175 0.2423,-0.5755 0.5756,-1.0828 0.9996,-1.522 0.4241,-0.4392 0.9238,-0.78 1.4993,-1.0223 0.5755,-0.2423 1.1814,-0.3634 1.8174,-0.3634 h 12.1311 V 2.7883 h -12.1311 c -0.9087,0 -1.7719,0.1741 -2.5897,0.5225 -0.8178,0.3483 -1.5373,0.833 -2.1582,1.4539 -0.6209,0.6209 -1.1056,1.3403 -1.4539,2.1581 -0.3483,0.8178 -0.5225,1.6963 -0.5225,2.6353 0,0.9389 0.1742,1.8173 0.5225,2.6352 0.3483,0.8178 0.833,1.5296 1.4539,2.1354 0.6209,0.6058 1.3404,1.0829 2.1582,1.4312 0.8178,0.3483 1.681,0.5225 2.5897,0.5225 z M 44.9032,15.1212 c 0,-1.7265 0.3256,-3.3546 0.9768,-4.8842 0.6512,-1.5297 1.5448,-2.8624 2.6807,-3.9983 1.1358,-1.1358 2.461,-2.0294 3.9755,-2.6806 1.5145,-0.6513 3.135,-0.9768 4.8615,-0.9768 1.6357,0 3.1804,0.2953 4.6343,0.8859 1.4539,0.5907 2.7413,1.4085 3.862,2.4535 1.1207,1.045 2.0294,2.2641 2.7261,3.6575 0.6966,1.3933 1.1207,2.8927 1.2721,4.498 v 14.2516 h -2.0446 v -6.2551 c -1.151,1.6962 -2.6352,3.0517 -4.4525,4.0664 -1.8174,1.0147 -3.8166,1.5221 -5.9974,1.5221 -1.7265,0 -3.347,-0.3332 -4.8615,-0.9996 -1.5145,-0.6664 -2.8397,-1.5675 -3.9755,-2.7033 -1.1359,-1.1359 -2.0295,-2.4611 -2.6807,-3.9756 -0.6512,-1.5145 -0.9768,-3.135 -0.9768,-4.8615 z m 2.0899,0 c 0,1.4237 0.2727,2.7715 0.8179,4.0437 0.5452,1.2722 1.2873,2.3778 2.2262,3.3167 0.9391,0.939 2.0446,1.6811 3.3168,2.2263 1.2722,0.5452 2.6201,0.8178 4.0437,0.8178 1.4539,0 2.8093,-0.2726 4.0664,-0.8178 1.257,-0.5452 2.3626,-1.2873 3.3167,-2.2263 0.9542,-0.9389 1.7038,-2.0445 2.249,-3.3167 0.5453,-1.2722 0.8178,-2.62 0.8178,-4.0437 0,-1.4236 -0.2725,-2.7715 -0.8178,-4.0437 C 66.4846,9.8054 65.735,8.6998 64.7808,7.7608 63.8267,6.8218 62.7211,6.0797 61.4641,5.5345 60.207,4.9893 58.8516,4.7167 57.3977,4.7167 c -1.4236,0 -2.7715,0.2726 -4.0437,0.8178 -1.2722,0.5452 -2.3777,1.2873 -3.3168,2.2263 -0.9389,0.939 -1.681,2.0446 -2.2262,3.3167 -0.5452,1.2722 -0.8179,2.6201 -0.8179,4.0437 z"
       style="fill:#1b1918;fill-rule:evenodd;stroke:#1b1918;stroke-width:1.4173;stroke-linecap:butt;stroke-linejoin:miter;stroke-dasharray:none"
       id="path2" />
    <path
       d="m 19.0712,19.6357 c 0,-0.5044 0.3561,-0.9164 0.7245,-1.1004 0.9006,-0.4499 4.6931,-0.2783 5.9311,-0.2783 3.1869,0 2.2877,2.7575 0.7897,2.7575 h -5.8661 c -0.8475,0 -1.5792,-0.5267 -1.5792,-1.3788 z m -8.9118,-8.6172 c 0,-1.4119 0.8703,-2.1831 2.2561,-2.1831 1.1544,0 3.1794,1.9167 3.8636,2.6139 0.6675,0.6798 2.6794,2.8277 2.6794,3.9352 0,0.6909 -0.7192,1.6688 -1.0623,2.1352 -0.6292,0.8553 -0.6623,0.7645 -1.108,1.2844 -0.2187,0.255 -0.1742,0.2869 -0.4086,0.5031 -0.9484,0.876 -2.7581,2.5516 -3.9056,2.6773 -1.7736,0.1943 -3.7822,-2.5006 -0.966,-4.1923 0.8008,-0.4808 2.0677,-1.5985 2.5997,-2.4077 -0.3604,-0.5484 -1.5027,-1.5797 -2.0773,-2.0205 -0.8046,-0.6176 -1.871,-0.9746 -1.871,-2.3455 z M 3.9549,13.546 c 0,3.8503 -0.0826,5.9041 0.5303,9.8008 0.544,3.4594 3.2593,6.223 6.6549,6.7797 4.5692,0.7488 11.0546,0.7498 15.6517,0.0155 3.3804,-0.5401 6.2965,-3.4327 6.7164,-6.4874 0.8155,-5.9333 0.7847,-10.518 0.0112,-16.4367 C 33.1112,4.0936 30.2025,1.1841 26.8886,0.6435 22.2759,-0.1091 15.88,-0.1053 11.2365,0.626 7.8207,1.1638 5.0464,3.9119 4.5014,7.3238 4.2103,9.1425 3.9549,11.4398 3.9549,13.546 Z"
       style="fill:#0054a6;fill-rule:evenodd"
       id="path4" />
  </g>
</svg>
