<svg width="54" height="64" viewBox="0 0 54 64" fill="none" xmlns="http://www.w3.org/2000/svg">
<path d="M52.1345 23.4601L52.1128 23.4384L29.7383 1.0345C29.5605 0.857688 29.3641 0.7006 29.1525 0.565966L28.5083 0.214533L28.069 0.0680563L27.7468 0.0680563C27.2531 -0.0226854 26.7469 -0.0226854 26.2532 0.0680563L25.609 0.0680563L25.111 0.331631C24.8336 0.482358 24.5775 0.669476 24.3496 0.888022L1.8872 23.4384C0.383042 24.9306 0.373296 27.3597 1.86551 28.8639L1.8872 28.8856C3.40345 30.3322 5.7888 30.3322 7.30518 28.8856L20.6889 15.5311C21.2663 14.965 22.1935 14.974 22.7596 15.5516C23.0231 15.8202 23.173 16.18 23.1782 16.5562L23.1782 60.1632C23.178 62.2821 24.8955 63.9998 27.0144 64C29.1333 64.0001 30.8509 62.2826 30.8512 60.1637L30.8512 16.5562C30.8626 15.7476 31.5273 15.1012 32.3359 15.1126C32.712 15.1179 33.0718 15.2677 33.3405 15.5311L46.6657 28.8856C48.1858 30.3509 50.5928 30.3509 52.1129 28.8856C53.6171 27.3934 53.6268 24.9642 52.1345 23.4601Z" fill="#198754"/>
</svg>
