<svg width="54" height="64" viewBox="0 0 54 64" fill="none" xmlns="http://www.w3.org/2000/svg">
<path d="M1.86575 40.5399L1.88745 40.5616L24.2619 62.9655C24.4398 63.1423 24.6362 63.2994 24.8477 63.434L25.492 63.7855L25.9313 63.9319L26.2534 63.9319C26.7472 64.0227 27.2533 64.0227 27.747 63.9319L28.3913 63.9319L28.8892 63.6684C29.1667 63.5176 29.4228 63.3305 29.6507 63.112L52.113 40.5616C53.6172 39.0694 53.6269 36.6403 52.1347 35.1361L52.113 35.1144C50.5968 33.6678 48.2114 33.6678 46.6951 35.1144L33.3114 48.4689C32.734 49.035 31.8068 49.026 31.2406 48.4484C30.9772 48.1798 30.8273 47.82 30.8221 47.4438L30.8221 3.83684C30.8222 1.71794 29.1047 0.000177587 26.9858 4.04428e-05C24.8669 -9.6701e-05 23.1493 1.71739 23.149 3.83629L23.149 47.4438C23.1376 48.2524 22.4729 48.8988 21.6644 48.8874C21.2882 48.8821 20.9284 48.7323 20.6598 48.4689L7.33453 35.1144C5.81444 33.6491 3.40739 33.6491 1.8873 35.1144C0.383142 36.6066 0.373399 39.0358 1.86575 40.5399Z" fill="#DC3545"/>
</svg>
