<svg width="40" height="40" viewBox="0 0 40 40" fill="none" xmlns="http://www.w3.org/2000/svg">
<g clip-path="url(#clip0_253_1356)">
<path d="M0 20C0 8.95431 8.95431 0 20 0C31.0457 0 40 8.95431 40 20C40 31.0457 31.0457 40 20 40C8.95431 40 0 31.0457 0 20Z" fill="#FEC200"/>
<g filter="url(#filter0_d_253_1356)">
<path d="M22.4055 17.0078C22.3459 16.4496 22.0945 16.0149 21.6513 15.7038C21.2124 15.3928 20.6413 15.2372 19.9382 15.2372C19.4439 15.2372 19.0199 15.3118 18.6662 15.4609C18.3125 15.6101 18.0419 15.8125 17.8544 16.0682C17.6669 16.3239 17.571 16.6158 17.5668 16.9439C17.5668 17.2166 17.6286 17.4531 17.7521 17.6534C17.88 17.8537 18.0526 18.0241 18.2699 18.1648C18.4872 18.3011 18.728 18.4162 18.9922 18.5099C19.2564 18.6037 19.5227 18.6825 19.7912 18.7464L21.0185 19.0533C21.5128 19.1683 21.9879 19.3239 22.4439 19.5199C22.9041 19.7159 23.3153 19.9631 23.6776 20.2614C24.044 20.5597 24.3338 20.9197 24.5469 21.3416C24.7599 21.7635 24.8665 22.2578 24.8665 22.8246C24.8665 23.5916 24.6705 24.267 24.2784 24.8509C23.8864 25.4304 23.3196 25.8842 22.5781 26.2124C21.8409 26.5362 20.9482 26.6982 19.8999 26.6982C18.8814 26.6982 17.9972 26.5405 17.2472 26.2251C16.5014 25.9098 15.9176 25.4496 15.4957 24.8445C15.0781 24.2393 14.8523 23.5021 14.8182 22.6328H17.1513C17.1854 23.0888 17.326 23.468 17.5732 23.7706C17.8203 24.0732 18.142 24.299 18.5384 24.4482C18.9389 24.5973 19.3864 24.6719 19.8807 24.6719C20.3963 24.6719 20.848 24.5952 21.2358 24.4418C21.6278 24.2841 21.9347 24.0668 22.1562 23.7898C22.3778 23.5085 22.4908 23.1804 22.495 22.8054C22.4908 22.4645 22.3906 22.1832 22.1946 21.9616C21.9986 21.7358 21.7237 21.5483 21.37 21.3991C21.0206 21.2457 20.6115 21.1094 20.1428 20.9901L18.6534 20.6065C17.5753 20.3295 16.723 19.9098 16.0966 19.3473C15.4744 18.7805 15.1634 18.0284 15.1634 17.0909C15.1634 16.3196 15.3722 15.6442 15.7898 15.0646C16.2116 14.4851 16.7848 14.0355 17.5092 13.7159C18.2337 13.392 19.054 13.2301 19.9702 13.2301C20.8991 13.2301 21.7131 13.392 22.4119 13.7159C23.1151 14.0355 23.6669 14.4808 24.0675 15.0518C24.468 15.6186 24.6747 16.2706 24.6875 17.0078H22.4055Z" fill="#FEDE00"/>
</g>
<g filter="url(#filter1_d_253_1356)">
<path d="M40 20C40 31.0457 31.0457 40 20 40C8.9543 40 0 31.0457 0 20C0 8.9543 8.9543 0 20 0C31.0457 0 40 8.9543 40 20ZM2.94569 20C2.94569 29.4188 10.5812 37.0543 20 37.0543C29.4188 37.0543 37.0543 29.4188 37.0543 20C37.0543 10.5812 29.4188 2.94569 20 2.94569C10.5812 2.94569 2.94569 10.5812 2.94569 20Z" fill="#FEDE00"/>
</g>
<g filter="url(#filter2_d_253_1356)">
<path d="M27 32.5C29.3081 32.2243 30.1184 31.5063 30.5 29C30.9734 31.2597 31.7603 32.0147 34 32.5C31.6532 32.9678 30.9068 33.7505 30.5 36C30.186 33.655 29.3312 32.9825 27 32.5Z" fill="white"/>
<path d="M27 32.5C29.3081 32.2243 30.1184 31.5063 30.5 29C30.9734 31.2597 31.7603 32.0147 34 32.5C31.6532 32.9678 30.9068 33.7505 30.5 36C30.186 33.655 29.3312 32.9825 27 32.5Z" stroke="white" stroke-width="0.5"/>
</g>
<g filter="url(#filter3_d_253_1356)">
<path d="M6 7.5C7.64861 7.3031 8.22739 6.79019 8.5 5C8.83814 6.61405 9.40021 7.15334 11 7.5C9.32368 7.83412 8.79058 8.39322 8.5 10C8.27571 8.32499 7.66512 7.84465 6 7.5Z" fill="white"/>
<path d="M6 7.5C7.64861 7.3031 8.22739 6.79019 8.5 5C8.83814 6.61405 9.40021 7.15334 11 7.5C9.32368 7.83412 8.79058 8.39322 8.5 10C8.27571 8.32499 7.66512 7.84465 6 7.5Z" stroke="white" stroke-width="0.5"/>
</g>
</g>
<defs>
<filter id="filter0_d_253_1356" x="12.8182" y="11.2301" width="14.0482" height="17.468" filterUnits="userSpaceOnUse" color-interpolation-filters="sRGB">
<feFlood flood-opacity="0" result="BackgroundImageFix"/>
<feColorMatrix in="SourceAlpha" type="matrix" values="0 0 0 0 0 0 0 0 0 0 0 0 0 0 0 0 0 0 127 0" result="hardAlpha"/>
<feOffset/>
<feGaussianBlur stdDeviation="1"/>
<feComposite in2="hardAlpha" operator="out"/>
<feColorMatrix type="matrix" values="0 0 0 0 0 0 0 0 0 0 0 0 0 0 0 0 0 0 0.32 0"/>
<feBlend mode="normal" in2="BackgroundImageFix" result="effect1_dropShadow_253_1356"/>
<feBlend mode="normal" in="SourceGraphic" in2="effect1_dropShadow_253_1356" result="shape"/>
</filter>
<filter id="filter1_d_253_1356" x="-1" y="-2" width="44" height="44" filterUnits="userSpaceOnUse" color-interpolation-filters="sRGB">
<feFlood flood-opacity="0" result="BackgroundImageFix"/>
<feColorMatrix in="SourceAlpha" type="matrix" values="0 0 0 0 0 0 0 0 0 0 0 0 0 0 0 0 0 0 127 0" result="hardAlpha"/>
<feOffset dx="1"/>
<feGaussianBlur stdDeviation="1"/>
<feComposite in2="hardAlpha" operator="out"/>
<feColorMatrix type="matrix" values="0 0 0 0 0 0 0 0 0 0 0 0 0 0 0 0 0 0 0.12 0"/>
<feBlend mode="normal" in2="BackgroundImageFix" result="effect1_dropShadow_253_1356"/>
<feBlend mode="normal" in="SourceGraphic" in2="effect1_dropShadow_253_1356" result="shape"/>
</filter>
<filter id="filter2_d_253_1356" x="24.9493" y="26.9487" width="11.1036" height="11.0958" filterUnits="userSpaceOnUse" color-interpolation-filters="sRGB">
<feFlood flood-opacity="0" result="BackgroundImageFix"/>
<feColorMatrix in="SourceAlpha" type="matrix" values="0 0 0 0 0 0 0 0 0 0 0 0 0 0 0 0 0 0 127 0" result="hardAlpha"/>
<feOffset/>
<feGaussianBlur stdDeviation="1"/>
<feComposite in2="hardAlpha" operator="out"/>
<feColorMatrix type="matrix" values="0 0 0 0 0 0 0 0 0 0 0 0 0 0 0 0 0 0 0.24 0"/>
<feBlend mode="normal" in2="BackgroundImageFix" result="effect1_dropShadow_253_1356"/>
<feBlend mode="normal" in="SourceGraphic" in2="effect1_dropShadow_253_1356" result="shape"/>
</filter>
<filter id="filter3_d_253_1356" x="3.94934" y="2.94873" width="9.10364" height="9.09576" filterUnits="userSpaceOnUse" color-interpolation-filters="sRGB">
<feFlood flood-opacity="0" result="BackgroundImageFix"/>
<feColorMatrix in="SourceAlpha" type="matrix" values="0 0 0 0 0 0 0 0 0 0 0 0 0 0 0 0 0 0 127 0" result="hardAlpha"/>
<feOffset/>
<feGaussianBlur stdDeviation="1"/>
<feComposite in2="hardAlpha" operator="out"/>
<feColorMatrix type="matrix" values="0 0 0 0 0 0 0 0 0 0 0 0 0 0 0 0 0 0 0.24 0"/>
<feBlend mode="normal" in2="BackgroundImageFix" result="effect1_dropShadow_253_1356"/>
<feBlend mode="normal" in="SourceGraphic" in2="effect1_dropShadow_253_1356" result="shape"/>
</filter>
<clipPath id="clip0_253_1356">
<path d="M0 20C0 8.95431 8.95431 0 20 0C31.0457 0 40 8.95431 40 20C40 31.0457 31.0457 40 20 40C8.95431 40 0 31.0457 0 20Z" fill="white"/>
</clipPath>
</defs>
</svg>
