<svg width="52" height="52" viewBox="0 0 52 52" fill="none" xmlns="http://www.w3.org/2000/svg">
<g clip-path="url(#clip0_57_461)">
<path opacity="0.961" fill-rule="evenodd" clip-rule="evenodd" d="M23.6133 -0.0507812C25.1367 -0.0507812 26.6602 -0.0507812 28.1836 -0.0507812C29.8575 0.118039 31.5164 0.439653 33.1602 0.914062C33.5119 1.13238 33.6473 1.45399 33.5664 1.87891C33.3937 2.23692 33.1058 2.4062 32.7031 2.38672C28.0332 1.1266 23.3783 1.17738 18.7383 2.53906C17.6421 2.87554 16.5927 3.29872 15.5898 3.80859C8.47417 7.3209 3.95464 12.9407 2.03125 20.668C0.803816 26.8303 1.70095 32.6532 4.72266 38.1367C5.65268 39.7095 6.73602 41.1652 7.97266 42.5039C8.82627 43.4932 9.77418 44.3734 10.8164 45.1445C12.7629 46.7279 14.9296 47.9466 17.3164 48.8008C25.1259 51.5831 32.5399 50.7536 39.5586 46.3125C47.1361 40.8901 50.7415 33.493 50.375 24.1211C50.215 21.7556 49.6903 19.4873 48.8008 17.3164C47.9466 14.9296 46.7279 12.7629 45.1445 10.8164C44.3734 9.77418 43.4932 8.82627 42.5039 7.97266C41.1652 6.73602 39.7095 5.65268 38.1367 4.72266C37.1584 4.16462 36.1427 3.67373 35.0898 3.25C34.8258 2.94698 34.7242 2.59151 34.7852 2.18359C35.0529 1.86356 35.3914 1.74507 35.8008 1.82812C43.5827 5.17548 48.6778 10.9138 51.0859 19.043C51.4633 20.5642 51.7511 22.0876 51.9492 23.6133C51.9492 25.1705 51.9492 26.7279 51.9492 28.2852C50.8855 37.3174 46.4506 44.1391 38.6445 48.75C35.3911 50.5062 31.938 51.5726 28.2852 51.9492C26.7279 51.9492 25.1705 51.9492 23.6133 51.9492C14.6101 50.8432 7.7885 46.4083 3.14844 38.6445C1.39218 35.391 0.325771 31.9379 -0.0507812 28.2852C-0.0507812 26.7279 -0.0507812 25.1705 -0.0507812 23.6133C1.25394 13.3687 6.6029 6.10696 15.9961 1.82812C18.4661 0.863582 21.0052 0.237279 23.6133 -0.0507812Z" fill="#010100"/>
<path fill-rule="evenodd" clip-rule="evenodd" d="M33.5664 1.87891C33.9727 1.98047 34.3789 2.08203 34.7852 2.18359C34.7242 2.59151 34.8258 2.94698 35.0899 3.25C36.1428 3.67373 37.1584 4.16462 38.1367 4.72266C37.1549 5.73828 36.1732 6.75391 35.1914 7.76953C26.9344 4.03802 19.3172 5.03672 12.3399 10.7656C6.35106 16.5666 4.37059 23.5236 6.39846 31.6367C6.78643 32.8519 7.24346 34.0368 7.76955 35.1914C6.9909 35.9362 6.21226 36.681 5.43362 37.4258C1.53751 29.4565 1.656 21.5346 5.78908 13.6602C8.20019 9.50561 11.4671 6.22176 15.5899 3.80859C16.5927 3.29872 17.6421 2.87554 18.7383 2.53906C23.3783 1.17738 28.0332 1.1266 32.7031 2.38672C33.1058 2.4062 33.3937 2.23692 33.5664 1.87891Z" fill="#FDDC4F"/>
<path fill-rule="evenodd" clip-rule="evenodd" d="M15.5898 3.80859C11.4671 6.22176 8.20015 9.50561 5.78905 13.6602C1.65596 21.5346 1.53747 29.4565 5.43358 37.4258C5.23046 37.6966 4.99348 37.9336 4.72264 38.1367C1.70094 32.6532 0.803803 26.8303 2.03124 20.668C3.95463 12.9407 8.47416 7.3209 15.5898 3.80859Z" fill="#EAC802"/>
<path fill-rule="evenodd" clip-rule="evenodd" d="M38.1367 4.72266C39.7095 5.65268 41.1652 6.73602 42.5039 7.97266C41.5221 8.88672 40.5742 9.83463 39.6602 10.8164C38.2724 9.6488 36.7829 8.63318 35.1914 7.76953C36.1732 6.75391 37.1549 5.73828 38.1367 4.72266Z" fill="#FDE892"/>
<path fill-rule="evenodd" clip-rule="evenodd" d="M35.1914 7.76953C36.7829 8.63318 38.2724 9.64881 39.6602 10.8164C40.6185 11.7402 41.4988 12.722 42.3008 13.7617C43.8002 15.8802 44.9174 18.1822 45.6524 20.668C47.4235 28.6406 45.3923 35.4622 39.5586 41.1328C33.9954 45.7819 27.6646 47.2884 20.5664 45.6523C18.1245 44.8884 15.8563 43.7712 13.7618 42.3008C12.7221 41.4987 11.7403 40.6185 10.8164 39.6602C9.64884 38.2724 8.63321 36.7829 7.76957 35.1914C7.24347 34.0368 6.78644 32.8519 6.39847 31.6367C4.3706 23.5236 6.35107 16.5666 12.3399 10.7656C19.3172 5.03672 26.9344 4.03803 35.1914 7.76953Z" fill="#050301"/>
<path fill-rule="evenodd" clip-rule="evenodd" d="M32.3476 8.27734C34.75 9.54697 36.849 11.2058 38.6445 13.2539C37.5166 14.3309 36.3994 15.4311 35.2929 16.5547C35.2326 16.6018 35.1648 16.6188 35.0898 16.6055C34.454 15.5126 33.5907 14.6323 32.4999 13.9648C32.4661 12.983 32.4322 12.0013 32.3984 11.0195C31.6911 9.4387 30.4892 8.81239 28.7929 9.14062C28.3842 9.31067 28.0118 9.53072 27.6757 9.80078C26.8627 9.67714 26.1518 9.88026 25.5429 10.4102C24.7171 9.25976 23.5999 8.83658 22.1914 9.14062C21.7827 9.31067 21.4102 9.53072 21.0742 9.80078C19.0627 9.74782 18.1825 10.7296 18.4335 12.7461C17.7251 12.8014 17.1158 13.0722 16.6054 13.5586C14.5939 13.4875 13.7645 14.4354 14.1171 16.4023C14.6523 17.3892 15.4817 17.7955 16.6054 17.6211C16.6732 17.6211 16.707 17.6549 16.707 17.7227C16.707 23.207 16.707 28.6914 16.707 34.1758C16.707 34.2435 16.6732 34.2773 16.6054 34.2773C14.3782 34.2688 13.5995 35.3183 14.2695 37.4258C13.7955 38.1029 13.22 38.6783 12.5429 39.1523C7.84604 34.146 6.20411 28.2554 7.61714 21.4805C9.55285 14.5682 13.937 10.0148 20.7695 7.82031C23.7919 7.06041 26.8388 6.95885 29.9101 7.51562C30.7527 7.68357 31.5652 7.93747 32.3476 8.27734Z" fill="#FDBC00"/>
<path fill-rule="evenodd" clip-rule="evenodd" d="M42.5039 7.97266C43.4932 8.82627 44.3734 9.77418 45.1445 10.8164C44.2699 11.8605 43.322 12.8423 42.3008 13.7617C41.4987 12.722 40.6185 11.7402 39.6602 10.8164C40.5742 9.83463 41.5221 8.88672 42.5039 7.97266Z" fill="#FDDC4F"/>
<path fill-rule="evenodd" clip-rule="evenodd" d="M32.3477 8.27734C35.923 9.5672 38.8513 11.7338 41.1328 14.7773C45.2751 20.861 45.8845 27.2934 42.9609 34.0742C40.6749 38.5438 37.2048 41.726 32.5508 43.6211C40.9586 38.6523 44.3948 31.3059 42.8594 21.582C42.1208 18.4459 40.7159 15.6699 38.6445 13.2539C36.849 11.2058 34.75 9.54698 32.3477 8.27734Z" fill="#F18B00"/>
<path fill-rule="evenodd" clip-rule="evenodd" d="M35.0898 16.6055C36.4382 19.2055 36.4382 21.8122 35.0898 24.4258C38.4077 27.4638 39.0678 31.0185 37.0703 35.0898C35.9969 36.8746 34.4735 38.0933 32.5 38.7461C32.4855 39.5311 32.4177 40.3096 32.2969 41.082C31.5643 42.523 30.3963 43.0816 28.793 42.7578C28.3843 42.5878 28.0118 42.3677 27.6758 42.0977C26.9803 41.2464 26.7094 40.2646 26.8633 39.1523C26.5248 39.1523 26.1862 39.1523 25.8477 39.1523C25.9116 39.9579 25.8101 40.7366 25.543 41.4883C24.7172 42.6387 23.6 43.0619 22.1914 42.7578C21.7827 42.5878 21.4103 42.3677 21.0742 42.0977C20.3787 41.2464 20.1078 40.2646 20.2617 39.1523C19.6523 39.1523 19.043 39.1523 18.4336 39.1523C17.7223 39.0964 17.113 38.8255 16.6055 38.3398C15.5223 36.9844 15.5223 35.6302 16.6055 34.2773C16.6732 34.2773 16.707 34.2435 16.707 34.1758C17.2244 33.7144 17.8338 33.4774 18.5352 33.4648C18.5184 33.0909 18.5353 32.7186 18.5859 32.3477C18.7738 32.0083 19.0615 31.8729 19.4492 31.9414C19.705 31.9767 19.8913 32.1121 20.0078 32.3477C20.0755 33.0586 20.0755 33.7695 20.0078 34.4805C19.9281 34.6619 19.8097 34.8142 19.6523 34.9375C19.1783 34.9713 18.7045 35.0052 18.2305 35.0391C17.1686 35.6426 17.0331 36.4212 17.8242 37.375C17.9596 37.4427 18.0951 37.5104 18.2305 37.5781C19.2799 37.6119 20.3295 37.6459 21.3789 37.6797C21.4974 37.7982 21.6158 37.9166 21.7344 38.0352C21.7434 38.923 21.8112 39.8033 21.9375 40.6758C22.481 41.3489 23.1411 41.4675 23.918 41.0312C24.0745 40.8709 24.193 40.6846 24.2734 40.4727C24.3073 39.694 24.3412 38.9154 24.375 38.1367C24.4547 37.9553 24.5731 37.803 24.7305 37.6797C25.8138 37.6119 26.8971 37.6119 27.9805 37.6797C28.099 37.7982 28.2174 37.9166 28.3359 38.0352C28.345 38.923 28.4127 39.8033 28.5391 40.6758C29.0825 41.3489 29.7427 41.4675 30.5195 41.0312C30.676 40.8709 30.7946 40.6846 30.875 40.4727C30.8806 39.5483 30.9483 38.6343 31.0781 37.7305C31.5177 37.4139 32.0086 37.1938 32.5508 37.0703C35.628 35.5379 36.9652 33.0497 36.5625 29.6055C36.3486 28.6024 35.9424 27.6884 35.3437 26.8633C34.6974 26.1829 34.0203 25.5397 33.3125 24.9336C33.2448 24.7305 33.2448 24.5273 33.3125 24.3242C34.6418 22.4924 34.9465 20.495 34.2266 18.332C33.6565 16.9496 32.7256 15.8832 31.4336 15.1328C31.2429 14.9761 31.0905 14.7899 30.9766 14.5742C30.9427 13.4908 30.9088 12.4076 30.875 11.3242C30.4559 10.6671 29.8635 10.447 29.0977 10.6641C28.8047 10.8554 28.5847 11.1093 28.4375 11.4258C28.4037 12.2045 28.3698 12.983 28.3359 13.7617C28.2562 13.9431 28.1378 14.0955 27.9805 14.2187C26.8971 14.2865 25.8138 14.2865 24.7305 14.2187C24.5731 14.0955 24.4547 13.9431 24.375 13.7617C24.3412 12.9492 24.3073 12.1367 24.2734 11.3242C23.8544 10.6671 23.262 10.447 22.4961 10.6641C22.2032 10.8554 21.9831 11.1093 21.8359 11.4258C21.8021 12.2045 21.7682 12.983 21.7344 13.7617C21.6546 13.9431 21.5362 14.0955 21.3789 14.2187C20.3295 14.2526 19.2799 14.2865 18.2305 14.3203C17.1686 14.9239 17.0331 15.7025 17.8242 16.6562C17.9596 16.724 18.0951 16.7916 18.2305 16.8594C18.7045 16.8932 19.1783 16.9271 19.6523 16.9609C19.7709 17.0795 19.8893 17.1979 20.0078 17.3164C20.0755 21.4805 20.0755 25.6445 20.0078 29.8086C19.8868 30.1167 19.6668 30.286 19.3477 30.3164C18.9749 30.334 18.721 30.1648 18.5859 29.8086C18.5352 26.0171 18.5182 22.2254 18.5352 18.4336C17.8338 18.421 17.2244 18.1841 16.707 17.7227C16.707 17.6549 16.6732 17.6211 16.6055 17.6211C15.5223 16.2656 15.5223 14.9114 16.6055 13.5586C17.1158 13.0722 17.7252 12.8014 18.4336 12.7461C19.043 12.7461 19.6523 12.7461 20.2617 12.7461C20.0527 11.619 20.3235 10.6371 21.0742 9.80078C21.4103 9.53072 21.7827 9.31067 22.1914 9.14062C23.6 8.83659 24.7172 9.25977 25.543 10.4102C25.8101 11.1618 25.9116 11.9405 25.8477 12.7461C26.1862 12.7461 26.5248 12.7461 26.8633 12.7461C26.6543 11.619 26.925 10.6371 27.6758 9.80078C28.0118 9.53072 28.3843 9.31067 28.793 9.14062C30.4893 8.81239 31.6912 9.4387 32.3984 11.0195C32.4323 12.0013 32.4662 12.983 32.5 13.9648C33.5908 14.6323 34.4541 15.5126 35.0898 16.6055Z" fill="#040301"/>
<path fill-rule="evenodd" clip-rule="evenodd" d="M21.0743 9.80078C20.3235 10.6372 20.0527 11.619 20.2618 12.7461C19.6524 12.7461 19.043 12.7461 18.4336 12.7461C18.1826 10.7296 19.0628 9.74783 21.0743 9.80078Z" fill="#F38D00"/>
<path fill-rule="evenodd" clip-rule="evenodd" d="M27.6758 9.80077C26.925 10.6371 26.6543 11.6189 26.8633 12.7461C26.5248 12.7461 26.1862 12.7461 25.8477 12.7461C25.9116 11.9405 25.8101 11.1618 25.543 10.4101C26.1518 9.88026 26.8628 9.67713 27.6758 9.80077Z" fill="#ED8900"/>
<path fill-rule="evenodd" clip-rule="evenodd" d="M19.4492 31.9414C19.3528 31.4092 19.319 30.8676 19.3476 30.3164C19.6667 30.286 19.8868 30.1167 20.0078 29.8086C20.0755 25.6445 20.0755 21.4805 20.0078 17.3164C19.8893 17.1979 19.7708 17.0795 19.6523 16.9609C19.1783 16.9271 18.7044 16.8932 18.2304 16.8594C18.0951 16.7916 17.9596 16.724 17.8242 16.6562C17.0331 15.7025 17.1686 14.9239 18.2304 14.3203C19.2799 14.2865 20.3294 14.2526 21.3789 14.2187C21.5362 14.0955 21.6546 13.9431 21.7343 13.7617C21.7682 12.983 21.8021 12.2045 21.8359 11.4258C21.9831 11.1093 22.2032 10.8554 22.4961 10.6641C23.2619 10.447 23.8544 10.6671 24.2734 11.3242C24.3072 12.1367 24.3412 12.9492 24.375 13.7617C24.4547 13.9431 24.5731 14.0955 24.7304 14.2187C25.8138 14.2865 26.8971 14.2865 27.9804 14.2187C28.1378 14.0955 28.2562 13.9431 28.3359 13.7617C28.3697 12.983 28.4037 12.2045 28.4375 11.4258C28.5846 11.1093 28.8047 10.8554 29.0976 10.6641C29.8635 10.447 30.4559 10.6671 30.875 11.3242C30.9088 12.4076 30.9427 13.4908 30.9765 14.5742C31.0905 14.7899 31.2428 14.9761 31.4336 15.1328C32.7255 15.8832 33.6565 16.9496 34.2265 18.332C34.9465 20.495 34.6418 22.4924 33.3125 24.3242C33.2447 24.5273 33.2447 24.7305 33.3125 24.9336C34.0203 25.5397 34.6974 26.1829 35.3437 26.8633C35.9423 27.6884 36.3486 28.6024 36.5625 29.6055C36.9652 33.0497 35.628 35.5379 32.5508 37.0703C32.0086 37.1938 31.5177 37.4139 31.0781 37.7305C30.9483 38.6343 30.8806 39.5483 30.875 40.4727C30.7945 40.6846 30.676 40.8709 30.5195 41.0312C29.7427 41.4675 29.0825 41.3489 28.539 40.6758C28.4127 39.8033 28.3449 38.923 28.3359 38.0352C28.2174 37.9166 28.099 37.7982 27.9804 37.6797C26.8971 37.6119 25.8138 37.6119 24.7304 37.6797C24.5731 37.803 24.4547 37.9553 24.375 38.1367C24.3412 38.9154 24.3072 39.694 24.2734 40.4727C24.193 40.6846 24.0744 40.8709 23.9179 41.0312C23.1411 41.4675 22.4809 41.3489 21.9375 40.6758C21.8111 39.8033 21.7434 38.923 21.7343 38.0352C21.6158 37.9166 21.4974 37.7982 21.3789 37.6797C20.3294 37.6459 19.2799 37.6119 18.2304 37.5781C18.0951 37.5104 17.9596 37.4427 17.8242 37.375C17.0331 36.4212 17.1686 35.6426 18.2304 35.0391C18.7044 35.0052 19.1783 34.9713 19.6523 34.9375C19.8096 34.8142 19.9281 34.6619 20.0078 34.4805C20.0755 33.7695 20.0755 33.0586 20.0078 32.3477C19.8913 32.1121 19.705 31.9767 19.4492 31.9414Z" fill="#FCE792"/>
<path fill-rule="evenodd" clip-rule="evenodd" d="M45.1445 10.8164C46.7279 12.7629 47.9466 14.9296 48.8008 17.3164C47.7887 18.3793 46.7562 19.4287 45.7031 20.4648C45.656 20.5252 45.639 20.5929 45.6523 20.668C44.9173 18.1822 43.8001 15.8802 42.3008 13.7617C43.322 12.8423 44.2699 11.8605 45.1445 10.8164Z" fill="#FDE892"/>
<path fill-rule="evenodd" clip-rule="evenodd" d="M38.6445 13.2539C40.7159 15.6699 42.1208 18.4459 42.8594 21.582C44.3948 31.3059 40.9586 38.6523 32.5508 43.6211C25.9918 45.8526 19.9318 44.9217 14.3711 40.8281C13.7418 40.2831 13.1324 39.7245 12.543 39.1523C13.2201 38.6784 13.7955 38.1029 14.2695 37.4258C14.8476 38.2046 15.6263 38.5093 16.6055 38.3398C17.113 38.8255 17.7224 39.0964 18.4336 39.1523C18.1848 41.171 19.065 42.1527 21.0742 42.0977C21.4103 42.3677 21.7827 42.5878 22.1914 42.7578C23.6 43.0619 24.7172 42.6387 25.543 41.4883C26.1518 42.0181 26.8628 42.2213 27.6758 42.0977C28.0119 42.3677 28.3843 42.5878 28.793 42.7578C30.3963 43.0816 31.5643 42.523 32.2969 41.082C32.4177 40.3096 32.4855 39.5311 32.5 38.7461C34.4735 38.0934 35.9969 36.8746 37.0703 35.0898C39.0678 31.0185 38.4077 27.4638 35.0898 24.4258C36.4382 21.8122 36.4382 19.2055 35.0898 16.6055C35.1649 16.6188 35.2326 16.6018 35.293 16.5547C36.3995 15.4311 37.5167 14.3309 38.6445 13.2539Z" fill="#F8A100"/>
<path fill-rule="evenodd" clip-rule="evenodd" d="M16.6055 13.5586C15.5223 14.9114 15.5223 16.2656 16.6055 17.6211C15.4818 17.7955 14.6524 17.3892 14.1172 16.4023C13.7646 14.4354 14.594 13.4875 16.6055 13.5586Z" fill="#F28C00"/>
<path fill-rule="evenodd" clip-rule="evenodd" d="M23.1055 16.9102C25.0693 16.8932 27.0329 16.9102 28.9961 16.9609C31.3378 17.6317 32.3027 19.1721 31.8907 21.582C31.3825 23.0719 30.3499 23.9351 28.793 24.1719C26.8971 24.2396 25.0014 24.2396 23.1055 24.1719C22.9148 24.0152 22.7624 23.829 22.6485 23.6133C22.5807 21.5482 22.5807 19.483 22.6485 17.418C22.7526 17.1959 22.9049 17.0265 23.1055 16.9102Z" fill="#060503"/>
<path fill-rule="evenodd" clip-rule="evenodd" d="M48.8008 17.3164C49.6903 19.4873 50.215 21.7556 50.375 24.1211C50.7415 33.493 47.1361 40.8901 39.5586 46.3125C32.5399 50.7536 25.1259 51.5831 17.3164 48.8008C18.3998 47.7513 19.483 46.7018 20.5664 45.6523C27.6646 47.2884 33.9954 45.7819 39.5586 41.1328C45.3922 35.4622 47.4235 28.6406 45.6523 20.668C45.639 20.5929 45.656 20.5252 45.7031 20.4648C46.7562 19.4287 47.7887 18.3793 48.8008 17.3164Z" fill="#FCDB4F"/>
<path fill-rule="evenodd" clip-rule="evenodd" d="M16.707 17.7227C17.2244 18.1841 17.8338 18.421 18.5352 18.4336C18.5182 22.2254 18.5352 26.0171 18.5859 29.8086C18.721 30.1648 18.9749 30.334 19.3477 30.3164C19.319 30.8676 19.3528 31.4092 19.4492 31.9414C19.0616 31.873 18.7738 32.0083 18.5859 32.3477C18.5353 32.7186 18.5184 33.0909 18.5352 33.4648C17.8338 33.4774 17.2244 33.7144 16.707 34.1758C16.707 28.6914 16.707 23.207 16.707 17.7227Z" fill="#F48D00"/>
<path fill-rule="evenodd" clip-rule="evenodd" d="M24.2227 18.4336C25.4076 18.4336 26.5924 18.4336 27.7773 18.4336C28.947 19.7916 28.981 21.1796 27.8789 22.5977C26.6602 22.5977 25.4414 22.5977 24.2227 22.5977C24.2227 21.2096 24.2227 19.8216 24.2227 18.4336Z" fill="#FEBC00"/>
<path fill-rule="evenodd" clip-rule="evenodd" d="M27.7773 18.4336C29.5376 18.3157 30.4348 19.1282 30.4688 20.8711C30.256 21.8457 29.6636 22.4212 28.6914 22.5977C28.4205 22.5977 28.1498 22.5977 27.8789 22.5977C28.981 21.1796 28.947 19.7916 27.7773 18.4336Z" fill="#F18B00"/>
<path fill-rule="evenodd" clip-rule="evenodd" d="M24.2227 18.4336C24.2227 19.8216 24.2227 21.2096 24.2227 22.5977C25.4414 22.5977 26.6602 22.5977 27.8789 22.5977C28.1498 22.5977 28.4205 22.5977 28.6914 22.5977C27.1858 22.6988 25.6624 22.7326 24.1211 22.6992C24.0877 21.2594 24.1215 19.8375 24.2227 18.4336Z" fill="#825D00"/>
<path fill-rule="evenodd" clip-rule="evenodd" d="M23.1055 26.7617C25.5432 26.7448 27.9807 26.7617 30.418 26.8125C32.2766 27.1405 33.4785 28.207 34.0235 30.0117C34.2926 32.5402 33.2262 34.1822 30.8242 34.9375C28.1748 35.0371 25.5342 35.0033 22.9024 34.8359C22.8302 34.7085 22.7456 34.5901 22.6485 34.4805C22.5807 32.1107 22.5807 29.7409 22.6485 27.3711C22.7837 27.1517 22.9361 26.9486 23.1055 26.7617Z" fill="#070502"/>
<path fill-rule="evenodd" clip-rule="evenodd" d="M24.2227 28.3867C26.0511 28.3698 27.8792 28.3867 29.707 28.4375C31.09 30.1471 31.0562 31.8229 29.6055 33.4648C27.8112 33.4648 26.017 33.4648 24.2227 33.4648C24.2227 31.7721 24.2227 30.0795 24.2227 28.3867Z" fill="#F9A200"/>
<path fill-rule="evenodd" clip-rule="evenodd" d="M24.2227 28.3867C26.2365 28.2687 28.2678 28.2517 30.3164 28.3359C31.957 28.7241 32.6849 29.7567 32.5 31.4336C32.0551 32.8424 31.0902 33.5195 29.6055 33.4648C31.0562 31.8229 31.09 30.1471 29.707 28.4375C27.8792 28.3867 26.0511 28.3698 24.2227 28.3867Z" fill="#ED8900"/>
<path fill-rule="evenodd" clip-rule="evenodd" d="M16.6055 34.2773C15.5223 35.6301 15.5223 36.9844 16.6055 38.3398C15.6263 38.5092 14.8476 38.2046 14.2695 37.4258C13.5995 35.3182 14.3782 34.2688 16.6055 34.2773Z" fill="#F28C00"/>
<path fill-rule="evenodd" clip-rule="evenodd" d="M7.76953 35.1914C8.63318 36.7829 9.6488 38.2724 10.8164 39.6602C9.97006 40.4388 9.15756 41.2513 8.37891 42.0977C8.20963 42.1992 8.07422 42.3346 7.97266 42.5039C6.73602 41.1652 5.65268 39.7095 4.72266 38.1367C4.99349 37.9336 5.23047 37.6966 5.43359 37.4258C6.21224 36.681 6.99088 35.9362 7.76953 35.1914Z" fill="#FDE892"/>
<path fill-rule="evenodd" clip-rule="evenodd" d="M18.4336 39.1523C19.043 39.1523 19.6523 39.1523 20.2617 39.1523C20.1078 40.2646 20.3787 41.2464 21.0742 42.0977C19.065 42.1527 18.1848 41.171 18.4336 39.1523Z" fill="#F38C00"/>
<path fill-rule="evenodd" clip-rule="evenodd" d="M27.6758 42.0977C26.8628 42.2213 26.1518 42.0181 25.543 41.4883C25.8101 40.7366 25.9116 39.9579 25.8477 39.1523C26.1862 39.1523 26.5248 39.1523 26.8633 39.1523C26.7094 40.2646 26.9803 41.2464 27.6758 42.0977Z" fill="#EC8900"/>
<path fill-rule="evenodd" clip-rule="evenodd" d="M10.8164 39.6602C11.7402 40.6185 12.722 41.4987 13.7617 42.3008C12.9154 43.2148 12.0352 44.0951 11.1211 44.9414C10.212 43.9983 9.29794 43.0504 8.37891 42.0977C9.15756 41.2513 9.97006 40.4388 10.8164 39.6602Z" fill="#FEDD4F"/>
<path fill-rule="evenodd" clip-rule="evenodd" d="M8.37891 42.0977C9.29794 43.0504 10.212 43.9983 11.1211 44.9414C11.0731 45.0842 10.9715 45.1519 10.8164 45.1445C9.77418 44.3734 8.82627 43.4932 7.97266 42.5039C8.07422 42.3346 8.20963 42.1992 8.37891 42.0977Z" fill="#E9C703"/>
<path fill-rule="evenodd" clip-rule="evenodd" d="M13.7617 42.3008C15.8562 43.7712 18.1244 44.8884 20.5664 45.6523C19.483 46.7018 18.3998 47.7513 17.3164 48.8008C14.9296 47.9466 12.7629 46.7279 10.8164 45.1445C10.9715 45.1519 11.0731 45.0842 11.1211 44.9414C12.0352 44.0951 12.9154 43.2148 13.7617 42.3008Z" fill="#FDE892"/>
</g>
<defs>
<clipPath id="clip0_57_461">
<rect width="52" height="52" fill="white"/>
</clipPath>
</defs>
</svg>
