<svg width="60" height="61" viewBox="0 0 60 61" fill="none" xmlns="http://www.w3.org/2000/svg">
<path d="M55.4397 44.1005H4.55936C2.52675 44.1005 0.878906 42.4526 0.878906 40.4201V4.55983C0.878906 2.52687 2.52687 0.878906 4.55936 0.878906H55.4397C57.4723 0.878906 59.1201 2.52687 59.1201 4.55983V40.4201C59.1201 42.4527 57.4722 44.1005 55.4397 44.1005Z" fill="#5290D9"/>
<path d="M59.1197 4.56032V40.4206C59.1197 42.4532 57.4727 44.1001 55.4402 44.1001H53.0532C55.0857 44.1001 56.7337 42.4532 56.7337 40.4206V4.56032C56.7337 2.52736 55.0857 0.879395 53.0532 0.879395H55.4402C57.4727 0.879395 59.1197 2.52736 59.1197 4.56032Z" fill="#3C7DBC"/>
<path d="M52.6186 17.0787H21.3143C21.2374 17.0787 21.1612 17.0635 21.0901 17.0341C21.019 17.0046 20.9545 16.9615 20.9001 16.907C20.8457 16.8526 20.8025 16.788 20.7731 16.717C20.7436 16.6459 20.7285 16.5697 20.7285 16.4927V13.4078C20.7285 13.3309 20.7436 13.2547 20.7731 13.1836C20.8025 13.1125 20.8457 13.0479 20.9001 12.9935C20.9545 12.9391 21.0191 12.8959 21.0902 12.8665C21.1613 12.837 21.2375 12.8219 21.3145 12.8219H52.6186C52.7741 12.8219 52.9231 12.8837 53.0331 12.9935C53.143 13.1034 53.2049 13.2524 53.205 13.4078V16.4927C53.205 16.6482 53.1431 16.7972 53.0332 16.9071C52.9232 17.017 52.7741 17.0787 52.6186 17.0787Z" fill="#E6F2EC"/>
<path d="M53.2046 13.4078V16.4932C53.2046 16.5702 53.1894 16.6464 53.16 16.7174C53.1305 16.7885 53.0874 16.8531 53.033 16.9076C52.9786 16.962 52.914 17.0051 52.8429 17.0346C52.7718 17.064 52.6956 17.0792 52.6186 17.0791H50.2427C50.3981 17.0791 50.5471 17.0173 50.6569 16.9075C50.7668 16.7976 50.8286 16.6486 50.8286 16.4932V13.4078C50.8285 13.2525 50.7667 13.1035 50.6569 12.9937C50.547 12.8838 50.398 12.822 50.2427 12.8219H52.6186C52.6956 12.8219 52.7718 12.837 52.8429 12.8665C52.914 12.8959 52.9786 12.9391 53.033 12.9935C53.0874 13.0479 53.1305 13.1125 53.16 13.1836C53.1894 13.2547 53.2046 13.3309 53.2046 13.4078Z" fill="#D5E2DB"/>
<path d="M34.5906 44.8867H25.4082V58.5014C25.4082 59.0039 25.9126 59.3501 26.3811 59.1695L29.742 57.8747C29.9076 57.8105 30.0912 57.8105 30.2568 57.8747L33.6173 59.1695C34.0862 59.3502 34.5901 59.004 34.5901 58.5014V44.8867H34.5906Z" fill="#FF5426"/>
<path d="M34.5908 44.8862V58.5019C34.5908 59.0044 34.0869 59.3505 33.6178 59.1699L32.8979 58.8925V44.8862H34.5908Z" fill="#F04424"/>
<path d="M41.9038 39.0019C41.9038 40.2184 40.4857 41.1959 40.1295 42.2935C39.7598 43.4311 40.3196 45.0528 39.6306 45.9995C38.9346 46.956 37.2148 46.9216 36.2584 47.6177C35.3115 48.3067 34.8163 49.957 33.6788 50.3265C32.5811 50.6827 31.2163 49.6502 29.9993 49.6502C28.7829 49.6502 27.4175 50.6827 26.3202 50.3265C25.1823 49.9569 24.6875 48.3068 23.7408 47.6177C22.7843 46.9216 21.0645 46.956 20.3686 45.9995C19.6793 45.0528 20.2387 43.4311 19.8697 42.2935C19.5134 41.1959 18.0952 40.2183 18.0952 39.0019C18.0952 37.7855 19.5134 36.808 19.8696 35.7103C20.2392 34.5728 19.6794 32.951 20.3684 32.0038C21.0645 31.0479 22.7843 31.0823 23.7407 30.3862C24.6875 29.6971 25.1828 28.0465 26.3202 27.6774C27.418 27.3212 28.7834 28.3537 29.9998 28.3537C31.2161 28.3537 32.5816 27.3212 33.6793 27.6774C34.8167 28.0465 35.3115 29.6971 36.2583 30.3862C37.2148 31.0823 38.9345 31.0479 39.6305 32.0038C40.3197 32.951 39.7603 34.5728 40.1294 35.7103C40.4857 36.808 41.9038 37.7855 41.9038 39.0019Z" fill="#FFCD6B"/>
<path d="M40.1296 42.2935C39.7601 43.4311 40.3195 45.0533 39.6307 45.9996C38.9347 46.9561 37.215 46.9217 36.2585 47.6182C35.3113 48.3068 34.817 49.9565 33.6795 50.3265C33.0783 50.5219 32.3983 50.3013 31.7061 50.0606C31.9858 50.1578 32.7432 48.8442 32.8729 48.6562C33.5831 47.6264 34.7312 47.0638 35.7 46.3211C36.6946 45.5594 37.2526 44.7474 37.5327 43.4907C37.6877 42.7952 37.7184 42.1221 38.1447 41.5164C38.7083 40.7176 39.5089 39.9662 39.5089 38.9406C39.5089 37.7233 38.0898 36.7448 37.7326 35.6458C37.4157 34.6692 37.6749 33.5632 37.1398 32.6508C36.7001 31.9011 35.9114 31.3542 35.1778 30.9222C34.5791 30.5693 33.9742 30.2125 33.4979 29.6972C33.3236 29.5087 32.0609 27.8218 31.8193 27.9048C32.4722 27.6806 33.1119 27.494 33.6794 27.6779C34.817 28.0474 35.3113 29.6972 36.2585 30.3863C37.215 31.0823 38.9347 31.0483 39.6307 32.0043C40.32 32.9511 39.7601 34.5729 40.1296 35.7104C40.4855 36.8085 41.9041 37.786 41.9041 39.0024C41.9041 40.2193 40.4855 41.196 40.1297 42.2937L40.1296 42.2935Z" fill="#FFC143"/>
<path d="M37.4498 39.0019C37.4498 43.1165 34.1142 46.4521 29.9996 46.4521C25.8849 46.4521 22.5498 43.1165 22.5498 39.0019C22.5498 34.8872 25.8849 31.5518 29.9996 31.5518C34.1142 31.5518 37.4498 34.8874 37.4498 39.0019Z" fill="#FFAA00"/>
<path d="M37.4498 39.0024C37.4498 43.1165 34.1146 46.4517 29.9995 46.4517C28.6189 46.4517 27.3256 46.0767 26.2178 45.422C26.9131 45.6302 27.635 45.7357 28.3608 45.7351C32.4755 45.7351 35.8111 42.3995 35.8111 38.2849C35.8111 35.5504 34.3379 33.1607 32.1421 31.865C35.2127 32.7848 37.4498 35.632 37.4498 39.0024Z" fill="#FF9500"/>
<path d="M29.9992 30.6728C25.4069 30.6728 21.6701 34.4091 21.6701 39.0019C21.6701 43.5947 25.4069 47.331 29.9991 47.331C34.592 47.331 38.3288 43.5947 38.3288 39.002C38.3288 34.4093 34.592 30.6728 29.9992 30.6728ZM29.9992 45.5727C26.3762 45.5727 23.4285 42.625 23.4285 39.002C23.4285 35.3791 26.3762 32.4312 29.9992 32.4312C33.6228 32.4312 36.5704 35.3788 36.5704 39.0019C36.5704 42.625 33.6228 45.5726 29.9992 45.5726V45.5727ZM19.849 16.4927C19.849 17.3006 20.5063 17.9581 21.3143 17.9581H52.6185C53.4264 17.9581 54.0838 17.3006 54.0838 16.4927V13.4079C54.0838 12.6001 53.4268 11.9425 52.6185 11.9425H35.0986C34.8655 11.9425 34.6419 12.0352 34.477 12.2C34.3121 12.3649 34.2195 12.5885 34.2195 12.8217C34.2195 13.0548 34.3121 13.2785 34.477 13.4433C34.6419 13.6082 34.8655 13.7008 35.0986 13.7008H52.3255V16.1998H21.6073V13.7008H30.9955C31.2287 13.7008 31.4523 13.6082 31.6172 13.4433C31.782 13.2785 31.8747 13.0548 31.8747 12.8217C31.8747 12.5885 31.782 12.3649 31.6172 12.2C31.4523 12.0352 31.2287 11.9425 30.9955 11.9425H21.3143C20.5064 11.9425 19.8489 12.6001 19.8489 13.4079L19.849 16.4927ZM42.6194 9.70088C43.105 9.70088 43.4984 9.30708 43.4984 8.82149C43.4984 8.3359 43.105 7.94258 42.6194 7.94258H20.7284C20.4952 7.94258 20.2716 8.0352 20.1067 8.20007C19.9418 8.36495 19.8492 8.58856 19.8492 8.82173C19.8492 9.05489 19.9418 9.27851 20.1067 9.44338C20.2716 9.60825 20.4952 9.70088 20.7284 9.70088H42.6194ZM20.7284 21.7122H53.2049C53.6905 21.7122 54.0838 21.3184 54.0838 20.8329C54.0838 20.3473 53.6905 19.9539 53.205 19.9539H20.7284C20.4952 19.9539 20.2716 20.0466 20.1067 20.2114C19.9418 20.3763 19.8492 20.5999 19.8492 20.8331C19.8492 21.0663 19.9418 21.2899 20.1067 21.4547C20.2716 21.6196 20.4952 21.7122 20.7284 21.7122ZM53.205 9.70088C53.6905 9.70088 54.0838 9.30708 54.0838 8.82149C54.0838 8.3359 53.6905 7.94258 53.2049 7.94258H46.8528C46.6197 7.94258 46.3961 8.0352 46.2312 8.20007C46.0663 8.36495 45.9737 8.58856 45.9737 8.82173C45.9737 9.05489 46.0663 9.27851 46.2312 9.44338C46.3961 9.60825 46.6197 9.70088 46.8528 9.70088H53.205ZM8.24374 17.9415C7.69536 17.9415 7.25391 18.6839 7.25391 19.1787C7.25391 20.1685 8.86231 21.3175 11.0008 21.3707V21.8654C11.0008 22.0951 11.2662 22.3075 11.6018 22.3075C11.9026 22.3075 12.203 22.0951 12.203 21.8654V21.3175C14.1823 20.9994 15.5435 19.7444 15.5435 17.5701C15.5435 15.1663 13.776 14.3708 12.203 13.7876V10.6765C13.3873 10.765 13.7934 11.3308 14.2887 11.3308C14.9425 11.3308 15.2254 10.5173 15.2254 10.1112C15.2254 9.08547 13.352 8.74989 12.203 8.71456V8.25515C12.203 8.02544 11.9026 7.81311 11.6019 7.81311C11.2662 7.81311 11.0011 8.02497 11.0011 8.25515V8.74989C9.23369 8.9796 7.57211 9.95159 7.57211 12.1969C7.57211 14.4591 9.39274 15.1487 11.0011 15.7494V19.2669C9.44556 19.09 8.91502 17.9415 8.24374 17.9415ZM12.0613 16.1736C12.8214 16.5096 13.3873 16.9338 13.3873 17.7998C13.3873 18.6308 12.8389 19.0902 12.0613 19.2492V16.1736ZM9.72844 11.9668C9.72844 11.2951 10.2584 10.871 11.1425 10.7298V13.3987C10.3291 13.0806 9.72844 12.7444 9.72844 11.9668Z" fill="black"/>
<path d="M55.4397 0H4.55946C2.04503 0 -0.000370896 2.0454 -0.000370896 4.55983V32.012C-0.00227728 32.1287 0.0190538 32.2445 0.0623793 32.3529C0.105705 32.4612 0.170158 32.5598 0.251984 32.643C0.333809 32.7262 0.43137 32.7922 0.538981 32.8373C0.646592 32.8824 0.762101 32.9056 0.878777 32.9056C0.995452 32.9056 1.11096 32.8824 1.21857 32.8373C1.32618 32.7922 1.42374 32.7262 1.50557 32.643C1.58739 32.5598 1.65185 32.4612 1.69517 32.3529C1.7385 32.2445 1.75983 32.1287 1.75792 32.012V4.55983C1.75792 3.01516 3.01467 1.75829 4.55946 1.75829H55.4397C56.9844 1.75829 58.2411 3.01504 58.2411 4.55983V40.42C58.2411 41.9647 56.9844 43.2214 55.4397 43.2214H40.8727C40.8814 42.9744 40.9056 42.7492 40.9658 42.5649C41.0685 42.248 41.3518 41.8776 41.6521 41.4851C42.1822 40.7923 42.7828 40.0065 42.7828 39.0019C42.7828 37.9972 42.1822 37.2114 41.6521 36.5187C41.3518 36.1262 41.0685 35.7552 40.9658 35.4388C40.8535 35.0945 40.8636 34.6104 40.8735 34.0973C40.891 33.2405 40.9107 32.2688 40.3418 31.4871C39.7673 30.6975 38.8324 30.4165 38.0076 30.168C37.521 30.0217 37.0612 29.8833 36.7755 29.6755C36.4967 29.4725 36.2272 29.0823 35.9415 28.6687C35.4491 27.9552 34.8906 27.1464 33.9502 26.8411C33.0447 26.5472 32.135 26.8631 31.3327 27.1418C30.8402 27.3128 30.3753 27.4742 29.9993 27.4742C29.6237 27.4742 29.1585 27.3128 28.6659 27.1418C27.8637 26.8631 26.9545 26.5472 26.0485 26.8411C25.108 27.1464 24.55 27.9552 24.0572 28.6687C23.7715 29.0818 23.502 29.4725 23.2231 29.675C22.9375 29.8833 22.4781 30.0217 21.9911 30.168C21.1663 30.4165 20.2319 30.6975 19.6574 31.4866C19.0884 32.2688 19.1076 33.2399 19.125 34.0973C19.1351 34.6099 19.1452 35.0941 19.0335 35.4389C18.9302 35.7552 18.6468 36.1262 18.3471 36.5182C17.817 37.2114 17.2159 37.9974 17.2159 39.0019C17.2159 40.0064 17.8165 40.7919 18.3471 41.4851C18.6468 41.8776 18.9302 42.248 19.0334 42.5649C19.093 42.7492 19.1177 42.9739 19.1264 43.2214H4.55946C3.01479 43.2214 1.75792 41.9647 1.75792 40.42V36.1206C1.75794 36.0052 1.73522 35.8909 1.69105 35.7843C1.64689 35.6776 1.58215 35.5807 1.50053 35.4991C1.41891 35.4175 1.32202 35.3528 1.21538 35.3086C1.10873 35.2644 0.994436 35.2417 0.879011 35.2417C0.763551 35.2417 0.649211 35.2644 0.542522 35.3085C0.435833 35.3526 0.338887 35.4174 0.257223 35.499C0.175558 35.5806 0.110776 35.6775 0.0665772 35.7842C0.0223784 35.8909 -0.000370913 36.0052 -0.000370896 36.1206V40.4201C-0.000370896 42.934 2.04503 44.9798 4.55946 44.9798H19.1425C19.1888 45.5167 19.3181 46.0504 19.6574 46.5172C20.2319 47.3062 21.1668 47.5874 21.9911 47.8358C22.4781 47.9821 22.938 48.1206 23.2231 48.3282C23.5019 48.5313 23.7719 48.922 24.0572 49.3351C24.2058 49.5501 24.3602 49.7735 24.5294 49.9895V58.5016C24.5294 59.0274 24.7881 59.5189 25.2218 59.8164C25.4352 59.963 25.6811 60.0554 25.9382 60.0857C26.1954 60.116 26.456 60.0832 26.6977 59.9901L29.9993 58.7178L33.3015 59.9898C33.543 60.0831 33.8037 60.116 34.0609 60.0858C34.3181 60.0556 34.564 59.9631 34.7774 59.8164C34.9909 59.67 35.1655 59.4737 35.2862 59.2446C35.4068 59.0154 35.4698 58.7604 35.4697 58.5015V49.9893C35.6389 49.7734 35.7934 49.5501 35.942 49.3351C36.2272 48.9216 36.4967 48.5314 36.7755 48.3282C37.0612 48.1205 37.521 47.9821 38.0076 47.8358C38.8324 47.5874 39.7673 47.3062 40.3417 46.5172C40.6809 46.0504 40.8103 45.5167 40.8562 44.9798H55.4397C57.9536 44.9798 59.9995 42.9344 59.9995 40.42V4.55983C59.9995 2.0454 57.9536 0 55.4397 0ZM33.7114 58.2635L30.573 57.054C30.2039 56.912 29.7953 56.912 29.4262 57.054L26.2878 58.2635V51.2246C26.4648 51.2622 26.6417 51.2801 26.8177 51.2801C27.462 51.2801 28.0915 51.0613 28.6664 50.8619C29.1589 50.6909 29.6238 50.529 29.9993 50.529C30.3753 50.529 30.8402 50.691 31.3327 50.8619C32.0645 51.1159 32.8856 51.3997 33.7114 51.2246V58.2635ZM40.2551 40.4173C39.8787 40.9097 39.489 41.4191 39.2932 42.0221C39.0901 42.6484 39.1029 43.3058 39.1157 43.9418C39.128 44.5502 39.1409 45.1789 38.9199 45.4823C38.6939 45.7933 38.0873 45.9757 37.5008 46.1517C36.8947 46.3342 36.2684 46.5231 35.7407 46.9069C35.2198 47.2856 34.8517 47.8193 34.495 48.3361C34.1441 48.8436 33.7819 49.3687 33.4074 49.4901C33.0634 49.6015 32.4766 49.398 31.9094 49.2008C31.301 48.9895 30.6715 48.7712 29.9993 48.7712C29.3271 48.7712 28.6976 48.9895 28.0892 49.2008C27.522 49.398 26.9356 49.602 26.5918 49.4901C26.2171 49.3687 25.8544 48.8436 25.5042 48.3361C25.1475 47.8198 24.7788 47.2856 24.258 46.9069C23.7307 46.5226 23.104 46.3342 22.4978 46.1517C21.9119 45.9757 21.3053 45.7933 21.0792 45.4823C20.8582 45.1788 20.871 44.5498 20.883 43.9418C20.8959 43.3058 20.9091 42.6483 20.7055 42.0221C20.5097 41.4196 20.1205 40.9097 19.7436 40.4173C19.3653 39.9226 18.9742 39.4114 18.9742 39.0019C18.9742 38.5923 19.3653 38.0812 19.7436 37.5865C20.1204 37.094 20.5097 36.5846 20.7055 35.9818C20.9091 35.3555 20.8958 34.6979 20.883 34.062C20.871 33.454 20.8582 32.825 21.0792 32.5214C21.3053 32.2111 21.9114 32.0281 22.4978 31.852C23.104 31.6695 23.7307 31.4806 24.258 31.0973C24.7788 30.7182 25.1475 30.1841 25.5042 29.6682C25.8544 29.1602 26.2171 28.6357 26.5918 28.5137C26.6592 28.4917 26.7362 28.482 26.8206 28.482C27.1653 28.482 27.6335 28.6448 28.0893 28.8031C28.6976 29.0143 29.3271 29.2331 29.9993 29.2331C30.6714 29.2331 31.301 29.0143 31.9094 28.8031C32.4766 28.6059 33.0634 28.4023 33.4074 28.5137C33.7815 28.6352 34.1441 29.1602 34.495 29.6678C34.8512 30.184 35.2198 30.7182 35.7407 31.0974C36.2684 31.4806 36.8947 31.6695 37.5008 31.8521C38.0873 32.0282 38.6939 32.2111 38.9199 32.5214C39.1405 32.825 39.128 33.4541 39.1157 34.062C39.1028 34.6979 39.09 35.3555 39.2932 35.9818C39.489 36.5846 39.8787 37.094 40.2551 37.5865C40.6334 38.0812 41.0245 38.5925 41.0245 39.0019C41.0245 39.4113 40.6334 39.9226 40.2551 40.4173Z" fill="black"/>
<path d="M6.06689 29.6283C6.06688 29.7437 6.08961 29.858 6.13378 29.9647C6.17795 30.0713 6.2427 30.1682 6.32433 30.2498C6.40596 30.3315 6.50287 30.3962 6.60953 30.4404C6.71618 30.4845 6.83049 30.5072 6.94593 30.5072H17.3607C17.5939 30.5072 17.8175 30.4146 17.9824 30.2497C18.1473 30.0848 18.2399 29.8612 18.2399 29.6281C18.2399 29.3949 18.1473 29.1713 17.9824 29.0064C17.8175 28.8415 17.5939 28.7489 17.3607 28.7489H6.94593C6.83046 28.7489 6.71614 28.7717 6.60947 28.8159C6.50281 28.8601 6.40589 28.9249 6.32427 29.0065C6.24264 29.0882 6.1779 29.1851 6.13374 29.2918C6.08958 29.3985 6.06686 29.5128 6.06689 29.6283ZM6.94593 34.2198H15.3855C15.6186 34.2198 15.8422 34.1271 16.007 33.9622C16.1718 33.7974 16.2644 33.5738 16.2644 33.3407C16.2645 33.2252 16.2418 33.1109 16.1976 33.0042C16.1535 32.8975 16.0888 32.8006 16.0071 32.719C15.9255 32.6373 15.8286 32.5725 15.722 32.5283C15.6153 32.4841 15.501 32.4614 15.3855 32.4614H6.94593C6.46034 32.4614 6.06689 32.8552 6.06689 33.3408C6.06689 33.8264 6.46034 34.2197 6.94593 34.2197V34.2198ZM6.94593 37.9322H13.9789C14.0955 37.9341 14.2114 37.9128 14.3198 37.8694C14.4281 37.8261 14.5267 37.7617 14.6099 37.6798C14.6931 37.598 14.7591 37.5005 14.8042 37.3928C14.8493 37.2852 14.8725 37.1697 14.8725 37.053C14.8725 36.9364 14.8493 36.8209 14.8042 36.7133C14.7591 36.6056 14.6931 36.5081 14.6099 36.4263C14.5267 36.3444 14.4281 36.28 14.3198 36.2366C14.2114 36.1933 14.0955 36.172 13.9789 36.1739H6.94593C6.83046 36.1739 6.71614 36.1967 6.60947 36.2409C6.50281 36.2851 6.40589 36.3499 6.32427 36.4315C6.24264 36.5132 6.1779 36.6101 6.13374 36.7168C6.08958 36.8235 6.06686 36.9378 6.06689 37.0533C6.06688 37.1687 6.08961 37.283 6.13378 37.3897C6.17795 37.4963 6.2427 37.5932 6.32433 37.6748C6.40596 37.7565 6.50287 37.8212 6.60953 37.8654C6.71618 37.9095 6.83049 37.9322 6.94593 37.9322ZM53.0533 28.7489H42.638C42.1524 28.7489 41.7589 29.1427 41.7589 29.6283C41.7589 30.1139 42.1524 30.5072 42.638 30.5072H53.0533C53.5388 30.5072 53.9322 30.1139 53.9322 29.6283C53.9322 29.1427 53.5388 28.7489 53.0533 28.7489ZM53.0533 32.4614H44.6137C44.3805 32.4614 44.1569 32.554 43.992 32.7189C43.8271 32.8838 43.7345 33.1074 43.7345 33.3406C43.7345 33.5737 43.8271 33.7973 43.992 33.9622C44.1569 34.1271 44.3805 34.2197 44.6137 34.2197H53.0533C53.2864 34.2197 53.51 34.1271 53.6749 33.9622C53.8398 33.7973 53.9324 33.5737 53.9324 33.3406C53.9324 33.1074 53.8398 32.8838 53.6749 32.7189C53.51 32.554 53.2864 32.4614 53.0533 32.4614ZM53.0533 36.1739H46.0203C45.9036 36.172 45.7878 36.1933 45.6794 36.2366C45.5711 36.28 45.4725 36.3444 45.3893 36.4263C45.3061 36.5081 45.2401 36.6056 45.195 36.7133C45.1499 36.8209 45.1267 36.9364 45.1267 37.053C45.1267 37.1697 45.1499 37.2852 45.195 37.3928C45.2401 37.5005 45.3061 37.598 45.3893 37.6798C45.4725 37.7617 45.5711 37.8261 45.6794 37.8694C45.7878 37.9128 45.9036 37.9341 46.0203 37.9322H53.0533C53.2863 37.9321 53.5099 37.8395 53.6747 37.6747C53.8395 37.5099 53.9321 37.2864 53.9322 37.0533C53.9322 36.9378 53.9096 36.8235 53.8654 36.7168C53.8213 36.6101 53.7566 36.5131 53.6749 36.4314C53.5933 36.3497 53.4964 36.2849 53.3897 36.2407C53.2831 36.1965 53.1687 36.1739 53.0533 36.1739Z" fill="black"/>
</svg>
