<svg width="53" height="52" viewBox="0 0 53 52" fill="none" xmlns="http://www.w3.org/2000/svg">
<g clip-path="url(#clip0_57_245)">
<path opacity="0.99" fill-rule="evenodd" clip-rule="evenodd" d="M7.08728 -0.0507812C8.61072 -0.0507812 10.1342 -0.0507812 11.6576 -0.0507812C11.8697 0.135648 12.005 0.372628 12.0638 0.660156C12.0208 1.03045 11.8177 1.28436 11.4545 1.42188C10.3717 1.47264 9.28833 1.48957 8.20447 1.47266C8.20447 2.45443 8.20447 3.43619 8.20447 4.41797C19.0039 4.41797 29.8035 4.41797 40.6029 4.41797C41.8217 4.41797 43.0404 4.41797 44.2592 4.41797C44.2592 3.43619 44.2592 2.45443 44.2592 1.47266C43.0404 1.47266 41.8217 1.47266 40.6029 1.47266C32.2409 1.48959 23.8789 1.47266 15.517 1.42188C15.4239 1.38387 15.3392 1.33309 15.2631 1.26953C15.1772 1.05508 15.0926 0.851957 15.0092 0.660156C15.068 0.372628 15.2033 0.135648 15.4154 -0.0507812C25.4363 -0.0507812 35.457 -0.0507812 45.4779 -0.0507812C45.6136 0.102606 45.7321 0.271877 45.8334 0.457031C45.8842 1.81078 45.9011 3.16494 45.8842 4.51953C46.6974 4.50263 47.5099 4.51956 48.3217 4.57031C48.5235 4.70426 48.642 4.89047 48.6771 5.12891C48.7279 8.75114 48.7449 12.3736 48.7279 15.9961C49.8118 15.9791 50.8951 15.9961 51.9779 16.0469C52.0666 16.153 52.1681 16.2376 52.2826 16.3008C52.2826 18.2643 52.2826 20.2279 52.2826 22.1914C52.1681 22.2546 52.0666 22.3392 51.9779 22.4453C50.8951 22.4961 49.8118 22.5131 48.7279 22.4961C48.7279 25.543 48.7279 28.5898 48.7279 31.6367C49.8118 31.6198 50.8951 31.6367 51.9779 31.6875C52.0666 31.7936 52.1681 31.8782 52.2826 31.9414C52.2826 33.9049 52.2826 35.8685 52.2826 37.832C52.1681 37.8952 52.0666 37.9798 51.9779 38.0859C50.8951 38.1367 49.8118 38.1537 48.7279 38.1367C48.7279 40.3373 48.7279 42.5377 48.7279 44.7383C50.5385 44.8576 51.7234 45.7717 52.2826 47.4805C52.2826 48.056 52.2826 48.6315 52.2826 49.207C51.8763 50.6289 50.9623 51.543 49.5404 51.9492C34.0352 51.9492 18.53 51.9492 3.02478 51.9492C1.58229 51.4548 0.668227 50.473 0.282593 49.0039C0.282593 48.5977 0.282593 48.1914 0.282593 47.7852C0.74009 45.9449 1.92499 44.9293 3.83728 44.7383C3.83728 42.5377 3.83728 40.3373 3.83728 38.1367C2.75342 38.1537 1.67009 38.1367 0.58728 38.0859C0.498572 37.9798 0.397009 37.8952 0.282593 37.832C0.282593 35.8685 0.282593 33.9049 0.282593 31.9414C0.397009 31.8782 0.498572 31.7936 0.58728 31.6875C1.67009 31.6367 2.75342 31.6198 3.83728 31.6367C3.83728 28.5898 3.83728 25.543 3.83728 22.4961C2.75342 22.5131 1.67009 22.4961 0.58728 22.4453C0.498572 22.3392 0.397009 22.2546 0.282593 22.1914C0.282593 20.2279 0.282593 18.2643 0.282593 16.3008C0.397009 16.2376 0.498572 16.153 0.58728 16.0469C1.67009 15.9961 2.75342 15.9791 3.83728 15.9961C3.82035 12.3736 3.83728 8.75114 3.88806 5.12891C3.92319 4.89047 4.04167 4.70426 4.24353 4.57031C5.05533 4.51956 5.86783 4.50263 6.68103 4.51953C6.66411 3.16494 6.68104 1.81078 6.73181 0.457031C6.8331 0.271877 6.95158 0.102606 7.08728 -0.0507812Z" fill="black"/>
<path opacity="0.998" fill-rule="evenodd" clip-rule="evenodd" d="M12.0638 0.660156C13.0456 0.660156 14.0274 0.660156 15.0092 0.660156C15.0926 0.851957 15.1772 1.05508 15.2631 1.26953C15.3392 1.33309 15.4239 1.38387 15.517 1.42188C23.8789 1.47266 32.2409 1.48959 40.6029 1.47266C40.6029 2.45443 40.6029 3.43619 40.6029 4.41797C29.8035 4.41797 19.0039 4.41797 8.20447 4.41797C8.20447 3.43619 8.20447 2.45443 8.20447 1.47266C9.28833 1.48957 10.3717 1.47264 11.4545 1.42188C11.8177 1.28436 12.0208 1.03045 12.0638 0.660156Z" fill="#AD7273"/>
<path fill-rule="evenodd" clip-rule="evenodd" d="M40.6029 1.47266C41.8217 1.47266 43.0404 1.47266 44.2592 1.47266C44.2592 2.45443 44.2592 3.43619 44.2592 4.41797C43.0404 4.41797 41.8217 4.41797 40.6029 4.41797C40.6029 3.43619 40.6029 2.45443 40.6029 1.47266Z" fill="#946464"/>
<path fill-rule="evenodd" clip-rule="evenodd" d="M43.4467 6.04297C43.4467 7.70182 43.4467 9.36068 43.4467 11.0195C41.3383 10.9711 39.2394 11.0219 37.1498 11.1719C37.0278 11.2636 36.9431 11.382 36.8959 11.5273C36.8281 15.0143 36.8281 18.5013 36.8959 21.9883C36.9431 22.1336 37.0278 22.252 37.1498 22.3438C39.2394 22.4938 41.3383 22.5445 43.4467 22.4961C43.4467 23.8841 43.4467 25.2721 43.4467 26.6602C41.3383 26.6117 39.2394 26.6625 37.1498 26.8125C37.0278 26.9042 36.9431 27.0226 36.8959 27.168C36.8281 30.6549 36.8281 34.142 36.8959 37.6289C36.9431 37.7742 37.0278 37.8927 37.1498 37.9844C39.2394 38.1344 41.3383 38.1852 43.4467 38.1367C43.4467 39.4909 43.4467 40.8451 43.4467 42.1992C42.2228 42.678 41.4781 43.5581 41.2123 44.8398C38.7783 44.7351 37.3903 45.8861 37.0482 48.293C37.0702 49.0413 37.2733 49.7353 37.6576 50.375C36.4393 50.4258 35.2206 50.4427 34.0013 50.4258C34.0182 49.5449 34.0013 48.6647 33.9506 47.7852C33.7744 47.587 33.5544 47.4854 33.2904 47.4805C33.2904 46.3971 33.2904 45.3138 33.2904 44.2305C33.5544 44.2255 33.7744 44.1239 33.9506 43.9258C34.0183 42.0638 34.0183 40.2018 33.9506 38.3398C33.8482 38.1612 33.6958 38.0427 33.4935 37.9844C28.6523 37.9166 23.8113 37.9166 18.9701 37.9844C18.8177 38.069 18.6992 38.1875 18.6146 38.3398C18.5638 42.3683 18.5469 46.397 18.5638 50.4258C17.3446 50.4427 16.1258 50.4258 14.9076 50.375C15.3543 49.7572 15.5574 49.0631 15.517 48.293C15.473 46.7772 14.762 45.7108 13.3842 45.0938C12.7558 44.9059 12.1126 44.7874 11.4545 44.7383C10.5586 42.4791 8.93361 41.6498 6.57946 42.25C6.17929 42.4415 5.82382 42.6955 5.51306 43.0117C5.46229 41.387 5.44536 39.762 5.46228 38.1367C8.78883 38.1861 12.1065 38.1353 15.4154 37.9844C15.5374 37.8927 15.6221 37.7742 15.6693 37.6289C15.737 34.142 15.737 30.6549 15.6693 27.168C15.6221 27.0226 15.5374 26.9042 15.4154 26.8125C12.1065 26.6616 8.78883 26.6108 5.46228 26.6602C5.46228 25.2721 5.46228 23.8841 5.46228 22.4961C8.78883 22.5455 12.1065 22.4947 15.4154 22.3438C15.5374 22.252 15.6221 22.1336 15.6693 21.9883C15.737 18.5013 15.737 15.0143 15.6693 11.5273C15.6221 11.382 15.5374 11.2636 15.4154 11.1719C12.1065 11.021 8.78883 10.9702 5.46228 11.0195C5.46228 9.36068 5.46228 7.70182 5.46228 6.04297C18.1238 6.04297 30.7852 6.04297 43.4467 6.04297Z" fill="#ECEAEC"/>
<path fill-rule="evenodd" clip-rule="evenodd" d="M43.4467 6.04297C44.6654 6.04297 45.8842 6.04297 47.1029 6.04297C47.1029 7.70182 47.1029 9.36068 47.1029 11.0195C45.8842 11.0195 44.6654 11.0195 43.4467 11.0195C43.4467 9.36068 43.4467 7.70182 43.4467 6.04297Z" fill="#DAD9DB"/>
<path fill-rule="evenodd" clip-rule="evenodd" d="M18.8686 11.0195C20.6632 11.0026 22.4574 11.0195 24.2514 11.0703C24.3967 11.1175 24.5151 11.2022 24.6068 11.3242C24.7734 13.177 24.8072 15.039 24.7084 16.9102C24.6612 17.0555 24.5765 17.1739 24.4545 17.2656C22.6017 17.4322 20.7398 17.466 18.8686 17.3672C18.7232 17.32 18.6048 17.2353 18.5131 17.1133C18.3465 15.2605 18.3127 13.3985 18.4115 11.5273C18.5156 11.3052 18.668 11.1359 18.8686 11.0195Z" fill="black"/>
<path fill-rule="evenodd" clip-rule="evenodd" d="M28.0092 11.0195C29.8038 11.0026 31.598 11.0195 33.392 11.0703C33.5373 11.1175 33.6558 11.2022 33.7475 11.3242C33.914 13.177 33.9479 15.039 33.849 16.9102C33.8018 17.0555 33.7171 17.1739 33.5951 17.2656C31.7423 17.4322 29.8804 17.466 28.0092 17.3672C27.8639 17.32 27.7454 17.2353 27.6537 17.1133C27.4872 15.2605 27.4533 13.3985 27.5522 11.5273C27.6563 11.3052 27.8086 11.1359 28.0092 11.0195Z" fill="black"/>
<path fill-rule="evenodd" clip-rule="evenodd" d="M5.46228 12.543C8.37374 12.543 11.2852 12.543 14.1967 12.543C14.1967 13.694 14.1967 14.8451 14.1967 15.9961C11.2852 15.9961 8.37374 15.9961 5.46228 15.9961C5.46228 14.8451 5.46228 13.694 5.46228 12.543Z" fill="#9BBEE3"/>
<path fill-rule="evenodd" clip-rule="evenodd" d="M19.8842 12.543C21.0013 12.543 22.1185 12.543 23.2357 12.543C23.2357 13.6602 23.2357 14.7773 23.2357 15.8945C22.1185 15.8945 21.0013 15.8945 19.8842 15.8945C19.8842 14.7773 19.8842 13.6602 19.8842 12.543Z" fill="#9BBEE3"/>
<path fill-rule="evenodd" clip-rule="evenodd" d="M29.0248 12.543C30.142 12.543 31.2592 12.543 32.3763 12.543C32.3763 13.6602 32.3763 14.7773 32.3763 15.8945C31.2592 15.8945 30.142 15.8945 29.0248 15.8945C29.0248 14.7773 29.0248 13.6602 29.0248 12.543Z" fill="#9BBEE3"/>
<path fill-rule="evenodd" clip-rule="evenodd" d="M43.4467 12.543C43.4467 13.694 43.4467 14.8451 43.4467 15.9961C41.7539 15.9961 40.0613 15.9961 38.3685 15.9961C38.3685 14.8451 38.3685 13.694 38.3685 12.543C40.0613 12.543 41.7539 12.543 43.4467 12.543Z" fill="#9BBDE3"/>
<path fill-rule="evenodd" clip-rule="evenodd" d="M43.4467 12.543C44.6654 12.543 45.8842 12.543 47.1029 12.543C47.1029 13.694 47.1029 14.8451 47.1029 15.9961C45.8842 15.9961 44.6654 15.9961 43.4467 15.9961C43.4467 14.8451 43.4467 13.694 43.4467 12.543Z" fill="#8DB5E0"/>
<path fill-rule="evenodd" clip-rule="evenodd" d="M1.80603 17.5195C5.93624 17.5195 10.0664 17.5195 14.1967 17.5195C14.1967 18.6705 14.1967 19.8216 14.1967 20.9727C10.0664 20.9727 5.93624 20.9727 1.80603 20.9727C1.80603 19.8216 1.80603 18.6705 1.80603 17.5195Z" fill="#AD7373"/>
<path fill-rule="evenodd" clip-rule="evenodd" d="M47.1029 17.5195C47.1029 18.6705 47.1029 19.8216 47.1029 20.9727C44.1914 20.9727 41.28 20.9727 38.3685 20.9727C38.3685 19.8216 38.3685 18.6705 38.3685 17.5195C41.28 17.5195 44.1914 17.5195 47.1029 17.5195Z" fill="#AD7273"/>
<path fill-rule="evenodd" clip-rule="evenodd" d="M47.1029 17.5195C48.3217 17.5195 49.5404 17.5195 50.7592 17.5195C50.7592 18.6705 50.7592 19.8216 50.7592 20.9727C49.5404 20.9727 48.3217 20.9727 47.1029 20.9727C47.1029 19.8216 47.1029 18.6705 47.1029 17.5195Z" fill="#946464"/>
<path fill-rule="evenodd" clip-rule="evenodd" d="M43.4467 22.4961C44.6654 22.4961 45.8842 22.4961 47.1029 22.4961C47.1029 23.8841 47.1029 25.2721 47.1029 26.6602C45.8842 26.6602 44.6654 26.6602 43.4467 26.6602C43.4467 25.2721 43.4467 23.8841 43.4467 22.4961Z" fill="#DAD9DB"/>
<path fill-rule="evenodd" clip-rule="evenodd" d="M18.8686 26.6602C20.6632 26.6432 22.4574 26.6602 24.2514 26.7109C24.3967 26.7582 24.5151 26.8429 24.6068 26.9648C24.7734 28.8176 24.8072 30.6796 24.7084 32.5508C24.6612 32.6961 24.5765 32.8145 24.4545 32.9062C22.6017 33.0728 20.7398 33.1066 18.8686 33.0078C18.7232 32.9606 18.6048 32.8759 18.5131 32.7539C18.3465 30.9011 18.3127 29.0392 18.4115 27.168C18.5156 26.9459 18.668 26.7765 18.8686 26.6602Z" fill="black"/>
<path fill-rule="evenodd" clip-rule="evenodd" d="M28.0092 26.6602C29.8038 26.6432 31.598 26.6602 33.392 26.7109C33.5373 26.7582 33.6558 26.8429 33.7475 26.9648C33.914 28.8176 33.9479 30.6796 33.849 32.5508C33.8018 32.6961 33.7171 32.8145 33.5951 32.9062C31.7423 33.0728 29.8804 33.1066 28.0092 33.0078C27.8639 32.9606 27.7454 32.8759 27.6537 32.7539C27.4872 30.9011 27.4533 29.0392 27.5522 27.168C27.6563 26.9459 27.8086 26.7765 28.0092 26.6602Z" fill="black"/>
<path fill-rule="evenodd" clip-rule="evenodd" d="M5.46228 28.1836C8.37374 28.1836 11.2852 28.1836 14.1967 28.1836C14.1967 29.3346 14.1967 30.4857 14.1967 31.6367C11.2852 31.6367 8.37374 31.6367 5.46228 31.6367C5.46228 30.4857 5.46228 29.3346 5.46228 28.1836Z" fill="#9BBEE3"/>
<path fill-rule="evenodd" clip-rule="evenodd" d="M19.8842 28.1836C21.0013 28.1836 22.1185 28.1836 23.2357 28.1836C23.2357 29.3008 23.2357 30.418 23.2357 31.5352C22.1185 31.5352 21.0013 31.5352 19.8842 31.5352C19.8842 30.418 19.8842 29.3008 19.8842 28.1836Z" fill="#9BBEE3"/>
<path fill-rule="evenodd" clip-rule="evenodd" d="M29.0248 28.1836C30.142 28.1836 31.2592 28.1836 32.3763 28.1836C32.3763 29.3008 32.3763 30.418 32.3763 31.5352C31.2592 31.5352 30.142 31.5352 29.0248 31.5352C29.0248 30.418 29.0248 29.3008 29.0248 28.1836Z" fill="#9BBEE3"/>
<path fill-rule="evenodd" clip-rule="evenodd" d="M43.4467 28.1836C43.4467 29.5716 43.4467 30.9596 43.4467 32.3477C43.6955 32.3682 43.9324 32.3344 44.1576 32.2461C44.1576 32.3138 44.1576 32.3815 44.1576 32.4492C43.0404 32.4492 41.9232 32.4492 40.806 32.4492C40.8524 32.0511 40.6832 31.7972 40.2982 31.6875C39.6558 31.6367 39.0126 31.6199 38.3685 31.6367C38.3685 30.4857 38.3685 29.3346 38.3685 28.1836C40.0613 28.1836 41.7539 28.1836 43.4467 28.1836Z" fill="#9CBDE3"/>
<path fill-rule="evenodd" clip-rule="evenodd" d="M43.4467 28.1836C44.6654 28.1836 45.8842 28.1836 47.1029 28.1836C47.1029 29.3346 47.1029 30.4857 47.1029 31.6367C46.2559 31.6199 45.4096 31.6367 44.5638 31.6875C44.3283 31.804 44.1929 31.9903 44.1576 32.2461C43.9324 32.3344 43.6955 32.3682 43.4467 32.3477C43.4467 30.9596 43.4467 29.5716 43.4467 28.1836Z" fill="#8CB4DF"/>
<path fill-rule="evenodd" clip-rule="evenodd" d="M40.806 32.4492C41.9232 32.4492 43.0404 32.4492 44.1576 32.4492C44.1519 32.7601 44.2874 32.9802 44.5638 33.1094C45.4096 33.1602 46.2559 33.177 47.1029 33.1602C47.1029 34.3112 47.1029 35.4623 47.1029 36.6133C44.1914 36.6133 41.28 36.6133 38.3685 36.6133C38.3685 35.4623 38.3685 34.3112 38.3685 33.1602C39.0126 33.177 39.6558 33.1602 40.2982 33.1094C40.642 33.0199 40.8113 32.7998 40.806 32.4492Z" fill="#AD7273"/>
<path fill-rule="evenodd" clip-rule="evenodd" d="M1.80603 33.1602C5.93624 33.1602 10.0664 33.1602 14.1967 33.1602C14.1967 34.3112 14.1967 35.4623 14.1967 36.6133C10.0664 36.6133 5.93624 36.6133 1.80603 36.6133C1.80603 35.4623 1.80603 34.3112 1.80603 33.1602Z" fill="#AD7373"/>
<path fill-rule="evenodd" clip-rule="evenodd" d="M47.1029 33.1602C48.3217 33.1602 49.5404 33.1602 50.7592 33.1602C50.7592 34.3112 50.7592 35.4623 50.7592 36.6133C49.5404 36.6133 48.3217 36.6133 47.1029 36.6133C47.1029 35.4623 47.1029 34.3112 47.1029 33.1602Z" fill="#946464"/>
<path fill-rule="evenodd" clip-rule="evenodd" d="M43.4467 38.1367C44.6654 38.1367 45.8842 38.1367 47.1029 38.1367C47.1199 39.7282 47.1029 41.3194 47.0521 42.9102C45.9689 42.0672 44.767 41.8302 43.4467 42.1992C43.4467 40.8451 43.4467 39.4909 43.4467 38.1367Z" fill="#DAD8DB"/>
<path fill-rule="evenodd" clip-rule="evenodd" d="M19.9857 39.457C21.8477 39.457 23.7097 39.457 25.5717 39.457C25.5717 43.1133 25.5717 46.7695 25.5717 50.4258C23.7097 50.4258 21.8477 50.4258 19.9857 50.4258C19.9857 46.7695 19.9857 43.1133 19.9857 39.457Z" fill="#AA7071"/>
<path fill-rule="evenodd" clip-rule="evenodd" d="M33.2904 44.2305C33.2904 45.3138 33.2904 46.3971 33.2904 47.4805C33.0035 47.4379 32.7835 47.5395 32.6302 47.7852C32.5795 48.6647 32.5626 49.5449 32.5795 50.4258C30.7175 50.4258 28.8555 50.4258 26.9935 50.4258C26.9935 46.7695 26.9935 43.1133 26.9935 39.457C28.8555 39.457 30.7175 39.457 32.5795 39.457C32.5625 40.947 32.5795 42.4366 32.6302 43.9258C32.7835 44.1715 33.0035 44.273 33.2904 44.2305Z" fill="#926263"/>
<path fill-rule="evenodd" clip-rule="evenodd" d="M7.392 43.5195C9.22029 43.5029 10.1174 44.4169 10.0834 46.2617C10.168 46.3463 10.2527 46.431 10.3373 46.5156C11.0378 46.4092 11.7487 46.3753 12.4701 46.4141C14.0392 47.0324 14.4285 48.0988 13.6381 49.6133C13.3407 50.0074 12.9514 50.2614 12.4701 50.375C9.42325 50.4427 6.37638 50.4427 3.3295 50.375C2.1165 49.8707 1.65947 48.9735 1.95841 47.6836C2.21232 47.0912 2.6355 46.668 3.22794 46.4141C4.01447 46.3754 4.79311 46.4093 5.56388 46.5156C5.64851 46.431 5.73315 46.3463 5.81778 46.2617C5.71708 44.972 6.24182 44.0579 7.392 43.5195Z" fill="#96C663"/>
<path fill-rule="evenodd" clip-rule="evenodd" d="M46.6967 45.8555C45.8661 45.4901 45.0198 45.4563 44.1576 45.7539C44.1747 45.0601 43.9715 44.4508 43.5482 43.9258C44.5086 43.3195 45.4057 43.421 46.2396 44.2305C46.6364 44.7003 46.7888 45.2419 46.6967 45.8555Z" fill="#8BB951"/>
<path fill-rule="evenodd" clip-rule="evenodd" d="M43.5482 43.9258C43.9715 44.4508 44.1746 45.0601 44.1576 45.7539C45.0198 45.4563 45.8661 45.4901 46.6966 45.8555C46.7028 46.2181 46.872 46.4551 47.2045 46.5664C47.8966 46.8994 48.2013 47.4749 48.1185 48.293C48.1573 49.1282 47.8866 49.8392 47.306 50.4258C44.9021 50.4427 42.4985 50.4258 40.0951 50.375C38.6019 49.7214 38.2125 48.655 38.9271 47.1758C39.2021 46.8098 39.5576 46.5558 39.9935 46.4141C40.7455 46.3839 41.4904 46.4177 42.2279 46.5156C42.3852 46.3923 42.5036 46.24 42.5834 46.0586C42.5761 45.5244 42.6776 45.0166 42.8881 44.5352C43.0309 44.2397 43.2508 44.0366 43.5482 43.9258Z" fill="#97C763"/>
<path fill-rule="evenodd" clip-rule="evenodd" d="M47.306 50.4258C47.8866 49.8392 48.1573 49.1282 48.1185 48.293C48.2013 47.4749 47.8966 46.8994 47.2045 46.5664C47.6963 46.5097 48.1873 46.442 48.6771 46.3633C49.9345 46.4358 50.6284 47.096 50.7592 48.3438C50.7185 49.3734 50.2107 50.0504 49.2357 50.375C48.5933 50.4258 47.9501 50.4426 47.306 50.4258Z" fill="#8CB951"/>
</g>
<defs>
<clipPath id="clip0_57_245">
<rect width="52" height="52" fill="white" transform="translate(0.333374)"/>
</clipPath>
</defs>
</svg>
