<svg width="66" height="66" viewBox="0 0 66 66" fill="none" xmlns="http://www.w3.org/2000/svg">
<g clip-path="url(#clip0_1117_77)">
<mask id="mask0_1117_77" style="mask-type:luminance" maskUnits="userSpaceOnUse" x="0" y="0" width="66" height="66">
<path d="M0 0.000190735H65.9998V66H0V0.000190735Z" fill="white"/>
</mask>
<g mask="url(#mask0_1117_77)">
<path d="M65.0329 28.4515C65.0329 13.2722 52.6715 0.96698 37.423 0.96698C22.1744 0.96698 9.81299 13.2722 9.81299 28.4515C9.81299 43.631 22.1744 55.9362 37.423 55.9362C40.6234 55.9362 43.6958 55.3922 46.5541 54.3954L54.9772 58.4633V49.6666C61.1182 44.6256 65.0329 36.9937 65.0329 28.4515Z" fill="#26C666"/>
<path d="M37.4231 0.966984C36.5536 0.966984 35.6941 1.00901 34.845 1.08725C48.8845 2.38173 59.8768 14.1378 59.8768 28.4515C59.8768 42.5282 48.5887 54.4875 34.8059 55.8124C35.6676 55.8933 36.5402 55.9362 37.4231 55.9362C40.6236 55.9362 43.6959 55.3922 46.5544 54.3954L54.9775 58.4633V49.6665C61.1183 44.6256 65.033 36.9936 65.033 28.4515C65.033 13.2722 52.6717 0.966984 37.4231 0.966984Z" fill="#13AF52"/>
<path d="M28.5399 29.0004C28.5399 31.151 26.7966 32.8943 24.6461 32.8943C22.4954 32.8943 20.7522 31.151 20.7522 29.0004C20.7522 26.8499 22.4954 25.1066 24.6461 25.1066C26.7966 25.1066 28.5399 26.8499 28.5399 29.0004Z" fill="#FFF7E8"/>
<path d="M41.317 29.0004C41.317 31.151 39.5738 32.8943 37.4232 32.8943C35.2726 32.8943 33.5293 31.151 33.5293 29.0004C33.5293 26.8499 35.2726 25.1066 37.4232 25.1066C39.5738 25.1066 41.317 26.8499 41.317 29.0004Z" fill="#FFF7E8"/>
<path d="M54.0939 29.0004C54.0939 31.151 52.3505 32.8943 50.2 32.8943C48.0495 32.8943 46.3062 31.151 46.3062 29.0004C46.3062 26.8499 48.0495 25.1066 50.2 25.1066C52.3505 25.1066 54.0939 26.8499 54.0939 29.0004Z" fill="#FFF7E8"/>
<path d="M0.966797 50.2376C0.966797 42.7544 7.06082 36.6881 14.5784 36.6881C22.0958 36.6881 28.1899 42.7544 28.1899 50.2376C28.1899 57.721 22.0958 63.7873 14.5784 63.7873C13.0005 63.7873 11.4859 63.5192 10.0767 63.0278L5.92413 65.0332V60.6966C2.89678 58.2112 0.966797 54.4489 0.966797 50.2376Z" fill="#FFD98C"/>
<path d="M14.5784 36.6881C13.6968 36.6881 12.8352 36.7724 12.0002 36.9319C18.2847 38.1313 23.0337 43.632 23.0337 50.2378C23.0337 56.8412 18.288 62.3402 12.0069 63.5423C12.8544 63.7049 13.7154 63.787 14.5784 63.7876C22.0958 63.7876 28.1899 57.721 28.1899 50.2378C28.1899 42.7545 22.0958 36.6881 14.5784 36.6881Z" fill="#FFCA5B"/>
</g>
</g>
<defs>
<clipPath id="clip0_1117_77">
<rect width="66" height="66" fill="white"/>
</clipPath>
</defs>
</svg>
