<svg width="64" height="64" viewBox="0 0 64 64" fill="none" xmlns="http://www.w3.org/2000/svg">
<path d="M60.2708 25.4031C60.2708 37.9939 50.0677 48.2093 37.4646 48.2093C24.8738 48.2093 14.6584 38.0062 14.6584 25.4031C14.6584 12.8 24.8738 2.60925 37.4646 2.60925C50.0677 2.60925 60.2708 12.8123 60.2708 25.4031Z" fill="#AFDEE0"/>
<path d="M38.0185 37.0831C38.0185 46.4369 30.4369 54.0185 21.0831 54.0185C11.7292 54.0185 4.14771 46.4369 4.14771 37.0831C4.14771 27.7292 11.7292 20.1477 21.0831 20.1477C30.4492 20.1477 38.0185 27.7292 38.0185 37.0831Z" fill="black"/>
<path d="M21.0832 54.6339C11.4094 54.6339 3.53247 46.757 3.53247 37.0831C3.53247 27.4093 11.4094 19.5323 21.0832 19.5323C30.7571 19.5323 38.634 27.4093 38.634 37.0831C38.634 46.757 30.7694 54.6339 21.0832 54.6339ZM21.0832 20.7631C12.0863 20.7631 4.76324 28.0862 4.76324 37.0831C4.76324 46.08 12.0863 53.4031 21.0832 53.4031C30.0802 53.4031 37.4032 46.08 37.4032 37.0831C37.4032 28.0862 30.0925 20.7631 21.0832 20.7631Z" fill="black"/>
<path d="M36.9233 35.4461C36.9233 44.8 29.3417 52.3815 19.9879 52.3815C10.634 52.3815 3.05249 44.8 3.05249 35.4461C3.05249 26.0923 10.634 18.5107 19.9879 18.5107C29.3417 18.5107 36.9233 26.0923 36.9233 35.4461Z" fill="white"/>
<path d="M19.9878 52.9969C10.3139 52.9969 2.43701 45.12 2.43701 35.4462C2.43701 25.7723 10.3139 17.8954 19.9878 17.8954C29.6616 17.8954 37.5386 25.7723 37.5386 35.4462C37.5386 45.12 29.6616 52.9969 19.9878 52.9969ZM19.9878 19.1262C10.9909 19.1262 3.66778 26.4492 3.66778 35.4462C3.66778 44.4431 10.9909 51.7662 19.9878 51.7662C28.9847 51.7662 36.3078 44.4431 36.3078 35.4462C36.3078 26.4492 28.9847 19.1262 19.9878 19.1262Z" fill="black"/>
<path d="M19.9879 49.2184C12.3817 49.2184 6.21558 43.0523 6.21558 35.4461C6.21558 27.84 12.3817 21.6738 19.9879 21.6738C27.594 21.6738 33.7602 27.84 33.7602 35.4461C33.7602 43.0523 27.594 49.2184 19.9879 49.2184Z" fill="#26C666"/>
<path d="M9.05859 32.3077C9.40321 30.6831 10.1417 29.12 11.2124 27.7908C11.7417 27.1262 12.3078 26.4615 13.034 26.0062C13.7478 25.5385 14.5478 25.1815 15.3971 25.0585L15.434 25.1323C14.7694 25.6739 14.1294 26.1539 13.5263 26.6708C12.9232 27.1877 12.2709 27.6431 11.7047 28.2339C10.5971 29.3908 9.7109 30.7939 9.14475 32.3446L9.05859 32.3077Z" fill="white"/>
<path d="M25.1078 38.3507C25.1078 39.1138 24.9109 39.7784 24.5416 40.3446C24.1724 40.923 23.6555 41.3784 23.0032 41.7354C22.437 42.0307 21.8093 42.2154 21.0955 42.3138V43.7292C21.0955 43.9877 20.997 44.2338 20.8247 44.4061C20.6524 44.603 20.4062 44.7015 20.1232 44.7015C19.9901 44.7052 19.8578 44.6808 19.7348 44.6299C19.6118 44.579 19.5009 44.5027 19.4093 44.4061C19.2247 44.2338 19.1508 43.9877 19.1508 43.7292V42.4C18.437 42.3507 17.7847 42.24 17.2062 42.08C16.5047 41.8707 15.9262 41.6246 15.4585 41.3538C15.2124 41.2061 15.0524 41.0338 14.9785 40.8246C14.8785 40.6227 14.8441 40.3947 14.8801 40.1723C14.8924 39.9507 14.9785 39.7661 15.1262 39.6061C15.2616 39.4461 15.4339 39.3354 15.6308 39.2861C15.8401 39.2492 16.0862 39.2984 16.357 39.4584C16.7139 39.6554 17.1939 39.8646 17.7847 40.0369C18.3632 40.2338 19.077 40.3323 19.9016 40.3323C20.5539 40.3323 21.0832 40.2461 21.4893 40.0861C21.8832 39.9384 22.1908 39.7169 22.3632 39.4584C22.5601 39.1877 22.6585 38.88 22.6585 38.523C22.6585 38.2277 22.597 37.9938 22.4616 37.7723C22.3262 37.563 22.1047 37.3661 21.8093 37.2061C21.5139 37.0461 21.1078 36.9107 20.6155 36.8L18.5478 36.3569C17.3785 36.0984 16.4924 35.6553 15.9016 35.04C15.3232 34.4369 15.0278 33.6492 15.0278 32.6523C15.0278 31.8892 15.2247 31.2 15.5939 30.5969C15.9632 29.9938 16.5047 29.5138 17.1693 29.1569C17.7478 28.8369 18.4124 28.64 19.1632 28.5538V27.163C19.1598 27.0344 19.1826 26.9065 19.2303 26.787C19.2779 26.6675 19.3494 26.559 19.4404 26.468C19.5314 26.377 19.6399 26.3055 19.7594 26.2578C19.8789 26.2102 20.0069 26.1874 20.1355 26.1907C20.3939 26.1907 20.6401 26.2892 20.8124 26.4861C21.0093 26.6707 21.1078 26.9046 21.1078 27.163V28.5292C21.5508 28.5784 22.0308 28.6769 22.5355 28.8246C23.2001 29.0338 23.7662 29.3292 24.2462 29.6984C24.4432 29.8584 24.5662 30.043 24.6401 30.2277C24.7016 30.4369 24.7016 30.6338 24.6524 30.8061C24.6032 31.003 24.5047 31.163 24.357 31.2984C24.2093 31.4215 24.037 31.4954 23.8278 31.52C23.6185 31.5323 23.3724 31.4707 23.1016 31.3107C22.7324 31.0892 22.3139 30.9046 21.8339 30.7815C21.3662 30.6584 20.8124 30.5723 20.1601 30.5723C19.3355 30.5723 18.6832 30.7692 18.2032 31.1384C17.7355 31.4954 17.5016 31.9753 17.5016 32.5784C17.5016 33.0215 17.637 33.3661 17.9201 33.6369C18.2155 33.9077 18.6955 34.1169 19.3724 34.2646L21.4893 34.7323C22.7324 35.003 23.6432 35.4461 24.2216 36.0246C24.8124 36.6154 25.1078 37.3907 25.1078 38.3507ZM60.9478 28.7754C60.9478 38.1292 53.3662 45.7107 44.0124 45.7107C34.6585 45.7107 27.077 38.1292 27.077 28.7754C27.077 19.4215 34.6585 11.84 44.0124 11.84C53.3785 11.84 60.9478 19.4215 60.9478 28.7754Z" fill="black"/>
<path d="M44.0124 46.3261C34.3386 46.3261 26.4617 38.4492 26.4617 28.7754C26.4617 19.1015 34.3386 11.2246 44.0124 11.2246C53.6863 11.2246 61.5632 19.1015 61.5632 28.7754C61.5632 38.4492 53.6986 46.3261 44.0124 46.3261ZM44.0124 12.4554C35.0155 12.4554 27.6924 19.7785 27.6924 28.7754C27.6924 37.7723 35.0155 45.0954 44.0124 45.0954C53.0094 45.0954 60.3324 37.7723 60.3324 28.7754C60.3324 19.7785 53.0217 12.4554 44.0124 12.4554Z" fill="black"/>
<path d="M59.8525 27.1385C59.8525 36.4924 52.2709 44.0739 42.9171 44.0739C33.5632 44.0739 25.9817 36.4924 25.9817 27.1385C25.9817 17.7847 33.5509 10.2031 42.9171 10.2031C52.2709 10.2031 59.8525 17.7847 59.8525 27.1385Z" fill="white"/>
<path d="M42.917 44.6892C33.2431 44.6892 25.3662 36.8123 25.3662 27.1385C25.3662 17.4646 33.2308 9.58771 42.917 9.58771C52.6031 9.58771 60.4678 17.4646 60.4678 27.1385C60.4678 36.8123 52.5908 44.6892 42.917 44.6892ZM42.917 10.8185C33.9201 10.8185 26.597 18.1416 26.597 27.1385C26.597 36.1354 33.9201 43.4585 42.917 43.4585C51.9139 43.4585 59.237 36.1354 59.237 27.1385C59.237 18.1416 51.9139 10.8185 42.917 10.8185Z" fill="black"/>
<path d="M42.9171 40.9108C35.3109 40.9108 29.1448 34.7447 29.1448 27.1385C29.1448 19.5324 35.3109 13.3662 42.9171 13.3662C50.5232 13.3662 56.6894 19.5324 56.6894 27.1385C56.6894 34.7447 50.5232 40.9108 42.9171 40.9108Z" fill="#26C666"/>
<path d="M31.9878 24C32.3324 22.3753 33.0709 20.8123 34.1416 19.483C34.6709 18.8184 35.237 18.1538 35.9632 17.6984C36.677 17.2307 37.477 16.8738 38.3263 16.7507L38.3632 16.8246C37.6986 17.3661 37.0586 17.8461 36.4555 18.363C35.8524 18.88 35.2001 19.3353 34.6339 19.9261C33.5263 21.083 32.6401 22.4861 32.0739 24.0369L31.9878 24Z" fill="white"/>
<path d="M44.6525 36.8738C40.6402 36.8738 37.5017 32.5908 37.5017 27.1385C37.5017 21.6738 40.6402 17.4031 44.6525 17.4031C46.954 17.4031 49.1202 18.9046 50.4371 21.4154C50.7571 22.0185 50.5233 22.7569 49.9202 23.0769C49.3171 23.3969 48.5786 23.1631 48.2586 22.56C47.3602 20.8492 46.0432 19.8646 44.6525 19.8646C42.1048 19.8646 39.9632 23.2 39.9632 27.1385C39.9632 31.0769 42.1171 34.4123 44.6525 34.4123C46.0432 34.4123 47.3602 33.4277 48.2586 31.7169C48.5786 31.1138 49.3171 30.88 49.9202 31.2C50.5233 31.52 50.7571 32.2585 50.4371 32.8615C49.1202 35.3723 46.954 36.8738 44.6525 36.8738Z" fill="black"/>
<path d="M45.3417 25.8216H36.4802C35.8032 25.8216 35.2494 25.2677 35.2494 24.5908C35.2494 23.9139 35.8032 23.36 36.4802 23.36H45.3417C46.0186 23.36 46.5725 23.9139 46.5725 24.5908C46.5725 25.2677 46.0186 25.8216 45.3417 25.8216ZM45.3417 30.9169H36.4802C35.8032 30.9169 35.2494 30.3631 35.2494 29.6862C35.2494 29.0093 35.8032 28.4554 36.4802 28.4554H45.3417C46.0186 28.4554 46.5725 29.0093 46.5725 29.6862C46.5725 30.3631 46.0186 30.9169 45.3417 30.9169ZM31.5571 8.7631L31.3109 8.97233L28.3202 11.6062C28.0248 11.8769 27.6432 11.9877 27.2863 11.9877C26.8679 11.9754 26.4371 11.8031 26.1417 11.4585C25.5755 10.8185 25.6494 9.84617 26.2894 9.29233L26.7325 8.91079C17.3663 8.88617 13.7725 16.6277 13.7232 16.7262C13.6419 16.9099 13.5251 17.0757 13.3796 17.2141C13.234 17.3526 13.0625 17.461 12.875 17.533C12.6875 17.605 12.4876 17.6393 12.2868 17.6339C12.0859 17.6285 11.8882 17.5836 11.7048 17.5016C10.9294 17.1446 10.5725 16.2339 10.9294 15.4585C10.9786 15.3477 15.4832 5.64925 26.9786 5.84617L26.5602 5.36617C26.4258 5.21556 26.3226 5.03979 26.2566 4.84903C26.1906 4.65826 26.1631 4.4563 26.1757 4.25484C26.1883 4.05337 26.2407 3.8564 26.3299 3.67534C26.4192 3.49428 26.5434 3.33272 26.6955 3.20002C27.3355 2.63387 28.3079 2.70771 28.874 3.3354L31.7171 6.58464C32.2586 7.23694 32.1971 8.20925 31.5571 8.7631ZM31.8525 55.1139L32.1109 54.9293L35.3355 52.5785C35.6555 52.3446 36.0371 52.2585 36.394 52.2831C36.8125 52.3323 37.2186 52.5539 37.4894 52.9108C37.994 53.6 37.834 54.56 37.1448 55.0523L36.6771 55.3969C46.0063 56.2708 50.2894 48.8985 50.3509 48.8123C50.6832 48.2216 51.3602 47.9385 51.9879 48.0616C52.1479 48.0985 52.2955 48.1477 52.4432 48.2216C53.1817 48.6523 53.4525 49.5877 53.0217 50.3262C52.9602 50.4246 47.594 59.68 36.1602 58.4369L36.5294 58.9539C37.034 59.6308 36.8863 60.6031 36.1971 61.0954C35.5079 61.6 34.5479 61.44 34.0432 60.7631L31.5079 57.2677C31.0155 56.5785 31.1632 55.6185 31.8525 55.1139Z" fill="black"/>
</svg>
