<svg width="64" height="50" viewBox="0 0 64 50" fill="none" xmlns="http://www.w3.org/2000/svg">
<path fill-rule="evenodd" clip-rule="evenodd" d="M16.5234 33.4458C16.5234 28.7811 27.1362 24.9963 40.2322 24.9963C53.3246 24.9963 63.9373 28.7812 63.9373 33.4458V41.2118C63.9373 45.8766 53.3246 49.6613 40.2322 49.6613C27.1362 49.6613 16.5234 45.8765 16.5234 41.2118V33.4458Z" fill="#FE9923"/>
<path fill-rule="evenodd" clip-rule="evenodd" d="M40.2324 24.9963C53.3248 24.9963 63.9376 28.7812 63.9376 33.4458C63.9376 38.1141 53.3248 41.8953 40.2324 41.8953C27.1364 41.8953 16.5237 38.1142 16.5237 33.4458C16.5236 28.7811 27.1364 24.9963 40.2324 24.9963Z" fill="#FECD3D"/>
<path fill-rule="evenodd" clip-rule="evenodd" d="M40.2322 28.9447C50.6487 28.9447 59.091 30.9626 59.091 33.4458C59.091 35.9327 50.6487 37.9468 40.2322 37.9468C29.8157 37.9468 21.3699 35.9326 21.3699 33.4458C21.3699 30.9626 29.8157 28.9447 40.2322 28.9447Z" fill="#FEA832"/>
<path d="M28.2307 44.9384L30.2558 44.9421V48.8759C29.5779 48.7654 28.9027 48.6394 28.2307 48.4978V44.9384ZM57.5275 42.8552V46.9891C58.2583 46.7091 58.9345 46.4147 59.5563 46.1056V42.8516L57.5275 42.8552ZM35.553 49.4941C36.222 49.5449 36.8983 49.5813 37.5818 49.6068V45.8474L35.553 45.8511V49.4941ZM20.9045 46.1056C21.5263 46.4147 22.2025 46.7091 22.9333 46.9891V42.8516L20.9045 42.8552V46.1056ZM42.879 49.6068C43.5547 49.5807 44.2298 49.5431 44.9042 49.4941V45.8511L42.879 45.8474V49.6068ZM50.2052 48.8759C50.8831 48.7658 51.5583 48.6397 52.2303 48.4978V44.9421L50.2052 44.9384V48.8759Z" fill="#C85929"/>
<path d="M7.02318 42.8334V45.3494H9.53556V47.1454H7.02318V49.6614H5.22718V47.1454H2.71118V45.3494H5.22718V42.8334H7.02318ZM52.9866 15.278V17.7939H55.5024V19.5864H52.9866V22.1022H51.1904V19.5864H48.6782V17.7939H51.1904V15.278H52.9866ZM8.23031 0.338623V2.85462H10.7427V4.647H8.23031V7.163H6.43418V4.647H3.91831V2.85462H6.43418V0.338623H8.23031Z" fill="#FEA832"/>
<path fill-rule="evenodd" clip-rule="evenodd" d="M0.497111 29.0539C-1.83701 25.0109 5.46361 16.4269 16.8035 9.88251C28.1435 3.33451 39.2252 1.30576 41.5594 5.34501C42.8529 7.58629 44.1472 9.82713 45.4424 12.0675C47.7765 16.1105 40.4759 24.6945 29.136 31.2389C17.7961 37.7869 6.71424 39.8193 4.38011 35.7763C3.08574 33.5368 1.79149 31.2935 0.497111 29.0539Z" fill="#FE9923"/>
<path fill-rule="evenodd" clip-rule="evenodd" d="M16.8035 9.88251C28.1435 3.33451 39.2252 1.30576 41.5594 5.34501C43.8935 9.38801 36.5929 17.972 25.253 24.5164C13.9167 31.0644 2.83124 33.0931 0.497111 29.0538C-1.83701 25.0109 5.46361 16.4269 16.8035 9.88251Z" fill="#FECD3D"/>
<path fill-rule="evenodd" clip-rule="evenodd" d="M18.7777 13.3001C27.7981 8.09373 36.1203 5.61773 37.3637 7.77011C38.6071 9.92248 32.2991 15.8887 23.2789 21.0989C14.2585 26.3052 5.93985 28.7812 4.69647 26.6289C3.4531 24.4765 9.75735 18.5101 18.7777 13.3001Z" fill="#FEA832"/>
<path d="M24.9368 29.2648L26.8166 32.5188C26.2174 32.835 25.6125 33.1405 25.0023 33.4349L23.1808 30.2791L24.9368 29.2648ZM8.99756 35.0093L10.6228 37.8233C11.3136 37.7833 12.0481 37.6996 12.8188 37.576L10.7537 33.9949L8.99756 35.0093ZM16.3818 33.1514L18.1633 36.2345C18.8154 36.021 19.4628 35.7931 20.1048 35.551L18.1378 32.1406L16.3818 33.1514ZM29.5251 26.6143L31.4048 29.8683C31.9771 29.5084 32.5431 29.1387 33.1027 28.7594L31.2812 25.6071L29.5251 26.6143ZM42.4684 15.6815L40.7123 16.6995L42.7811 20.2771C43.2719 19.6736 43.7118 19.0773 44.0936 18.4991L42.4684 15.6815ZM35.4151 22.1641L37.3821 25.5745C37.914 25.1413 38.4353 24.6952 38.9454 24.2365L37.1676 21.157L35.4151 22.1641Z" fill="#C85929"/>
</svg>
