<svg width="23" height="18" viewBox="0 0 23 18" fill="none" xmlns="http://www.w3.org/2000/svg">
<path d="M1.37804 12.4016L0.00928736 3.50512C-0.0919626 2.84812 0.656537 2.39963 1.18829 2.79863L5.45279 5.99663C5.56364 6.07966 5.69024 6.13924 5.82488 6.17172C5.95952 6.20419 6.09937 6.20889 6.23588 6.18551C6.3724 6.16214 6.50271 6.11119 6.61888 6.03578C6.73505 5.96036 6.83463 5.86206 6.91154 5.74687L10.462 0.421875C10.837 -0.140625 11.6635 -0.140625 12.0385 0.421875L15.589 5.74687C15.6659 5.86206 15.7655 5.96036 15.8817 6.03578C15.9979 6.11119 16.1282 6.16214 16.2647 6.18551C16.4012 6.20889 16.5411 6.20419 16.6757 6.17172C16.8103 6.13924 16.9369 6.07966 17.0478 5.99663L21.3123 2.79863C21.8448 2.39963 22.5925 2.84812 22.4913 3.50512L21.1225 12.4016H1.37804ZM20.0928 17.3381H2.40779C2.27256 17.3381 2.13865 17.3115 2.01372 17.2597C1.88878 17.208 1.77527 17.1321 1.67964 17.0365C1.48653 16.8434 1.37804 16.5815 1.37804 16.3084V14.0471H21.1225V16.3084C21.1225 16.8769 20.6613 17.3381 20.0928 17.3381Z" fill="#FFB743"/>
</svg>
