<svg width="64" height="64" viewBox="0 0 64 64" fill="none" xmlns="http://www.w3.org/2000/svg">
<path d="M28.5166 58.4411C0.53949 57.9474 10.5052 31.744 13.8423 24.4023C14.3086 23.3966 15.4789 22.9577 16.5212 23.3783C26.0938 27.2549 25.4263 11.84 24.7132 5.09257C24.5486 3.52 26.1578 2.34057 27.5932 2.99886C34.2309 6.05257 35.6298 15.0126 35.9223 19.3097C36.0229 20.7634 37.5315 21.7417 38.8663 21.1566C39.4789 20.8914 40.0275 20.5257 40.5395 20.0777C41.4812 19.264 42.9075 19.4103 43.6115 20.4251C65.1886 51.5017 38.8846 58.624 28.5166 58.4411Z" fill="#F9A41A"/>
<path d="M28.9006 58.9075H28.5074C20.0869 58.7612 14.2994 56.2743 11.2914 51.52C5.89715 42.9806 10.9897 29.5863 13.4217 24.2286C13.9886 23.0126 15.4149 22.4549 16.6857 22.9669C18.7063 23.7897 20.3611 23.7349 21.5863 22.8115C25.3897 19.9497 24.7131 9.50859 24.256 5.14745C24.1646 4.23316 24.5486 3.37374 25.2983 2.83431C26.0389 2.30402 26.9623 2.21259 27.776 2.58745C34.4777 5.66859 36.032 14.3726 36.3703 19.2823C36.4069 19.84 36.7177 20.3429 37.1931 20.6354C37.6503 20.9189 38.1989 20.9555 38.6743 20.7452C39.2137 20.5166 39.7257 20.1874 40.2377 19.7394C40.7954 19.2549 41.5269 19.0263 42.2491 19.1269C42.9623 19.2183 43.5749 19.584 43.9863 20.1783C52.1143 31.8812 54.3269 41.3715 50.5783 48.3932C46.1074 56.7406 34.6789 58.9075 28.9006 58.9075ZM15.7257 23.68C15.1131 23.68 14.528 24.0183 14.2629 24.5943C11.8857 29.8149 6.92115 42.8617 12.0686 51.0172C14.8937 55.4972 20.4343 57.8377 28.5257 57.984C34.816 58.112 45.7234 55.5155 49.7646 47.9543C53.3394 41.2617 51.1451 32.0914 43.2274 20.6903C42.9714 20.3154 42.5783 20.0777 42.1303 20.0229C41.664 19.9589 41.1886 20.1143 40.832 20.4252C40.2469 20.928 39.6617 21.3029 39.04 21.5772C38.2811 21.9063 37.44 21.8423 36.7177 21.4034C35.9863 20.9554 35.5109 20.1874 35.456 19.3372C35.1451 14.6286 33.6731 6.29945 27.4011 3.41031C26.8891 3.17259 26.304 3.22745 25.8377 3.56574C25.3623 3.90402 25.1154 4.46174 25.1703 5.03774C25.7646 10.6423 26.1669 20.4892 22.144 23.5246C20.6446 24.6583 18.6971 24.7406 16.3566 23.7989C16.1463 23.7166 15.9269 23.68 15.7257 23.68Z" fill="black"/>
<path d="M31.2593 61.184C3.28216 60.6903 13.2479 34.4869 16.585 27.1451C17.0513 26.1394 18.2216 25.7006 19.2639 26.1211C28.8365 29.9977 28.169 14.5829 27.4559 7.83543C27.2913 6.26286 28.9005 5.08343 30.3359 5.74172C36.9736 8.79543 38.3725 17.7554 38.665 22.0526C38.7656 23.5063 40.2742 24.4846 41.609 23.8994C42.2216 23.6343 42.7702 23.2686 43.2822 22.8206C44.2239 22.0069 45.6502 22.1531 46.3542 23.168C67.9313 54.2446 41.6273 61.3669 31.2593 61.184Z" fill="#FBE063"/>
<path d="M31.6435 61.6503H31.2504C22.8298 61.504 17.0424 59.0172 14.0344 54.2629C8.64007 45.7234 13.7326 32.3292 16.1646 26.9715C16.7315 25.7555 18.1578 25.1977 19.4286 25.7097C21.4492 26.5326 23.1041 26.4777 24.3292 25.5543C28.1326 22.6926 27.4561 12.2515 26.9989 7.89031C26.9075 6.97602 27.2915 6.11659 28.0412 5.57717C28.7818 5.04688 29.7052 4.95545 30.5189 5.33031C37.2206 8.41145 38.7749 17.1155 39.1132 22.0252C39.1498 22.5829 39.4606 23.0857 39.9361 23.3783C40.3932 23.6617 40.9418 23.6983 41.4172 23.488C41.9566 23.2595 42.4686 22.9303 42.9806 22.4823C43.5384 21.9977 44.2698 21.7692 44.9921 21.8697C45.7052 21.9612 46.3178 22.3269 46.7292 22.9212C54.8572 34.624 57.0698 44.1143 53.3212 51.136C48.8504 59.4835 37.4218 61.6503 31.6435 61.6503ZM18.4686 26.4229C17.8561 26.4229 17.2709 26.7612 17.0058 27.3372C14.6286 32.5577 9.66407 45.6046 14.8115 53.76C17.6366 58.24 23.1772 60.5806 31.2686 60.7269H31.6709C38.0435 60.7269 48.5486 58.1029 52.5075 50.688C56.0824 43.9955 53.8881 34.8252 45.9704 23.424C45.7144 23.0492 45.3212 22.8115 44.8732 22.7566C44.4069 22.6926 43.9315 22.848 43.5749 23.1589C42.9898 23.6617 42.4046 24.0366 41.7829 24.3109C41.0241 24.64 40.1829 24.576 39.4606 24.1372C38.7292 23.6892 38.2538 22.9212 38.1989 22.0709C37.8881 17.3715 36.4161 9.04231 30.1441 6.15317C29.6321 5.91545 29.0469 5.97031 28.5806 6.30859C28.1052 6.64688 27.8584 7.20459 27.9132 7.78059C28.5075 13.3852 28.9098 23.232 24.8869 26.2675C23.3875 27.4012 21.4401 27.4835 19.0995 26.5417C18.8892 26.4595 18.6698 26.4229 18.4686 26.4229Z" fill="black"/>
<path d="M33.3623 56.512C40.477 56.512 46.2446 50.7444 46.2446 43.6297C46.2446 36.515 40.477 30.7474 33.3623 30.7474C26.2476 30.7474 20.48 36.515 20.48 43.6297C20.48 50.7444 26.2476 56.512 33.3623 56.512Z" fill="#54E28E"/>
<path d="M33.3624 56.9691C26.0115 56.9691 20.0229 50.9897 20.0229 43.6297C20.0229 36.2697 26.0024 30.2903 33.3624 30.2903C40.7224 30.2903 46.7018 36.2697 46.7018 43.6297C46.7018 50.9897 40.7224 56.9691 33.3624 56.9691ZM33.3624 31.2046C26.5144 31.2046 20.9372 36.7817 20.9372 43.6297C20.9372 50.4777 26.5144 56.0549 33.3624 56.0549C40.2104 56.0549 45.7875 50.4777 45.7875 43.6297C45.7875 36.7817 40.2195 31.2046 33.3624 31.2046Z" fill="black"/>
<path d="M33.3623 52.1143C38.0482 52.1143 41.8468 48.3156 41.8468 43.6297C41.8468 38.9438 38.0482 35.1451 33.3623 35.1451C28.6764 35.1451 24.8777 38.9438 24.8777 43.6297C24.8777 48.3156 28.6764 52.1143 33.3623 52.1143Z" fill="#26C666"/>
<path d="M33.3624 52.5714C28.4344 52.5714 24.4207 48.5577 24.4207 43.6297C24.4207 38.7017 28.4344 34.688 33.3624 34.688C38.2904 34.688 42.3041 38.7017 42.3041 43.6297C42.3041 48.5577 38.2995 52.5714 33.3624 52.5714ZM33.3624 35.6023C28.9372 35.6023 25.3349 39.2046 25.3349 43.6297C25.3349 48.0548 28.9372 51.6571 33.3624 51.6571C37.7875 51.6571 41.3898 48.0548 41.3898 43.6297C41.3898 39.2046 37.7875 35.6023 33.3624 35.6023Z" fill="black"/>
<path d="M33.792 44.1417H31.296C31.04 44.1417 30.8389 43.9406 30.8389 43.6846V39.6434C30.8389 39.3874 31.04 39.1863 31.296 39.1863H33.792C35.1634 39.1863 36.2697 40.3017 36.2697 41.664C36.2697 42.3314 36.0137 42.9531 35.5383 43.4194C35.072 43.8766 34.4503 44.1417 33.792 44.1417ZM31.7532 43.2274H33.792C34.2034 43.2274 34.5966 43.0628 34.8983 42.7703C35.2 42.4777 35.3554 42.0846 35.3554 41.664C35.3554 40.8046 34.6514 40.1006 33.792 40.1006H31.7532V43.2274Z" fill="black"/>
<path d="M33.792 48.1828H31.296C31.04 48.1828 30.8389 47.9817 30.8389 47.7257V43.6846C30.8389 43.4286 31.04 43.2274 31.296 43.2274H33.792C35.1634 43.2274 36.2697 44.3428 36.2697 45.7051C36.2697 46.3726 36.0137 46.9943 35.5383 47.4606C35.072 47.9268 34.4503 48.1828 33.792 48.1828ZM31.7532 47.2686H33.792C34.2034 47.2686 34.5966 47.104 34.8983 46.8114C35.2 46.5188 35.3554 46.1257 35.3554 45.7051C35.3554 44.8457 34.6514 44.1417 33.792 44.1417H31.7532V47.2686Z" fill="black"/>
<path d="M31.296 48.1829H30.2994C30.0434 48.1829 29.8423 47.9818 29.8423 47.7258C29.8423 47.4698 30.0434 47.2686 30.2994 47.2686H31.296C31.552 47.2686 31.7531 47.4698 31.7531 47.7258C31.7531 47.9818 31.552 48.1829 31.296 48.1829ZM31.296 40.0915H30.2994C30.0434 40.0915 29.8423 39.8904 29.8423 39.6344C29.8423 39.3784 30.0434 39.1772 30.2994 39.1772H31.296C31.552 39.1772 31.7531 39.3784 31.7531 39.6344C31.7531 39.8904 31.552 40.0915 31.296 40.0915ZM32.7131 39.9909C32.4571 39.9909 32.256 39.7898 32.256 39.5338V38.5372C32.256 38.2812 32.4571 38.0801 32.7131 38.0801C32.9691 38.0801 33.1703 38.2812 33.1703 38.5372V39.5338C33.1703 39.7806 32.96 39.9909 32.7131 39.9909ZM32.9326 49.1795C32.6766 49.1795 32.4754 48.9784 32.4754 48.7224V47.7258C32.4754 47.4698 32.6766 47.2686 32.9326 47.2686C33.1886 47.2686 33.3897 47.4698 33.3897 47.7258V48.7224C33.3897 48.9692 33.1886 49.1795 32.9326 49.1795Z" fill="black"/>
</svg>
