<svg width="53" height="52" viewBox="0 0 53 52" fill="none" xmlns="http://www.w3.org/2000/svg">
<g clip-path="url(#clip0_57_104)">
<path opacity="0.972" fill-rule="evenodd" clip-rule="evenodd" d="M16.4597 -0.0507812C17.3738 -0.0507812 18.2878 -0.0507812 19.2019 -0.0507812C26.308 0.842488 31.2338 4.6003 33.9792 11.2227C34.6968 13.2595 35.0523 15.3585 35.0457 17.5195C41.4835 17.5512 46.477 20.2257 50.0261 25.543C50.0939 25.8138 50.0939 26.0846 50.0261 26.3555C49.9542 26.4449 49.8695 26.5126 49.7722 26.5586C49.4707 26.6932 49.166 26.6932 48.8582 26.5586C46.0782 22.2897 42.1511 19.8183 37.0769 19.1445C36.3338 19.0818 35.5889 19.0479 34.8425 19.043C34.7276 19.9699 34.5584 20.884 34.3347 21.7852C39.3273 21.5905 43.2883 23.4863 46.2175 27.4727C48.6578 31.4477 49.0132 35.6118 47.2839 39.9648C46.9787 40.6435 46.6233 41.2868 46.2175 41.8945C43.2254 46.0152 39.1629 47.928 34.03 47.6328C28.8802 46.8494 25.3086 44.0564 23.3152 39.2539C22.868 38.0067 22.6141 36.7202 22.5535 35.3945C22.5535 34.819 22.5535 34.2435 22.5535 33.668C22.4223 33.6439 22.3208 33.6777 22.2488 33.7695C21.4431 33.9442 20.6306 34.0796 19.8113 34.1758C19.864 40.9369 22.8769 45.8627 28.8503 48.9531C31.402 50.1345 34.0764 50.5915 36.8738 50.3242C43.2527 49.4785 47.6707 46.0931 50.1277 40.168C51.4602 36.3247 51.4094 32.4992 49.9753 28.6914C49.9832 28.5087 50.0339 28.3394 50.1277 28.1836C50.2819 28.1163 50.4004 28.0147 50.4832 27.8789C50.8819 27.8329 51.2034 27.9683 51.448 28.2852C52.0133 29.7783 52.4027 31.3018 52.616 32.8555C52.616 34.108 52.616 35.3607 52.616 36.6133C51.4463 43.9959 47.316 48.8878 40.2253 51.2891C39.0745 51.5878 37.9235 51.8077 36.7722 51.9492C35.8582 51.9492 34.9441 51.9492 34.03 51.9492C26.9215 51.0529 21.9957 47.2951 19.2527 40.6758C18.5351 38.6389 18.1797 36.54 18.1863 34.3789C11.2695 34.2745 6.07281 31.2614 2.59644 25.3398C1.57452 23.3412 0.91436 21.2422 0.615967 19.043C0.615967 17.7904 0.615967 16.5377 0.615967 15.2852C0.857905 13.3896 1.38264 11.5615 2.19019 9.80078C2.41568 9.37498 2.77115 9.20572 3.25659 9.29297C3.51395 9.48551 3.68323 9.73942 3.7644 10.0547C1.6827 14.5334 1.59807 19.0529 3.5105 23.6133C6.45831 29.4507 11.2148 32.5314 17.78 32.8555C18.2914 32.8469 18.7992 32.813 19.3035 32.7539C22.0502 32.4536 24.5554 31.5226 26.8191 29.9609C27.2173 29.8453 27.5558 29.93 27.8347 30.2148C27.9844 30.5531 27.9506 30.8747 27.7332 31.1797C26.6014 31.9574 25.3997 32.6175 24.1277 33.1602C23.681 38.0042 25.4584 41.779 29.4597 44.4844C34.2688 47.0682 38.8053 46.662 43.0691 43.2656C46.8535 39.4618 47.7845 35.0438 45.8621 30.0117C43.4014 25.2848 39.4912 23.0674 34.1316 23.3594C34.003 23.3908 33.8845 23.4415 33.7761 23.5117C32.8764 25.7715 31.5391 27.718 29.7644 29.3516C29.4599 29.4421 29.1892 29.3913 28.9519 29.1992C28.7774 28.9528 28.7266 28.682 28.7996 28.3867C33.3048 23.5337 34.5235 17.9477 32.4558 11.6289C30.2739 6.46804 26.4653 3.20112 21.03 1.82812C20.5259 1.73548 20.0181 1.6847 19.5066 1.67578C13.5285 1.16147 8.72124 3.27735 5.08472 8.02344C4.72168 8.20032 4.34928 8.21724 3.96753 8.07422C3.78542 7.79404 3.73464 7.48935 3.81519 7.16016C6.94168 2.87925 11.1565 0.475604 16.4597 -0.0507812Z" fill="#020201"/>
<path fill-rule="evenodd" clip-rule="evenodd" d="M19.5066 1.67578C23.374 3.15563 26.3193 5.71161 28.3425 9.34375C28.2861 9.38261 28.2522 9.43339 28.241 9.4961C25.2181 5.68211 21.2571 3.93862 16.3582 4.26563C10.4699 5.24487 6.729 8.61336 5.1355 14.3711C4.20758 20.0108 6.01877 24.5303 10.5691 27.9297C15.0022 30.661 19.5387 30.8302 24.1785 28.4375C25.8771 27.4327 27.299 26.1294 28.4441 24.5273C28.0716 25.5268 27.5468 26.4409 26.8699 27.2695C24.8126 29.7515 22.2905 31.5796 19.3035 32.7539C18.7992 32.813 18.2914 32.8469 17.78 32.8555C11.2148 32.5314 6.45831 29.4507 3.5105 23.6133C1.59807 19.0529 1.6827 14.5334 3.76441 10.0547C3.68323 9.73942 3.51395 9.48551 3.2566 9.29297C3.54448 8.92087 3.78147 8.51462 3.96753 8.07422C4.34929 8.21724 4.72168 8.20032 5.08472 8.02344C8.72125 3.27735 13.5285 1.16147 19.5066 1.67578Z" fill="#FCDD7B"/>
<path fill-rule="evenodd" clip-rule="evenodd" d="M19.5066 1.67578C20.0181 1.6847 20.5259 1.73548 21.03 1.82812C26.4653 3.20112 30.2739 6.46804 32.4558 11.6289C34.5235 17.9477 33.3048 23.5337 28.7996 28.3867C28.7266 28.682 28.7774 28.9528 28.9519 29.1992C28.5795 29.5377 28.2071 29.8763 27.8347 30.2148C27.5558 29.93 27.2173 29.8453 26.8191 29.9609C24.5554 31.5226 22.0502 32.4536 19.3035 32.7539C22.2905 31.5796 24.8126 29.7515 26.8699 27.2695C27.5468 26.4409 28.0716 25.5268 28.4441 24.5273C30.702 20.994 31.2606 17.2024 30.1199 13.1523C29.6266 11.8609 29.0002 10.6421 28.241 9.49609C28.2522 9.43339 28.2861 9.38261 28.3425 9.34375C26.3193 5.71161 23.374 3.15563 19.5066 1.67578Z" fill="#FBCD62"/>
<path fill-rule="evenodd" clip-rule="evenodd" d="M28.241 9.49609C29.0003 10.6421 29.6266 11.8609 30.1199 13.1523C31.2607 17.2023 30.7021 20.994 28.4441 24.5273C27.299 26.1294 25.8771 27.4327 24.1785 28.4375C19.5387 30.8302 15.0022 30.661 10.5691 27.9297C6.01881 24.5303 4.20762 20.0108 5.13554 14.3711C6.72904 8.61335 10.4699 5.24486 16.3582 4.26562C21.2572 3.93861 25.2181 5.6821 28.241 9.49609Z" fill="#050402"/>
<path opacity="0.929" fill-rule="evenodd" clip-rule="evenodd" d="M37.1784 4.3164C39.176 4.29948 41.1735 4.3164 43.1706 4.36718C43.352 4.44686 43.5043 4.56535 43.6276 4.72265C43.6614 7.02474 43.6954 9.32682 43.7292 11.6289C44.3331 11.0241 44.9932 10.4993 45.7097 10.0547C46.5586 10.0916 46.8463 10.5149 46.5729 11.3242C45.4979 12.332 44.3638 13.2629 43.1706 14.1172C43.0013 14.1849 42.8321 14.1849 42.6628 14.1172C41.5164 13.2756 40.3993 12.3955 39.3112 11.4766C38.9105 10.7492 39.0966 10.2583 39.8698 10.0039C40.0978 10.0686 40.3179 10.1532 40.53 10.2578C41.0208 10.681 41.5118 11.1041 42.0026 11.5273C42.0534 9.66567 42.0704 7.80369 42.0534 5.9414C40.4281 5.95832 38.8031 5.94139 37.1784 5.89062C36.667 5.58458 36.5485 5.16141 36.8229 4.62109C36.9392 4.50568 37.0578 4.40411 37.1784 4.3164Z" fill="black"/>
<path fill-rule="evenodd" clip-rule="evenodd" d="M16.4597 5.73827C21.3103 5.49741 25.0512 7.39325 27.6823 11.4258C29.7689 15.2487 29.7689 19.0741 27.6823 22.9023C24.6132 27.5415 20.3306 29.3189 14.8347 28.2344C10.0363 26.676 7.24335 23.409 6.45577 18.4336C6.15468 12.6778 8.64296 8.66613 13.9206 6.39843C14.7674 6.12759 15.6139 5.90754 16.4597 5.73827Z" fill="#FDDE7C"/>
<path fill-rule="evenodd" clip-rule="evenodd" d="M17.3738 9.19141C18.4346 9.21995 18.8071 9.76161 18.491 10.8164C19.3533 10.8667 20.0811 11.2052 20.6746 11.832C20.9051 12.4902 20.685 12.8626 20.0144 12.9492C19.5459 12.6647 19.0381 12.4616 18.491 12.3398C18.491 13.6263 18.491 14.9127 18.491 16.1992C20.3213 16.5569 21.3709 17.6571 21.6394 19.5C21.5896 21.0569 20.9124 22.2417 19.6082 23.0547C19.2506 23.2247 18.8782 23.3431 18.491 23.4102C18.5078 23.8178 18.4909 24.2241 18.4402 24.6289C18.2298 25.1005 17.8743 25.2528 17.3738 25.0859C17.2165 24.9626 17.0981 24.8103 17.0183 24.6289C16.9677 24.258 16.9508 23.8857 16.9676 23.5117C15.9281 23.4745 14.9971 23.136 14.1746 22.4961C13.8364 21.8221 14.0225 21.3821 14.7332 21.1758C15.2011 21.342 15.6411 21.5621 16.0535 21.8359C16.3513 21.9327 16.656 21.9835 16.9676 21.9883C17.0014 20.3619 16.9674 18.7369 16.866 17.1133C14.2093 15.9652 13.6507 14.1709 15.1902 11.7305C15.6939 11.2502 16.2863 10.9455 16.9676 10.8164C16.9507 10.4087 16.9677 10.0025 17.0183 9.59766C17.1581 9.47526 17.2765 9.33985 17.3738 9.19141Z" fill="#040301"/>
<path fill-rule="evenodd" clip-rule="evenodd" d="M16.866 12.3398C17.0004 13.3393 17.0004 14.3549 16.866 15.3867C15.8248 14.8771 15.5709 14.0984 16.1043 13.0508C16.3089 12.755 16.5628 12.5181 16.866 12.3398Z" fill="#F6D879"/>
<path fill-rule="evenodd" clip-rule="evenodd" d="M18.491 17.7227C20.2444 18.499 20.566 19.6838 19.4558 21.2773C19.1788 21.5203 18.8741 21.7234 18.5418 21.8867C18.491 20.4991 18.474 19.1111 18.491 17.7227Z" fill="#F8DA7A"/>
<path fill-rule="evenodd" clip-rule="evenodd" d="M37.0769 19.1445C40.4312 20.495 43.1564 22.6616 45.2527 25.6445C45.6028 26.2433 45.9244 26.8527 46.2175 27.4727C43.2883 23.4863 39.3273 21.5905 34.3347 21.7852C34.5584 20.884 34.7276 19.9699 34.8425 19.043C35.5889 19.0479 36.3338 19.0818 37.0769 19.1445Z" fill="#AFE19C"/>
<path fill-rule="evenodd" clip-rule="evenodd" d="M37.0769 19.1445C42.1511 19.8183 46.0782 22.2897 48.8582 26.5586C49.166 26.6932 49.4707 26.6932 49.7722 26.5586C49.985 27.0184 50.2219 27.4585 50.4832 27.8789C50.4004 28.0147 50.2819 28.1163 50.1277 28.1836C50.0339 28.3394 49.9832 28.5087 49.9753 28.6914C51.4094 32.4992 51.4602 36.3247 50.1277 40.168C47.6707 46.0931 43.2527 49.4785 36.8738 50.3242C41.057 48.7972 44.1886 46.055 46.2683 42.0977C46.3386 42.0025 46.3216 41.9349 46.2175 41.8945C46.6233 41.2868 46.9787 40.6435 47.2839 39.9648C49.0132 35.6118 48.6578 31.4477 46.2175 27.4727C45.9244 26.8527 45.6028 26.2433 45.2527 25.6445C43.1564 22.6616 40.4312 20.495 37.0769 19.1445Z" fill="#93D3A2"/>
<path fill-rule="evenodd" clip-rule="evenodd" d="M27.8346 30.2148C28.207 29.8763 28.5794 29.5377 28.9518 29.1992C29.1891 29.3913 29.4598 29.4421 29.7643 29.3516C31.539 27.718 32.8763 25.7715 33.776 23.5117C33.8844 23.4415 34.0029 23.3908 34.1315 23.3594C39.4911 23.0674 43.4013 25.2848 45.862 30.0117C47.7844 35.0438 46.8534 39.4618 43.069 43.2656C38.8052 46.662 34.2687 47.0682 29.4596 44.4844C25.4583 41.779 23.6809 38.0042 24.1276 33.1602C25.3996 32.6175 26.6013 31.9574 27.7331 31.1797C27.9505 30.8747 27.9843 30.5531 27.8346 30.2148Z" fill="#B1E39D"/>
<path fill-rule="evenodd" clip-rule="evenodd" d="M33.2176 40.5742C33.1625 40.5803 33.1286 40.6141 33.116 40.6758C34.638 40.7772 36.1614 40.8112 37.6864 40.7773C38.5334 40.7605 39.3797 40.7773 40.2254 40.8281C40.7752 41.1487 40.8767 41.5888 40.5301 42.1484C40.4285 42.1823 40.327 42.2162 40.2254 42.25C37.2119 42.2937 34.1988 42.2599 31.1864 42.1484C30.8094 41.8842 30.6909 41.5287 30.8309 41.082C31.6605 40.1507 32.3714 39.1351 32.9637 38.0352C33.1218 37.2985 33.1557 36.5538 33.0653 35.8008C32.2099 35.7177 31.3466 35.6669 30.4754 35.6484C29.9092 35.1289 29.943 34.6551 30.577 34.2266C31.1864 34.1927 31.7957 34.1588 32.4051 34.125C31.6594 32.8859 31.3717 31.5487 31.5418 30.1133C32.0363 28.4825 33.1367 27.5176 34.8426 27.2188C36.9302 26.9213 38.6398 27.5814 39.9715 29.1992C40.2691 29.5915 40.4554 30.0315 40.5301 30.5195C40.3212 31.3604 39.8642 31.5297 39.159 31.0273C38.2807 29.0396 36.7741 28.3117 34.6395 28.8438C33.2841 29.303 32.7594 30.2339 33.0653 31.6367C33.2823 32.5108 33.6378 33.3233 34.1317 34.0742C35.1116 34.1587 36.0935 34.2095 37.077 34.2266C37.7096 34.6502 37.7434 35.1241 37.1785 35.6484C36.299 35.6992 35.4188 35.7161 34.5379 35.6992C34.8572 37.5371 34.4172 39.1621 33.2176 40.5742Z" fill="#030403"/>
<path fill-rule="evenodd" clip-rule="evenodd" d="M22.2488 33.7695C22.4157 34.2865 22.5173 34.8281 22.5535 35.3945C22.6141 36.7202 22.868 38.0067 23.3152 39.2539C25.3086 44.0564 28.8802 46.8494 34.03 47.6328C39.1629 47.928 43.2254 46.0152 46.2175 41.8945C46.3216 41.9349 46.3386 42.0025 46.2683 42.0977C44.1886 46.055 41.057 48.7972 36.8738 50.3242C34.0764 50.5915 31.402 50.1345 28.8503 48.9531C22.8769 45.8627 19.864 40.9369 19.8113 34.1758C20.6306 34.0796 21.4431 33.9442 22.2488 33.7695Z" fill="#B0E29D"/>
<path fill-rule="evenodd" clip-rule="evenodd" d="M22.2488 33.7695C22.3208 33.6777 22.4223 33.6439 22.5535 33.668C22.5535 34.2435 22.5535 34.819 22.5535 35.3945C22.5173 34.8281 22.4157 34.2865 22.2488 33.7695Z" fill="#5F7A55"/>
<path opacity="0.929" fill-rule="evenodd" clip-rule="evenodd" d="M9.95968 37.832C10.2795 37.8027 10.5842 37.8535 10.8737 37.9844C11.9769 38.8815 13.0433 39.8124 14.073 40.7773C14.2673 41.4749 14.0134 41.8473 13.3112 41.8945C13.0341 41.9154 12.7971 41.8307 12.6003 41.6406C12.1433 41.2513 11.6862 40.8619 11.2292 40.4727C11.1784 42.3343 11.1615 44.1963 11.1784 46.0586C12.8037 46.0416 14.4287 46.0586 16.0534 46.1094C16.5648 46.4154 16.6833 46.8386 16.4089 47.3789C16.3172 47.5009 16.1988 47.5856 16.0534 47.6328C14.056 47.7006 12.0587 47.7006 10.0612 47.6328C9.87985 47.5531 9.7275 47.4347 9.60421 47.2773C9.57036 44.9752 9.5365 42.6732 9.50264 40.3711C8.93982 40.9003 8.34736 41.3912 7.7253 41.8437C6.75955 41.9956 6.40408 41.6062 6.65889 40.6758C7.74872 39.7036 8.84899 38.7556 9.95968 37.832Z" fill="black"/>
<path fill-rule="evenodd" clip-rule="evenodd" d="M33.2175 40.5742C34.7071 40.642 36.1967 40.7096 37.6863 40.7773C36.1613 40.8112 34.6379 40.7772 33.116 40.6758C33.1286 40.6141 33.1624 40.5803 33.2175 40.5742Z" fill="#789A6B"/>
</g>
<defs>
<clipPath id="clip0_57_104">
<rect width="52" height="52" fill="white" transform="translate(0.666748)"/>
</clipPath>
</defs>
</svg>
