<svg width="52" height="52" viewBox="0 0 52 52" fill="none" xmlns="http://www.w3.org/2000/svg">
<g clip-path="url(#clip0_1514_2112)">
<path opacity="0.972" fill-rule="evenodd" clip-rule="evenodd" d="M51.9492 24.4248C51.9492 27.2008 51.9492 29.977 51.9492 32.753C51.6884 33.2673 51.2822 33.6227 50.7305 33.8194C49.4765 33.8363 48.2239 33.8871 46.9727 33.9717C44.546 39.1232 40.5851 42.4579 35.0898 43.9756C34.8913 44.7306 34.7051 45.4924 34.5312 46.2608C34.2839 47.0158 33.7931 47.5406 33.0586 47.835C32.084 47.9496 31.1022 48.0003 30.1133 47.9873C29.1244 48.0003 28.1426 47.9496 27.168 47.835C25.8319 47.1433 25.2903 46.043 25.543 44.5342C21.9849 44.5818 18.4302 44.5141 14.8789 44.3311C15.139 45.5987 14.8004 46.6651 13.8633 47.5303C13.5706 47.6936 13.2659 47.829 12.9492 47.9366C11.3242 48.0043 9.69922 48.0043 8.07422 47.9366C7.42467 47.772 6.89992 47.4166 6.5 46.8702C2.85971 41.5193 0.676116 35.6287 -0.0507812 29.1983C-0.0507812 27.7764 -0.0507812 26.3545 -0.0507812 24.9327C1.10625 17.3257 5.33802 12.2984 12.6445 9.85062C13.4489 9.64236 14.2614 9.47309 15.082 9.34281C16.3116 5.96846 18.7153 4.47889 22.293 4.87406C24.7162 5.38486 26.2735 6.82366 26.9648 9.19046C27.9466 9.19046 28.9284 9.19046 29.9102 9.19046C29.8932 7.6328 29.9102 6.07551 29.9609 4.51859C30.0891 4.06438 30.3938 3.86126 30.875 3.90921C34.4408 4.68182 36.6582 6.84848 37.5273 10.4092C43.2059 12.9395 46.7267 17.239 48.0898 23.3077C48.9707 23.2908 49.8509 23.3077 50.7305 23.3584C51.2822 23.5551 51.6884 23.9105 51.9492 24.4248Z" fill="#020101"/>
<path fill-rule="evenodd" clip-rule="evenodd" d="M36.8164 14.3711C35.3104 14.489 33.787 14.506 32.2461 14.4219C31.7138 14.3128 31.3076 14.0251 31.0273 13.5586C31.3044 13.3992 31.4907 13.1623 31.5859 12.8477C31.6198 10.5117 31.6537 8.17578 31.6875 5.83984C33.9991 6.86649 35.4209 8.6269 35.9531 11.1211C36.068 11.997 36.1357 12.8771 36.1562 13.7617C36.299 14.0572 36.519 14.2603 36.8164 14.3711Z" fill="#FD4F7C"/>
<path fill-rule="evenodd" clip-rule="evenodd" d="M23.1056 12.7454C24.0632 11.2611 23.8939 9.92386 22.5978 8.73371C20.8408 7.8524 19.5037 8.27557 18.586 10.0032C18.2562 11.0281 18.4423 11.9422 19.1446 12.7454C18.4078 12.7772 17.68 12.7434 16.961 12.6439C16.1489 10.0356 16.9444 8.08897 19.3478 6.80402C21.5247 6.09121 23.3359 6.61594 24.7814 8.37824C25.6215 9.75248 25.7738 11.2082 25.2384 12.7454C24.5275 12.7454 23.8165 12.7454 23.1056 12.7454Z" fill="#FCD962"/>
<path fill-rule="evenodd" clip-rule="evenodd" d="M23.1054 12.7454C21.7851 12.7454 20.4648 12.7454 19.1445 12.7454C18.4422 11.9421 18.256 11.0281 18.5859 10.0032C19.5035 8.27553 20.8407 7.85236 22.5976 8.73367C23.8937 9.92382 24.063 11.2611 23.1054 12.7454Z" fill="#FFC850"/>
<path fill-rule="evenodd" clip-rule="evenodd" d="M30.0117 12.8477C29.9112 12.2236 29.8774 11.5804 29.9102 10.918C29.0299 10.918 28.1498 10.918 27.2695 10.918C27.2984 11.1125 27.2646 11.2817 27.168 11.4258C27.168 11.2227 27.168 11.0195 27.168 10.8164C28.1159 10.8164 29.0638 10.8164 30.0117 10.8164C30.0117 11.4935 30.0117 12.1705 30.0117 12.8477Z" fill="#7B3246"/>
<path fill-rule="evenodd" clip-rule="evenodd" d="M30.0118 12.8477C30.1685 13.3331 30.5071 13.5701 31.0274 13.5586C31.3076 14.0251 31.7139 14.3128 32.2461 14.4219C33.7871 14.506 35.3105 14.489 36.8165 14.3711C37.1579 14.4148 37.4456 14.3132 37.6797 14.0664C37.7811 13.5631 37.8657 13.0552 37.9336 12.543C42.6198 15.0364 45.5144 18.8958 46.6172 24.1211C46.8363 24.4741 47.124 24.745 47.4805 24.9336C47.5691 25.5723 47.6029 26.2155 47.5821 26.8633C47.1493 26.9194 46.8616 27.1565 46.7188 27.5742C46.4856 32.0549 44.7083 35.7788 41.3868 38.7461C41.3629 38.6855 41.3121 38.6516 41.2344 38.6445C39.5108 39.0609 37.7674 39.2641 36.004 39.2539C36.1795 38.3593 36.3488 37.4622 36.5118 36.5625C36.4105 35.801 36.0043 35.564 35.293 35.8516C35.1357 35.9749 35.0173 36.1272 34.9376 36.3086C34.8832 36.6679 34.7986 37.0065 34.6836 37.3242C33.6903 35.4562 32.133 34.6268 30.0118 34.8359C28.9219 35.0338 28.0248 35.5586 27.3204 36.4102C27.303 37.1393 27.2522 37.8502 27.168 38.543C27.1849 37.7636 27.168 36.9849 27.1172 36.207C26.5759 35.5153 26.0681 35.5492 25.5938 36.3086C25.5261 37.0534 25.5261 37.7982 25.5938 38.543C25.7291 38.7623 25.8814 38.9655 26.0508 39.1523C22.0506 39.557 18.3266 38.7445 14.879 36.7148C14.797 35.8876 14.3569 35.5829 13.5586 35.8008C8.41911 31.5094 6.30322 26.025 7.21099 19.3477C7.69416 17.0505 8.5913 14.9346 9.9024 13C9.8792 12.9595 9.84534 12.9426 9.80083 12.9492C11.3891 11.9795 13.1156 11.3701 14.9805 11.1211C14.9842 11.6726 15.0519 12.2142 15.1836 12.7461C14.4237 12.7442 14.0682 13.1166 14.1172 13.8633C14.2018 14.0834 14.3542 14.2357 14.5743 14.3203C18.9415 14.3881 23.3086 14.3881 27.6758 14.3203C28.118 13.9354 28.1858 13.4953 27.879 13C27.5911 12.8375 27.2864 12.7191 26.9649 12.6445C27.0609 12.2436 27.1286 11.8373 27.168 11.4258C27.2646 11.2817 27.2984 11.1125 27.2696 10.918C28.1498 10.918 29.03 10.918 29.9102 10.918C29.8774 11.5804 29.9112 12.2236 30.0118 12.8477Z" fill="#FE6890"/>
<path fill-rule="evenodd" clip-rule="evenodd" d="M9.8007 12.9487C9.8452 12.9421 9.87906 12.9589 9.90226 12.9994C8.59116 14.934 7.69403 17.05 7.21085 19.3471C6.30309 26.0244 8.41897 31.5088 13.5585 35.8002C13.4228 35.9536 13.3043 36.1229 13.203 36.308C13.1692 39.4565 13.1353 42.6049 13.1015 45.7533C12.9744 46.0459 12.7544 46.2321 12.4413 46.3119C11.121 46.3797 9.8007 46.3797 8.48038 46.3119C8.23054 46.1639 8.0105 45.9777 7.82023 45.7533C3.64732 39.6326 1.58222 32.8617 1.62492 25.4408C2.27137 19.877 4.99664 15.713 9.8007 12.9487Z" fill="#FD4F7C"/>
<path fill-rule="evenodd" clip-rule="evenodd" d="M38.9492 21.5828C40.8221 21.4438 42.1932 22.1885 43.0624 23.8172C43.1627 24.6308 42.8072 25.0201 41.996 24.9852C41.8865 24.8881 41.768 24.8035 41.6406 24.7312C40.9962 23.2999 39.9636 22.9106 38.5429 23.5633C38.1541 23.9703 37.8156 24.4104 37.5273 24.8836C36.5456 25.1207 36.1563 24.7315 36.3593 23.7156C36.9071 22.6081 37.7704 21.8971 38.9492 21.5828Z" fill="#060203"/>
<path fill-rule="evenodd" clip-rule="evenodd" d="M47.4805 24.9336C48.423 25.0298 49.371 25.0636 50.3242 25.0352C50.3242 27.4049 50.3242 29.7748 50.3242 32.1445C49.4036 32.2091 48.5234 32.1415 47.6836 31.9414C48.0885 30.4409 48.3086 28.9175 48.3438 27.3711C48.1551 27.0969 47.9012 26.9277 47.582 26.8633C47.6029 26.2155 47.569 25.5723 47.4805 24.9336Z" fill="#FA4E7A"/>
<path fill-rule="evenodd" clip-rule="evenodd" d="M47.6835 31.9414C48.5234 32.1415 49.4035 32.2091 50.3242 32.1445C49.4286 32.2454 48.5145 32.2793 47.582 32.2461C47.5579 32.115 47.5917 32.0134 47.6835 31.9414Z" fill="#672032"/>
<path fill-rule="evenodd" clip-rule="evenodd" d="M34.6836 37.3246C34.1578 40.0045 33.5992 42.6789 33.0078 45.348C32.9802 45.8495 32.7263 46.1711 32.2461 46.3128C30.7904 46.3806 29.3346 46.3806 27.8789 46.3128C27.5511 46.1541 27.331 45.9002 27.2188 45.5511C27.2153 44.1197 27.1476 42.6978 27.0156 41.2855C26.5418 40.9853 26.1018 41.0192 25.6953 41.3871C25.5553 41.8477 25.5045 42.3217 25.543 42.8089C22.3943 42.8259 19.2459 42.8089 16.0977 42.7581C15.6904 42.7073 15.2841 42.6565 14.8789 42.6058C14.8789 40.6423 14.8789 38.6787 14.8789 36.7152C18.3265 38.7448 22.0505 39.5573 26.0508 39.1527C26.5912 39.2382 26.9636 39.0351 27.168 38.5433C27.2522 37.8505 27.3029 37.1396 27.3203 36.4105C28.0247 35.5589 28.9219 35.0341 30.0117 34.8363C32.133 34.6272 33.6902 35.4565 34.6836 37.3246Z" fill="#FC4F7C"/>
<path fill-rule="evenodd" clip-rule="evenodd" d="M27.168 38.5434C26.9637 39.0352 26.5912 39.2383 26.0508 39.1528C25.8814 38.9659 25.7291 38.7628 25.5938 38.5434C25.526 37.7986 25.526 37.0538 25.5938 36.309C26.0681 35.5496 26.5759 35.5157 27.1172 36.2075C27.168 36.9853 27.1849 37.764 27.168 38.5434Z" fill="#080304"/>
<path fill-rule="evenodd" clip-rule="evenodd" d="M41.3867 38.7461C39.6776 40.2787 37.714 41.3959 35.4961 42.0977C35.5585 41.1414 35.7278 40.1935 36.0039 39.2539C37.7673 39.2641 39.5108 39.0609 41.2344 38.6445C41.3121 38.6516 41.3629 38.6855 41.3867 38.7461Z" fill="#FA4E7B"/>
</g>
<defs>
<clipPath id="clip0_1514_2112">
<rect width="52" height="52" fill="white"/>
</clipPath>
</defs>
</svg>
