<svg width="60" height="60" viewBox="0 0 60 60" fill="none" xmlns="http://www.w3.org/2000/svg">
<path d="M59.5137 23.5261C59.5137 36.1169 49.3106 46.3323 36.7075 46.3323C24.1168 46.3323 13.9014 36.1292 13.9014 23.5261C13.9014 10.923 24.1168 0.719971 36.7075 0.719971C49.3106 0.719971 59.5137 10.923 59.5137 23.5261Z" fill="#AFDEE0"/>
<path d="M50.9722 36.0923C50.4306 36.0923 49.9014 36.0061 49.3968 35.8092C49.3214 35.7812 49.2524 35.7385 49.1936 35.6837C49.1348 35.6288 49.0875 35.5629 49.0543 35.4897C49.0211 35.4165 49.0028 35.3374 49.0003 35.2571C48.9978 35.1767 49.0113 35.0967 49.0398 35.0215C49.1629 34.7015 49.5075 34.5415 49.8275 34.6646C51.206 35.1815 52.8922 34.7015 53.7906 33.5446C52.9097 32.5358 52.3447 31.2904 52.166 29.9631C52.1168 29.6185 52.0922 29.1631 52.2645 28.7323C52.4983 28.1661 53.0275 27.8338 53.5691 27.8215C54.2091 27.8461 54.6152 28.3631 54.7506 28.5354C55.7845 29.8646 55.9814 31.7846 55.3168 33.3354C55.7352 33.6923 56.1906 33.9754 56.6952 34.1969C57.0029 34.3323 57.1506 34.6892 57.0152 35.0092C56.8798 35.3169 56.5229 35.4646 56.2029 35.3292C55.6491 35.0954 55.1322 34.7754 54.6645 34.4061C53.7783 35.4769 52.3752 36.0923 50.9722 36.0923ZM53.5198 29.0646C53.5075 29.0646 53.446 29.1261 53.4091 29.2C53.3475 29.3723 53.3598 29.6185 53.3845 29.8154C53.4952 30.7138 53.8522 31.5754 54.3814 32.3138C54.6398 31.2923 54.4306 30.1477 53.7783 29.3108C53.606 29.0769 53.5198 29.0646 53.5198 29.0646Z" fill="black"/>
<path d="M51.5753 34.8862C51.5753 40.6092 48.8553 45.7662 44.4983 49.3846L41.9383 57.7046C41.7537 58.2708 41.2368 58.6646 40.6337 58.6646H35.7599C35.0091 58.6646 34.3937 58.0615 34.3937 57.3108V54.2215C30.9838 54.928 27.4652 54.928 24.0553 54.2215V57.3108C24.0553 58.0615 23.4522 58.6646 22.7014 58.6646H17.8153C17.2245 58.6646 16.6953 58.2708 16.5229 57.7046L13.9506 49.3846C11.4399 47.2923 9.45833 44.6831 8.25218 41.7539H5.42141C3.4891 41.7539 1.92603 40.1785 1.92603 38.2462V31.5262C1.92603 29.5939 3.4891 28.0308 5.42141 28.0308H8.25218C8.89218 26.48 9.74141 25.0154 10.7753 23.6862C11.1199 23.3046 11.4645 22.9477 11.8214 22.6031C11.5999 22.2092 11.5137 21.9385 11.5137 21.9385C10.3076 19.1323 10.5291 16.2892 11.0953 14.0985C11.6368 11.9446 14.086 10.8985 16.0183 11.9815L22.6276 15.8954C22.6645 15.8831 22.6891 15.8831 22.726 15.8708C24.7814 15.3169 26.9599 15.0215 29.2245 15.0215C29.7783 15.0215 30.3322 15.0339 30.8737 15.0831V14.9477C30.8737 10.0492 34.8491 6.07385 39.7476 6.07385C44.6583 6.07385 48.6337 10.0492 48.6337 14.9477C48.6337 17.5446 47.526 19.8831 45.7537 21.5077C49.3722 25.04 51.5753 29.7292 51.5753 34.8862Z" fill="black"/>
<path d="M40.6339 59.28H35.76C34.6646 59.28 33.7785 58.3939 33.7785 57.3108V54.96C30.7754 55.4892 27.6739 55.4892 24.6708 54.96V57.3108C24.6708 58.3939 23.7846 59.28 22.7016 59.28H17.8154C16.9539 59.28 16.1785 58.7016 15.9323 57.8892L13.4093 49.7416C10.9723 47.6739 9.05233 45.1385 7.83387 42.3692H5.42156C3.15695 42.3692 1.31079 40.5231 1.31079 38.2462V31.5262C1.31079 29.2616 3.15695 27.4154 5.42156 27.4154H7.84618C8.48618 25.9508 9.31079 24.5723 10.2954 23.3046C10.5662 23.0092 10.8246 22.7385 11.0708 22.48C10.9723 22.2708 10.9354 22.1477 10.9231 22.1231C9.61848 19.0831 9.9631 15.9939 10.4923 13.9385C10.8 12.7323 11.6246 11.7477 12.7816 11.2554C13.9385 10.7631 15.2185 10.8246 16.3139 11.44L22.7139 15.2308C25.1508 14.5908 27.7108 14.3077 30.2585 14.4185C30.5293 9.43386 34.6769 5.44617 39.7354 5.44617C44.9785 5.44617 49.2369 9.70463 49.2369 14.9354C49.2369 17.3846 48.2893 19.7477 46.6154 21.4954C50.2093 25.2123 52.1785 29.9385 52.1785 34.8739C52.1785 40.4739 49.5693 45.8769 45.0154 49.7292L42.5046 57.8769C42.2585 58.7262 41.4954 59.28 40.6339 59.28ZM34.3939 53.6062C34.5293 53.6062 34.6769 53.6554 34.7877 53.7416C34.9354 53.8523 35.0093 54.0369 35.0093 54.2216V57.3108C35.0093 57.7169 35.3416 58.0492 35.76 58.0492H40.6339C40.9539 58.0492 41.2493 57.84 41.3477 57.5077L43.9077 49.2C43.9446 49.0892 44.0062 48.9908 44.1046 48.9046C48.4616 45.2862 50.96 40.1785 50.96 34.8739C50.96 30.0739 48.9539 25.4831 45.3231 21.9385C45.2 21.8154 45.1385 21.6554 45.1385 21.4831C45.1385 21.3108 45.2123 21.1508 45.3354 21.04C46.179 20.2621 46.8527 19.3184 47.3145 18.2679C47.7762 17.2174 48.0158 16.0829 48.0185 14.9354C48.0185 10.3816 44.3139 6.67694 39.7477 6.67694C35.1939 6.67694 31.4893 10.3816 31.4893 14.9354V15.0708C31.4893 15.2431 31.4154 15.4031 31.2923 15.5262C31.2289 15.5825 31.1548 15.6257 31.0746 15.6531C30.9943 15.6806 30.9093 15.6918 30.8246 15.6862C28.1908 15.44 25.4339 15.7723 22.8862 16.4492C22.7262 16.4985 22.4554 16.4985 22.32 16.4123L15.7108 12.4985C14.9723 12.08 14.0739 12.0308 13.2739 12.3754C12.4739 12.72 11.9077 13.3969 11.6985 14.2339C11.2185 16.1046 10.8985 18.9108 12.08 21.68C12.1046 21.7539 12.1785 21.9754 12.3631 22.2831C12.4985 22.5292 12.4616 22.8369 12.2523 23.0216C11.9077 23.3539 11.5754 23.6985 11.2308 24.08C10.2585 25.3231 9.44618 26.7385 8.81848 28.24C8.72002 28.4739 8.49848 28.6216 8.25233 28.6216H5.42156C3.83387 28.6216 2.54156 29.9139 2.54156 31.5016V38.2216C2.54156 39.8216 3.83387 41.1139 5.42156 41.1139H8.25233C8.49848 41.1139 8.73233 41.2616 8.81848 41.4954C9.9631 44.2769 11.8708 46.8246 14.3446 48.8923C14.4308 48.9662 14.5046 49.0646 14.5416 49.1877L17.1139 57.5077C17.2123 57.8154 17.4954 58.0369 17.8154 58.0369H22.7016C23.12 58.0369 23.44 57.7169 23.44 57.2985V54.2092C23.44 54.0246 23.5262 53.8523 23.6616 53.7292C23.8093 53.6062 23.9939 53.5692 24.1785 53.6062C27.4893 54.2954 30.96 54.2954 34.2708 53.6062H34.3939Z" fill="black"/>
<path d="M21.9016 14.5538C23.9569 13.9876 26.1477 13.6923 28.4 13.6923C40.7446 13.6923 50.7508 22.5907 50.7508 33.5569C50.7508 39.28 48.0308 44.4369 43.6739 48.0553L41.1016 56.3753C40.9293 56.9415 40.4 57.3353 39.8093 57.3353H34.9231C34.1723 57.3353 33.5693 56.7323 33.5693 55.9815V52.8923C31.9077 53.2369 30.1723 53.4338 28.4 53.4338C26.6277 53.4338 24.8923 53.2492 23.2308 52.8923V55.9815C23.2308 56.7323 22.6277 57.3353 21.8769 57.3353H16.9908C16.4 57.3353 15.8708 56.9415 15.6985 56.3753L13.1262 48.0553C10.6031 45.963 8.63387 43.3538 7.41541 40.4123H4.60925C2.67695 40.4123 1.10156 38.8492 1.10156 36.9046V30.1846C1.10156 28.2523 2.66464 26.6769 4.60925 26.6769H7.42772C8.06772 25.1261 8.91695 23.6738 9.95079 22.3323C13.6062 18.3692 17.5816 15.7107 21.9016 14.5538Z" fill="#F6C649"/>
<path d="M39.8092 57.9507H34.923C33.8399 57.9507 32.9538 57.0646 32.9538 55.9815V53.643C29.963 54.1846 26.8369 54.1846 23.8461 53.643V55.9815C23.8461 57.0646 22.9599 57.9507 21.8769 57.9507H16.9907C16.1169 57.9507 15.3661 57.3969 15.1076 56.56L12.5969 48.4123C10.1599 46.3569 8.23993 43.8092 7.02147 41.0277H4.60916C2.34455 41.0277 0.486084 39.1815 0.486084 36.9046V30.1846C0.486084 27.92 2.33224 26.0738 4.60916 26.0738H7.02147C7.66147 24.6215 8.48608 23.243 9.4707 21.963C13.2984 17.7907 17.4215 15.1077 21.7538 13.9384C23.8953 13.36 26.1353 13.0646 28.4122 13.0646C41.0769 13.0646 51.3784 22.2584 51.3784 33.5446C51.3784 39.1446 48.7692 44.5477 44.2276 48.4L41.7169 56.5477C41.4461 57.3969 40.683 57.9507 39.8092 57.9507ZM34.1845 52.1415V55.9815C34.1845 56.3877 34.5169 56.72 34.923 56.72H39.8092C39.9695 56.7212 40.1258 56.6702 40.2546 56.5747C40.3834 56.4793 40.4776 56.3445 40.523 56.1907L43.1445 47.6984L43.2799 47.5753C47.6369 43.9569 50.1353 38.8369 50.1353 33.5446C50.1353 22.923 40.3876 14.2953 28.3999 14.2953C26.2338 14.2953 24.0922 14.5784 22.0615 15.1323C17.963 16.24 14.0369 18.8 10.4061 22.763C9.42381 24.0384 8.61282 25.437 7.99378 26.923L7.83378 27.3046H4.60916C3.02147 27.3046 1.71685 28.5969 1.71685 30.1846V36.9046C1.71685 38.4923 3.00916 39.7969 4.60916 39.7969H7.83378L7.99378 40.1784C9.1507 42.9723 11.0584 45.5323 13.5199 47.5753L13.6553 47.6984L16.2769 56.1907C16.3753 56.4984 16.6584 56.72 16.9907 56.72H21.8769C22.283 56.72 22.6153 56.3877 22.6153 55.9815V52.1415L23.3538 52.3015C26.6399 53.003 30.1476 52.9907 33.4338 52.3015L34.1845 52.1415Z" fill="black"/>
<path d="M47.1199 33.5692C47.3046 35.4399 47.0707 37.3722 46.443 39.1938C46.1353 40.0922 45.8153 41.0399 45.2123 41.803C44.6215 42.5661 43.9076 43.2553 43.0338 43.6984C42.9969 43.7107 42.9599 43.6984 42.9476 43.6738C42.9416 43.667 42.9382 43.6583 42.9382 43.6492C42.9382 43.6401 42.9416 43.6313 42.9476 43.6246C43.3292 42.7138 43.7722 41.9261 44.1907 41.1384C44.5969 40.3507 45.1507 39.6369 45.5446 38.8246C46.3323 37.2122 46.8369 35.4276 47.0092 33.5815C47.0092 33.5446 47.0461 33.5199 47.0707 33.5322C47.0953 33.5076 47.1199 33.5322 47.1199 33.5692Z" fill="white"/>
<path d="M1.10156 30.0615H4.28926V31.2922H1.10156V30.0615ZM1.10156 33.0522H4.28926V34.283H1.10156V33.0522ZM1.10156 36.043H4.28926V37.2738H1.10156V36.043ZM44.2523 25.1261C44.0923 25.1261 43.9323 25.0646 43.8093 24.9415C42.9846 24.0922 42.0862 23.3169 41.1508 22.6276C40.2277 21.9384 39.2554 21.3476 38.2585 20.843C37.0893 20.2522 35.8462 19.7722 34.5785 19.4276C33.4708 19.1199 32.3631 18.9107 31.2677 18.8246C29.4216 18.6522 28.2523 18.8246 28.24 18.8246C27.9077 18.8738 27.5877 18.6399 27.5385 18.3076C27.4893 17.9753 27.7231 17.6553 28.0554 17.6061C28.1046 17.5938 29.3846 17.4215 31.3785 17.6061C32.5477 17.7046 33.7416 17.9261 34.9108 18.2584C36.2523 18.6276 37.5693 19.1322 38.8123 19.7599C39.8708 20.2892 40.9046 20.9169 41.8769 21.643C42.8616 22.3569 43.8093 23.1815 44.6831 24.0799C44.9169 24.3261 44.9169 24.7076 44.6708 24.9538C44.56 25.0646 44.4123 25.1261 44.2523 25.1261Z" fill="black"/>
<path d="M25.323 16.6707L15.1938 10.6522C13.2615 9.56914 10.8123 10.6153 10.2707 12.7691C9.71687 14.9599 9.48303 17.803 10.6892 20.6214C10.6892 20.6214 11.1446 22.0615 12.72 23.1076" fill="#F6C649"/>
<path d="M12.3754 23.6246C10.64 22.4677 10.1231 20.8677 10.0984 20.8061C9.05228 18.3938 8.90459 15.6123 9.66767 12.6215C9.97536 11.4154 10.8123 10.4307 11.9569 9.93843C13.1015 9.44613 14.3938 9.50767 15.4892 10.1231L25.6307 16.1415L25.0031 17.2L14.8738 11.1938C14.1354 10.7877 13.2369 10.7384 12.4369 11.0831C11.6492 11.4277 11.0707 12.1046 10.8492 12.9415C10.16 15.6615 10.2831 18.1723 11.2431 20.4C11.2677 20.4738 11.6861 21.7169 13.04 22.6154L12.3754 23.6246ZM13.6677 26.9107C13.6677 27.76 12.9907 28.4369 12.1415 28.4369C11.2923 28.4369 10.6154 27.76 10.6154 26.9107C10.6154 26.0615 11.2923 25.3846 12.1415 25.3846C12.9907 25.3846 13.6677 26.0615 13.6677 26.9107Z" fill="black"/>
<path d="M47.8092 13.6185C47.8092 17.6308 45.163 21.0154 41.5199 22.1231C40.523 21.3846 39.5261 20.7816 38.5415 20.2892C37.2246 19.6246 35.9322 19.1569 34.7507 18.8369C33.4707 18.48 32.3138 18.2954 31.3292 18.2092C30.5167 16.863 30.0764 15.3252 30.0532 13.753C30.03 12.1808 30.4248 10.6307 31.1973 9.26113C31.9697 7.89157 33.092 6.75173 34.4494 5.95817C35.8068 5.16462 37.3507 4.74583 38.923 4.74463C43.8338 4.74463 47.8092 8.72001 47.8092 13.6185Z" fill="white"/>
<path d="M45.126 13.6923C45.126 17.1138 42.3445 19.8954 38.9229 19.8954C38.8122 19.8954 38.6891 19.8954 38.566 19.8707C37.3476 19.2554 36.1537 18.8246 35.0583 18.5292C34.3332 17.9486 33.7477 17.2125 33.345 16.3753C32.9424 15.5382 32.733 14.6212 32.7322 13.6923C32.7354 12.0514 33.3887 10.4786 34.549 9.31833C35.7093 8.15804 37.2821 7.50476 38.9229 7.50151C42.3445 7.4892 45.126 10.283 45.126 13.6923Z" fill="#F6C649"/>
<path d="M41.4091 22.8122L41.163 22.6276C40.2399 21.9384 39.2676 21.3476 38.2707 20.843C37.1015 20.2522 35.8584 19.7722 34.5907 19.4399C33.483 19.1322 32.3753 18.923 31.2799 18.8369L30.9722 18.8122L30.8122 18.5415C29.9151 17.0608 29.4425 15.3619 29.4461 13.6307C29.4461 8.39994 33.7045 4.14148 38.9353 4.14148C44.1784 4.14148 48.4368 8.39994 48.4368 13.6307C48.4368 17.8522 45.7291 21.5076 41.7168 22.7261L41.4091 22.8122ZM31.6984 17.6307C32.7691 17.7415 33.8522 17.9507 34.9107 18.2461C36.2522 18.603 37.5691 19.1076 38.8122 19.7353C39.7722 20.2153 40.7199 20.7938 41.6184 21.4338C44.9538 20.2892 47.1814 17.1753 47.1814 13.6061C47.1814 9.05225 43.4768 5.34763 38.9107 5.34763C34.3568 5.34763 30.6522 9.05225 30.6522 13.6061C30.6645 15.0338 31.0214 16.4122 31.6984 17.6307Z" fill="black"/>
<path d="M41.4215 15.0338C41.4215 15.403 41.323 15.723 41.1507 16.0061C40.9661 16.2892 40.7199 16.5107 40.3999 16.683C40.1292 16.8184 39.8215 16.9168 39.4769 16.9661V17.6553C39.4769 17.7784 39.4276 17.9015 39.3415 17.9876C39.2553 18.0861 39.1322 18.1353 39.0092 18.1353C38.9466 18.1357 38.8846 18.1234 38.8269 18.0993C38.7692 18.0751 38.7169 18.0396 38.6733 17.9948C38.6296 17.9499 38.5954 17.8968 38.5728 17.8385C38.5501 17.7801 38.5395 17.7178 38.5415 17.6553V17.0153C38.1969 16.9907 37.8769 16.9415 37.5938 16.8553C37.2615 16.7568 36.9784 16.6338 36.7445 16.4984C36.639 16.442 36.5563 16.3506 36.5107 16.2399C36.4615 16.1415 36.4492 16.0307 36.4615 15.9199C36.4738 15.8092 36.5107 15.723 36.5845 15.6492C36.6479 15.5714 36.734 15.5155 36.8307 15.4892C36.9292 15.4768 37.0522 15.5015 37.1876 15.5753C37.3599 15.6738 37.5938 15.7722 37.8769 15.8584C38.1599 15.9568 38.5045 15.9938 38.9107 15.9938C39.2307 15.9938 39.4892 15.9568 39.6861 15.8707C39.8707 15.7968 40.0184 15.6861 40.1169 15.563C40.2027 15.4469 40.253 15.3083 40.2618 15.1641C40.2705 15.02 40.2373 14.8764 40.1661 14.7507C40.0856 14.6334 39.9751 14.5399 39.8461 14.4799C39.6639 14.3863 39.469 14.32 39.2676 14.283L38.2584 14.0738C37.6922 13.9507 37.2615 13.7415 36.9784 13.4338C36.6953 13.1384 36.5476 12.7568 36.5476 12.2768C36.5476 11.9076 36.6461 11.563 36.8184 11.2799C37.003 10.9845 37.2615 10.7507 37.5815 10.5784C37.8645 10.4184 38.1845 10.3322 38.5538 10.283V9.60608C38.5538 9.483 38.5907 9.35992 38.6769 9.27377C38.7216 9.22833 38.7754 9.1928 38.8348 9.16947C38.8941 9.14615 38.9578 9.13556 39.0215 9.13839C39.1445 9.13839 39.2676 9.18762 39.3538 9.27377C39.4522 9.35992 39.4892 9.483 39.4892 9.60608V10.2707C39.6984 10.2953 39.9322 10.3445 40.1784 10.4061C40.4984 10.5045 40.7815 10.6522 41.0153 10.8368C41.1138 10.9107 41.1753 10.9968 41.1999 11.0953C41.231 11.1842 41.2359 11.2802 41.2141 11.3718C41.1923 11.4634 41.1447 11.5469 41.0769 11.6122C41.003 11.6738 40.9169 11.7107 40.8184 11.723C40.7199 11.7353 40.5969 11.6984 40.4615 11.6245C40.2769 11.5138 40.0799 11.4276 39.8461 11.3661C39.6122 11.3045 39.3538 11.2676 39.0338 11.2676C38.6276 11.2676 38.3199 11.3661 38.0861 11.5384C37.8522 11.7107 37.7538 11.9445 37.7538 12.2399C37.7538 12.4492 37.8153 12.6215 37.963 12.7568C38.1107 12.8922 38.3445 12.9907 38.6769 13.0645L39.7107 13.2984C40.3138 13.4338 40.7569 13.643 41.0399 13.9261C41.2738 14.1968 41.4215 14.5784 41.4215 15.0338Z" fill="black"/>
</svg>
