<svg width="24" height="24" viewBox="0 0 24 24" fill="none" xmlns="http://www.w3.org/2000/svg">
<g clip-path="url(#clip0_507_1690)">
<path opacity="0.975" fill-rule="evenodd" clip-rule="evenodd" d="M23.9766 5.41447C23.9766 10.6645 23.9766 15.9145 23.9766 21.1645C23.8125 21.5076 23.5391 21.6951 23.1562 21.727C20.8174 20.9713 18.419 20.651 15.9609 20.766C14.5799 20.8731 13.2517 21.1933 11.9766 21.727C9.54155 20.7524 7.02595 20.479 4.42969 20.9067C3.97394 20.9696 3.52081 21.0477 3.07031 21.141C2.3047 21.3261 1.53907 21.5057 0.773438 21.6801C0.396426 21.6778 0.130801 21.5059 -0.0234375 21.1645C-0.0234375 15.9145 -0.0234375 10.6645 -0.0234375 5.41447C0.0927577 5.19683 0.264632 5.03277 0.492188 4.92229C1.14605 4.85624 1.8023 4.8328 2.46094 4.85197C2.45313 4.19554 2.46094 3.53929 2.48438 2.88322C2.58778 2.57757 2.79872 2.39789 3.11719 2.34416C5.15236 2.08825 7.12111 2.33824 9.02344 3.09416C10.1783 3.59308 11.1626 4.31965 11.9766 5.27385C13.237 3.8305 14.8151 2.91643 16.7109 2.53166C18.0771 2.24395 19.452 2.18144 20.8359 2.34416C21.1544 2.39789 21.3653 2.57757 21.4688 2.88322C21.4922 3.53929 21.5 4.19554 21.4922 4.85197C22.1508 4.8328 22.8071 4.85624 23.4609 4.92229C23.6885 5.03277 23.8604 5.19683 23.9766 5.41447ZM4.10156 3.91447C5.81808 3.82027 7.44309 4.15621 8.97656 4.92229C9.84647 5.43861 10.5574 6.1183 11.1094 6.96135C11.1406 10.8051 11.1406 14.6488 11.1094 18.4926C10.1902 17.6851 9.13552 17.1148 7.94531 16.7817C6.68784 16.4331 5.40656 16.2846 4.10156 16.3363C4.10156 12.1957 4.10156 8.05508 4.10156 3.91447ZM18.7266 3.91447C19.1016 3.91447 19.4766 3.91447 19.8516 3.91447C19.8516 8.05508 19.8516 12.1957 19.8516 16.3363C17.8528 16.2345 15.9622 16.633 14.1797 17.5317C13.6972 17.8003 13.2518 18.1206 12.8438 18.4926C12.8125 14.6488 12.8125 10.8051 12.8438 6.96135C13.7977 5.53386 15.118 4.61978 16.8047 4.21916C17.4465 4.08251 18.0871 3.98095 18.7266 3.91447ZM1.61719 6.53947C1.89844 6.53947 2.17969 6.53947 2.46094 6.53947C2.45312 10.1958 2.46094 13.852 2.48438 17.5082C2.63413 17.8613 2.89976 18.0488 3.28125 18.0707C5.06658 17.8573 6.79317 18.0839 8.46094 18.7504C8.75728 18.8829 9.03853 19.0391 9.30469 19.2192C6.71123 18.917 4.14874 19.0967 1.61719 19.7582C1.61719 15.352 1.61719 10.9457 1.61719 6.53947ZM21.4922 6.53947C21.7734 6.53947 22.0547 6.53947 22.3359 6.53947C22.3359 10.9457 22.3359 15.352 22.3359 19.7582C19.8044 19.0967 17.2419 18.917 14.6484 19.2192C15.7705 18.5379 16.9893 18.1472 18.3047 18.0473C19.095 17.9466 19.884 17.9544 20.6719 18.0707C21.0534 18.0488 21.319 17.8613 21.4688 17.5082C21.4922 13.852 21.5 10.1958 21.4922 6.53947Z" fill="#3399FF"/>
</g>
<defs>
<clipPath id="clip0_507_1690">
<rect width="24" height="24" fill="white"/>
</clipPath>
</defs>
</svg>
