<svg width="24" height="24" viewBox="0 0 24 24" fill="none" xmlns="http://www.w3.org/2000/svg">
<g clip-path="url(#clip0_510_1572)">
<path opacity="0.978" fill-rule="evenodd" clip-rule="evenodd" d="M11.3202 -0.0234375C11.7577 -0.0234375 12.1953 -0.0234375 12.6327 -0.0234375C14.6855 0.380693 15.9746 1.59945 16.4999 3.63281C16.5649 4.38099 16.5883 5.13098 16.5702 5.88281C17.6814 5.86228 18.7908 5.88572 19.8984 5.95312C20.1792 6.07777 20.3589 6.2887 20.4374 6.58594C20.9451 12.0533 21.4373 17.522 21.914 22.9922C21.9559 23.4555 21.7684 23.7837 21.3515 23.9766C15.1015 23.9766 8.85148 23.9766 2.6015 23.9766C2.18536 23.7855 1.99786 23.4574 2.039 22.9922C2.51851 17.5067 3.01069 12.0223 3.51556 6.53906C3.61426 6.2685 3.79395 6.07322 4.05462 5.95312C5.16219 5.88572 6.27158 5.86228 7.38275 5.88281C7.12264 4.23527 7.50547 2.76652 8.53119 1.47656C9.30026 0.674123 10.2299 0.174122 11.3202 -0.0234375ZM11.7421 1.71094C13.3171 1.73612 14.3249 2.50174 14.7656 4.00781C14.828 4.63105 14.8514 5.25605 14.8359 5.88281C12.9296 5.88281 11.0234 5.88281 9.11712 5.88281C9.10156 5.25605 9.125 4.63105 9.18744 4.00781C9.54687 2.68711 10.3985 1.92149 11.7421 1.71094ZM5.17962 7.66406C5.91401 7.66406 6.64836 7.66406 7.38275 7.66406C7.36184 8.30812 7.38528 8.94877 7.45306 9.58594C7.77804 10.0665 8.20775 10.1836 8.74212 9.9375C8.86119 9.83414 8.96276 9.71695 9.04681 9.58594C9.11459 8.94877 9.13803 8.30812 9.11712 7.66406C11.0234 7.66406 12.9296 7.66406 14.8359 7.66406C14.815 8.30812 14.8384 8.94877 14.9062 9.58594C15.2312 10.0665 15.6609 10.1836 16.1952 9.9375C16.3143 9.83414 16.4159 9.71695 16.4999 9.58594C16.5677 8.94877 16.5912 8.30812 16.5702 7.66406C17.3046 7.66406 18.039 7.66406 18.7734 7.66406C19.1997 12.5249 19.6371 17.3843 20.0859 22.2422C14.6796 22.2422 9.27336 22.2422 3.86712 22.2422C4.31024 17.3835 4.74776 12.5242 5.17962 7.66406Z" fill="#3399FF"/>
</g>
<defs>
<clipPath id="clip0_510_1572">
<rect width="24" height="24" fill="white"/>
</clipPath>
</defs>
</svg>
