<svg width="24" height="24" viewBox="0 0 24 24" fill="none" xmlns="http://www.w3.org/2000/svg">
<g clip-path="url(#clip0_507_1716)">
<path opacity="0.975" fill-rule="evenodd" clip-rule="evenodd" d="M11.6484 -0.0234375C11.8672 -0.0234375 12.0859 -0.0234375 12.3047 -0.0234375C15.4411 1.29443 18.5818 2.61474 21.7266 3.9375C21.8961 4.06605 22.0133 4.23012 22.0781 4.42969C22.1094 6.47658 22.1094 8.52342 22.0781 10.5703C21.4963 16.1469 18.801 20.3422 13.9922 23.1562C13.4311 23.4447 12.8686 23.7181 12.3047 23.9766C12.0859 23.9766 11.8672 23.9766 11.6484 23.9766C6.59049 21.7692 3.42643 17.9723 2.15625 12.5859C2.02311 11.9196 1.92936 11.2477 1.875 10.5703C1.84375 8.52342 1.84375 6.47658 1.875 4.42969C1.93623 4.2275 2.05342 4.06344 2.22656 3.9375C5.37136 2.61474 8.51199 1.29443 11.6484 -0.0234375ZM11.8359 1.99219C12.0962 2.01894 12.3462 2.08925 12.5859 2.20312C15.1118 3.27075 17.643 4.32544 20.1797 5.36719C20.2412 7.07062 20.2334 8.77378 20.1563 10.4766C19.6081 15.3811 17.2096 19.0608 12.9609 21.5156C12.6437 21.6899 12.3156 21.8383 11.9766 21.9609C8.53538 20.4025 6.1057 17.8713 4.6875 14.3672C4.20599 13.113 3.90911 11.8161 3.79688 10.4766C3.71977 8.77378 3.71195 7.07062 3.77344 5.36719C6.46945 4.25014 9.15694 3.12514 11.8359 1.99219Z" fill="#3399FF"/>
<path opacity="0.958" fill-rule="evenodd" clip-rule="evenodd" d="M15.5391 8.17969C16.4513 8.30381 16.756 8.80383 16.4531 9.67969C14.8529 11.3268 13.2357 12.9596 11.6016 14.5781C11.1628 14.8572 10.7252 14.8572 10.2891 14.5781C9.39061 13.6797 8.4922 12.7813 7.59375 11.8828C7.3125 11.4453 7.3125 11.0078 7.59375 10.5703C8.03672 10.2242 8.49769 10.2008 8.97656 10.5C9.62564 11.1569 10.2819 11.8053 10.9453 12.4453C12.3119 11.1022 13.6712 9.75066 15.0234 8.39062C15.19 8.2912 15.3619 8.22089 15.5391 8.17969Z" fill="#3399FF"/>
</g>
<defs>
<clipPath id="clip0_507_1716">
<rect width="24" height="24" fill="white"/>
</clipPath>
</defs>
</svg>
