<svg width="24" height="24" viewBox="0 0 24 24" fill="none" xmlns="http://www.w3.org/2000/svg">
<g clip-path="url(#clip0_507_1697)">
<path opacity="0.975" fill-rule="evenodd" clip-rule="evenodd" d="M3.30469 -0.0234375C9.08592 -0.0234375 14.8672 -0.0234375 20.6484 -0.0234375C20.9218 0.117217 21.1015 0.335967 21.1875 0.632812C21.2188 6.77344 21.2188 12.9141 21.1875 19.0547C21.1535 19.1695 21.1066 19.2789 21.0469 19.3828C19.5703 20.8594 18.0938 22.3359 16.6172 23.8125C16.5266 23.8809 16.4329 23.9355 16.3359 23.9766C11.9922 23.9766 7.64845 23.9766 3.30469 23.9766C3.03133 23.8359 2.85165 23.6172 2.76563 23.3203C2.73437 15.7578 2.73437 8.1953 2.76563 0.632812C2.85165 0.335967 3.03133 0.117217 3.30469 -0.0234375ZM4.47656 1.71094C9.47658 1.71094 14.4765 1.71094 19.4766 1.71094C19.4766 7.13283 19.4766 12.5547 19.4766 17.9766C18.2733 17.9687 17.0702 17.9766 15.8672 18C15.5502 18.0826 15.3393 18.278 15.2344 18.5859C15.2109 19.8046 15.2031 21.0233 15.2109 22.2422C11.6328 22.2422 8.05467 22.2422 4.47656 22.2422C4.47656 15.3984 4.47656 8.55469 4.47656 1.71094ZM16.9453 19.7109C17.3675 19.7032 17.7893 19.7109 18.2109 19.7344C17.7969 20.1484 17.3828 20.5625 16.9688 20.9766C16.9453 20.555 16.9375 20.1331 16.9453 19.7109Z" fill="#3399FF"/>
<path opacity="0.94" fill-rule="evenodd" clip-rule="evenodd" d="M6.77343 4.1482C7.60082 4.11715 7.95238 4.50778 7.82811 5.32007C7.50974 5.87043 7.06443 6.00328 6.49218 5.71851C6.18575 5.44875 6.08422 5.11279 6.18749 4.7107C6.31729 4.44795 6.51261 4.26045 6.77343 4.1482Z" fill="#3399FF"/>
<path opacity="0.968" fill-rule="evenodd" clip-rule="evenodd" d="M9.53911 4.14844C12.0391 4.14062 14.5392 4.14844 17.0391 4.17188C17.6305 4.46647 17.7789 4.9118 17.4844 5.50781C17.3361 5.70309 17.1407 5.82028 16.8985 5.85938C14.4766 5.89064 12.0547 5.89064 9.63286 5.85938C8.94726 5.59988 8.76759 5.13891 9.09379 4.47656C9.22457 4.33758 9.37303 4.2282 9.53911 4.14844Z" fill="#3399FF"/>
<path opacity="0.941" fill-rule="evenodd" clip-rule="evenodd" d="M6.82031 8.32076C7.43677 8.2887 7.79616 8.57778 7.89844 9.18795C7.7167 9.99757 7.24795 10.2319 6.49219 9.89107C6.14236 9.54654 6.07205 9.1481 6.28125 8.69576C6.42891 8.51712 6.60858 8.39215 6.82031 8.32076Z" fill="#3399FF"/>
<path opacity="0.967" fill-rule="evenodd" clip-rule="evenodd" d="M9.5859 8.32032C12.0547 8.31249 14.5234 8.32032 16.9922 8.34376C17.5554 8.55615 17.7507 8.95458 17.5781 9.53907C17.4624 9.79637 17.2671 9.96043 16.9922 10.0313C14.5234 10.0625 12.0547 10.0625 9.5859 10.0313C9.02219 9.81783 8.82686 9.4194 8.99997 8.83594C9.1269 8.58183 9.32223 8.40999 9.5859 8.32032Z" fill="#3399FF"/>
<path opacity="0.94" fill-rule="evenodd" clip-rule="evenodd" d="M6.8671 12.4922C7.75131 12.5739 8.04038 13.0271 7.73429 13.8516C7.40809 14.2418 7.00965 14.3277 6.53898 14.1094C6.16332 13.8034 6.06174 13.4206 6.23429 12.9609C6.37777 12.7064 6.58871 12.5501 6.8671 12.4922Z" fill="#3399FF"/>
<path opacity="0.968" fill-rule="evenodd" clip-rule="evenodd" d="M9.67959 12.4922C12.0859 12.4844 14.4922 12.4922 16.8983 12.5156C17.3463 12.6199 17.5963 12.9011 17.6483 13.3594C17.6399 13.7829 17.4368 14.0641 17.039 14.2031C14.539 14.2344 12.039 14.2344 9.53897 14.2031C9.0097 13.9648 8.83003 13.5664 8.99991 13.0078C9.15441 12.7356 9.38095 12.5637 9.67959 12.4922Z" fill="#3399FF"/>
</g>
<defs>
<clipPath id="clip0_507_1697">
<rect width="24" height="24" fill="white"/>
</clipPath>
</defs>
</svg>
