<svg width="24" height="24" viewBox="0 0 24 24" fill="none" xmlns="http://www.w3.org/2000/svg">
<path opacity="0.971" fill-rule="evenodd" clip-rule="evenodd" d="M11.7891 2.08629C12.8212 2.05959 13.6728 2.43459 14.3438 3.21129C17.055 8.07125 19.7425 12.9462 22.4062 17.8363C22.8828 19.2666 22.5469 20.4619 21.3984 21.4222C20.9489 21.7388 20.4489 21.9263 19.8984 21.9847C14.6172 22.016 9.33595 22.016 4.05469 21.9847C2.3618 21.6981 1.45555 20.6981 1.33594 18.9847C1.33804 18.5893 1.40835 18.2065 1.54688 17.8363C4.21058 12.9462 6.89808 8.07125 9.60938 3.21129C10.1888 2.54273 10.9154 2.16773 11.7891 2.08629ZM11.7891 4.14879C12.1711 4.12237 12.4914 4.24737 12.75 4.52379C15.3563 9.25212 17.9501 13.9865 20.5312 18.7269C20.6361 19.34 20.3939 19.7385 19.8047 19.9222C14.586 19.9535 9.36717 19.9535 4.14844 19.9222C3.37233 19.594 3.19265 19.0549 3.60938 18.305C6.10566 13.7969 8.59003 9.28132 11.0625 4.75817C11.2152 4.44083 11.4574 4.23771 11.7891 4.14879Z" fill="#FDAD46"/>
<path opacity="0.961" fill-rule="evenodd" clip-rule="evenodd" d="M11.7891 7.9452C12.4177 7.91079 12.8161 8.19204 12.9844 8.78895C13.0157 10.2421 13.0157 11.6952 12.9844 13.1483C12.7998 13.8009 12.3701 14.0743 11.6953 13.9686C11.2882 13.8427 11.046 13.5692 10.9688 13.1483C10.9375 11.6952 10.9375 10.2421 10.9688 8.78895C11.0632 8.32741 11.3366 8.04616 11.7891 7.9452Z" fill="#FDAD46"/>
<path opacity="0.946" fill-rule="evenodd" clip-rule="evenodd" d="M11.6953 15.9605C12.7474 15.942 13.1458 16.442 12.8906 17.4605C12.488 18.0094 11.9802 18.1265 11.3672 17.812C10.8961 17.3795 10.8258 16.8873 11.1563 16.3355C11.3195 16.1789 11.4992 16.0539 11.6953 15.9605Z" fill="#FDAD46"/>
</svg>
