<svg width="64" height="64" viewBox="0 0 64 64" fill="none" xmlns="http://www.w3.org/2000/svg">
<path fill-rule="evenodd" clip-rule="evenodd" d="M61.7909 13.1109L32.2927 2.71478C32.1045 2.64846 31.8992 2.64846 31.711 2.71478L2.20916 13.1109C2.03836 13.1711 1.89045 13.2828 1.78582 13.4306C1.68119 13.5784 1.625 13.7551 1.625 13.9362C1.625 14.1172 1.68119 14.2939 1.78582 14.4417C1.89045 14.5895 2.03836 14.7012 2.20916 14.7614L13.7397 18.8247V30.5579C13.7396 30.7099 13.7792 30.8592 13.8545 30.9912C13.9297 31.1233 14.0381 31.2334 14.1689 31.3108C20.3888 34.9933 26.2174 36.8274 31.988 36.9178H32.0155C37.7838 36.8273 43.6114 34.9933 49.8312 31.3108C49.9619 31.2334 50.0703 31.1232 50.1455 30.9912C50.2208 30.8592 50.2604 30.7099 50.2604 30.5579V18.8252L54.2825 17.4077V25.7767C53.0889 26.1499 52.2203 27.2658 52.2203 28.5808C52.2203 29.2278 52.4315 29.8263 52.7882 30.3119L51.357 34.5224C51.1967 35.0099 51.2218 35.5332 51.428 35.9955L51.434 36.0085C51.6993 36.578 52.1958 36.918 52.7622 36.918H57.5492C58.1155 36.918 58.612 36.578 58.8793 36.0044C59.0907 35.5442 59.1174 35.0178 58.9517 34.5143L57.5235 30.3125C57.8928 29.8107 58.0917 29.2038 58.0912 28.5808C58.0912 27.2662 57.224 26.1507 56.0325 25.777V16.7909L61.7909 14.7614C61.9617 14.7012 62.1096 14.5895 62.2143 14.4417C62.3189 14.2939 62.3751 14.1172 62.3751 13.9362C62.3751 13.7551 62.3189 13.5784 62.2143 13.4306C62.1096 13.2828 61.9617 13.1711 61.7909 13.1109ZM53.0027 35.168C53.0027 35.1368 53.0073 35.1058 53.0165 35.0774L54.2738 31.3785C54.5528 31.4667 54.8497 31.5144 55.1574 31.5144C55.4652 31.5144 55.7598 31.4669 56.0378 31.3793L57.2919 35.0693C57.3029 35.1027 57.3087 35.1364 57.3094 35.168H53.0024H53.0027ZM55.1575 29.7644C54.5029 29.7644 53.9703 29.2334 53.9703 28.5808C53.9703 27.9282 54.5029 27.3935 55.1575 27.3935C55.8122 27.3935 56.3412 27.9262 56.3412 28.5808C56.3412 29.2354 55.8102 29.7644 55.1575 29.7644ZM32.0018 35.1679C26.6798 35.0818 21.2732 33.4087 15.4897 30.0564V27.4079C21.2207 30.5873 26.6313 32.178 31.988 32.2619H32.0155C37.37 32.1779 42.7795 30.5873 48.5104 27.4079V30.0564C42.727 33.4087 37.3215 35.0817 32.0018 35.1679ZM48.5104 25.3962C42.723 28.7509 37.3178 30.4258 32.0018 30.5119C26.6835 30.4258 21.2772 28.7509 15.4897 25.3962V19.4413L31.7109 25.1575C31.8992 25.2238 32.1044 25.2238 32.2927 25.1575L48.5104 19.4418V25.396V25.3962ZM32.0018 23.4045L5.13279 13.9362L32.0019 4.46778L58.8678 13.9362L32.0019 23.4047L32.0018 23.4045ZM53.4814 39.9302C53.439 39.9302 53.3967 39.9333 53.3547 39.9394C47.2848 40.8279 41.1557 41.3423 35.125 41.4719C35.0964 41.3817 35.0667 41.2919 35.0359 41.2024C34.9649 40.9975 34.8203 40.8263 34.6302 40.7219C34.4401 40.6176 34.218 40.5876 34.007 40.6377C32.8484 40.9129 31.7099 40.8908 30.5263 40.57C30.3906 40.5333 30.2481 40.5298 30.1108 40.5598C29.9735 40.5898 29.8455 40.6524 29.7375 40.7424C29.6296 40.8324 29.5449 40.9471 29.4907 41.0768C29.4365 41.2064 29.4143 41.3472 29.426 41.4873C23.3967 41.3812 17.3109 40.897 11.3064 40.0478C11.0171 39.9703 10.7188 39.9308 10.4193 39.9303C7.36553 39.9303 4.97341 43.9488 4.97341 49.0789C4.97341 54.209 7.36553 58.224 10.4193 58.224C10.7132 58.2237 11.0059 58.1858 11.2903 58.1113C15.8277 57.4717 20.485 57.042 25.17 56.8323L24.6108 57.8009C24.5296 57.9414 24.4891 58.1017 24.4939 58.2639C24.4986 58.4261 24.5483 58.5838 24.6375 58.7193C24.7266 58.8549 24.8518 58.963 24.9988 59.0315C25.1459 59.1 25.3091 59.1263 25.4703 59.1074L27.5765 58.8608L28.4168 60.8069C28.4811 60.9558 28.5855 61.084 28.7183 61.177C28.8512 61.27 29.0074 61.3243 29.1693 61.3337C29.3312 61.3431 29.4926 61.3073 29.6354 61.2303C29.7781 61.1533 29.8967 61.0381 29.9778 60.8977L32.0338 57.3387C32.6964 57.3017 33.3608 57.3616 34.0062 57.5163C34.0728 57.5322 34.1411 57.5403 34.2097 57.5403C34.3111 57.5397 34.4116 57.5213 34.5067 57.486L36.4775 60.8977C36.5587 61.0381 36.6772 61.1532 36.82 61.2302C36.9627 61.3072 37.1241 61.343 37.286 61.3335C37.4479 61.3241 37.604 61.2699 37.7369 61.1769C37.8698 61.0839 37.9742 60.9558 38.0385 60.8069L38.8788 58.8608L40.985 59.1074C41.1462 59.1263 41.3094 59.1 41.4565 59.0315C41.6036 58.963 41.7287 58.8549 41.8178 58.7193C41.907 58.5838 41.9567 58.4261 41.9615 58.2639C41.9662 58.1017 41.9257 57.9414 41.8445 57.8009L41.3648 56.97C45.4265 57.2259 49.4524 57.6434 53.3545 58.2148C53.3964 58.2209 53.4389 58.224 53.4813 58.224C56.5332 58.224 58.9237 54.207 58.9237 49.0789C58.9237 43.9508 56.533 39.9303 53.4813 39.9303L53.4814 39.9302ZM36.4254 49.9297C36.1963 50.7852 35.6482 51.4999 34.8819 51.9425C34.116 52.3849 33.224 52.5022 32.37 52.2733C31.516 52.0442 30.8023 51.4962 30.3602 50.7299C29.918 49.9638 29.8007 49.0717 30.0298 48.2178C30.4262 46.7402 31.77 45.7623 33.2342 45.7623C33.5155 45.7623 33.8017 45.7985 34.086 45.8742C34.9395 46.1033 35.6529 46.6513 36.0949 47.4172C36.537 48.1833 36.6544 49.0754 36.4252 49.9295L36.4254 49.9297ZM33.6024 42.4929C33.7314 42.9674 33.8457 43.4958 33.9435 44.0639C33.2451 43.9643 32.5335 44.0127 31.8549 44.2059C31.7634 43.6095 31.656 43.0479 31.5333 42.5317C32.222 42.6019 32.9168 42.5889 33.6024 42.4929ZM12.883 43.6508C13.6753 45.0859 14.1117 47.0137 14.1117 49.0788C14.1117 49.2213 14.109 49.3629 14.105 49.504C13.2943 49.497 12.4954 49.5417 11.5829 49.647C11.6919 49.0967 11.7479 48.5154 11.7479 47.9203C11.7479 45.9799 11.1774 44.183 10.2598 43.2317C9.85754 42.8135 9.36454 42.5462 8.83854 42.4473C9.32504 41.9649 9.85278 41.6974 10.3738 41.6825C10.5603 41.7098 10.747 41.7357 10.9337 41.7623C11.6373 41.9827 12.327 42.6435 12.883 43.6509V43.6508ZM7.95354 54.5033C7.16029 53.0684 6.72341 51.1419 6.72341 49.0788C6.72341 47.5647 6.95929 46.1252 7.39741 44.8985C7.57316 44.5074 7.89541 44.2268 8.24066 44.1658C8.51816 44.1169 8.77316 44.2105 8.99929 44.4458C9.59654 45.0649 9.99779 46.4613 9.99779 47.9203C9.99779 48.8049 9.83929 49.6718 9.55154 50.3612C9.49158 50.5047 9.47099 50.6617 9.49187 50.8158C9.51276 50.97 9.57438 51.1158 9.67037 51.2382C9.76637 51.3607 9.89327 51.4553 10.038 51.5124C10.1827 51.5694 10.3401 51.5869 10.4938 51.5629C11.8579 51.3503 12.9013 51.2547 13.9423 51.254C13.7473 52.4757 13.3878 53.5899 12.883 54.5039C12.3272 55.5104 11.6379 56.1709 10.9348 56.3917C10.7475 56.4182 10.5602 56.4445 10.3734 56.4718C9.51316 56.4472 8.63379 55.734 7.95354 54.5035V54.5033ZM14.0189 55.9884C15.1542 54.3242 15.8617 51.8667 15.8617 49.0788C15.8617 46.2909 15.1552 43.8348 14.0214 42.17C19.2919 42.8089 24.5926 43.1673 29.9012 43.2439C30.0193 43.787 30.1209 44.383 30.204 45.0222C29.322 45.6789 28.6457 46.6235 28.3397 47.7644C28.0492 48.8472 28.1242 49.9698 28.5435 50.9897L26.2069 55.0365C22.1098 55.1898 18.0267 55.5088 14.0189 55.9884ZM29.3334 58.5147L28.925 57.5689C28.8503 57.3962 28.7219 57.2522 28.5588 57.1581C28.3958 57.064 28.2069 57.025 28.0199 57.0467L26.9977 57.1664L29.6195 52.6255C30.245 53.2634 31.0313 53.7258 31.9167 53.9633C31.93 53.9669 31.9437 53.9693 31.957 53.9728L29.3333 58.5148L29.3334 58.5147ZM33.0382 55.5998L33.2277 55.2718L33.4404 55.6402C33.3067 55.6235 33.1725 55.6101 33.0382 55.5999V55.5998ZM38.4353 57.0467C38.2483 57.0249 38.0593 57.0639 37.8963 57.158C37.7332 57.252 37.6049 57.3961 37.5302 57.5689L37.1218 58.5147L34.4992 53.9745C35.3851 53.7429 36.192 53.2764 36.8348 52.6242L39.4573 57.1664L38.4352 57.0467H38.4353ZM55.945 54.5035C55.2685 55.7287 54.3943 56.4425 53.5379 56.4728C49.2399 55.8455 44.7945 55.4043 40.3175 55.1562L37.9109 50.988C37.9916 50.7906 38.06 50.5884 38.1155 50.3825C38.4658 49.0772 38.2864 47.7133 37.6107 46.5423C37.1699 45.7785 36.5517 45.1578 35.8132 44.7203C35.7433 44.194 35.6604 43.689 35.5655 43.2128C41.5148 43.0683 47.5548 42.5539 53.5379 41.6809C54.3943 41.7113 55.2685 42.4253 55.9449 43.6505C56.7372 45.0857 57.1735 47.0134 57.1735 49.0785C57.1735 51.1437 56.7372 53.0688 55.9449 54.5034L55.945 54.5035ZM34.4784 49.4082C34.2942 50.099 33.5819 50.5102 32.891 50.3259C32.2 50.1417 31.789 49.4294 31.9769 48.7385C32.1612 48.0475 32.8698 47.6365 33.5643 47.8208C34.2553 48.005 34.6663 48.7173 34.4784 49.4082Z" fill="black"/>
<path d="M33.9437 44.0639C33.8458 43.4958 33.7316 42.9674 33.6026 42.4929C32.9169 42.5889 32.2222 42.602 31.5334 42.5317C31.6562 43.0479 31.7636 43.6095 31.8551 44.2059C32.5336 44.0126 33.2452 43.9643 33.9437 44.0639Z" fill="#E53935"/>
<path d="M29.6197 52.6256L26.9978 57.1665L28.0201 57.0467C28.207 57.025 28.396 57.0641 28.559 57.1582C28.722 57.2522 28.8504 57.3963 28.9252 57.569L29.3336 58.5147L31.9573 53.9727C31.9438 53.9692 31.9303 53.9669 31.9169 53.9634C31.0316 53.7259 30.2453 53.2635 29.6198 52.6256H29.6197Z" fill="#E54848"/>
<path d="M33.0383 55.6C33.1725 55.61 33.3066 55.624 33.4406 55.6403L33.2278 55.272L33.0383 55.6Z" fill="#E53935"/>
<path d="M11.748 47.9202C11.748 48.5154 11.6919 49.0967 11.583 49.647C12.4955 49.5416 13.2944 49.497 14.1051 49.504C14.1092 49.363 14.1117 49.2212 14.1117 49.0787C14.1117 47.0136 13.6754 45.0859 12.8831 43.6507C12.3271 42.6435 11.6372 41.9826 10.9337 41.7621C10.7471 41.7355 10.5604 41.7096 10.3739 41.6824C9.853 41.6971 9.32512 41.9646 8.83862 42.4471C9.36462 42.546 9.85762 42.8134 10.2599 43.2315C11.1775 44.1829 11.748 45.9797 11.748 47.9201V47.9202Z" fill="#C9D6D4"/>
<path d="M28.3398 47.7644C28.6458 46.6235 29.3222 45.6788 30.2042 45.0222C30.121 44.383 30.0194 43.787 29.9013 43.2439C24.5928 43.1673 19.292 42.8089 14.0215 42.17C15.1553 43.8348 15.8618 46.2919 15.8618 49.0788C15.8618 51.8657 15.1543 54.3243 14.019 55.9884C18.0268 55.5088 22.1099 55.1898 26.207 55.0364L28.5437 50.9895C28.1243 49.9697 28.0493 48.8472 28.3398 47.7644Z" fill="#DCEAE9"/>
<path d="M36.4256 49.9297C36.6547 49.0756 36.5375 48.1835 36.0953 47.4173C35.6533 46.6515 34.94 46.1034 34.0865 45.8743C33.8086 45.8002 33.5222 45.7626 33.2346 45.7625C31.7705 45.7625 30.4266 46.7402 30.0302 48.218C29.8011 49.0718 29.9185 49.964 30.3606 50.7301C30.8027 51.4962 31.5165 52.0443 32.3705 52.2735C33.2245 52.5023 34.1165 52.3851 34.8823 51.9427C35.6486 51.5002 36.1967 50.7853 36.4258 49.9298L36.4256 49.9297ZM34.4787 49.4085C34.2945 50.0995 33.5822 50.5105 32.8913 50.3262C32.2003 50.142 31.7893 49.4297 31.9772 48.7388C32.1615 48.0478 32.8701 47.6368 33.5646 47.8211C34.2556 48.0053 34.6666 48.7176 34.4787 49.4085Z" fill="#EF5350"/>
<path d="M10.3591 51.5731C10.215 51.5731 10.0732 51.5375 9.94614 51.4695C9.81911 51.4014 9.71085 51.3031 9.63097 51.1832C9.55108 51.0632 9.50206 50.9254 9.48824 50.782C9.47442 50.6386 9.49624 50.4939 9.55176 50.361C9.83951 49.6715 9.99801 48.8047 9.99801 47.9201C9.99801 46.4611 9.59676 45.0647 8.99951 44.4456C8.77326 44.2105 8.51838 44.1168 8.24088 44.1656C7.89551 44.2267 7.57338 44.5073 7.39763 44.8983C6.95938 46.125 6.72363 47.5645 6.72363 49.0786C6.72363 51.1417 7.16051 53.0682 7.95376 54.5031C8.63401 55.7336 9.51351 56.4468 10.3736 56.4713C10.5604 56.4441 10.7478 56.4177 10.935 56.3912C11.6381 56.1705 12.3274 55.5099 12.8833 54.5035C13.388 53.5895 13.7475 52.4752 13.9425 51.2536C12.9015 51.2541 11.8581 51.3498 10.494 51.5625C10.449 51.5695 10.4039 51.5728 10.3591 51.5728V51.5731Z" fill="#BCCECC"/>
<path d="M32.0019 25.2073C31.9028 25.2073 31.8044 25.1904 31.711 25.1575L15.4897 19.4413V25.3962C21.2772 28.7509 26.6836 30.4258 32.0019 30.5119C37.3179 30.4258 42.7231 28.7509 48.5105 25.3962V19.4419L32.2927 25.1577C32.1993 25.1906 32.1009 25.2073 32.0019 25.2073Z" fill="#3E4754"/>
<path d="M55.1574 31.5144C54.8577 31.5146 54.5597 31.4688 54.2738 31.3785L53.0166 35.0774C53.0072 35.1067 53.0025 35.1373 53.0027 35.168H57.3097C57.3087 35.1344 57.3028 35.1012 57.2922 35.0693L56.0381 31.3793C55.7532 31.469 55.4563 31.5146 55.1577 31.5144H55.1574Z" fill="#FFD54F"/>
<path d="M53.538 41.6812C47.5549 42.5542 41.5149 43.0685 35.5657 43.213C35.6644 43.7127 35.7469 44.2155 35.8133 44.7205C36.5517 45.1579 37.17 45.7787 37.6108 46.5425C38.2865 47.7135 38.4659 49.0774 38.1157 50.3828C38.0601 50.5887 37.9917 50.7909 37.911 50.9883L40.3177 55.1564C44.7948 55.4045 49.24 55.8458 53.538 56.473C54.3944 56.4428 55.2687 55.7289 55.9452 54.5038C56.7374 53.0692 57.1738 51.1425 57.1738 49.0789C57.1738 47.0153 56.7374 45.086 55.9452 43.6509C55.2687 42.4255 54.3944 41.7115 53.5382 41.6813L53.538 41.6812Z" fill="#DCEAE9"/>
<path d="M32.0019 32.2621H31.9881C26.6314 32.1782 21.2207 30.5874 15.4897 27.4079V30.0564C21.2732 33.4087 26.6799 35.0817 32.0019 35.1679C37.3216 35.0818 42.7271 33.4087 48.5105 30.0564V27.4079C42.7796 30.5873 37.3701 32.1779 32.0156 32.2619H32.0019V32.2621ZM55.1576 27.3936C54.503 27.3936 53.9704 27.9262 53.9704 28.5808C53.9704 29.2354 54.503 29.7644 55.1576 29.7644C55.8122 29.7644 56.3412 29.2334 56.3412 28.5808C56.3412 27.9282 55.8102 27.3936 55.1576 27.3936Z" fill="#FFB74D"/>
<path d="M35.7573 53.4579C35.363 53.6857 34.94 53.8596 34.4995 53.9748L37.1221 58.5149L37.5305 57.5691C37.6052 57.3964 37.7336 57.2523 37.8966 57.1582C38.0597 57.0641 38.2487 57.0251 38.4356 57.0469L39.4578 57.1666L36.8353 52.6244C36.515 52.9493 36.1523 53.2297 35.7573 53.4579Z" fill="#E54848"/>
<path d="M5.13281 13.9361L32.0018 23.4045L58.8677 13.9361L32.0018 4.46777L5.13281 13.9361Z" fill="#464F5E"/>
</svg>
