<svg width="64" height="64" viewBox="0 0 64 64" fill="none" xmlns="http://www.w3.org/2000/svg">
<g clip-path="url(#clip0_360_2)">
<path d="M31.9813 63.9625C49.644 63.9625 63.9625 49.644 63.9625 31.9813C63.9625 14.3185 49.644 0 31.9813 0C14.3185 0 0 14.3185 0 31.9813C0 49.644 14.3185 63.9625 31.9813 63.9625Z" fill="#FFD200"/>
<path d="M31.9812 62.3128C48.7329 62.3128 62.3128 48.7329 62.3128 31.9812C62.3128 15.2296 48.7329 1.64966 31.9812 1.64966C15.2296 1.64966 1.64966 15.2296 1.64966 31.9812C1.64966 48.7329 15.2296 62.3128 31.9812 62.3128Z" fill="#FFAA00"/>
<path d="M31.9811 61.0381C48.0288 61.0381 61.038 48.0289 61.038 31.9813C61.038 15.9336 48.0288 2.92444 31.9811 2.92444C15.9335 2.92444 2.92432 15.9336 2.92432 31.9813C2.92432 48.0289 15.9335 61.0381 31.9811 61.0381Z" fill="#FFF9DD"/>
<path fill-rule="evenodd" clip-rule="evenodd" d="M19.0087 9.52311C18.7088 9.67308 18.3338 9.59809 18.1464 9.29815C17.9589 8.96072 18.0714 8.58579 18.3713 8.39832C19.4211 7.83593 20.4709 7.31104 21.5582 6.82363C22.683 6.37372 23.8078 5.99879 24.9326 5.69885C30.8939 4.08667 37.0052 4.61156 42.4041 6.82363C47.8031 9.07319 52.4897 13.0474 55.5641 18.3714C55.5641 18.4089 55.6016 18.4089 55.6016 18.4089C55.939 19.0088 56.2389 19.6086 56.5389 20.171C56.8388 20.8084 57.1013 21.4083 57.3262 22.0457C57.4762 22.3456 57.2887 22.7205 56.9888 22.8705C56.6514 22.983 56.2764 22.833 56.164 22.4956C55.9015 21.8957 55.6766 21.2958 55.3766 20.7334C55.1142 20.171 54.8142 19.6086 54.4768 19.0462V19.0088C51.5524 13.9472 47.0907 10.1605 41.9167 8.0234C36.7802 5.88632 30.9689 5.39891 25.27 6.93611C24.1827 7.23605 23.0954 7.57349 22.0456 8.0234C20.9958 8.43582 19.9835 8.96072 19.0087 9.52311ZM10.1604 17.959C9.97298 18.2589 9.56056 18.3339 9.29811 18.1464C8.99817 17.959 8.88569 17.5465 9.07316 17.2841C9.52307 16.6092 10.0105 15.9344 10.4979 15.297C10.9853 14.6221 11.5102 14.0222 12.0726 13.4223C12.2975 13.1599 12.7099 13.1599 12.9724 13.3849C13.2348 13.6473 13.2348 14.0222 13.0099 14.2847C12.485 14.8471 11.9601 15.4469 11.5102 16.0468C11.0228 16.6842 10.5729 17.2841 10.1604 17.959ZM53.8019 46.116C53.9894 45.816 54.3643 45.741 54.6643 45.9285C54.9642 46.116 55.0392 46.4909 54.8517 46.7908C53.6894 48.5905 52.3397 50.2402 50.765 51.7399C49.2278 53.1646 47.5032 54.4768 45.591 55.5641C39.1048 59.3134 31.6812 60.1007 24.9326 58.3011C18.2214 56.5014 12.1851 52.1148 8.39829 45.5911V45.5536C6.41118 42.1417 5.2864 38.4675 4.91147 34.7932C4.49905 30.9689 4.94896 27.1072 6.14873 23.4704C6.26121 23.1329 6.59864 22.9455 6.93608 23.058C7.27351 23.1704 7.46097 23.5454 7.3485 23.8828C6.22371 27.3321 5.8113 31.0064 6.18622 34.6807C6.52366 38.1675 7.61094 41.6918 9.48558 44.9537H9.52307C13.0849 51.1775 18.8587 55.3392 25.27 57.0638C31.6812 58.7885 38.7674 58.0386 44.9537 54.4768H44.9911C46.7908 53.427 48.4405 52.1898 49.8652 50.8025C51.4024 49.3778 52.6771 47.8031 53.8019 46.116ZM57.9261 33.181C57.9261 32.8061 58.2261 32.5436 58.601 32.5436C58.9384 32.5811 59.2009 32.881 59.2009 33.2185C59.1634 33.8933 59.1259 34.5307 59.0509 35.1681C58.9759 35.8055 58.8634 36.4428 58.751 37.1177C58.676 37.4552 58.3385 37.6801 58.0011 37.6051C57.6637 37.5301 57.4387 37.1927 57.4762 36.8553C57.5887 36.2554 57.7012 35.6555 57.7761 35.0181C57.8511 34.3808 57.8886 33.7809 57.9261 33.181Z" fill="#FFE0C7"/>
<g clip-path="url(#clip1_360_2)">
<path d="M39.2083 22.7525C39.5438 23.0246 39.8651 23.3138 40.1707 23.6192C41.0774 24.526 41.8238 25.5501 42.3975 26.6568C43.1495 25.695 43.5978 24.4843 43.5978 23.1688C43.5978 21.1939 42.5877 19.4551 41.0561 18.4403C40.8742 18.3198 40.6347 18.4573 40.6461 18.6752C40.6513 18.7735 40.6539 18.8725 40.6539 18.9722C40.6539 20.4249 40.1069 21.7495 39.2083 22.7525Z" fill="#465A61"/>
<path d="M22.8295 23.6192C23.1819 23.2668 23.5552 22.9358 23.9473 22.628C23.1132 21.6411 22.6099 20.3656 22.6099 18.9722C22.6099 18.8726 22.6125 18.7735 22.6177 18.6752C22.6291 18.4573 22.3895 18.3198 22.2077 18.4403C20.6761 19.4551 19.666 21.1939 19.666 23.1688C19.666 24.3917 20.0535 25.524 20.7122 26.4501C21.2702 25.4224 21.9794 24.4693 22.8295 23.6192Z" fill="#596C76"/>
<path d="M22.61 18.9722C22.61 18.8726 22.6126 18.7735 22.6178 18.6752C22.6291 18.4573 22.3896 18.3198 22.2077 18.4403C21.7642 18.7345 21.364 19.0894 21.0189 19.4946C21.1381 20.2273 21.401 20.9292 21.7924 21.56C22.0395 21.9582 21.9626 22.4798 21.6151 22.7943C21.461 22.9336 21.3105 23.0768 21.1636 23.2237C20.6975 23.6896 20.2693 24.1919 19.8831 24.7259C20.0594 25.3436 20.3398 25.9266 20.7123 26.45C21.2703 25.4224 21.9796 24.4692 22.8296 23.6192C23.182 23.2667 23.5553 22.9357 23.9473 22.628C23.1132 21.6411 22.61 20.3656 22.61 18.9722Z" fill="#465A61"/>
<path d="M31.5 44.6045C38.3013 44.6045 43.8148 39.091 43.8148 32.2897C43.8148 25.4885 38.3013 19.975 31.5 19.975C24.6988 19.975 19.1853 25.4885 19.1853 32.2897C19.1853 39.091 24.6988 44.6045 31.5 44.6045Z" fill="#FD8087"/>
<path d="M35.0651 20.4999C38.7359 22.6318 41.2044 26.6054 41.2044 31.156C41.2044 37.9573 35.6909 43.4708 28.8896 43.4708C27.6498 43.4708 26.4531 43.2868 25.3245 42.946C27.1399 44.0003 29.2493 44.6046 31.5 44.6046C38.3012 44.6046 43.8147 39.0911 43.8147 32.2898C43.8147 26.7284 40.1278 22.0288 35.0651 20.4999Z" fill="#FE646F"/>
<path d="M34.7134 40.6792H28.2866C26.1295 40.6792 24.3809 38.9305 24.3809 36.7734C24.3809 36.0453 24.9711 35.4551 25.6992 35.4551H37.3008C38.0289 35.4551 38.6191 36.0453 38.6191 36.7734C38.6191 38.9305 36.8705 40.6792 34.7134 40.6792Z" fill="#596C76"/>
<path d="M37.5098 35.4718C37.4708 37.5952 35.7386 39.3047 33.6059 39.3047H25.3132C26.0296 40.1454 27.0954 40.6793 28.2866 40.6793H34.7133C36.8704 40.6793 38.6191 38.9306 38.6191 36.7735C38.6191 36.1166 38.1385 35.572 37.5098 35.4718Z" fill="#465A61"/>
<path d="M27.7498 38.0671H35.2505C35.7245 38.0671 36.1891 37.9356 36.5928 37.6871C36.9965 37.4387 37.3232 37.0831 37.5368 36.6599L38.0328 35.6769C37.8163 35.5319 37.5615 35.4547 37.3009 35.4551H25.6994C25.4286 35.4551 25.1769 35.5368 24.9675 35.6769L25.4635 36.6599C25.6771 37.0831 26.0038 37.4387 26.4075 37.6871C26.8112 37.9356 27.2759 38.0671 27.7498 38.0671Z" fill="white"/>
<path d="M37.3009 35.4551H36.3725L36.2141 35.7691C36.0457 36.1028 35.788 36.3832 35.4697 36.5792C35.1513 36.7751 34.7848 36.8789 34.411 36.8789H25.5881C25.8193 37.243 26.1386 37.5427 26.5164 37.7505C26.8943 37.9582 27.3186 38.0671 27.7498 38.0671H35.2504C35.7244 38.0671 36.1891 37.9356 36.5927 37.6871C36.9964 37.4387 37.3232 37.0831 37.5367 36.6599L38.0327 35.6769C37.8162 35.5319 37.5615 35.4547 37.3009 35.4551Z" fill="#F5F8F9"/>
<path d="M34.367 37.5166L33.8173 37.916C33.6821 38.0142 33.5194 38.0671 33.3523 38.0671H29.6476C29.4806 38.0671 29.3178 38.0142 29.1827 37.916L28.6329 37.5166C28.5457 37.4533 28.4413 37.4182 28.3336 37.416C28.2259 37.4138 28.1201 37.4447 28.0305 37.5044L25.3193 39.3116C26.0357 40.1483 27.0988 40.6791 28.2866 40.6791H34.7134C35.9012 40.6791 36.9643 40.1483 37.6806 39.3116L34.9695 37.5044C34.8799 37.4447 34.7741 37.4138 34.6664 37.416C34.5587 37.4182 34.4542 37.4533 34.367 37.5166Z" fill="white"/>
<path d="M36.1955 38.3218C35.5061 38.933 34.5997 39.3047 33.6059 39.3047H25.3298L25.3193 39.3117C26.0357 40.1483 27.0988 40.6792 28.2866 40.6792H34.7134C35.9012 40.6792 36.9643 40.1483 37.6806 39.3117L36.1955 38.3218Z" fill="#F5F8F9"/>
<path d="M23.5555 27.7313C23.2721 27.5677 22.9098 27.6966 22.7927 28.0021C22.116 29.7667 22.8038 31.8167 24.4913 32.791C26.1789 33.7653 28.2981 33.336 29.488 31.8676C29.694 31.6134 29.6244 31.2352 29.3411 31.0716L23.5555 27.7313Z" fill="white"/>
<path d="M24.9399 29.0589C24.5319 29.7656 24.774 30.6692 25.4807 31.0772C26.1873 31.4852 27.0909 31.243 27.4989 30.5364C27.5767 30.4018 27.6327 30.2559 27.6648 30.1038L25.2315 28.699C25.116 28.8029 25.0175 28.9243 24.9399 29.0589Z" fill="#596C76"/>
<path d="M33.6589 31.0715C33.3755 31.2351 33.306 31.6133 33.512 31.8675C34.7019 33.3359 36.8211 33.7652 38.5087 32.7909C40.1962 31.8166 40.884 29.7666 40.2073 28.002C40.0902 27.6965 39.7279 27.5676 39.4445 27.7312L33.6589 31.0715Z" fill="white"/>
<path d="M29.3411 31.0715L28.952 30.8469C27.8477 32.4914 25.6491 33.068 23.8638 32.1168C23.6822 32.0198 23.5086 31.9086 23.3445 31.7844C23.6566 32.1923 24.0464 32.5344 24.4914 32.7909C26.179 33.7652 28.2981 33.3359 29.488 31.8675C29.6939 31.6133 29.6245 31.2351 29.3411 31.0715ZM40.2073 28.002C40.0902 27.6965 39.7279 27.5676 39.4446 27.7312L39.187 27.8799C39.7072 29.5828 39.0077 31.4849 37.4013 32.4123C36.5666 32.8942 35.6265 33.0322 34.7454 32.8715C35.8923 33.4662 37.3093 33.4834 38.5087 32.7909C40.1962 31.8166 40.884 29.7666 40.2073 28.002Z" fill="#F5F8F9"/>
<path d="M35.5012 30.5364C35.9092 31.243 36.8128 31.4852 37.5194 31.0772C38.2261 30.6692 38.4682 29.7656 38.0602 29.0589C37.9825 28.9243 37.8841 28.8029 37.7685 28.699L35.3352 30.1038C35.3674 30.2559 35.4234 30.4018 35.5012 30.5364Z" fill="#596C76"/>
<path d="M26.8518 30.0152C26.4764 30.6654 25.6815 30.9219 25.0063 30.6409C25.1303 30.8196 25.2924 30.9686 25.4809 31.0772C26.1875 31.4852 27.0911 31.243 27.4992 30.5364C27.5769 30.4018 27.6329 30.2558 27.6651 30.1038L26.9839 29.7106C26.9515 29.8168 26.9071 29.919 26.8518 30.0152ZM38.0602 29.0589C37.9825 28.9243 37.8841 28.8029 37.7685 28.699L37.3966 28.9137C37.62 29.568 37.3581 30.3102 36.7365 30.669C36.4345 30.8439 36.0802 30.9057 35.7368 30.8435C36.1981 31.3044 36.9277 31.4188 37.5194 31.0772C38.226 30.6692 38.4681 29.7656 38.0602 29.0589Z" fill="#465A61"/>
<path d="M25.2773 25.8047L29.1012 28.6223C29.1304 28.6438 29.1636 28.659 29.1988 28.6672C29.2341 28.6754 29.2707 28.6763 29.3063 28.6698C29.3419 28.6634 29.3758 28.6497 29.406 28.6297C29.4361 28.6097 29.4618 28.5837 29.4816 28.5534L30.0845 27.6273M37.7227 25.8047L33.8988 28.6223C33.8696 28.6438 33.8364 28.659 33.8012 28.6672C33.7659 28.6754 33.7293 28.6763 33.6937 28.6698C33.6581 28.6634 33.6242 28.6497 33.594 28.6297C33.5639 28.6097 33.5382 28.5837 33.5184 28.5534L32.9155 27.6273" stroke="black" stroke-width="0.5" stroke-miterlimit="10" stroke-linecap="round" stroke-linejoin="round"/>
<path d="M42.4303 26.6129C43.1621 25.6582 43.5977 24.4646 43.5977 23.1688C43.5977 21.1939 42.5877 19.4551 41.056 18.4403C40.8742 18.3198 40.6346 18.4573 40.646 18.6752C40.6512 18.7735 40.6538 18.8725 40.6538 18.9722C40.6538 20.4063 40.1204 21.7154 39.2422 22.7137" stroke="black" stroke-width="0.5" stroke-miterlimit="10" stroke-linejoin="round"/>
<path d="M23.9148 22.588C23.1006 21.6066 22.6099 20.3471 22.6099 18.9722C22.6099 18.8726 22.6125 18.7735 22.6177 18.6752C22.6291 18.4573 22.3895 18.3198 22.2077 18.4403C21.3441 19.0125 20.6465 19.8148 20.2021 20.7598M19.7016 22.5368C19.6781 22.7467 19.6662 22.9576 19.666 23.1688C19.666 24.3717 20.0415 25.4864 20.6806 26.4038M23.5555 27.7313C23.2722 27.5677 22.9099 27.6966 22.7928 28.002C22.1161 29.7667 22.8039 31.8166 24.4914 32.791C26.179 33.7653 28.2982 33.3359 29.4881 31.8675C29.694 31.6133 29.6245 31.2351 29.3412 31.0716L23.5555 27.7313Z" stroke="black" stroke-width="0.5" stroke-miterlimit="10" stroke-linecap="round" stroke-linejoin="round"/>
<path d="M24.9399 29.0589C24.5319 29.7656 24.7741 30.6692 25.4807 31.0772C26.1874 31.4852 27.091 31.243 27.499 30.5364C27.5767 30.4018 27.6327 30.2559 27.6649 30.1038L25.2316 28.699C25.116 28.8029 25.0176 28.9243 24.9399 29.0589ZM35.501 30.5364C35.909 31.243 36.8126 31.4852 37.5193 31.0772C38.2259 30.6692 38.4681 29.7656 38.0601 29.0589C37.9824 28.9243 37.884 28.8029 37.7684 28.699L35.3351 30.1038C35.3672 30.2559 35.4233 30.4018 35.501 30.5364ZM34.7134 40.6792H28.2866C26.1295 40.6792 24.3809 38.9305 24.3809 36.7735C24.3809 36.0453 24.9711 35.4551 25.6992 35.4551H37.3008C38.0289 35.4551 38.6191 36.0453 38.6191 36.7735C38.6191 38.9305 36.8705 40.6792 34.7134 40.6792Z" stroke="black" stroke-width="0.5" stroke-miterlimit="10" stroke-linecap="round" stroke-linejoin="round"/>
<path d="M37.6806 39.3117L34.9695 37.5045C34.8798 37.4447 34.774 37.4138 34.6663 37.416C34.5586 37.4182 34.4542 37.4533 34.367 37.5166L33.8173 37.916C33.6821 38.0142 33.5194 38.0671 33.3523 38.0671H29.6476C29.4806 38.0671 29.3178 38.0142 29.1827 37.916L28.6329 37.5166C28.5457 37.4533 28.4413 37.4182 28.3336 37.416C28.2259 37.4139 28.1201 37.4447 28.0305 37.5045L25.3193 39.3117" stroke="black" stroke-width="0.5" stroke-miterlimit="10" stroke-linejoin="round"/>
<path d="M35.7419 38.0192C36.1249 37.9444 36.4857 37.783 36.7967 37.5474C37.1078 37.3118 37.3609 37.0082 37.5368 36.6599L38.0328 35.6769M24.9675 35.6769L25.4635 36.6599C25.6394 37.0083 25.8925 37.3118 26.2036 37.5474C26.5146 37.783 26.8754 37.9444 27.2584 38.0192" stroke="black" stroke-width="0.5" stroke-miterlimit="10" stroke-linejoin="round"/>
<path d="M40.1259 30.9919C40.537 30.0647 40.5856 28.9888 40.2072 28.002C40.0901 27.6965 39.7278 27.5676 39.4445 27.7312L33.6589 31.0715C33.3755 31.2351 33.306 31.6133 33.512 31.8675C34.7019 33.3358 36.8211 33.7652 38.5087 32.7909C38.6804 32.6915 38.8443 32.5792 38.999 32.455" stroke="black" stroke-width="0.5" stroke-miterlimit="10" stroke-linecap="round" stroke-linejoin="round"/>
<path d="M23.4701 41.6261C25.6261 43.4822 28.4319 44.6045 31.5 44.6045C38.3013 44.6045 43.8148 39.091 43.8148 32.2897C43.8148 25.4885 38.3013 19.975 31.5 19.975C24.6988 19.975 19.1853 25.4885 19.1853 32.2897C19.1853 35.3585 20.3081 38.1648 22.1648 40.3211" stroke="black" stroke-width="0.5" stroke-miterlimit="10" stroke-linecap="round" stroke-linejoin="round"/>
</g>
</g>
<defs>
<clipPath id="clip0_360_2">
<rect width="64" height="64" fill="white"/>
</clipPath>
<clipPath id="clip1_360_2">
<rect width="27" height="27" fill="white" transform="translate(18 18)"/>
</clipPath>
</defs>
</svg>
