<svg width="64" height="64" viewBox="0 0 64 64" fill="none" xmlns="http://www.w3.org/2000/svg">
<path d="M31.9813 63.9625C49.644 63.9625 63.9625 49.644 63.9625 31.9813C63.9625 14.3185 49.644 0 31.9813 0C14.3185 0 0 14.3185 0 31.9813C0 49.644 14.3185 63.9625 31.9813 63.9625Z" fill="#FFD200"/>
<path d="M31.9812 62.3128C48.7329 62.3128 62.3128 48.7329 62.3128 31.9812C62.3128 15.2296 48.7329 1.64966 31.9812 1.64966C15.2296 1.64966 1.64966 15.2296 1.64966 31.9812C1.64966 48.7329 15.2296 62.3128 31.9812 62.3128Z" fill="#FFAA00"/>
<path d="M31.9811 61.0381C48.0288 61.0381 61.038 48.0289 61.038 31.9813C61.038 15.9336 48.0288 2.92444 31.9811 2.92444C15.9335 2.92444 2.92432 15.9336 2.92432 31.9813C2.92432 48.0289 15.9335 61.0381 31.9811 61.0381Z" fill="#FFF9DD"/>
<path fill-rule="evenodd" clip-rule="evenodd" d="M19.0087 9.52317C18.7088 9.67314 18.3338 9.59815 18.1464 9.29821C17.9589 8.96078 18.0714 8.58585 18.3713 8.39839C19.4211 7.836 20.4709 7.3111 21.5582 6.82369C22.683 6.37378 23.8078 5.99885 24.9326 5.69891C30.8939 4.08673 37.0052 4.61163 42.4041 6.82369C47.8031 9.07325 52.4897 13.0475 55.5641 18.3714C55.5641 18.4089 55.6016 18.4089 55.6016 18.4089C55.939 19.0088 56.2389 19.6087 56.5389 20.1711C56.8388 20.8085 57.1013 21.4083 57.3262 22.0457C57.4762 22.3457 57.2887 22.7206 56.9888 22.8706C56.6514 22.983 56.2764 22.8331 56.164 22.4956C55.9015 21.8958 55.6766 21.2959 55.3766 20.7335C55.1142 20.1711 54.8142 19.6087 54.4768 19.0463V19.0088C51.5524 13.9473 47.0907 10.1605 41.9167 8.02346C36.7802 5.88638 30.9689 5.39897 25.27 6.93617C24.1827 7.23611 23.0954 7.57355 22.0456 8.02346C20.9958 8.43588 19.9835 8.96078 19.0087 9.52317ZM10.1604 17.959C9.97298 18.259 9.56056 18.3339 9.29811 18.1465C8.99817 17.959 8.88569 17.5466 9.07316 17.2842C9.52307 16.6093 10.0105 15.9344 10.4979 15.297C10.9853 14.6222 11.5102 14.0223 12.0726 13.4224C12.2975 13.16 12.7099 13.16 12.9724 13.3849C13.2348 13.6474 13.2348 14.0223 13.0099 14.2847C12.485 14.8471 11.9601 15.447 11.5102 16.0469C11.0228 16.6843 10.5729 17.2842 10.1604 17.959ZM53.8019 46.116C53.9894 45.8161 54.3643 45.7411 54.6643 45.9286C54.9642 46.116 55.0392 46.4909 54.8517 46.7909C53.6894 48.5905 52.3397 50.2402 50.765 51.7399C49.2278 53.1646 47.5032 54.4769 45.591 55.5642C39.1048 59.3134 31.6812 60.1008 24.9326 58.3011C18.2214 56.5015 12.1851 52.1148 8.39829 45.5911V45.5536C6.41118 42.1418 5.2864 38.4675 4.91147 34.7932C4.49905 30.969 4.94896 27.1072 6.14873 23.4704C6.26121 23.133 6.59864 22.9455 6.93608 23.058C7.27351 23.1705 7.46097 23.5454 7.3485 23.8829C6.22371 27.3322 5.8113 31.0065 6.18622 34.6808C6.52366 38.1676 7.61094 41.6919 9.48558 44.9537H9.52307C13.0849 51.1775 18.8587 55.3392 25.27 57.0639C31.6812 58.7885 38.7674 58.0387 44.9537 54.4769H44.9911C46.7908 53.4271 48.4405 52.1898 49.8652 50.8026C51.4024 49.3779 52.6771 47.8032 53.8019 46.116ZM57.9261 33.181C57.9261 32.8061 58.2261 32.5437 58.601 32.5437C58.9384 32.5812 59.2009 32.8811 59.2009 33.2185C59.1634 33.8934 59.1259 34.5308 59.0509 35.1682C58.9759 35.8055 58.8634 36.4429 58.751 37.1178C58.676 37.4552 58.3385 37.6802 58.0011 37.6052C57.6637 37.5302 57.4387 37.1928 57.4762 36.8553C57.5887 36.2554 57.7012 35.6556 57.7761 35.0182C57.8511 34.3808 57.8886 33.7809 57.9261 33.181Z" fill="#FFE0C7"/>
<path d="M31.4999 44.6043C38.7373 44.6043 44.6043 38.7373 44.6043 31.4999C44.6043 24.2626 38.7373 18.3955 31.4999 18.3955C24.2626 18.3955 18.3955 24.2626 18.3955 31.4999C18.3955 38.7373 24.2626 44.6043 31.4999 44.6043Z" fill="#FFE17D"/>
<path d="M33.4022 42.7021C26.1648 42.7021 20.2978 36.835 20.2978 29.5977C20.2978 26.4635 21.3995 23.5875 23.2348 21.3325C20.2825 23.7354 18.3955 27.3967 18.3955 31.4999C18.3955 38.7372 24.2625 44.6044 31.4999 44.6044C35.6032 44.6044 39.2646 42.7173 41.6673 39.765C39.4124 41.6003 36.5363 42.7021 33.4022 42.7021Z" fill="#FFD164"/>
<path d="M35.9386 31.4999C35.355 31.4999 34.8818 31.0268 34.8818 30.4431V29.5977C34.8818 29.014 35.355 28.5409 35.9386 28.5409C36.5223 28.5409 36.9954 29.014 36.9954 29.5977V30.4431C36.9955 31.0268 36.5223 31.4999 35.9386 31.4999Z" fill="#7D5046"/>
<path d="M36.9954 29.5977C36.9954 28.9449 36.4037 28.4304 35.7273 28.5614V29.3863C35.7273 30.0867 36.2951 30.6545 36.9954 30.6545V29.5977Z" fill="#9C6846"/>
<path d="M27.0612 31.4999C26.4775 31.4999 26.0044 31.0268 26.0044 30.4431V29.5977C26.0044 29.014 26.4775 28.5409 27.0612 28.5409C27.6449 28.5409 28.118 29.014 28.118 29.5977V30.4431C28.118 31.0268 27.6449 31.4999 27.0612 31.4999Z" fill="#7D5046"/>
<path d="M28.1183 29.5977C28.1183 28.9449 27.5265 28.4304 26.8501 28.5614V29.3863C26.8501 30.0867 27.4179 30.6545 28.1183 30.6545V29.5977Z" fill="#9C6846"/>
<path d="M27.0608 28.936C27.1657 28.936 27.2663 28.8944 27.3405 28.8202C27.4146 28.746 27.4563 28.6454 27.4563 28.5405C27.4563 28.4356 27.4146 28.335 27.3405 28.2609C27.2663 28.1867 27.1657 28.145 27.0608 28.145C26.2599 28.145 25.6084 28.7966 25.6084 29.5974V30.443C25.6084 31.2438 26.2599 31.8954 27.0608 31.8954C27.8617 31.8954 28.5132 31.2438 28.5132 30.443V29.8088C28.5132 29.7039 28.4715 29.6033 28.3974 29.5291C28.3232 29.4549 28.2226 29.4133 28.1177 29.4133C28.0128 29.4133 27.9122 29.4549 27.838 29.5291C27.7639 29.6033 27.7222 29.7039 27.7222 29.8088V30.443C27.7222 30.8077 27.4255 31.1044 27.0608 31.1044C26.6961 31.1044 26.3994 30.8077 26.3994 30.443V29.5974C26.3994 29.2328 26.6961 28.936 27.0608 28.936ZM37.3914 30.443V29.8088C37.3914 29.7039 37.3498 29.6033 37.2756 29.5292C37.2014 29.455 37.1008 29.4133 36.9959 29.4133C36.891 29.4133 36.7904 29.455 36.7163 29.5292C36.6421 29.6033 36.6004 29.7039 36.6004 29.8088V30.443C36.6004 30.8077 36.3037 31.1044 35.939 31.1044C35.5743 31.1044 35.2776 30.8077 35.2776 30.443V29.5975C35.2776 29.2328 35.5743 28.9361 35.939 28.9361C36.0439 28.9361 36.1445 28.8944 36.2187 28.8202C36.2929 28.7461 36.3345 28.6455 36.3345 28.5406C36.3345 28.4357 36.2929 28.3351 36.2187 28.2609C36.1445 28.1867 36.0439 28.1451 35.939 28.1451C35.1382 28.1451 34.4866 28.7966 34.4866 29.5975V30.443C34.4866 31.2439 35.1382 31.8954 35.939 31.8954C36.7399 31.8954 37.3914 31.2439 37.3914 30.443ZM27.5633 37.6865C28.4639 36.7076 29.9356 36.1231 31.4999 36.1231C33.0643 36.1231 34.5359 36.7076 35.4366 37.6865C35.4736 37.7268 35.5186 37.759 35.5687 37.781C35.6188 37.803 35.673 37.8143 35.7277 37.8142C35.8045 37.8142 35.8797 37.7918 35.944 37.7498C36.0083 37.7078 36.0589 37.6479 36.0898 37.5776C36.1207 37.5072 36.1304 37.4294 36.1177 37.3537C36.1051 37.2779 36.0707 37.2074 36.0187 37.1509C34.9708 36.0121 33.2815 35.3321 31.4999 35.3321C29.7183 35.3321 28.029 36.0121 26.9812 37.1509C26.9113 37.2283 26.8747 37.3301 26.8795 37.4343C26.8843 37.5385 26.9301 37.6365 27.0068 37.7071C27.0836 37.7777 27.1851 37.8152 27.2893 37.8113C27.3935 37.8075 27.492 37.7626 27.5633 37.6865Z" fill="black"/>
<path d="M18.7967 31.1157C18.8934 27.867 20.213 24.8117 22.5123 22.5123C24.8117 20.213 27.8671 18.8934 31.1157 18.7967C34.3502 18.7006 37.4649 19.8214 39.8868 21.953C39.9257 21.9876 39.9711 22.0141 40.0204 22.0311C40.0696 22.0481 40.1217 22.0552 40.1737 22.052C40.2257 22.0488 40.2765 22.0354 40.3233 22.0125C40.3701 21.9896 40.4119 21.9576 40.4463 21.9185C40.4807 21.8794 40.507 21.8339 40.5238 21.7846C40.5406 21.7353 40.5475 21.6832 40.544 21.6312C40.5406 21.5792 40.5269 21.5285 40.5038 21.4818C40.4807 21.4351 40.4486 21.3934 40.4094 21.3592C37.8365 19.0946 34.5272 17.9036 31.0922 18.0061C27.6413 18.1088 24.3956 19.5105 21.9531 21.953C19.5105 24.3955 18.1088 27.6412 18.0061 31.0922C17.9038 34.5276 19.0946 37.8365 21.3592 40.4094C21.3963 40.4517 21.442 40.4855 21.4932 40.5086C21.5444 40.5318 21.6 40.5437 21.6562 40.5436C21.7323 40.5436 21.8067 40.5216 21.8706 40.4803C21.9345 40.4391 21.9852 40.3803 22.0165 40.3109C22.0478 40.2416 22.0585 40.1647 22.0472 40.0895C22.0359 40.0143 22.0032 39.9439 21.953 39.8868C19.8213 37.465 18.7005 34.35 18.7967 31.1157ZM41.6408 22.5906C41.6065 22.5513 41.5649 22.5192 41.5182 22.4961C41.4715 22.473 41.4207 22.4593 41.3688 22.4559C41.3168 22.4525 41.2647 22.4593 41.2154 22.4761C41.166 22.4929 41.1205 22.5192 41.0814 22.5537C41.0423 22.5881 41.0104 22.6299 40.9875 22.6766C40.9646 22.7234 40.9512 22.7743 40.948 22.8262C40.9448 22.8782 40.9519 22.9303 40.9689 22.9796C40.9859 23.0288 41.0124 23.0742 41.047 23.1131C43.1786 25.535 44.2995 28.6499 44.2032 31.8842C44.1066 35.1329 42.787 38.1882 40.4876 40.4876C38.1883 42.7869 35.1329 44.1064 31.8843 44.2032C28.65 44.2993 25.5351 43.1785 23.1132 41.0469C23.0344 40.9781 22.9315 40.9434 22.8271 40.9503C22.7228 40.9572 22.6254 41.0051 22.5563 41.0836C22.4872 41.1622 22.452 41.2648 22.4584 41.3692C22.4648 41.4736 22.5124 41.5712 22.5906 41.6407C25.0614 43.8154 28.2109 44.9999 31.4996 44.9999C31.6355 44.9999 31.7716 44.9979 31.9078 44.9938C35.3588 44.8911 38.6044 43.4894 41.0469 41.0469C43.4895 38.6044 44.8912 35.3587 44.9939 31.9077C45.0961 28.4723 43.9053 25.1634 41.6408 22.5906Z" fill="black"/>
</svg>
