<svg width="64" height="64" viewBox="0 0 64 64" fill="none" xmlns="http://www.w3.org/2000/svg">
<path d="M31.9813 63.9625C49.644 63.9625 63.9625 49.644 63.9625 31.9813C63.9625 14.3185 49.644 0 31.9813 0C14.3185 0 0 14.3185 0 31.9813C0 49.644 14.3185 63.9625 31.9813 63.9625Z" fill="#FFD200"/>
<path d="M31.9812 62.3128C48.7329 62.3128 62.3128 48.7329 62.3128 31.9812C62.3128 15.2296 48.7329 1.64966 31.9812 1.64966C15.2296 1.64966 1.64966 15.2296 1.64966 31.9812C1.64966 48.7329 15.2296 62.3128 31.9812 62.3128Z" fill="#FFAA00"/>
<path d="M31.9811 61.0381C48.0288 61.0381 61.038 48.0289 61.038 31.9813C61.038 15.9336 48.0288 2.92444 31.9811 2.92444C15.9335 2.92444 2.92432 15.9336 2.92432 31.9813C2.92432 48.0289 15.9335 61.0381 31.9811 61.0381Z" fill="#FFF9DD"/>
<path fill-rule="evenodd" clip-rule="evenodd" d="M19.0087 9.52311C18.7088 9.67308 18.3338 9.59809 18.1464 9.29815C17.9589 8.96072 18.0714 8.58579 18.3713 8.39832C19.4211 7.83593 20.4709 7.31104 21.5582 6.82363C22.683 6.37372 23.8078 5.99879 24.9326 5.69885C30.8939 4.08667 37.0052 4.61156 42.4041 6.82363C47.8031 9.07319 52.4897 13.0474 55.5641 18.3714C55.5641 18.4089 55.6016 18.4089 55.6016 18.4089C55.939 19.0088 56.2389 19.6086 56.5389 20.171C56.8388 20.8084 57.1013 21.4083 57.3262 22.0457C57.4762 22.3456 57.2887 22.7205 56.9888 22.8705C56.6514 22.983 56.2764 22.833 56.164 22.4956C55.9015 21.8957 55.6766 21.2958 55.3766 20.7334C55.1142 20.171 54.8142 19.6086 54.4768 19.0462V19.0088C51.5524 13.9472 47.0907 10.1605 41.9167 8.0234C36.7802 5.88632 30.9689 5.39891 25.27 6.93611C24.1827 7.23605 23.0954 7.57349 22.0456 8.0234C20.9958 8.43582 19.9835 8.96072 19.0087 9.52311ZM10.1604 17.959C9.97298 18.2589 9.56056 18.3339 9.29811 18.1464C8.99817 17.959 8.88569 17.5465 9.07316 17.2841C9.52307 16.6092 10.0105 15.9344 10.4979 15.297C10.9853 14.6221 11.5102 14.0222 12.0726 13.4223C12.2975 13.1599 12.7099 13.1599 12.9724 13.3849C13.2348 13.6473 13.2348 14.0222 13.0099 14.2847C12.485 14.8471 11.9601 15.4469 11.5102 16.0468C11.0228 16.6842 10.5729 17.2841 10.1604 17.959ZM53.8019 46.116C53.9894 45.816 54.3643 45.741 54.6643 45.9285C54.9642 46.116 55.0392 46.4909 54.8517 46.7908C53.6894 48.5905 52.3397 50.2402 50.765 51.7399C49.2278 53.1646 47.5032 54.4768 45.591 55.5641C39.1048 59.3134 31.6812 60.1007 24.9326 58.3011C18.2214 56.5014 12.1851 52.1148 8.39829 45.5911V45.5536C6.41118 42.1417 5.2864 38.4675 4.91147 34.7932C4.49905 30.9689 4.94896 27.1072 6.14873 23.4704C6.26121 23.1329 6.59864 22.9455 6.93608 23.058C7.27351 23.1704 7.46097 23.5454 7.3485 23.8828C6.22371 27.3321 5.8113 31.0064 6.18622 34.6807C6.52366 38.1675 7.61094 41.6918 9.48558 44.9537H9.52307C13.0849 51.1775 18.8587 55.3392 25.27 57.0638C31.6812 58.7885 38.7674 58.0386 44.9537 54.4768H44.9911C46.7908 53.427 48.4405 52.1898 49.8652 50.8025C51.4024 49.3778 52.6771 47.8031 53.8019 46.116ZM57.9261 33.181C57.9261 32.8061 58.2261 32.5436 58.601 32.5436C58.9384 32.5811 59.2009 32.881 59.2009 33.2185C59.1634 33.8933 59.1259 34.5307 59.0509 35.1681C58.9759 35.8055 58.8634 36.4428 58.751 37.1177C58.676 37.4552 58.3385 37.6801 58.0011 37.6051C57.6637 37.5301 57.4387 37.1927 57.4762 36.8553C57.5887 36.2554 57.7012 35.6555 57.7761 35.0181C57.8511 34.3808 57.8886 33.7809 57.9261 33.181Z" fill="#FFE0C7"/>
<path d="M31.5 45.0828C38.528 45.0828 44.2253 39.3855 44.2253 32.3575C44.2253 25.3295 38.528 19.6322 31.5 19.6322C24.472 19.6322 18.7747 25.3295 18.7747 32.3575C18.7747 39.3855 24.472 45.0828 31.5 45.0828Z" fill="#FEE45A"/>
<path d="M37.3453 21.0519C39.9191 23.463 41.5279 26.8918 41.5279 30.6968C41.5279 37.995 35.6116 43.9113 28.3135 43.9113C27.399 43.9116 26.4869 43.8173 25.5918 43.63C27.3575 44.5574 29.3672 45.0829 31.5 45.0829C38.528 45.0829 44.2253 39.3856 44.2253 32.3576C44.2253 27.437 41.4322 23.1692 37.3453 21.0519Z" fill="#FED402"/>
<path d="M41.8929 37.3692L42.7613 38.957C42.7897 39.0088 42.8323 39.0515 42.8841 39.0798L44.4719 39.9482C44.6862 40.0653 44.6862 40.3731 44.4719 40.4902L42.8841 41.3586C42.8323 41.387 42.7897 41.4296 42.7613 41.4814L41.8929 43.0692C41.7758 43.2835 41.4681 43.2835 41.3509 43.0692L40.4825 41.4814C40.4542 41.4296 40.4116 41.387 40.3597 41.3586L38.7719 40.4902C38.5577 40.3731 38.5577 40.0653 38.7719 39.9482L40.3597 39.0798C40.4116 39.0515 40.4542 39.0088 40.4825 38.957L41.3509 37.3692C41.4681 37.155 41.7757 37.155 41.8929 37.3692ZM20.2489 25.9447L20.844 27.0328C20.8635 27.0683 20.8927 27.0975 20.9282 27.1169L22.0163 27.7121C22.1631 27.7924 22.1631 28.0032 22.0163 28.0835L20.9282 28.6786C20.8927 28.6981 20.8635 28.7273 20.844 28.7628L20.2489 29.8509C20.1686 29.9977 19.9578 29.9977 19.8775 29.8509L19.2823 28.7628C19.2629 28.7273 19.2337 28.6981 19.1982 28.6786L18.1101 28.0835C17.9633 28.0032 17.9633 27.7924 18.1101 27.7121L19.1982 27.1169C19.2337 27.0975 19.2629 27.0683 19.2823 27.0328L19.8775 25.9447C19.9578 25.7979 20.1687 25.7979 20.2489 25.9447Z" fill="#C4E2FF"/>
<path d="M31.4999 18C24.0441 18 18 19.833 18 22.0942C18 24.3555 24.0441 26.1885 31.4999 26.1885C38.9557 26.1885 44.9999 24.3555 44.9999 22.0942C44.9999 19.833 38.9557 18 31.4999 18ZM31.4999 23.8924C26.1831 23.8924 21.4733 23.011 21.4733 21.9238C21.4733 21.0774 24.4855 20.3559 28.1515 20.0777C29.2184 19.7874 30.341 19.6322 31.4999 19.6322C32.6581 19.6322 33.7799 19.7874 34.846 20.0775C38.5132 20.3555 41.5266 21.0772 41.5266 21.9238C41.5266 23.011 36.8168 23.8924 31.4999 23.8924Z" fill="#8AC9FE"/>
<path d="M31.9963 18.0032C33.6012 18.468 35.08 19.229 36.3702 20.223C39.3123 20.5643 41.5265 21.1982 41.5265 21.9239C41.5265 22.3983 40.6298 22.8334 39.1773 23.1733C39.6199 23.8109 40.0054 24.4862 40.3292 25.1916C43.1899 24.4408 44.9998 23.3317 44.9998 22.0943C44.9998 19.8836 39.222 18.0824 31.9963 18.0032Z" fill="#60B7FF"/>
<path d="M26.6949 27.7699C25.9064 27.3971 24.9667 27.7335 24.5939 28.522M36.305 27.7699C37.0935 27.3971 38.0331 27.7335 38.4059 28.522M24.3875 32.1439C24.3875 30.8122 25.4669 29.7327 26.7986 29.7327C28.1302 29.7327 29.2097 30.8122 29.2097 32.1439M33.7901 32.1439C33.7901 30.8122 34.8696 29.7327 36.2013 29.7327C37.5329 29.7327 38.6124 30.8122 38.6124 32.1439M35.9956 35.6828C35.9956 38.1656 33.9828 40.1784 31.4999 40.1784C29.0171 40.1784 27.0043 38.1657 27.0043 35.6828" stroke="black" stroke-width="0.5" stroke-miterlimit="10" stroke-linecap="round" stroke-linejoin="round"/>
<path d="M40.0527 22.9352C37.7933 20.8829 34.7926 19.6322 31.4998 19.6322C28.2069 19.6322 25.2063 20.8829 22.9468 22.9352" stroke="black" stroke-width="0.5" stroke-miterlimit="10" stroke-linejoin="round"/>
<path d="M42.5781 38.6221C42.9736 37.9245 43.3019 37.1909 43.5587 36.4312" stroke="black" stroke-width="0.5" stroke-miterlimit="10" stroke-linecap="round" stroke-linejoin="round"/>
<path d="M19.2871 28.7715C18.9536 29.9089 18.7747 31.1123 18.7747 32.3575C18.7747 39.3855 24.472 45.0828 31.5 45.0828C34.9823 45.0828 38.1373 43.6836 40.4351 41.4173" stroke="black" stroke-width="0.5" stroke-miterlimit="10" stroke-linejoin="round"/>
<path d="M44.0309 34.582C44.1604 33.8475 44.2254 33.1032 44.2252 32.3574C44.2252 29.5142 43.2925 26.8889 41.7166 24.7704M41.8929 37.3693L42.7613 38.9571C42.7897 39.0089 42.8323 39.0515 42.8841 39.0799L44.4719 39.9482C44.6862 40.0654 44.6862 40.3731 44.4719 40.4903L42.8841 41.3587C42.8323 41.387 42.7897 41.4296 42.7613 41.4814L41.8929 43.0692C41.7758 43.2835 41.4681 43.2835 41.3509 43.0692L40.4825 41.4814C40.4542 41.4296 40.4116 41.387 40.3597 41.3587L38.7719 40.4903C38.5577 40.3731 38.5577 40.0654 38.7719 39.9482L40.3597 39.0799C40.4116 39.0515 40.4542 39.0089 40.4825 38.9571L41.3509 37.3693C41.4681 37.155 41.7757 37.155 41.8929 37.3693ZM20.2489 25.9448L20.844 27.0329C20.8635 27.0684 20.8927 27.0976 20.9282 27.117L22.0163 27.7121C22.1631 27.7924 22.1631 28.0033 22.0163 28.0836L20.9282 28.6787C20.8927 28.6981 20.8635 28.7273 20.844 28.7628L20.2489 29.8509C20.1686 29.9977 19.9578 29.9977 19.8775 29.8509L19.2823 28.7628C19.2629 28.7273 19.2337 28.6981 19.1982 28.6787L18.1101 28.0836C17.9633 28.0033 17.9633 27.7924 18.1101 27.7121L19.1982 27.117C19.2337 27.0976 19.2629 27.0684 19.2823 27.0329L19.8775 25.9448C19.9578 25.798 20.1687 25.798 20.2489 25.9448Z" stroke="black" stroke-width="0.5" stroke-miterlimit="10" stroke-linecap="round" stroke-linejoin="round"/>
<path d="M20.4163 24.4317C22.8554 25.4935 26.9098 26.1885 31.5001 26.1885C38.9559 26.1885 45 24.3555 45 22.0942C45 21.3699 44.3789 20.6896 43.2907 20.0993M41.5206 19.3508C39.0501 18.5213 35.4759 18 31.5001 18C24.0443 18 18.0002 19.833 18.0002 22.0942C18.0002 22.5742 18.2734 23.0346 18.7736 23.4625M34.8462 20.0775C38.5134 20.3555 41.5267 21.0772 41.5267 21.9238C41.5267 23.011 36.8169 23.8923 31.5001 23.8923C26.1833 23.8923 21.4735 23.011 21.4735 21.9238C21.4735 21.0774 24.4857 20.3558 28.1517 20.0776" stroke="black" stroke-width="0.5" stroke-miterlimit="10" stroke-linecap="round" stroke-linejoin="round"/>
<path d="M21.2832 24.7704C20.9501 25.2184 20.6468 25.6878 20.3752 26.1756" stroke="black" stroke-width="0.5" stroke-miterlimit="10" stroke-linejoin="round"/>
</svg>
