<svg width="64" height="64" viewBox="0 0 64 64" fill="none" xmlns="http://www.w3.org/2000/svg">
<path d="M31.9813 63.9625C49.644 63.9625 63.9625 49.644 63.9625 31.9813C63.9625 14.3185 49.644 0 31.9813 0C14.3185 0 0 14.3185 0 31.9813C0 49.644 14.3185 63.9625 31.9813 63.9625Z" fill="#FFD200"/>
<path d="M31.9812 62.3128C48.7329 62.3128 62.3128 48.7329 62.3128 31.9812C62.3128 15.2296 48.7329 1.64966 31.9812 1.64966C15.2296 1.64966 1.64966 15.2296 1.64966 31.9812C1.64966 48.7329 15.2296 62.3128 31.9812 62.3128Z" fill="#FFAA00"/>
<path d="M31.9811 61.0381C48.0288 61.0381 61.038 48.0289 61.038 31.9813C61.038 15.9336 48.0288 2.92444 31.9811 2.92444C15.9335 2.92444 2.92432 15.9336 2.92432 31.9813C2.92432 48.0289 15.9335 61.0381 31.9811 61.0381Z" fill="#FFF9DD"/>
<path fill-rule="evenodd" clip-rule="evenodd" d="M19.0087 9.52317C18.7088 9.67314 18.3338 9.59815 18.1464 9.29821C17.9589 8.96078 18.0714 8.58585 18.3713 8.39839C19.4211 7.836 20.4709 7.3111 21.5582 6.82369C22.683 6.37378 23.8078 5.99885 24.9326 5.69891C30.8939 4.08673 37.0052 4.61163 42.4041 6.82369C47.8031 9.07325 52.4897 13.0475 55.5641 18.3714C55.5641 18.4089 55.6016 18.4089 55.6016 18.4089C55.939 19.0088 56.2389 19.6087 56.5389 20.1711C56.8388 20.8085 57.1013 21.4083 57.3262 22.0457C57.4762 22.3457 57.2887 22.7206 56.9888 22.8706C56.6514 22.983 56.2764 22.8331 56.164 22.4956C55.9015 21.8958 55.6766 21.2959 55.3766 20.7335C55.1142 20.1711 54.8142 19.6087 54.4768 19.0463V19.0088C51.5524 13.9473 47.0907 10.1605 41.9167 8.02346C36.7802 5.88638 30.9689 5.39897 25.27 6.93617C24.1827 7.23611 23.0954 7.57355 22.0456 8.02346C20.9958 8.43588 19.9835 8.96078 19.0087 9.52317ZM10.1604 17.959C9.97298 18.259 9.56056 18.3339 9.29811 18.1465C8.99817 17.959 8.88569 17.5466 9.07316 17.2842C9.52307 16.6093 10.0105 15.9344 10.4979 15.297C10.9853 14.6222 11.5102 14.0223 12.0726 13.4224C12.2975 13.16 12.7099 13.16 12.9724 13.3849C13.2348 13.6474 13.2348 14.0223 13.0099 14.2847C12.485 14.8471 11.9601 15.447 11.5102 16.0469C11.0228 16.6843 10.5729 17.2842 10.1604 17.959ZM53.8019 46.116C53.9894 45.8161 54.3643 45.7411 54.6643 45.9286C54.9642 46.116 55.0392 46.4909 54.8517 46.7909C53.6894 48.5905 52.3397 50.2402 50.765 51.7399C49.2278 53.1646 47.5032 54.4769 45.591 55.5642C39.1048 59.3134 31.6812 60.1008 24.9326 58.3011C18.2214 56.5015 12.1851 52.1148 8.39829 45.5911V45.5536C6.41118 42.1418 5.2864 38.4675 4.91147 34.7932C4.49905 30.969 4.94896 27.1072 6.14873 23.4704C6.26121 23.133 6.59864 22.9455 6.93608 23.058C7.27351 23.1705 7.46097 23.5454 7.3485 23.8829C6.22371 27.3322 5.8113 31.0065 6.18622 34.6808C6.52366 38.1676 7.61094 41.6919 9.48558 44.9537H9.52307C13.0849 51.1775 18.8587 55.3392 25.27 57.0639C31.6812 58.7885 38.7674 58.0387 44.9537 54.4769H44.9911C46.7908 53.4271 48.4405 52.1898 49.8652 50.8026C51.4024 49.3779 52.6771 47.8032 53.8019 46.116ZM57.9261 33.181C57.9261 32.8061 58.2261 32.5437 58.601 32.5437C58.9384 32.5812 59.2009 32.8811 59.2009 33.2185C59.1634 33.8934 59.1259 34.5308 59.0509 35.1682C58.9759 35.8055 58.8634 36.4429 58.751 37.1178C58.676 37.4552 58.3385 37.6802 58.0011 37.6052C57.6637 37.5302 57.4387 37.1928 57.4762 36.8553C57.5887 36.2554 57.7012 35.6556 57.7761 35.0182C57.8511 34.3808 57.8886 33.7809 57.9261 33.181Z" fill="#FFE0C7"/>
<path fill-rule="evenodd" clip-rule="evenodd" d="M45.7308 22.8145L32.1349 18.0229C32.0481 17.9924 31.9535 17.9924 31.8668 18.0229L18.2692 22.8145C18.1905 22.8423 18.1223 22.8938 18.0741 22.9619C18.0259 23.03 18 23.1114 18 23.1949C18 23.2784 18.0259 23.3598 18.0741 23.4279C18.1223 23.496 18.1905 23.5475 18.2692 23.5753L23.5837 25.448V30.856C23.5837 30.926 23.6019 30.9948 23.6366 31.0557C23.6713 31.1165 23.7213 31.1673 23.7815 31.203C26.6483 32.9002 29.3348 33.7456 31.9945 33.7873H32.0071C34.6658 33.7455 37.3517 32.9002 40.2185 31.203C40.2787 31.1673 40.3287 31.1165 40.3634 31.0557C40.398 30.9948 40.4163 30.926 40.4163 30.856V25.4483L42.2701 24.7949V28.6523C41.72 28.8243 41.3196 29.3386 41.3196 29.9447C41.3196 30.2429 41.417 30.5187 41.5813 30.7426L40.9217 32.6832C40.8478 32.9079 40.8594 33.1491 40.9545 33.3622L40.9572 33.3682C41.0795 33.6307 41.3083 33.7874 41.5694 33.7874H43.7757C44.0368 33.7874 44.2656 33.6307 44.3888 33.3663C44.4862 33.1541 44.4985 32.9115 44.4221 32.6795L43.7639 30.7429C43.9341 30.5116 44.0258 30.2319 44.0255 29.9447C44.0255 29.3388 43.6259 28.8246 43.0767 28.6524V24.5107L45.7308 23.5753C45.8095 23.5475 45.8777 23.496 45.9259 23.4279C45.9741 23.3598 46 23.2784 46 23.1949C46 23.1114 45.9741 23.03 45.9259 22.9619C45.8777 22.8938 45.8095 22.8423 45.7308 22.8145ZM41.6802 32.9808C41.6802 32.9664 41.6823 32.9521 41.6866 32.939L42.2661 31.2342C42.3947 31.2748 42.5315 31.2968 42.6733 31.2968C42.8152 31.2968 42.951 31.2749 43.0791 31.2345L43.6571 32.9353C43.6622 32.9507 43.6649 32.9662 43.6652 32.9808H41.6801H41.6802ZM42.6734 30.4902C42.3717 30.4902 42.1262 30.2455 42.1262 29.9447C42.1262 29.6439 42.3717 29.3975 42.6734 29.3975C42.9751 29.3975 43.2189 29.643 43.2189 29.9447C43.2189 30.2464 42.9742 30.4902 42.6734 30.4902ZM32.0008 32.9807C29.5479 32.941 27.0559 32.1699 24.3903 30.6248V29.4041C27.0317 30.8695 29.5255 31.6027 31.9945 31.6413H32.0071C34.4751 31.6026 36.9683 30.8695 39.6097 29.4041V30.6248C36.9441 32.1699 34.4527 32.941 32.0008 32.9807ZM39.6097 28.4769C36.9423 30.0231 34.451 30.7951 32.0008 30.8348C29.5496 30.7951 27.0578 30.0231 24.3903 28.4769V25.7323L31.8667 28.3669C31.9535 28.3974 32.0481 28.3974 32.1349 28.3669L39.6097 25.7325V28.4768V28.4769ZM32.0008 27.5589L19.6168 23.1949L32.0009 18.8309L44.3835 23.1949L32.0009 27.559L32.0008 27.5589ZM41.9009 35.1757C41.8813 35.1757 41.8618 35.1771 41.8425 35.1799C39.0448 35.5895 36.2199 35.8265 33.4403 35.8863C33.4272 35.8447 33.4135 35.8033 33.3992 35.7621C33.3665 35.6676 33.2999 35.5887 33.2123 35.5406C33.1246 35.4925 33.0223 35.4787 32.925 35.5018C32.391 35.6286 31.8663 35.6184 31.3207 35.4706C31.2582 35.4537 31.1925 35.452 31.1293 35.4659C31.066 35.4797 31.007 35.5086 30.9572 35.5501C30.9075 35.5915 30.8684 35.6444 30.8434 35.7041C30.8184 35.7639 30.8082 35.8288 30.8136 35.8934C28.0347 35.8444 25.2297 35.6213 22.4622 35.2299C22.3288 35.1942 22.1914 35.176 22.0533 35.1757C20.6458 35.1757 19.5433 37.0279 19.5433 39.3924C19.5433 41.7569 20.6458 43.6074 22.0533 43.6074C22.1888 43.6072 22.3237 43.5898 22.4548 43.5554C24.5461 43.2606 26.6927 43.0626 28.852 42.9659L28.5943 43.4124C28.5569 43.4771 28.5382 43.551 28.5404 43.6258C28.5425 43.7005 28.5655 43.7732 28.6066 43.8357C28.6477 43.8982 28.7053 43.948 28.7731 43.9796C28.8409 44.0112 28.9161 44.0233 28.9904 44.0146L29.9612 43.9009L30.3485 44.7979C30.3781 44.8665 30.4262 44.9256 30.4875 44.9685C30.5487 45.0113 30.6207 45.0363 30.6953 45.0407C30.7699 45.045 30.8443 45.0285 30.9101 44.993C30.9759 44.9575 31.0306 44.9044 31.0679 44.8397L32.0156 43.1993C32.3209 43.1823 32.6272 43.2099 32.9246 43.2812C32.9554 43.2886 32.9868 43.2923 33.0184 43.2923C33.0652 43.292 33.1115 43.2835 33.1553 43.2673L34.0637 44.8397C34.1011 44.9044 34.1557 44.9575 34.2215 44.993C34.2873 45.0284 34.3617 45.0449 34.4363 45.0406C34.511 45.0363 34.5829 45.0113 34.6442 44.9684C34.7054 44.9255 34.7535 44.8665 34.7832 44.7979L35.1704 43.9009L36.1412 44.0146C36.2155 44.0233 36.2907 44.0112 36.3585 43.9796C36.4263 43.948 36.484 43.8982 36.5251 43.8357C36.5662 43.7732 36.5891 43.7005 36.5913 43.6258C36.5934 43.551 36.5748 43.4771 36.5374 43.4124L36.3163 43.0294C38.1883 43.1474 40.0439 43.3398 41.8424 43.6031C41.8617 43.606 41.8813 43.6074 41.9008 43.6074C43.3074 43.6074 44.4092 41.756 44.4092 39.3924C44.4092 37.0288 43.3074 35.1757 41.9008 35.1757L41.9009 35.1757ZM34.0397 39.7845C33.9341 40.1788 33.6814 40.5082 33.3283 40.7122C32.9753 40.9161 32.5641 40.9702 32.1705 40.8647C31.7769 40.7591 31.448 40.5065 31.2442 40.1533C31.0404 39.8002 30.9863 39.389 31.0919 38.9955C31.2746 38.3144 31.894 37.8637 32.5688 37.8637C32.6985 37.8637 32.8304 37.8804 32.9614 37.9153C33.3548 38.0209 33.6836 38.2735 33.8873 38.6265C34.0911 38.9796 34.1452 39.3908 34.0396 39.7844L34.0397 39.7845ZM32.7385 36.3569C32.798 36.5756 32.8507 36.8191 32.8958 37.0809C32.5738 37.035 32.2459 37.0573 31.9331 37.1464C31.8909 36.8715 31.8415 36.6127 31.7849 36.3747C32.1023 36.4071 32.4225 36.4011 32.7385 36.3569ZM23.1889 36.8905C23.554 37.552 23.7552 38.4405 23.7552 39.3923C23.7552 39.458 23.754 39.5233 23.7521 39.5883C23.3784 39.5851 23.0102 39.6057 22.5896 39.6542C22.6399 39.4006 22.6657 39.1327 22.6657 38.8584C22.6657 37.964 22.4028 37.1358 21.9798 36.6973C21.7944 36.5046 21.5672 36.3814 21.3248 36.3358C21.549 36.1135 21.7922 35.9902 22.0324 35.9834C22.1183 35.9959 22.2044 36.0078 22.2904 36.0201C22.6147 36.1217 22.9326 36.4263 23.1889 36.8906V36.8905ZM20.9169 41.8925C20.5512 41.2312 20.3499 40.3432 20.3499 39.3923C20.3499 38.6945 20.4586 38.031 20.6605 37.4656C20.7415 37.2853 20.8901 37.156 21.0492 37.1279C21.1771 37.1054 21.2946 37.1485 21.3988 37.2569C21.6741 37.5423 21.8591 38.1859 21.8591 38.8584C21.8591 39.2661 21.786 39.6656 21.6534 39.9834C21.6257 40.0495 21.6163 40.1219 21.6259 40.1929C21.6355 40.264 21.6639 40.3312 21.7082 40.3876C21.7524 40.4441 21.8109 40.4877 21.8776 40.514C21.9443 40.5403 22.0168 40.5483 22.0877 40.5373C22.7164 40.4393 23.1973 40.3952 23.6771 40.3949C23.5872 40.958 23.4215 41.4715 23.1889 41.8928C22.9327 42.3567 22.615 42.6611 22.2909 42.7629C22.2046 42.7751 22.1183 42.7872 22.0322 42.7998C21.6357 42.7884 21.2304 42.4598 20.9169 41.8926V41.8925ZM23.7124 42.577C24.2357 41.8099 24.5617 40.6773 24.5617 39.3923C24.5617 38.1074 24.2361 36.9753 23.7136 36.208C26.1428 36.5025 28.5859 36.6677 31.0326 36.703C31.0871 36.9533 31.1339 37.228 31.1722 37.5226C30.7657 37.8253 30.454 38.2607 30.3129 38.7865C30.179 39.2856 30.2136 39.803 30.4069 40.273L29.3299 42.1383C27.4415 42.2089 25.5596 42.3559 23.7124 42.577ZM30.7709 43.7414L30.5827 43.3055C30.5483 43.2259 30.4891 43.1595 30.4139 43.1161C30.3388 43.0728 30.2517 43.0547 30.1655 43.0647L29.6944 43.1199L30.9028 41.027C31.1911 41.321 31.5535 41.5341 31.9616 41.6436C31.9677 41.6453 31.974 41.6464 31.9802 41.648L30.7709 43.7414L30.7709 43.7414ZM32.4785 42.3979L32.5658 42.2467L32.6639 42.4165C32.6022 42.4088 32.5404 42.4026 32.4785 42.3979V42.3979ZM34.966 43.0647C34.8799 43.0547 34.7928 43.0727 34.7176 43.1161C34.6425 43.1594 34.5833 43.2258 34.5489 43.3055L34.3606 43.7414L33.1519 41.6488C33.5602 41.542 33.9321 41.327 34.2284 41.0264L35.4371 43.1199L34.966 43.0647H34.966ZM43.0364 41.8926C42.7246 42.4573 42.3216 42.7863 41.9269 42.8002C39.9459 42.5111 37.897 42.3078 35.8336 42.1934L34.7244 40.2723C34.7616 40.1813 34.7931 40.0881 34.8187 39.9932C34.9801 39.3916 34.8974 38.763 34.586 38.2232C34.3828 37.8712 34.0979 37.5851 33.7575 37.3835C33.7253 37.1409 33.6871 36.9082 33.6434 36.6886C36.3854 36.622 39.1693 36.385 41.9269 35.9826C42.3216 35.9966 42.7246 36.3257 43.0363 36.8904C43.4015 37.5519 43.6026 38.4404 43.6026 39.3922C43.6026 40.344 43.4015 41.2313 43.0363 41.8926L43.0364 41.8926ZM33.1423 39.5441C33.0574 39.8626 32.7291 40.052 32.4107 39.9671C32.0922 39.8822 31.9028 39.5539 31.9893 39.2355C32.0743 38.917 32.4009 38.7276 32.721 38.8125C33.0395 38.8974 33.2289 39.2257 33.1423 39.5441Z" fill="black"/>
<path d="M32.8958 37.0809C32.8507 36.819 32.798 36.5755 32.7386 36.3568C32.4226 36.4011 32.1024 36.4071 31.7849 36.3747C31.8415 36.6126 31.891 36.8715 31.9332 37.1463C32.2459 37.0573 32.5739 37.035 32.8958 37.0809Z" fill="#E53935"/>
<path d="M30.9028 41.0271L29.6943 43.12L30.1655 43.0648C30.2517 43.0548 30.3388 43.0728 30.4139 43.1162C30.489 43.1595 30.5482 43.2259 30.5827 43.3055L30.7709 43.7414L31.9802 41.648C31.974 41.6464 31.9677 41.6453 31.9616 41.6437C31.5535 41.5342 31.1911 41.3211 30.9028 41.0271H30.9028Z" fill="#E54848"/>
<path d="M32.4785 42.398C32.5403 42.4026 32.6022 42.4091 32.6639 42.4166L32.5659 42.2468L32.4785 42.398Z" fill="#E53935"/>
<path d="M22.6657 38.8583C22.6657 39.1326 22.6398 39.4006 22.5896 39.6542C23.0102 39.6056 23.3784 39.5851 23.7521 39.5883C23.754 39.5233 23.7551 39.458 23.7551 39.3923C23.7551 38.4405 23.554 37.552 23.1888 36.8905C22.9326 36.4263 22.6146 36.1217 22.2904 36.02C22.2043 36.0078 22.1183 35.9958 22.0323 35.9833C21.7922 35.9901 21.5489 36.1134 21.3247 36.3358C21.5671 36.3813 21.7944 36.5046 21.9798 36.6973C22.4027 37.1358 22.6657 37.964 22.6657 38.8583V38.8583Z" fill="#C9D6D4"/>
<path d="M30.3129 38.7865C30.4539 38.2606 30.7657 37.8252 31.1722 37.5226C31.1339 37.228 31.0871 36.9533 31.0326 36.703C28.5859 36.6677 26.1428 36.5024 23.7136 36.208C24.2361 36.9753 24.5617 38.1078 24.5617 39.3923C24.5617 40.6768 24.2356 41.81 23.7124 42.577C25.5596 42.3559 27.4415 42.2089 29.3299 42.1382L30.4069 40.273C30.2136 39.8029 30.179 39.2855 30.3129 38.7865Z" fill="#DCEAE9"/>
<path d="M34.0397 39.7845C34.1453 39.3908 34.0913 38.9796 33.8875 38.6265C33.6838 38.2735 33.355 38.0209 32.9616 37.9153C32.8335 37.8812 32.7015 37.8638 32.569 37.8638C31.8941 37.8638 31.2747 38.3144 31.092 38.9955C30.9864 39.3891 31.0405 39.8003 31.2443 40.1534C31.4481 40.5065 31.7771 40.7591 32.1707 40.8647C32.5643 40.9702 32.9754 40.9162 33.3284 40.7123C33.6816 40.5083 33.9342 40.1788 34.0398 39.7845L34.0397 39.7845ZM33.1424 39.5442C33.0575 39.8627 32.7292 40.0521 32.4108 39.9672C32.0923 39.8823 31.9028 39.554 31.9894 39.2356C32.0744 38.9171 32.401 38.7277 32.7211 38.8126C33.0395 38.8975 33.229 39.2258 33.1424 39.5442Z" fill="#EF5350"/>
<path d="M22.0257 40.542C21.9593 40.542 21.8939 40.5256 21.8354 40.4942C21.7768 40.4629 21.7269 40.4175 21.6901 40.3623C21.6533 40.307 21.6307 40.2435 21.6243 40.1774C21.6179 40.1113 21.628 40.0446 21.6536 39.9833C21.7862 39.6655 21.8593 39.266 21.8593 38.8583C21.8593 38.1858 21.6743 37.5423 21.3991 37.2569C21.2948 37.1485 21.1773 37.1054 21.0494 37.1278C20.8902 37.156 20.7418 37.2854 20.6607 37.4656C20.4588 38.0309 20.3501 38.6944 20.3501 39.3923C20.3501 40.3432 20.5515 41.2311 20.9171 41.8924C21.2306 42.4596 21.636 42.7883 22.0324 42.7996C22.1185 42.7871 22.2048 42.7749 22.2911 42.7627C22.6152 42.6609 22.9329 42.3565 23.1891 41.8926C23.4217 41.4714 23.5874 40.9578 23.6773 40.3947C23.1975 40.395 22.7166 40.4391 22.0879 40.5371C22.0671 40.5403 22.0463 40.5419 22.0257 40.5419V40.542Z" fill="#BCCECC"/>
<path d="M32.0009 28.3899C31.9552 28.3899 31.9099 28.3821 31.8668 28.3669L24.3904 25.7323V28.4769C27.0579 30.0232 29.5497 30.7951 32.0009 30.8348C34.4511 30.7951 36.9424 30.0232 39.6098 28.4769V25.7326L32.135 28.367C32.0919 28.3822 32.0466 28.3899 32.0009 28.3899Z" fill="#3E4754"/>
<path d="M42.6733 31.2968C42.5352 31.2968 42.3978 31.2757 42.266 31.2341L41.6866 32.939C41.6822 32.9525 41.6801 32.9666 41.6802 32.9807H43.6653C43.6648 32.9652 43.6621 32.9499 43.6572 32.9352L43.0792 31.2345C42.9479 31.2758 42.8111 31.2968 42.6734 31.2968H42.6733Z" fill="#FFD54F"/>
<path d="M41.9269 35.9827C39.1692 36.385 36.3853 36.6221 33.6433 36.6887C33.6888 36.919 33.7269 37.1508 33.7574 37.3835C34.0978 37.5851 34.3828 37.8712 34.5859 38.2233C34.8974 38.763 34.98 39.3916 34.8186 39.9933C34.793 40.0882 34.7615 40.1814 34.7243 40.2724L35.8335 42.1935C37.8971 42.3078 39.9459 42.5112 41.9269 42.8003C42.3216 42.7864 42.7245 42.4573 43.0363 41.8927C43.4015 41.2314 43.6026 40.3435 43.6026 39.3923C43.6026 38.4412 43.4015 37.552 43.0363 36.8905C42.7245 36.3258 42.3216 35.9967 41.9269 35.9827L41.9269 35.9827Z" fill="#DCEAE9"/>
<path d="M32.0009 31.6414H31.9946C29.5256 31.6027 27.0318 30.8695 24.3904 29.4041V30.6248C27.056 32.1699 29.548 32.941 32.0009 32.9807C34.4528 32.941 36.9442 32.1699 39.6098 30.6248V29.4041C36.9684 30.8695 34.4752 31.6026 32.0072 31.6413H32.0009V31.6414ZM42.6735 29.3975C42.3718 29.3975 42.1263 29.643 42.1263 29.9447C42.1263 30.2464 42.3718 30.4902 42.6735 30.4902C42.9752 30.4902 43.219 30.2455 43.219 29.9447C43.219 29.6439 42.9743 29.3975 42.6735 29.3975Z" fill="#FFB74D"/>
<path d="M33.7318 41.4107C33.5501 41.5157 33.3551 41.5958 33.1521 41.6489L34.3609 43.7414L34.5491 43.3055C34.5835 43.2259 34.6427 43.1595 34.7178 43.1161C34.793 43.0728 34.8801 43.0548 34.9663 43.0648L35.4374 43.12L34.2287 41.0265C34.081 41.1763 33.9139 41.3055 33.7318 41.4107Z" fill="#E54848"/>
<path d="M19.6167 23.195L32.0008 27.559L44.3834 23.195L32.0008 18.8309L19.6167 23.195Z" fill="#464F5E"/>
</svg>
