<svg width="64" height="64" viewBox="0 0 64 64" fill="none" xmlns="http://www.w3.org/2000/svg">
<path d="M31.9813 63.9625C49.644 63.9625 63.9625 49.644 63.9625 31.9813C63.9625 14.3185 49.644 0 31.9813 0C14.3185 0 0 14.3185 0 31.9813C0 49.644 14.3185 63.9625 31.9813 63.9625Z" fill="#FFD200"/>
<path d="M31.9812 62.3128C48.7329 62.3128 62.3128 48.7329 62.3128 31.9812C62.3128 15.2296 48.7329 1.64966 31.9812 1.64966C15.2296 1.64966 1.64966 15.2296 1.64966 31.9812C1.64966 48.7329 15.2296 62.3128 31.9812 62.3128Z" fill="#FFAA00"/>
<path d="M31.9811 61.0381C48.0288 61.0381 61.038 48.0289 61.038 31.9813C61.038 15.9336 48.0288 2.92444 31.9811 2.92444C15.9335 2.92444 2.92432 15.9336 2.92432 31.9813C2.92432 48.0289 15.9335 61.0381 31.9811 61.0381Z" fill="#FFF9DD"/>
<path fill-rule="evenodd" clip-rule="evenodd" d="M19.0087 9.52311C18.7088 9.67308 18.3338 9.59809 18.1464 9.29815C17.9589 8.96072 18.0714 8.58579 18.3713 8.39832C19.4211 7.83593 20.4709 7.31104 21.5582 6.82363C22.683 6.37372 23.8078 5.99879 24.9326 5.69885C30.8939 4.08667 37.0052 4.61156 42.4041 6.82363C47.8031 9.07319 52.4897 13.0474 55.5641 18.3714C55.5641 18.4089 55.6016 18.4089 55.6016 18.4089C55.939 19.0088 56.2389 19.6086 56.5389 20.171C56.8388 20.8084 57.1013 21.4083 57.3262 22.0457C57.4762 22.3456 57.2887 22.7205 56.9888 22.8705C56.6514 22.983 56.2764 22.833 56.164 22.4956C55.9015 21.8957 55.6766 21.2958 55.3766 20.7334C55.1142 20.171 54.8142 19.6086 54.4768 19.0462V19.0088C51.5524 13.9472 47.0907 10.1605 41.9167 8.0234C36.7802 5.88632 30.9689 5.39891 25.27 6.93611C24.1827 7.23605 23.0954 7.57349 22.0456 8.0234C20.9958 8.43582 19.9835 8.96072 19.0087 9.52311ZM10.1604 17.959C9.97298 18.2589 9.56056 18.3339 9.29811 18.1464C8.99817 17.959 8.88569 17.5465 9.07316 17.2841C9.52307 16.6092 10.0105 15.9344 10.4979 15.297C10.9853 14.6221 11.5102 14.0222 12.0726 13.4223C12.2975 13.1599 12.7099 13.1599 12.9724 13.3849C13.2348 13.6473 13.2348 14.0222 13.0099 14.2847C12.485 14.8471 11.9601 15.4469 11.5102 16.0468C11.0228 16.6842 10.5729 17.2841 10.1604 17.959ZM53.8019 46.116C53.9894 45.816 54.3643 45.741 54.6643 45.9285C54.9642 46.116 55.0392 46.4909 54.8517 46.7908C53.6894 48.5905 52.3397 50.2402 50.765 51.7399C49.2278 53.1646 47.5032 54.4768 45.591 55.5641C39.1048 59.3134 31.6812 60.1007 24.9326 58.3011C18.2214 56.5014 12.1851 52.1148 8.39829 45.5911V45.5536C6.41118 42.1417 5.2864 38.4675 4.91147 34.7932C4.49905 30.9689 4.94896 27.1072 6.14873 23.4704C6.26121 23.1329 6.59864 22.9455 6.93608 23.058C7.27351 23.1704 7.46097 23.5454 7.3485 23.8828C6.22371 27.3321 5.8113 31.0064 6.18622 34.6807C6.52366 38.1675 7.61094 41.6918 9.48558 44.9537H9.52307C13.0849 51.1775 18.8587 55.3392 25.27 57.0638C31.6812 58.7885 38.7674 58.0386 44.9537 54.4768H44.9911C46.7908 53.427 48.4405 52.1898 49.8652 50.8025C51.4024 49.3778 52.6771 47.8031 53.8019 46.116ZM57.9261 33.181C57.9261 32.8061 58.2261 32.5436 58.601 32.5436C58.9384 32.5811 59.2009 32.881 59.2009 33.2185C59.1634 33.8933 59.1259 34.5307 59.0509 35.1681C58.9759 35.8055 58.8634 36.4428 58.751 37.1177C58.676 37.4552 58.3385 37.6801 58.0011 37.6051C57.6637 37.5301 57.4387 37.1927 57.4762 36.8553C57.5887 36.2554 57.7012 35.6555 57.7761 35.0181C57.8511 34.3808 57.8886 33.7809 57.9261 33.181Z" fill="#FFE0C7"/>
<path d="M21.1248 39.5089C23.6074 36.1198 26.8162 31.5832 28.4779 28.04L35.5416 35.1038C31.7266 36.9231 27.1747 40.0886 24.0728 42.4569L21.1248 39.5089Z" fill="#FFDF40"/>
<path d="M34.9617 34.5239L35.5418 35.104C31.7268 36.9233 27.1749 40.0888 24.073 42.4571L23.4998 41.884L23.5275 41.8561C27.0715 39.0181 30.9039 36.5605 34.9617 34.5239Z" fill="#FFBE40"/>
<path d="M28.478 26.8471C28.6362 26.6889 28.8508 26.6001 29.0745 26.6001C29.2982 26.6001 29.5128 26.6889 29.671 26.8471L36.7347 33.9109C36.8875 34.0702 36.9718 34.2831 36.9695 34.5038C36.9672 34.7245 36.8785 34.9355 36.7224 35.0916C36.5663 35.2477 36.3553 35.3364 36.1346 35.3387C35.9139 35.341 35.701 35.2567 35.5417 35.1039L28.478 28.0401C28.3198 27.8819 28.231 27.6673 28.231 27.4436C28.231 27.2199 28.3198 27.0053 28.478 26.8471Z" fill="#66CCFF"/>
<path d="M36.7348 35.1038C36.5765 35.262 36.362 35.3509 36.1383 35.3509C35.9145 35.3509 35.7 35.262 35.5417 35.1038L34.9617 34.5238L36.1547 33.3308L36.7348 33.9109C36.8929 34.0691 36.9817 34.2837 36.9817 34.5074C36.9817 34.7311 36.8929 34.9456 36.7348 35.1038Z" fill="#4DA6FF"/>
<path d="M20.5011 40.1327L21.1249 39.5089L24.0728 42.4568L23.4489 43.0806C23.0564 43.464 22.5287 43.6771 21.9801 43.6739C21.4314 43.6707 20.9062 43.4513 20.5183 43.0634C20.1303 42.6755 19.911 42.1502 19.9078 41.6016C19.9045 41.053 20.1177 40.5252 20.5011 40.1327Z" fill="#66CCFF"/>
<path d="M23.4999 41.8839L24.0729 42.4569L23.4491 43.0808C23.0581 43.4716 22.528 43.6912 21.9751 43.6912C21.4223 43.6912 20.8921 43.4716 20.5012 43.0808C21.2026 43.3428 21.8789 43.2788 22.5278 42.8562L23.4999 41.8839Z" fill="#4DA6FF"/>
<path d="M35.5489 35.3939C35.7758 35.5526 36.0538 35.6205 36.3283 35.5842C36.6027 35.5479 36.8536 35.4101 37.0314 35.1979C37.2092 34.9858 37.3011 34.7147 37.2889 34.4381C37.2766 34.1616 37.1612 33.8996 36.9653 33.704L29.9015 26.6403C29.7058 26.4444 29.4439 26.3291 29.1673 26.3169C28.8908 26.3047 28.6197 26.3966 28.4076 26.5745C28.1955 26.7524 28.0577 27.0033 28.0215 27.2777C27.9853 27.5522 28.0532 27.8302 28.2119 28.057C26.5532 31.5322 23.4782 35.8894 20.9682 39.3164L20.3587 39.9259C20.0952 40.1895 19.8983 40.5122 19.7844 40.8671C19.6704 41.222 19.6427 41.5989 19.7034 41.9667L19.1816 42.4885C18.8558 42.8143 18.6807 43.193 18.6754 43.5835C18.6732 43.7573 18.7056 43.9298 18.7707 44.091C18.8357 44.2522 18.9321 44.3989 19.0542 44.5225C19.1764 44.6462 19.3218 44.7443 19.4822 44.8113C19.6426 44.8783 19.8147 44.9128 19.9885 44.9128C20.3516 44.9128 20.7443 44.7635 21.1005 44.4072L21.6105 43.8972C21.7455 43.9211 21.8823 43.9332 22.0194 43.9334C22.3277 43.9339 22.6331 43.8735 22.918 43.7557C23.2028 43.6379 23.4616 43.4649 23.6795 43.2468L24.2908 42.6356C26.2473 41.1425 31.197 37.4987 35.5489 35.3939ZM35.1376 35.0079C30.9089 37.086 26.1853 40.5347 24.1407 42.0873L21.5151 39.4618C23.9712 36.1033 26.93 31.8959 28.5992 28.4696L35.1376 35.0079ZM28.7087 27.0133C28.8175 26.9047 28.965 26.8438 29.1188 26.8438C29.2725 26.8438 29.42 26.9047 29.5289 27.0133L36.5926 34.0771C36.6972 34.1867 36.7547 34.3329 36.7529 34.4843C36.7511 34.6358 36.6901 34.7806 36.583 34.8877C36.4759 34.9948 36.3311 35.0557 36.1797 35.0575C36.0282 35.0593 35.8821 35.0017 35.7725 34.8972L28.7087 27.8334C28.6 27.7246 28.539 27.5771 28.5389 27.4233C28.5389 27.2695 28.5999 27.122 28.7085 27.0131L28.7087 27.0133ZM20.7274 44.0344C20.5007 44.2611 20.2484 44.3829 19.9978 44.3865C19.893 44.3879 19.789 44.3683 19.692 44.3287C19.5949 44.2891 19.5069 44.2303 19.433 44.1559C19.1411 43.864 19.0655 43.3506 19.5543 42.8615L19.8744 42.5415C20.1063 43.0637 20.5211 43.4832 21.0407 43.721L20.7274 44.0344ZM23.3068 42.8739C23.1381 43.0446 22.9372 43.1802 22.7159 43.273C22.4946 43.3658 22.2571 43.4139 22.0171 43.4146C21.7771 43.4153 21.5393 43.3685 21.3174 43.277C21.0956 43.1854 20.894 43.051 20.7243 42.8813C20.5546 42.7116 20.4201 42.51 20.3286 42.2881C20.2371 42.0663 20.1903 41.8285 20.191 41.5885C20.1917 41.3485 20.2398 41.111 20.3326 40.8897C20.4254 40.6683 20.561 40.4675 20.7317 40.2988L21.1694 39.8614L23.7445 42.4366L23.3068 42.8739ZM32.508 28.1495C32.4835 28.125 32.4641 28.096 32.4508 28.064C32.4376 28.032 32.4307 27.9977 32.4307 27.963C32.4307 27.9284 32.4376 27.8941 32.4508 27.8621C32.4641 27.8301 32.4835 27.8011 32.508 27.7766C33.8093 26.4753 34.8147 23.8038 33.9473 21.0133C33.9272 20.9468 33.9343 20.875 33.9669 20.8136C33.9995 20.7521 34.0551 20.7061 34.1215 20.6855C34.1879 20.6648 34.2597 20.6713 34.3214 20.7034C34.3831 20.7354 34.4296 20.7906 34.4508 20.8568C34.8627 22.1862 34.9101 23.6019 34.5879 24.9558C34.2897 26.2127 33.6834 27.3468 32.8808 28.1495C32.8313 28.1989 32.7643 28.2267 32.6944 28.2267C32.6244 28.2267 32.5574 28.1989 32.5079 28.1495H32.508ZM42.057 29.1231C39.2666 28.2555 36.5951 29.261 35.2937 30.5624C35.2694 30.5874 35.2403 30.6073 35.2082 30.6209C35.176 30.6346 35.1415 30.6417 35.1066 30.642C35.0717 30.6422 35.0371 30.6355 35.0048 30.6222C34.9725 30.6089 34.9432 30.5894 34.9185 30.5647C34.8938 30.54 34.8743 30.5107 34.861 30.4784C34.8478 30.4461 34.8411 30.4115 34.8413 30.3766C34.8415 30.3417 34.8487 30.3072 34.8623 30.2751C34.876 30.2429 34.8959 30.2139 34.9209 30.1895C35.7235 29.3869 36.8577 28.7806 38.1145 28.4823C39.4685 28.1602 40.8841 28.2075 42.2135 28.6194C42.2801 28.6404 42.3356 28.6869 42.3679 28.7487C42.4002 28.8105 42.4067 28.8826 42.386 28.9492C42.3653 29.0158 42.3191 29.0715 42.2574 29.104C42.1957 29.1366 42.1237 29.1434 42.057 29.123V29.1231ZM35.3247 23.6314C35.363 24.0301 35.5658 24.4315 35.8959 24.7616C36.3108 25.1877 36.8509 25.47 37.4376 25.5674C36.118 27.2022 33.7231 28.8823 33.6971 28.9002C33.6405 28.9405 33.602 29.0016 33.5901 29.0701C33.5782 29.1386 33.5939 29.209 33.6337 29.2661C33.6735 29.3231 33.7342 29.3621 33.8026 29.3746C33.871 29.387 33.9416 29.372 33.9989 29.3327C34.1144 29.252 36.791 27.3742 38.0911 25.5813C38.7223 25.5128 39.3229 25.2069 39.8435 24.6863C41.1675 23.3623 40.3535 21.6714 40.3452 21.6545C40.3298 21.6234 40.3085 21.5957 40.2824 21.5729C40.2563 21.5501 40.226 21.5327 40.1932 21.5216C40.1604 21.5105 40.1258 21.506 40.0912 21.5083C40.0567 21.5107 40.0229 21.5198 39.9919 21.5351C39.9608 21.5505 39.9331 21.5718 39.9103 21.5979C39.8875 21.6239 39.8701 21.6542 39.859 21.687C39.8479 21.7198 39.8434 21.7545 39.8457 21.7891C39.848 21.8236 39.8571 21.8574 39.8725 21.8884C39.8792 21.902 40.53 23.2542 39.4707 24.3133C39.1826 24.6125 38.8271 24.8382 38.4339 24.9715C38.7292 24.2596 38.9022 23.1733 38.1931 22.4643C37.9181 22.1938 37.5658 22.0155 37.1851 21.9539C36.8231 21.9006 36.2793 21.9486 35.746 22.4819C35.5941 22.6297 35.4773 22.8097 35.4044 23.0087C35.3314 23.2077 35.3042 23.4205 35.3247 23.6314ZM36.1189 22.855C36.3786 22.5953 36.6595 22.4644 36.956 22.4644C37.0069 22.4645 37.0578 22.4683 37.1082 22.4757C37.3767 22.521 37.6251 22.6471 37.8201 22.8373C38.4122 23.4294 38.1157 24.5339 37.8008 25.069H37.7996C37.2464 25.0644 36.7027 24.8228 36.2687 24.3888C36.0249 24.145 35.8761 23.8582 35.8495 23.5812C35.8362 23.4476 35.8536 23.3128 35.9003 23.1869C35.947 23.0611 36.0217 22.9476 36.1189 22.855ZM23.9301 26.982C23.9301 26.9121 23.9579 26.845 24.0073 26.7956C24.0568 26.7461 24.1239 26.7184 24.1938 26.7184H24.8931V26.019C24.8931 25.9491 24.9209 25.882 24.9704 25.8325C25.0198 25.7831 25.0869 25.7553 25.1568 25.7553C25.2267 25.7553 25.2938 25.7831 25.3433 25.8325C25.3927 25.882 25.4205 25.9491 25.4205 26.019V26.7184H26.1199C26.1898 26.7184 26.2568 26.7461 26.3063 26.7956C26.3557 26.845 26.3835 26.9121 26.3835 26.982C26.3835 27.052 26.3557 27.119 26.3063 27.1685C26.2568 27.2179 26.1898 27.2457 26.1199 27.2457H25.4205V27.9451C25.4205 28.015 25.3927 28.0821 25.3433 28.1315C25.2938 28.181 25.2267 28.2087 25.1568 28.2087C25.0869 28.2087 25.0198 28.181 24.9704 28.1315C24.9209 28.0821 24.8931 28.015 24.8931 27.9451V27.2457H24.1938C24.1239 27.2457 24.0568 27.2179 24.0073 27.1685C23.9579 27.119 23.9301 27.052 23.9301 26.982ZM43.7283 33.0638C43.7283 33.1337 43.7005 33.2008 43.6511 33.2502C43.6016 33.2997 43.5345 33.3274 43.4646 33.3274H42.7652V34.0268C42.7652 34.0967 42.7375 34.1638 42.688 34.2133C42.6386 34.2627 42.5715 34.2905 42.5016 34.2905C42.4316 34.2905 42.3646 34.2627 42.3151 34.2133C42.2657 34.1638 42.2379 34.0967 42.2379 34.0268V33.3274H41.5385C41.4686 33.3274 41.4015 33.2997 41.3521 33.2502C41.3026 33.2008 41.2749 33.1337 41.2749 33.0638C41.2749 32.9938 41.3026 32.9268 41.3521 32.8773C41.4015 32.8279 41.4686 32.8001 41.5385 32.8001H42.2379V32.1007C42.2379 32.0308 42.2657 31.9637 42.3151 31.9143C42.3646 31.8648 42.4316 31.8371 42.5016 31.8371C42.5715 31.8371 42.6386 31.8648 42.688 31.9143C42.7375 31.9637 42.7652 32.0308 42.7652 32.1007V32.8001H43.4646C43.5345 32.8001 43.6016 32.8279 43.6511 32.8773C43.7005 32.9268 43.7283 32.9938 43.7283 33.0638ZM37.2971 38.5255C37.2971 38.5954 37.2693 38.6625 37.2198 38.7119C37.1704 38.7614 37.1033 38.7891 37.0334 38.7891H36.334V39.4885C36.334 39.5584 36.3062 39.6255 36.2568 39.675C36.2074 39.7244 36.1403 39.7522 36.0704 39.7522C36.0004 39.7522 35.9334 39.7244 35.8839 39.675C35.8345 39.6255 35.8067 39.5584 35.8067 39.4885V38.7891H35.1071C35.0371 38.7891 34.9701 38.7614 34.9206 38.7119C34.8712 38.6625 34.8434 38.5954 34.8434 38.5255C34.8434 38.4555 34.8712 38.3885 34.9206 38.339C34.9701 38.2896 35.0371 38.2618 35.1071 38.2618H35.8064V37.5624C35.8064 37.4925 35.8342 37.4254 35.8836 37.376C35.9331 37.3265 36.0002 37.2988 36.0701 37.2988C36.14 37.2988 36.2071 37.3265 36.2565 37.376C36.306 37.4254 36.3338 37.4925 36.3338 37.5624V38.2618H37.0331C37.0678 38.2618 37.1021 38.2686 37.1341 38.2818C37.1661 38.295 37.1952 38.3144 37.2197 38.3389C37.2443 38.3634 37.2637 38.3925 37.277 38.4245C37.2902 38.4565 37.2971 38.4908 37.2971 38.5255ZM44.325 23.1068C44.325 23.1767 44.2972 23.2438 44.2478 23.2932C44.1983 23.3427 44.1313 23.3705 44.0614 23.3705H43.362V24.0698C43.362 24.1397 43.3342 24.2068 43.2848 24.2562C43.2353 24.3057 43.1682 24.3334 43.0983 24.3334C43.0284 24.3334 42.9613 24.3057 42.9119 24.2562C42.8624 24.2068 42.8346 24.1397 42.8346 24.0698V23.3705H42.1353C42.0654 23.3705 41.9983 23.3427 41.9488 23.2932C41.8994 23.2438 41.8716 23.1767 41.8716 23.1068C41.8716 23.0369 41.8994 22.9698 41.9488 22.9203C41.9983 22.8709 42.0654 22.8431 42.1353 22.8431H42.8346V22.1437C42.8346 22.0738 42.8624 22.0067 42.9119 21.9573C42.9613 21.9078 43.0284 21.88 43.0983 21.88C43.1682 21.88 43.2353 21.9078 43.2848 21.9573C43.3342 22.0067 43.362 22.0738 43.362 22.1437V22.8431H44.0614C44.1313 22.8431 44.1983 22.8709 44.2478 22.9203C44.2972 22.9698 44.325 23.0369 44.325 23.1068ZM27.0483 20.6345C27.0483 20.5646 27.0761 20.4975 27.1255 20.448C27.175 20.3986 27.242 20.3708 27.312 20.3708H28.0113V19.6717C28.0113 19.6018 28.0391 19.5347 28.0886 19.4853C28.138 19.4358 28.2051 19.408 28.275 19.408C28.3449 19.408 28.412 19.4358 28.4614 19.4853C28.5109 19.5347 28.5387 19.6018 28.5387 19.6717V20.3708H29.238C29.308 20.3708 29.375 20.3986 29.4245 20.448C29.4739 20.4975 29.5017 20.5646 29.5017 20.6345C29.5017 20.7044 29.4739 20.7715 29.4245 20.8209C29.375 20.8704 29.308 20.8982 29.238 20.8982H28.5387V21.5975C28.5387 21.6675 28.5109 21.7345 28.4614 21.784C28.412 21.8334 28.3449 21.8612 28.275 21.8612C28.2051 21.8612 28.138 21.8334 28.0886 21.784C28.0391 21.7345 28.0113 21.6675 28.0113 21.5975V20.8982H27.312C27.242 20.8982 27.175 20.8704 27.1255 20.8209C27.0761 20.7715 27.0483 20.7044 27.0483 20.6345ZM34.3592 19.3139C34.3592 19.2439 34.387 19.1769 34.4364 19.1274C34.4859 19.078 34.5529 19.0502 34.6228 19.0502H35.3222V18.3508C35.3222 18.2809 35.3499 18.2138 35.3994 18.1644C35.4488 18.1149 35.5159 18.0872 35.5858 18.0872C35.6558 18.0872 35.7228 18.1149 35.7723 18.1644C35.8217 18.2138 35.8495 18.2809 35.8495 18.3508V19.0502H36.5489C36.6188 19.0502 36.6859 19.078 36.7353 19.1274C36.7848 19.1769 36.8125 19.2439 36.8125 19.3139C36.8125 19.3838 36.7848 19.4509 36.7353 19.5003C36.6859 19.5498 36.6188 19.5775 36.5489 19.5775H35.8495V20.2769C35.8495 20.3468 35.8217 20.4139 35.7723 20.4633C35.7228 20.5128 35.6558 20.5406 35.5858 20.5406C35.5159 20.5406 35.4488 20.5128 35.3994 20.4633C35.3499 20.4139 35.3222 20.3468 35.3222 20.2769V19.5775H34.6228C34.5529 19.5775 34.4859 19.5498 34.4364 19.5003C34.387 19.4509 34.3592 19.3838 34.3592 19.3139Z" fill="black"/>
</svg>
