<svg width="65" height="59" viewBox="0 0 65 59" fill="none" xmlns="http://www.w3.org/2000/svg">
<path d="M21.4425 17.3172L15.0802 17.3261L15.0627 6.60476C15.0626 6.53343 15.0766 6.46279 15.1038 6.39686C15.131 6.33093 15.1709 6.271 15.2213 6.2205C15.2716 6.16999 15.3315 6.1299 15.3973 6.10252C15.4632 6.07513 15.5338 6.06099 15.6051 6.06089L20.8811 6.05347C20.9525 6.05337 21.0231 6.06732 21.089 6.09452C21.155 6.12172 21.2149 6.16165 21.2654 6.21201C21.3159 6.26237 21.356 6.32219 21.3834 6.38804C21.4108 6.4539 21.4249 6.5245 21.425 6.59583L21.4425 17.3172Z" fill="#FFB125"/>
<path d="M21.4253 6.59583C21.4252 6.5245 21.4111 6.4539 21.3837 6.38804C21.3563 6.32219 21.3162 6.26237 21.2657 6.21201C21.2152 6.16165 21.1553 6.12172 21.0894 6.09452C21.0234 6.06732 20.9528 6.05337 20.8815 6.05347L17.7358 6.05787C18.0147 6.08026 18.235 6.31106 18.2355 6.59583L18.253 17.3172L15.0806 17.3216V17.326L21.4428 17.3171L21.4253 6.59583Z" fill="#FF901D"/>
<path d="M31.9632 5.85913L14.9207 21.9138L14.9547 46.3206C14.9552 46.6298 15.0784 46.9261 15.2973 47.1445C15.5162 47.3628 15.8129 47.4852 16.1221 47.4848L47.9203 47.4404C48.2295 47.44 48.5258 47.3168 48.7442 47.0978C48.9625 46.8789 49.0849 46.5822 49.0845 46.2731L49.0504 21.8662L31.9632 5.85913Z" fill="#E1EFFB"/>
<path d="M49.0507 21.8661L31.9636 5.85913L29.1533 8.50652L43.4146 21.8661L43.4487 46.2729C43.4489 46.426 43.419 46.5777 43.3606 46.7192C43.3022 46.8607 43.2165 46.9893 43.1084 47.0977C43.0003 47.2061 42.8719 47.2922 42.7306 47.3509C42.5892 47.4097 42.4377 47.4401 42.2846 47.4403H47.9209C48.2301 47.4399 48.5264 47.3166 48.7447 47.0977C48.9631 46.8788 49.0855 46.5821 49.0851 46.2729L49.0507 21.8661Z" fill="#CCDFED"/>
<path d="M55.0625 27.2443C54.4662 27.2458 53.892 27.0192 53.4574 26.611L31.9637 6.47632L10.5264 26.671C9.58416 27.5586 8.10086 27.5142 7.21349 26.5721C6.32587 25.63 6.37014 24.1467 7.31235 23.2592L30.3522 1.55498C31.2529 0.706355 32.6584 0.704468 33.5615 1.55046L56.6619 23.1903C57.6065 24.0751 57.6549 25.5583 56.7699 26.5028C56.5513 26.7368 56.2869 26.9233 55.9932 27.0509C55.6995 27.1784 55.3827 27.2442 55.0625 27.2443Z" fill="#FF4C4C"/>
<path d="M56.77 23.684C56.5514 23.9179 56.287 24.1044 55.9933 24.2319C55.6996 24.3595 55.3828 24.4253 55.0626 24.4253C54.4664 24.4268 53.8921 24.2002 53.4575 23.792L31.9639 3.65723L10.5265 23.8519C9.58431 24.7395 8.101 24.6951 7.21364 23.753C7.15517 23.6907 7.10016 23.6252 7.04887 23.5568C6.37356 24.452 6.41884 25.7282 7.21364 26.5718C8.10088 27.5139 9.58431 27.5583 10.5265 26.6707L31.9639 6.47618L53.4575 26.6108C53.8921 27.019 54.4664 27.2456 55.0626 27.2441C55.3828 27.2441 55.6996 27.1783 55.9933 27.0508C56.287 26.9233 56.5514 26.7367 56.77 26.5028C57.5609 25.6587 57.6041 24.3855 56.9307 23.4925C56.8805 23.5591 56.8269 23.623 56.77 23.684Z" fill="#F33939"/>
<path d="M36.372 25.98L27.6109 25.9922C27.4135 25.9925 27.2243 26.0712 27.0849 26.211C26.9456 26.3507 26.8674 26.5402 26.8677 26.7375L26.8966 47.4696L37.1463 47.4553L37.1174 26.7232C37.1171 26.5258 37.0384 26.3366 36.8986 26.1972C36.7588 26.0579 36.5694 25.9797 36.372 25.98Z" fill="#2D5871"/>
<path d="M37.1174 26.7233C37.1171 26.5259 37.0384 26.3367 36.8986 26.1974C36.7588 26.058 36.5694 25.9798 36.372 25.9801L31.4221 25.987C31.5732 26.0344 31.7053 26.1287 31.7992 26.2563C31.893 26.3839 31.9437 26.538 31.944 26.6964L31.9729 47.4627L37.1463 47.4554L37.1174 26.7233Z" fill="#1D4859"/>
<path d="M58.7273 36.9905L45.8141 45.6327L41.9657 45.4167L41.815 43.9019C41.5907 41.6471 39.8546 39.8374 37.611 39.5199L27.2998 38.3327C24.9212 37.9961 22.631 37.199 20.5574 35.9861C17.7264 34.33 14.5057 33.4571 11.2259 33.4572H3.79175V50.4267L23.44 57.8671C24.1826 58.0768 24.9624 58.1396 25.7245 58.0191L25.7382 58.0169L45.5194 55.1655C47.0434 54.9223 48.4759 54.2804 49.6718 53.305L62.4567 41.8065C63.604 40.7877 63.8167 39.0754 62.9535 37.8067C62.0092 36.4189 60.121 36.0541 58.7273 36.9905Z" fill="#FED9A8"/>
<path d="M63.1223 38.0887L50.4854 48.726C49.2895 49.7014 47.3015 50.3431 45.7775 50.5865L25.7384 52.019C25.7338 52.0198 25.7292 52.0205 25.7246 52.0211C24.9626 52.1415 24.1826 52.0787 23.4401 51.8692L3.79175 44.4287V50.4269L23.44 57.8673C23.8105 57.9725 24.1908 58.0395 24.5749 58.067C24.6707 58.0737 24.7666 58.0778 24.8626 58.0794C25.1557 58.0842 25.4487 58.0634 25.7382 58.0171L45.5194 55.1657C46.0886 55.0747 46.6473 54.9279 47.1876 54.7272C48.0882 54.3928 48.9275 53.9124 49.6719 53.3052L62.4568 41.8066C63.5213 40.8613 63.7796 39.3197 63.1223 38.0887Z" fill="#F4C892"/>
<path d="M6.29723 56.1908H3.35577C2.01007 56.1908 0.919189 55.1 0.919189 53.7543V31.9869C0.919189 30.6412 2.01007 29.5503 3.35577 29.5503H6.29723C7.64294 29.5503 8.73382 30.6412 8.73382 31.9869V53.7543C8.73382 55.1 7.64294 56.1908 6.29723 56.1908Z" fill="#2D5871"/>
<path d="M6.29713 29.5503H3.35567C3.19027 29.5503 3.02889 29.5671 2.8728 29.5986C3.98708 29.8227 4.8264 30.8066 4.8264 31.9869V53.7543C4.8264 54.9346 3.98708 55.9184 2.8728 56.1425C3.02889 56.174 3.19039 56.1908 3.35567 56.1908H6.29713C7.64283 56.1908 8.73371 55.1 8.73371 53.7543V31.9869C8.73371 30.6412 7.64283 29.5503 6.29713 29.5503Z" fill="#1D4859"/>
<path d="M63.7134 37.2899C62.4885 35.4897 60.0217 35.0133 58.216 36.2268L49.9976 41.7268L49.9737 24.6071L52.8289 27.2818C53.4327 27.8491 54.2303 28.1644 55.0588 28.1634H55.0638C55.5093 28.1621 55.9499 28.0699 56.3586 27.8924C56.7673 27.715 57.1355 27.456 57.4407 27.1313C58.0365 26.4953 58.3491 25.6654 58.3207 24.7942C58.2922 23.9231 57.9262 23.1152 57.2902 22.5194L51.8773 17.4488C51.6983 17.2882 51.4636 17.2042 51.2234 17.2146C50.9832 17.225 50.7567 17.3291 50.5923 17.5046C50.4279 17.68 50.3388 17.9129 50.3441 18.1532C50.3493 18.3936 50.4485 18.6223 50.6204 18.7905L56.0333 23.8611C56.1702 23.9886 56.2805 24.1421 56.3577 24.3125C56.4349 24.483 56.4776 24.6671 56.4832 24.8541C56.4898 25.0411 56.4592 25.2276 56.3932 25.4027C56.3273 25.5778 56.2272 25.7381 56.0989 25.8743C55.9664 26.017 55.8057 26.1307 55.6271 26.2082C55.4485 26.2857 55.2557 26.3255 55.061 26.3248H55.0588C54.6962 26.3248 54.3507 26.1882 54.0857 25.94L49.6802 21.813L49.6799 21.8128L32.5923 5.80532C32.4216 5.64545 32.1964 5.55664 31.9626 5.55697C31.7287 5.5573 31.5038 5.64674 31.3336 5.80708L14.2915 21.8612L14.2912 21.8615L9.89614 26.0017C9.76018 26.1303 9.60013 26.2306 9.42521 26.297C9.25029 26.3634 9.06396 26.3945 8.87695 26.3886C8.68987 26.3836 8.50566 26.3414 8.33499 26.2646C8.16431 26.1879 8.01057 26.078 7.88267 25.9413C7.75398 25.8055 7.65352 25.6455 7.58711 25.4706C7.5207 25.2957 7.48966 25.1093 7.49578 24.9223C7.50085 24.7352 7.54296 24.551 7.61969 24.3804C7.69642 24.2097 7.80624 24.0559 7.9428 23.928L30.9826 2.22402C31.5287 1.70946 32.3855 1.7082 32.933 2.22138L46.4123 14.8486C46.5004 14.9311 46.6039 14.9954 46.7169 15.038C46.8299 15.0805 46.9501 15.1004 47.0707 15.0964C47.1914 15.0925 47.3101 15.0649 47.4201 15.015C47.53 14.9652 47.6291 14.8943 47.7116 14.8062C47.7941 14.7181 47.8585 14.6146 47.901 14.5016C47.9436 14.3886 47.9634 14.2684 47.9595 14.1477C47.9556 14.0271 47.9279 13.9084 47.8781 13.7984C47.8283 13.6885 47.7573 13.5894 47.6692 13.5069L34.19 0.879699C32.9356 -0.295577 30.9731 -0.292935 29.722 0.885862L22.3465 7.83387L22.3445 6.59458C22.3447 6.40246 22.3069 6.2122 22.2331 6.03481C22.1593 5.85743 22.0511 5.69644 21.9147 5.56118C21.7793 5.42539 21.6183 5.31775 21.4411 5.24448C21.2639 5.17121 21.0739 5.13376 20.8821 5.13429H20.88L15.604 5.14171C15.4119 5.14145 15.2216 5.1793 15.0442 5.25307C14.8668 5.32684 14.7058 5.43507 14.5706 5.57149C14.4345 5.70718 14.3268 5.86851 14.2535 6.04613C14.1803 6.22375 14.143 6.41414 14.1438 6.60627L14.1584 15.5475L6.68224 22.5902C6.04781 23.1878 5.68419 23.9967 5.65815 24.8678C5.63212 25.739 5.94694 26.5681 6.54451 27.2023C7.14196 27.8367 7.95085 28.2005 8.82211 28.2265C8.85545 28.2275 8.88878 28.228 8.92211 28.228C9.75665 28.228 10.5469 27.9148 11.1568 27.34L14.0056 24.6564L14.0169 32.7428C13.0927 32.6074 12.1599 32.539 11.2259 32.5382H9.65301V31.987C9.65301 30.1367 8.14756 28.6312 6.29723 28.6312H3.35577C1.50544 28.6311 0 30.1364 0 31.9869V46.3908C0 46.6346 0.096843 46.8684 0.269225 47.0408C0.441606 47.2132 0.675406 47.31 0.91919 47.31C1.16297 47.31 1.39677 47.2132 1.56916 47.0408C1.74154 46.8684 1.83838 46.6346 1.83838 46.3908V31.9869C1.83838 31.1502 2.51909 30.4695 3.35577 30.4695H6.29711C7.13379 30.4695 7.8145 31.1502 7.8145 31.9869V53.7543C7.8145 54.591 7.13379 55.2717 6.29711 55.2717H3.35577C2.51909 55.2717 1.83838 54.591 1.83838 53.7543V52.1458C1.83838 51.902 1.74154 51.6682 1.56916 51.4959C1.39677 51.3235 1.16297 51.2266 0.91919 51.2266C0.675406 51.2266 0.441606 51.3235 0.269225 51.4959C0.096843 51.6682 0 51.902 0 52.1458L0 53.7543C0 55.6046 1.50544 57.11 3.35577 57.11H6.29711C8.14744 57.11 9.65288 55.6047 9.65288 53.7543V53.6294L23.1142 58.7269C23.1391 58.7364 23.1644 58.7447 23.1901 58.7518C23.7753 58.9171 24.3603 59 24.9379 59C25.2503 59 25.5606 58.9757 25.8678 58.9272L45.6504 56.0755L45.6642 56.0734C47.348 55.804 48.9308 55.0947 50.2526 54.0174C50.264 54.0081 50.2754 53.9984 50.2863 53.9885L63.0668 42.4938C64.5551 41.1725 64.833 38.9353 63.7134 37.2899ZM20.5066 6.9733L20.5108 9.56308L15.9939 13.8182L15.9827 6.97946L20.5066 6.9733ZM15.8558 33.0994L15.8416 22.9267L31.9655 7.73728L48.1328 22.8825L48.1609 42.9559L45.5584 44.6977L42.8025 44.5431L42.7296 43.8111C42.6079 42.5641 42.0871 41.3897 41.2446 40.4624C40.402 39.5351 39.2828 38.9044 38.0532 38.664L38.0366 26.7219C38.0353 25.8055 37.2892 25.0608 36.3729 25.0608H36.3707L27.6097 25.0731C27.3911 25.0728 27.1747 25.1158 26.9729 25.1998C26.7711 25.2837 26.5879 25.4068 26.434 25.562C26.2793 25.7163 26.1567 25.8998 26.0733 26.1018C25.9899 26.3038 25.9475 26.5204 25.9484 26.7389L25.963 37.151C24.2255 36.7542 22.5591 36.0938 21.0214 35.1929C20.8282 35.08 20.633 34.9705 20.436 34.8645C20.3593 34.8231 20.2813 34.7842 20.2039 34.7438C20.0842 34.6813 19.9647 34.6184 19.8437 34.5584C19.7474 34.5106 19.6499 34.4654 19.5528 34.4192C19.4498 34.3703 19.3469 34.3208 19.2431 34.2737C19.1375 34.2258 19.0309 34.1801 18.9245 34.1341C18.8273 34.0921 18.7301 34.0498 18.6322 34.0094C18.5228 33.9643 18.4127 33.9209 18.3026 33.8777C18.2048 33.8395 18.107 33.8015 18.0087 33.7648C17.8997 33.724 17.7901 33.6847 17.6803 33.646C17.3612 33.5334 17.0391 33.4293 16.7145 33.3337C16.617 33.3051 16.5196 33.2764 16.4217 33.2492C16.2936 33.2139 16.1653 33.18 16.0365 33.1473C15.9763 33.1319 15.9164 33.1144 15.8558 33.0994ZM27.7871 26.9112L36.1985 26.8994L36.2146 38.4339L28.5263 37.5488L27.802 37.4654L27.7871 26.9112ZM61.842 41.1232L49.074 52.6065C48.0085 53.4701 46.7352 54.0392 45.3811 54.257L25.607 57.1074L25.5947 57.1093L25.581 57.1114C24.9819 57.2063 24.358 57.1663 23.7265 56.9929L9.65301 51.6635V34.3764H11.2259C12.6097 34.3769 13.9886 34.5411 15.3339 34.8655C15.493 34.9038 15.6518 34.9433 15.8097 34.9861L15.8511 34.9977C16.0095 35.0409 16.1672 35.0866 16.3244 35.1343C16.3526 35.1428 16.3809 35.1512 16.409 35.1599C16.5762 35.2116 16.7428 35.2656 16.9084 35.3222L16.9596 35.34C17.3237 35.4657 17.6836 35.6034 18.0387 35.7528C18.2114 35.8254 18.383 35.9008 18.5534 35.9789C18.7138 36.0526 18.8732 36.129 19.0316 36.2077C19.0502 36.2168 19.0689 36.2259 19.0875 36.2352C19.2422 36.3126 19.3957 36.3927 19.5483 36.4747C19.5771 36.4901 19.6057 36.506 19.6346 36.5216C19.7885 36.6055 19.9416 36.691 20.0931 36.7797C22.2806 38.0592 24.6618 38.888 27.1708 39.2431C27.1788 39.2442 27.1866 39.2452 27.1945 39.2461L37.4934 40.4318C38.263 40.5413 38.9837 40.8734 39.567 41.3873C40.1503 41.9011 40.5707 42.5743 40.7763 43.324C40.8357 43.54 40.8774 43.7637 40.9003 43.993L40.9412 44.4043L21.6392 42.7132C21.519 42.7026 21.3978 42.7159 21.2827 42.7522C21.1676 42.7884 21.0607 42.847 20.9682 42.9246C20.7815 43.0813 20.6646 43.3057 20.6433 43.5486C20.622 43.7914 20.6981 44.0328 20.8547 44.2196C21.0114 44.4063 21.2359 44.5232 21.4787 44.5445L41.8853 46.3325C41.8902 46.3328 41.895 46.3327 41.8998 46.3331C41.9045 46.3335 41.9092 46.3342 41.9141 46.3346L45.7625 46.5506C45.7798 46.5516 45.7969 46.5519 45.814 46.5519C45.8322 46.5519 45.8502 46.549 45.8683 46.5479C45.8888 46.5467 45.9093 46.5459 45.9297 46.5434C45.9571 46.5399 45.9839 46.534 46.0108 46.528C46.0301 46.5238 46.0495 46.5206 46.0683 46.5151C46.0977 46.5067 46.126 46.4952 46.1546 46.4838C46.1699 46.4776 46.1858 46.4729 46.2009 46.4659C46.2438 46.446 46.2855 46.4231 46.3253 46.3965L49.592 44.2103L49.5924 44.2099L59.2399 37.7535C60.2105 37.1011 61.5354 37.357 62.1934 38.324C62.7949 39.2077 62.6456 40.4095 61.842 41.1232Z" fill="black"/>
</svg>
