<svg width="64" height="64" viewBox="0 0 64 64" fill="none" xmlns="http://www.w3.org/2000/svg">
<path d="M31.9813 63.9625C49.644 63.9625 63.9625 49.644 63.9625 31.9813C63.9625 14.3185 49.644 0 31.9813 0C14.3185 0 0 14.3185 0 31.9813C0 49.644 14.3185 63.9625 31.9813 63.9625Z" fill="#FFD200"/>
<path d="M31.9812 62.3128C48.7329 62.3128 62.3128 48.7329 62.3128 31.9812C62.3128 15.2296 48.7329 1.64966 31.9812 1.64966C15.2296 1.64966 1.64966 15.2296 1.64966 31.9812C1.64966 48.7329 15.2296 62.3128 31.9812 62.3128Z" fill="#FFAA00"/>
<path d="M31.9811 61.0381C48.0288 61.0381 61.038 48.0289 61.038 31.9813C61.038 15.9336 48.0288 2.92444 31.9811 2.92444C15.9335 2.92444 2.92432 15.9336 2.92432 31.9813C2.92432 48.0289 15.9335 61.0381 31.9811 61.0381Z" fill="#FFF9DD"/>
<path fill-rule="evenodd" clip-rule="evenodd" d="M19.0087 9.52317C18.7088 9.67314 18.3338 9.59815 18.1464 9.29821C17.9589 8.96078 18.0714 8.58585 18.3713 8.39839C19.4211 7.836 20.4709 7.3111 21.5582 6.82369C22.683 6.37378 23.8078 5.99885 24.9326 5.69891C30.8939 4.08673 37.0052 4.61163 42.4041 6.82369C47.8031 9.07325 52.4897 13.0475 55.5641 18.3714C55.5641 18.4089 55.6016 18.4089 55.6016 18.4089C55.939 19.0088 56.2389 19.6087 56.5389 20.1711C56.8388 20.8085 57.1013 21.4083 57.3262 22.0457C57.4762 22.3457 57.2887 22.7206 56.9888 22.8706C56.6514 22.983 56.2764 22.8331 56.164 22.4956C55.9015 21.8958 55.6766 21.2959 55.3766 20.7335C55.1142 20.1711 54.8142 19.6087 54.4768 19.0463V19.0088C51.5524 13.9473 47.0907 10.1605 41.9167 8.02346C36.7802 5.88638 30.9689 5.39897 25.27 6.93617C24.1827 7.23611 23.0954 7.57355 22.0456 8.02346C20.9958 8.43588 19.9835 8.96078 19.0087 9.52317ZM10.1604 17.959C9.97298 18.259 9.56056 18.3339 9.29811 18.1465C8.99817 17.959 8.88569 17.5466 9.07316 17.2842C9.52307 16.6093 10.0105 15.9344 10.4979 15.297C10.9853 14.6222 11.5102 14.0223 12.0726 13.4224C12.2975 13.16 12.7099 13.16 12.9724 13.3849C13.2348 13.6474 13.2348 14.0223 13.0099 14.2847C12.485 14.8471 11.9601 15.447 11.5102 16.0469C11.0228 16.6843 10.5729 17.2842 10.1604 17.959ZM53.8019 46.116C53.9894 45.8161 54.3643 45.7411 54.6643 45.9286C54.9642 46.116 55.0392 46.4909 54.8517 46.7909C53.6894 48.5905 52.3397 50.2402 50.765 51.7399C49.2278 53.1646 47.5032 54.4769 45.591 55.5642C39.1048 59.3134 31.6812 60.1008 24.9326 58.3011C18.2214 56.5015 12.1851 52.1148 8.39829 45.5911V45.5536C6.41118 42.1418 5.2864 38.4675 4.91147 34.7932C4.49905 30.969 4.94896 27.1072 6.14873 23.4704C6.26121 23.133 6.59864 22.9455 6.93608 23.058C7.27351 23.1705 7.46097 23.5454 7.3485 23.8829C6.22371 27.3322 5.8113 31.0065 6.18622 34.6808C6.52366 38.1676 7.61094 41.6919 9.48558 44.9537H9.52307C13.0849 51.1775 18.8587 55.3392 25.27 57.0639C31.6812 58.7885 38.7674 58.0387 44.9537 54.4769H44.9911C46.7908 53.4271 48.4405 52.1898 49.8652 50.8026C51.4024 49.3779 52.6771 47.8032 53.8019 46.116ZM57.9261 33.181C57.9261 32.8061 58.2261 32.5437 58.601 32.5437C58.9384 32.5812 59.2009 32.8811 59.2009 33.2185C59.1634 33.8934 59.1259 34.5308 59.0509 35.1682C58.9759 35.8055 58.8634 36.4429 58.751 37.1178C58.676 37.4552 58.3385 37.6802 58.0011 37.6052C57.6637 37.5302 57.4387 37.1928 57.4762 36.8553C57.5887 36.2554 57.7012 35.6556 57.7761 35.0182C57.8511 34.3808 57.8886 33.7809 57.9261 33.181Z" fill="#FFE0C7"/>
<rect x="41.0469" y="17" width="8.00067" height="32.5931" rx="4.00034" transform="rotate(45 41.0469 17)" fill="#FF5E5E"/>
<rect x="46.8123" y="40.4509" width="8.00067" height="32.5931" rx="4.00034" transform="rotate(135 46.8123 40.4509)" fill="#FF5E5E"/>
</svg>
