<svg width="69" height="79" viewBox="0 0 69 79" fill="none" xmlns="http://www.w3.org/2000/svg">
<path fill-rule="evenodd" clip-rule="evenodd" d="M62.3355 44.1624C66.3781 61.5299 50.7289 68.3613 48.8807 69.1025C48.8009 69.1354 48.727 69.1626 48.7086 69.1698L48.6991 69.172L34.9663 72.3599L34.8766 72.3808L34.7388 72.4043L34.5879 72.4394C33.5813 72.5932 32.5678 72.6981 31.5511 72.7536C26.216 73.0453 16.2121 72.4273 13.1749 63.9908C10.631 56.9285 12.8897 52.582 15.6585 46.8312C17.8898 42.1944 14.0839 36.9879 14.0519 36.9366C14.1439 36.9625 20.0219 38.6154 21.8377 40.7767C22.7449 41.7909 23.5406 42.8996 24.2112 44.0837C24.1399 43.8882 20.9549 35.1492 24.1982 28.0197C27.4782 20.8142 28.0276 18.7043 27.3878 15.5555C26.5801 12.943 25.2809 10.5087 23.5601 8.38359C28.7779 10.2095 33.5279 13.1657 37.4703 17.0408C40.5476 20.0836 42.7509 23.8973 43.8499 28.083C44.7863 26.5891 45.4 24.9158 45.6516 23.1707C45.7 21.2224 45.357 19.2842 44.643 17.4708L48.6562 21.696C53.2562 26.8538 60.4109 35.894 62.3355 44.1624Z" fill="#D75C1E"/>
<path fill-rule="evenodd" clip-rule="evenodd" d="M62.3355 44.1624C60.4108 35.894 53.2561 26.8538 48.6523 21.7041L44.6391 17.4789C45.3531 19.2923 45.6961 21.2305 45.6477 23.1788C45.3965 24.9243 44.7822 26.5978 43.8447 28.0914C42.7464 23.9056 40.5436 20.0918 37.4664 17.0489C35.8836 15.5521 34.1908 14.176 32.4022 12.9323C32.7052 15.5761 31.9394 17.9629 29.0376 24.3365C25.7926 31.465 28.9776 40.204 29.0503 40.3992C28.379 39.2155 27.5833 38.1069 26.6768 37.0921C25.5544 36.0072 24.2184 35.1677 22.7538 34.6274C22.6861 37.8402 23.1779 41.0404 24.2071 44.0847C23.5365 42.9006 22.7408 41.7919 21.8336 40.7777C21.6411 40.5527 21.4276 40.3466 21.1959 40.1622C21.1805 41.1957 20.9423 42.2137 20.4976 43.1467C17.7301 48.8971 15.4704 53.2453 18.014 60.3063C21.0512 68.7428 31.0537 69.3611 36.3877 69.0525C37.5323 68.993 38.6726 68.8673 39.8027 68.676L53.5463 65.4856L53.5545 65.4837L53.7225 65.4173C54.8164 64.9647 55.8749 64.4309 56.8892 63.8203C60.9356 59.8889 64.5259 53.5728 62.3355 44.1624Z" fill="#FF6600"/>
<path fill-rule="evenodd" clip-rule="evenodd" d="M51.78 57.712C53.6393 65.7491 49.3448 68.7996 48.8807 69.1025C48.801 69.1354 48.7271 69.1627 48.7087 69.1698L48.6991 69.172L34.9664 72.36L34.8767 72.3809L34.7388 72.4044L34.5879 72.4395C33.6497 72.5756 32.6923 72.4706 31.8059 72.1343C30.9195 71.798 30.1334 71.2416 29.5215 70.5175C29.1247 70.0506 28.7529 69.5631 28.4076 69.057C28.0803 68.5631 27.8084 68.0348 27.5967 67.4815C26.2659 64.0364 27.6449 60.134 28.7621 58.0381C31.4809 53.2978 33.9466 50.5054 33.8659 45.898C33.7537 43.9293 33.3632 41.9864 32.7061 40.1272C35.2741 41.0252 37.6116 42.4803 39.5509 44.3884C41.0649 45.8851 42.149 47.7611 42.6898 49.8202C43.1523 49.0798 43.4539 48.2503 43.5749 47.3857C43.5985 46.4273 43.4297 45.4739 43.0785 44.5819C43.0785 44.5819 50.3606 51.5775 51.78 57.712Z" fill="#FF8300"/>
<path fill-rule="evenodd" clip-rule="evenodd" d="M43.0743 44.5828C43.4255 45.4748 43.5943 46.4282 43.5707 47.3865C43.4467 48.2449 43.1448 49.0679 42.6842 49.8028C42.1427 47.744 41.0587 45.8681 39.5453 44.3709C39.2441 44.087 38.9441 43.8201 38.6424 43.5707C38.2658 47.4017 36.0318 50.0872 33.5929 54.3367C32.4779 56.4364 31.099 60.3388 32.4288 63.7798C32.4612 63.864 32.5221 63.996 32.6093 64.1677C33.4185 65.7124 34.7128 66.9485 36.293 67.6858C37.8733 68.4231 39.652 68.6208 41.3556 68.2486L44.448 67.5947L45.6933 67.3048C47.7532 66.8447 49.5489 65.5917 50.6916 63.8171C51.8343 62.0426 52.2321 59.8893 51.7986 57.8236L51.7721 57.7094C50.3605 51.5774 43.0743 44.5828 43.0743 44.5828Z" fill="#FFA511"/>
<path d="M49.4131 20.9824L45.3999 16.7572C45.2317 16.5802 45.0069 16.4675 44.7644 16.4387C44.5219 16.4099 44.2769 16.4668 44.0719 16.5996C43.8669 16.7323 43.7148 16.9326 43.6419 17.1656C43.5689 17.3987 43.5798 17.6499 43.6725 17.8759C44.3254 19.5335 44.644 21.3038 44.6099 23.085C44.5243 23.8461 44.3402 24.5928 44.0621 25.3063C42.7949 21.9024 40.7885 18.8217 38.1876 16.2863C34.1292 12.2851 29.2284 9.24096 23.843 7.37615C23.6291 7.31725 23.4022 7.32723 23.1943 7.40469C22.9865 7.48214 22.8083 7.62313 22.6851 7.80762C22.5621 7.99255 22.5014 8.21193 22.5118 8.43378C22.5222 8.65564 22.6032 8.86837 22.7429 9.041C24.3589 11.0362 25.5868 13.3166 26.363 15.764C26.9444 18.6253 26.4201 20.6148 23.2464 27.5877C21.7084 31.3539 21.2807 35.4816 22.0139 39.4831C19.6676 37.4625 14.9196 36.0955 14.3341 35.9322C14.1245 35.8744 13.902 35.8833 13.6976 35.9575C13.4932 36.0317 13.317 36.1677 13.1933 36.3465C13.0696 36.5253 13.0046 36.7382 13.0072 36.9557C13.0099 37.1731 13.0801 37.3843 13.2082 37.5601C13.2437 37.6077 16.6537 42.3574 14.7182 46.3808L14.4969 46.8336C11.8519 52.322 9.56783 57.0585 12.1914 64.3459C16.6506 76.7308 34.4049 73.5311 35.1589 73.39C35.2941 73.3644 35.423 73.3125 35.5381 73.2372C35.6532 73.1618 35.7524 73.0646 35.83 72.9509C35.9075 72.8372 35.9619 72.7094 35.99 72.5747C36.0182 72.44 36.0195 72.3011 35.994 72.1659C35.9684 72.0307 35.9165 71.9018 35.8412 71.7867C35.7658 71.6715 35.6685 71.5724 35.5549 71.4948C35.4412 71.4173 35.3134 71.3629 35.1787 71.3347C35.044 71.3066 34.9051 71.3053 34.7699 71.3308C34.6024 71.3626 18.0151 74.3423 14.1613 63.6351C11.8351 57.1756 13.7428 53.2175 16.3836 47.7416L16.604 47.2847C17.171 45.9286 17.436 44.4654 17.3807 42.9966C17.3254 41.5277 16.9511 40.0886 16.2837 38.779C18.0374 39.3267 19.6567 40.2363 21.0369 41.4489C21.8856 42.4002 22.6344 43.4361 23.2714 44.5403C23.3878 44.7836 23.5936 44.9726 23.8459 45.0678C24.0982 45.1631 24.3775 45.1573 24.6257 45.0517C24.8738 44.9461 25.0716 44.7488 25.1779 44.5009C25.2841 44.253 25.2906 43.9737 25.196 43.7212C25.1649 43.6367 22.0956 35.1732 25.1548 28.4534C28.3787 21.3699 29.1462 18.9412 28.4168 15.3461C28.001 13.6783 27.3165 12.0892 26.3902 10.6413C30.197 12.4735 33.6931 14.891 36.7513 17.8058C39.669 20.7111 41.7651 24.3373 42.8264 28.3155C42.8719 28.5163 42.9756 28.6991 43.1243 28.8414C43.2731 28.9836 43.4605 29.0789 43.6631 29.1153C43.8656 29.1518 44.0745 29.1278 44.2635 29.0463C44.4525 28.9649 44.6134 28.8296 44.726 28.6573C45.7554 27.0238 46.4258 25.1902 46.6928 23.2781C46.7533 22.5534 46.7355 21.8243 46.6395 21.1035L47.8754 22.4052C52.0783 27.1064 59.4132 36.2251 61.3163 44.4011C64.0956 56.3415 57.1917 63.0075 52.4229 66.0767C53.4593 63.323 53.5924 60.311 52.803 57.4767C51.3312 51.1107 44.1052 44.1222 43.8029 43.8271C43.6298 43.6615 43.4053 43.5601 43.1666 43.5399C42.9279 43.5196 42.6895 43.5818 42.491 43.7159C42.2926 43.8501 42.146 44.0481 42.0758 44.2772C42.0056 44.5062 42.016 44.7523 42.1051 44.9747C42.3005 45.4844 42.4361 46.015 42.5091 46.556C41.92 45.4629 41.1634 44.4687 40.2668 43.6097C38.2072 41.5832 35.7206 40.0428 32.9889 39.1011C32.8034 39.0489 32.6071 39.0489 32.4216 39.1012C32.2361 39.1534 32.0686 39.2559 31.9376 39.3972C31.8066 39.5386 31.7171 39.7133 31.6791 39.9023C31.6411 40.0912 31.6559 40.287 31.722 40.468C32.3373 42.219 32.7059 44.0471 32.8173 45.8998C32.8821 49.2569 31.4546 51.5712 29.486 54.7754C28.9664 55.6215 28.4144 56.5196 27.8342 57.5303C27.1273 58.8585 24.953 63.5308 26.6194 67.8451C26.8579 68.4696 27.1649 69.0658 27.5347 69.6227C27.6056 69.748 27.7016 69.8574 27.8167 69.9439C27.9318 70.0304 28.0635 70.0923 28.2035 70.1257C28.3436 70.159 28.4891 70.1631 28.6308 70.1376C28.7725 70.1122 28.9075 70.0578 29.0272 69.9779C29.147 69.8979 29.249 69.7941 29.3268 69.6729C29.4046 69.5518 29.4566 69.4159 29.4795 69.2737C29.5024 69.1316 29.4957 68.9862 29.4599 68.8467C29.424 68.7073 29.3598 68.5767 29.2712 68.4632C28.9875 68.0325 28.7512 67.5724 28.5663 67.0909C27.2203 63.605 29.077 59.643 29.662 58.5423C30.1809 57.6445 30.715 56.7557 31.2643 55.8763C33.345 52.5013 34.9766 49.8385 34.9052 45.8681C34.8571 44.5413 34.6652 43.2237 34.333 41.9383C35.9734 42.7882 37.4858 43.8653 38.8253 45.1376C40.1853 46.4932 41.1636 48.1835 41.6614 50.0381C41.7066 50.2389 41.81 50.4219 41.9586 50.5643C42.1072 50.7067 42.2946 50.8021 42.4971 50.8386C42.6997 50.8751 42.9085 50.8511 43.0975 50.7696C43.2865 50.688 43.4473 50.5526 43.5597 50.3801C44.0719 49.57 44.4197 48.667 44.5835 47.7227C46.7761 50.2219 49.9131 54.2971 50.7586 57.954C52.5097 65.5262 48.3427 68.17 48.1734 68.2739C47.9611 68.4024 47.8013 68.602 47.7225 68.8373C47.6437 69.0726 47.651 69.3283 47.7432 69.5587C47.8354 69.7891 48.0064 69.9792 48.2258 70.0952C48.4451 70.2112 48.6986 70.2455 48.9409 70.192C48.983 70.1822 49.0252 70.1724 49.0657 70.1558C49.2531 70.0864 67.8079 63.0544 63.3555 43.9264C61.4467 35.726 54.7328 26.9357 49.4131 20.9824Z" fill="black"/>
</svg>
