<svg width="56" height="59" viewBox="0 0 56 59" fill="none" xmlns="http://www.w3.org/2000/svg">
<path d="M5.34863 46.769C10.7689 39.3699 17.7746 29.4653 21.4024 21.7296L36.8244 37.1516C28.4953 41.1237 18.5572 48.0347 11.785 53.2054L5.34863 46.769Z" fill="#FFDF40"/>
<path d="M35.5579 35.8857L36.8244 37.1522C28.4952 41.1243 18.5572 48.0352 11.7849 53.206L10.5334 51.9546L10.5941 51.8938C18.3314 45.6977 26.6986 40.3322 35.5579 35.8857Z" fill="#FFBE40"/>
<path d="M21.4018 19.1252C21.7473 18.7799 22.2157 18.5859 22.7042 18.5859C23.1926 18.5859 23.661 18.7799 24.0065 19.1252L39.4285 34.5474C39.7621 34.8952 39.9461 35.3599 39.9411 35.8417C39.936 36.3236 39.7424 36.7843 39.4016 37.1251C39.0608 37.4659 38.6001 37.6595 38.1182 37.6645C37.6363 37.6695 37.1717 37.4855 36.8239 37.1519L21.4018 21.7299C21.0565 21.3844 20.8625 20.916 20.8625 20.4276C20.8625 19.9391 21.0565 19.4707 21.4018 19.1252Z" fill="#66CCFF"/>
<path d="M39.428 37.1519C39.0826 37.4972 38.6141 37.6912 38.1257 37.6912C37.6372 37.6912 37.1688 37.4972 36.8233 37.1519L35.5569 35.8854L38.1615 33.2809L39.428 34.5473C39.7733 34.8928 39.9672 35.3612 39.9672 35.8496C39.9672 36.338 39.7733 36.8064 39.428 37.1519Z" fill="#4DA6FF"/>
<path d="M3.98584 48.1312L5.34786 46.7693L11.7838 53.2052L10.4218 54.5672C9.5649 55.4042 8.41265 55.8696 7.21488 55.8626C6.01711 55.8555 4.87041 55.3766 4.02345 54.5296C3.17648 53.6827 2.69755 52.536 2.69051 51.3382C2.68347 50.1404 3.14889 48.9881 3.98584 48.1312Z" fill="#66CCFF"/>
<path d="M10.5329 51.9545L11.784 53.2055L10.422 54.5675C9.56851 55.4209 8.41099 55.9003 7.20405 55.9003C5.9971 55.9003 4.83958 55.4209 3.98608 54.5675C5.51735 55.1395 6.99393 54.9998 8.41052 54.0772L10.5329 51.9545Z" fill="#4DA6FF"/>
<path d="M36.8395 37.7851C37.3347 38.1315 37.9418 38.2797 38.541 38.2005C39.1402 38.1214 39.6879 37.8205 40.0761 37.3573C40.4644 36.8941 40.6649 36.3022 40.6382 35.6984C40.6115 35.0946 40.3595 34.5228 39.9318 34.0957L24.5097 18.6736C24.0825 18.2461 23.5106 17.9942 22.9068 17.9676C22.303 17.9411 21.7112 18.1417 21.2481 18.5301C20.785 18.9184 20.4842 19.4662 20.4052 20.0654C20.3261 20.6645 20.4744 21.2716 20.8209 21.7668C17.1994 29.354 10.4859 38.8669 5.00596 46.3489L3.67526 47.6796C3.10001 48.2552 2.67018 48.9597 2.42139 49.7345C2.1726 50.5093 2.112 51.3323 2.24462 52.1352L1.10549 53.2745C0.394087 53.9858 0.0117312 54.8125 0.00021792 55.6652C-0.00446065 56.0447 0.0662371 56.4212 0.208212 56.7731C0.350186 57.1251 0.560612 57.4453 0.827286 57.7152C1.09396 57.9852 1.41158 58.1995 1.76172 58.3458C2.11186 58.4921 2.48756 58.5674 2.86702 58.5674C3.65971 58.5674 4.51711 58.2413 5.29494 57.4635L6.40839 56.35C6.70312 56.4022 7.00183 56.4286 7.30113 56.429C7.9742 56.4301 8.64086 56.2983 9.26283 56.0411C9.88481 55.7838 10.4498 55.4063 10.9255 54.9301L12.26 53.5956C16.5316 50.3358 27.338 42.3804 36.8395 37.7851ZM35.9414 36.9423C26.7092 41.4794 16.3963 49.0088 11.9325 52.3984L6.20012 46.6664C11.5624 39.334 18.0222 30.148 21.6664 22.6676L35.9414 36.9423ZM21.9055 19.4882C22.1431 19.2511 22.4651 19.1179 22.8008 19.1179C23.1365 19.1179 23.4585 19.2511 23.6962 19.4882L39.1182 34.9102C39.3464 35.1495 39.472 35.4686 39.4681 35.7993C39.4641 36.13 39.331 36.446 39.0972 36.6798C38.8633 36.9137 38.5473 37.0467 38.2166 37.0506C37.8859 37.0545 37.5668 36.9289 37.3275 36.7007L21.9055 21.2786C21.6682 21.041 21.5349 20.719 21.5348 20.3833C21.5347 20.0475 21.6679 19.7254 21.905 19.4877L21.9055 19.4882ZM4.48038 56.6495C3.98531 57.1446 3.4344 57.4105 2.8874 57.4182C2.6586 57.4214 2.4315 57.3785 2.21965 57.292C2.0078 57.2055 1.81554 57.0773 1.65433 56.9149C1.01696 56.2775 0.851855 55.1566 1.91914 54.0888L2.61788 53.3902C3.12424 54.5304 4.02984 55.4461 5.16427 55.9652L4.48038 56.6495ZM10.1118 54.1159C9.74336 54.4885 9.30494 54.7846 8.82171 54.9872C8.33847 55.1898 7.81996 55.2948 7.29598 55.2963C6.772 55.2978 6.25289 55.1957 5.76851 54.9959C5.28412 54.7961 4.84402 54.5025 4.47351 54.1319C4.103 53.7614 3.80939 53.3213 3.60956 52.837C3.40973 52.3526 3.30763 51.8335 3.30912 51.3095C3.31061 50.7855 3.41568 50.267 3.61827 49.7838C3.82085 49.3005 4.11697 48.8621 4.48959 48.4937L5.44519 47.5388L11.0674 53.1611L10.1118 54.1159ZM30.2004 21.9687C30.1469 21.9153 30.1045 21.8518 30.0755 21.7819C30.0466 21.7121 30.0317 21.6372 30.0317 21.5616C30.0317 21.486 30.0466 21.4111 30.0755 21.3413C30.1045 21.2714 30.1469 21.208 30.2004 21.1545C33.0415 18.3135 35.2366 12.4809 33.3427 6.3886C33.2989 6.24325 33.3143 6.08648 33.3855 5.95242C33.4567 5.81836 33.578 5.71787 33.723 5.67281C33.868 5.62775 34.0249 5.64178 34.1595 5.71184C34.2942 5.7819 34.3958 5.90232 34.4421 6.04689C35.3414 8.94932 35.4448 12.04 34.7414 14.996C34.0903 17.7401 32.7667 20.2163 31.0142 21.9687C30.9063 22.0766 30.7599 22.1373 30.6072 22.1373C30.4546 22.1373 30.3082 22.0766 30.2002 21.9687H30.2004ZM51.0483 24.0943C44.9561 22.2 39.1235 24.3955 36.2824 27.2366C36.2292 27.2912 36.1656 27.3346 36.0955 27.3645C36.0254 27.3943 35.95 27.4099 35.8738 27.4104C35.7976 27.4109 35.7221 27.3962 35.6516 27.3673C35.5811 27.3383 35.517 27.2956 35.4631 27.2418C35.4092 27.1879 35.3666 27.1238 35.3376 27.0533C35.3087 26.9828 35.2941 26.9072 35.2946 26.831C35.295 26.7548 35.3107 26.6795 35.3405 26.6093C35.3703 26.5392 35.4138 26.4757 35.4684 26.4225C37.2207 24.6702 39.6969 23.3465 42.4409 22.6953C45.397 21.992 48.4876 22.0954 51.3901 22.9947C51.5353 23.0405 51.6565 23.1419 51.727 23.2769C51.7976 23.4118 51.8119 23.5692 51.7666 23.7146C51.7214 23.86 51.6205 23.9816 51.4858 24.0527C51.3512 24.1238 51.1938 24.1387 51.0483 24.0941V24.0943ZM36.3499 12.1046C36.4335 12.975 36.8763 13.8513 37.5971 14.572C38.5028 15.5022 39.6822 16.1187 40.963 16.3314C38.082 19.9005 32.8534 23.5685 32.7966 23.6078C32.6728 23.6957 32.5888 23.829 32.5629 23.9786C32.5369 24.1282 32.5711 24.282 32.658 24.4065C32.7449 24.531 32.8775 24.6161 33.0268 24.6433C33.1762 24.6705 33.3303 24.6377 33.4555 24.5518C33.7076 24.3758 39.5513 20.276 42.3898 16.3618C43.7677 16.2121 45.0791 15.5443 46.2158 14.4076C49.1063 11.5171 47.3291 7.82535 47.3109 7.78839C47.2774 7.72063 47.2308 7.66014 47.1739 7.61037C47.117 7.56061 47.0509 7.52254 46.9792 7.49834C46.9076 7.47414 46.8319 7.46428 46.7565 7.46934C46.6811 7.47439 46.6074 7.49425 46.5396 7.52779C46.4718 7.56132 46.4113 7.60787 46.3616 7.66478C46.3118 7.7217 46.2737 7.78785 46.2495 7.85948C46.2253 7.9311 46.2155 8.00679 46.2205 8.08223C46.2256 8.15766 46.2455 8.23136 46.279 8.29912C46.2936 8.32871 47.7146 11.2811 45.4017 13.5934C44.7728 14.2464 43.9966 14.7392 43.1381 15.0304C43.7828 13.4761 44.1605 11.1043 42.6125 9.55637C42.012 8.96595 41.2429 8.5766 40.4116 8.44211C39.6214 8.32583 38.4341 8.4306 37.2699 9.59494C36.9381 9.91745 36.6831 10.3105 36.5239 10.7449C36.3646 11.1794 36.3052 11.6441 36.3499 12.1046ZM38.084 10.4094C38.6509 9.84247 39.2642 9.55671 39.9116 9.55671C40.0227 9.55685 40.1338 9.56509 40.2437 9.58135C40.8301 9.68018 41.3723 9.95556 41.798 10.3707C43.0907 11.6634 42.4435 14.075 41.7559 15.2432H41.7534C40.5456 15.2331 39.3586 14.7056 38.4109 13.758C37.8788 13.2259 37.5538 12.5998 37.4957 11.9949C37.4667 11.7033 37.5046 11.4089 37.6066 11.1341C37.7085 10.8594 37.8718 10.6115 38.084 10.4094ZM11.4726 19.4198C11.4726 19.2671 11.5333 19.1207 11.6412 19.0127C11.7492 18.9048 11.8956 18.8441 12.0483 18.8441H13.5752V17.3172C13.5752 17.1646 13.6358 17.0181 13.7438 16.9102C13.8517 16.8022 13.9982 16.7416 14.1508 16.7416C14.3035 16.7416 14.4499 16.8022 14.5579 16.9102C14.6659 17.0181 14.7265 17.1646 14.7265 17.3172V18.8441H16.2534C16.4061 18.8441 16.5525 18.9048 16.6605 19.0127C16.7684 19.1207 16.8291 19.2671 16.8291 19.4198C16.8291 19.5725 16.7684 19.7189 16.6605 19.8269C16.5525 19.9348 16.4061 19.9955 16.2534 19.9955H14.7265V21.5224C14.7265 21.675 14.6659 21.8214 14.5579 21.9294C14.4499 22.0374 14.3035 22.098 14.1508 22.098C13.9982 22.098 13.8517 22.0374 13.7438 21.9294C13.6358 21.8214 13.5752 21.675 13.5752 21.5224V19.9955H12.0483C11.8956 19.9955 11.7492 19.9348 11.6412 19.8269C11.5333 19.7189 11.4726 19.5725 11.4726 19.4198ZM54.6972 32.6978C54.6972 32.8505 54.6365 32.9969 54.5285 33.1049C54.4206 33.2128 54.2742 33.2735 54.1215 33.2735H52.5946V34.8004C52.5946 34.9531 52.534 35.0995 52.426 35.2074C52.318 35.3154 52.1716 35.376 52.0189 35.376C51.8663 35.376 51.7198 35.3154 51.6119 35.2074C51.5039 35.0995 51.4433 34.9531 51.4433 34.8004V33.2735H49.9164C49.7637 33.2735 49.6173 33.2128 49.5093 33.1049C49.4014 32.9969 49.3407 32.8505 49.3407 32.6978C49.3407 32.5452 49.4014 32.3987 49.5093 32.2908C49.6173 32.1828 49.7637 32.1222 49.9164 32.1222H51.4433V30.5953C51.4433 30.4426 51.5039 30.2962 51.6119 30.1882C51.7198 30.0803 51.8663 30.0196 52.0189 30.0196C52.1716 30.0196 52.318 30.0803 52.426 30.1882C52.534 30.2962 52.5946 30.4426 52.5946 30.5953V32.1222H54.1215C54.2742 32.1222 54.4206 32.1828 54.5285 32.2908C54.6365 32.3987 54.6972 32.5452 54.6972 32.6978ZM40.6561 44.6221C40.6561 44.7748 40.5955 44.9212 40.4875 45.0292C40.3796 45.1371 40.2331 45.1978 40.0805 45.1978H38.5536V46.7247C38.5536 46.8774 38.4929 47.0238 38.385 47.1317C38.277 47.2397 38.1306 47.3004 37.9779 47.3004C37.8252 47.3004 37.6788 47.2397 37.5709 47.1317C37.4629 47.0238 37.4023 46.8774 37.4023 46.7247V45.1978H35.8748C35.7221 45.1978 35.5757 45.1371 35.4677 45.0292C35.3598 44.9212 35.2991 44.7748 35.2991 44.6221C35.2991 44.4695 35.3598 44.323 35.4677 44.2151C35.5757 44.1071 35.7221 44.0465 35.8748 44.0465H37.4017V42.5196C37.4017 42.3669 37.4623 42.2205 37.5703 42.1125C37.6782 42.0046 37.8247 41.9439 37.9773 41.9439C38.13 41.9439 38.2764 42.0046 38.3844 42.1125C38.4924 42.2205 38.553 42.3669 38.553 42.5196V44.0465H40.0799C40.1555 44.0464 40.2305 44.0612 40.3004 44.0901C40.3703 44.119 40.4338 44.1614 40.4873 44.2149C40.5408 44.2683 40.5833 44.3318 40.6123 44.4017C40.6412 44.4716 40.6561 44.5465 40.6561 44.6221ZM56 10.9591C56 11.1118 55.9393 11.2582 55.8314 11.3662C55.7234 11.4742 55.577 11.5348 55.4243 11.5348H53.8974V13.0616C53.8974 13.2143 53.8368 13.3607 53.7288 13.4686C53.6209 13.5766 53.4745 13.6372 53.3218 13.6372C53.1691 13.6372 53.0227 13.5766 52.9147 13.4686C52.8068 13.3607 52.7461 13.2143 52.7461 13.0616V11.5348H51.2192C51.0665 11.5348 50.9201 11.4742 50.8122 11.3662C50.7042 11.2582 50.6436 11.1118 50.6436 10.9591C50.6436 10.8065 50.7042 10.66 50.8122 10.5521C50.9201 10.4441 51.0665 10.3835 51.2192 10.3835H52.7461V8.85648C52.7461 8.7038 52.8068 8.55738 52.9147 8.44942C53.0227 8.34146 53.1691 8.28081 53.3218 8.28081C53.4745 8.28081 53.6209 8.34146 53.7288 8.44942C53.8368 8.55738 53.8974 8.7038 53.8974 8.85648V10.3835H55.4243C55.577 10.3835 55.7234 10.4441 55.8314 10.5521C55.9393 10.66 56 10.8065 56 10.9591ZM18.2804 5.56149C18.2804 5.40881 18.3411 5.26239 18.449 5.15443C18.557 5.04648 18.7034 4.98583 18.8561 4.98583H20.383V3.45951C20.383 3.30683 20.4436 3.16041 20.5516 3.05245C20.6595 2.9445 20.806 2.88385 20.9586 2.88385C21.1113 2.88385 21.2577 2.9445 21.3657 3.05245C21.4737 3.16041 21.5343 3.30683 21.5343 3.45951V4.98583H23.0612C23.2139 4.98583 23.3603 5.04648 23.4683 5.15443C23.5762 5.26239 23.6369 5.40881 23.6369 5.56149C23.6369 5.71417 23.5762 5.86059 23.4683 5.96855C23.3603 6.0765 23.2139 6.13715 23.0612 6.13715H21.5343V7.66405C21.5343 7.81672 21.4737 7.96314 21.3657 8.0711C21.2577 8.17906 21.1113 8.23971 20.9586 8.23971C20.806 8.23971 20.6595 8.17906 20.5516 8.0711C20.4436 7.96314 20.383 7.81672 20.383 7.66405V6.13715H18.8561C18.7034 6.13715 18.557 6.0765 18.449 5.96855C18.3411 5.86059 18.2804 5.71417 18.2804 5.56149ZM34.242 2.67822C34.242 2.52554 34.3026 2.37912 34.4106 2.27116C34.5185 2.16321 34.665 2.10256 34.8176 2.10256H36.3444V0.575664C36.3444 0.422988 36.4051 0.276566 36.513 0.168608C36.621 0.0606501 36.7674 0 36.9201 0C37.0728 0 37.2192 0.0606501 37.3271 0.168608C37.4351 0.276566 37.4957 0.422988 37.4957 0.575664V2.10256H39.0226C39.1753 2.10256 39.3217 2.16321 39.4297 2.27116C39.5376 2.37912 39.5983 2.52554 39.5983 2.67822C39.5983 2.83089 39.5376 2.97732 39.4297 3.08528C39.3217 3.19323 39.1753 3.25388 39.0226 3.25388H37.4957V4.78077C37.4957 4.93345 37.4351 5.07987 37.3271 5.18783C37.2192 5.29579 37.0728 5.35644 36.9201 5.35644C36.7674 5.35644 36.621 5.29579 36.513 5.18783C36.4051 5.07987 36.3444 4.93345 36.3444 4.78077V3.25388H34.8176C34.665 3.25388 34.5185 3.19323 34.4106 3.08528C34.3026 2.97732 34.242 2.83089 34.242 2.67822Z" fill="black"/>
</svg>
