<svg width="150" height="46" viewBox="0 0 150 46" fill="none" xmlns="http://www.w3.org/2000/svg">
<path d="M19.49 45.0998C19.49 45.0998 0 39.3126 0 10.9091V0H39.0466V10.9091C38.98 38.3149 19.49 45.0998 19.49 45.0998Z" fill="#51AF3D"/>
<path d="M49.8226 21.8835V6.45117H59.2682V7.58199C59.2682 8.71281 58.337 9.64408 57.2062 9.64408H53.6141V12.9035H58.337V14.0343C58.337 15.2317 57.4057 16.1629 56.2084 16.1629H53.6807V21.8835H49.8226Z" fill="black"/>
<path d="M65.1885 13.4357H66.8515C67.4501 13.4357 67.9158 13.3026 68.3149 12.97C68.6475 12.6374 68.847 12.1718 68.847 11.5731C68.847 10.7084 68.5144 10.1762 67.9158 9.91015C67.5832 9.77711 67.1175 9.7106 66.5189 9.7106H65.255V13.4357H65.1885ZM61.3969 21.8835V6.45117H66.7849C68.1153 6.45117 69.1131 6.58421 69.7783 6.85029C70.643 7.18288 71.3747 7.78155 71.8404 8.51326C72.3725 9.31148 72.5721 10.2427 72.5721 11.307C72.5721 12.1718 72.3725 12.97 71.9734 13.7682C71.5743 14.5665 70.9756 15.0986 70.2439 15.4977V15.5643C70.377 15.7638 70.5765 16.0299 70.8426 16.4955L73.8359 21.8835H69.6453L66.918 16.6951H65.122V21.8835H61.3969Z" fill="black"/>
<path d="M75.5654 21.8835V6.45117H85.2106V9.7106H79.3569V12.5044H84.0133V15.6973H79.3569V18.6241H85.4767V21.8835H75.5654Z" fill="black"/>
<path d="M87.9379 21.8835V6.45117H97.5832V9.7106H91.663V12.5044H96.3858V15.6973H91.663V18.6241H97.8492V21.8835H87.9379Z" fill="black"/>
<path d="M104.035 18.6241H105.565C106.896 18.6241 107.894 18.225 108.625 17.4933C109.357 16.6951 109.756 15.6308 109.756 14.1674C109.756 12.7039 109.357 11.6396 108.625 10.8414C107.894 10.1097 106.829 9.7106 105.565 9.7106H104.035V18.6241ZM100.244 21.8835V6.45117H105.698C108.16 6.45117 110.089 7.11636 111.486 8.51326C112.882 9.84363 113.614 11.7727 113.614 14.1674C113.614 16.562 112.882 18.4911 111.486 19.8215C110.089 21.2184 108.093 21.8835 105.698 21.8835H100.244Z" fill="black"/>
<path d="M119.202 14.0348C119.202 15.3651 119.601 16.4294 120.399 17.3607C121.197 18.2255 122.195 18.6911 123.392 18.6911C124.59 18.6911 125.588 18.2255 126.386 17.3607C127.184 16.496 127.583 15.3651 127.583 14.0348C127.583 12.7709 127.184 11.7066 126.386 10.9084C125.588 10.0436 124.59 9.64453 123.392 9.64453C122.195 9.64453 121.197 10.0436 120.399 10.9084C119.601 11.7731 119.202 12.7709 119.202 14.0348ZM115.277 14.0348C115.277 11.7731 116.009 9.9106 117.539 8.44719C119.069 6.91725 120.998 6.18555 123.326 6.18555C125.654 6.18555 127.583 6.91725 129.113 8.44719C130.643 9.97712 131.375 11.8396 131.375 14.0348C131.375 16.2964 130.643 18.2255 129.113 19.7554C127.583 21.2853 125.654 22.0835 123.326 22.0835C120.998 22.0835 119.069 21.2853 117.539 19.7554C116.009 18.292 115.277 16.3629 115.277 14.0348Z" fill="black"/>
<path d="M133.171 21.8834L134.435 6.51758H138.492L140.754 13.0364L141.552 15.5641H141.619C141.885 14.4998 142.151 13.7016 142.417 13.0364L144.678 6.51758H148.736L150 21.8834H146.208L145.743 14.9655C145.743 14.6329 145.676 14.2338 145.676 13.8347C145.676 13.4355 145.676 13.0364 145.676 12.7703V12.3712H145.61C145.277 13.4355 145.011 14.3003 144.745 14.9655L143.149 19.4222H139.956L138.359 14.9655L137.494 12.3712H137.428C137.494 13.3025 137.494 14.1672 137.428 14.9655L136.962 21.8834H133.171Z" fill="black"/>
<path d="M30.7317 10.9749H15.0333V20.0215H30.7317V22.7487C30.7317 27.3385 29.4679 30.9971 22.4834 31.0636H15.0333V42.9705C17.6275 44.5669 19.49 45.0991 19.49 45.0991C19.49 45.0991 38.98 38.3141 38.98 10.9084V2.72656C38.98 7.24984 36.9845 10.9084 30.7317 10.9749Z" fill="#0F5431"/>
<path d="M49.8227 37.2516V26.4756H53.8138C54.9446 26.4756 55.8094 26.7417 56.4746 27.2073C57.1398 27.6729 57.4724 28.4046 57.4724 29.2694C57.4724 29.735 57.3393 30.2006 57.1398 30.5998C56.9402 30.9989 56.6076 31.3315 56.2085 31.5975C56.8072 31.7971 57.2063 32.0632 57.4724 32.5288C57.7384 32.9944 57.8715 33.4601 57.8715 33.9922C57.8715 35.0565 57.4724 35.9213 56.6741 36.3869C55.8759 36.919 54.9446 37.1851 53.7473 37.1851L49.8227 37.2516ZM52.4834 30.6663H53.8138C54.1464 30.6663 54.346 30.5998 54.5455 30.4002C54.6786 30.2006 54.8116 30.0011 54.8116 29.6685C54.8116 29.4024 54.7451 29.2029 54.5455 29.0033C54.4125 28.8037 54.1464 28.7372 53.8138 28.7372H52.4834V30.6663ZM52.4834 34.99H54.0799C54.4125 34.99 54.7451 34.857 54.9446 34.6574C55.1442 34.4578 55.2772 34.1918 55.2772 33.8592C55.2772 33.5266 55.2107 33.2605 55.0112 33.061C54.8116 32.8614 54.5455 32.7284 54.1464 32.7284H52.55L52.4834 34.99Z" fill="black"/>
<path d="M59.601 37.3171V26.541H63.3925C64.3238 26.541 65.0555 26.6075 65.5211 26.8071C66.1198 27.0732 66.652 27.4723 66.9845 28.0044C67.3171 28.5366 67.5167 29.2018 67.5167 30C67.5167 30.5987 67.3837 31.1973 67.1176 31.7295C66.8515 32.2616 66.4524 32.6607 65.9202 32.9268C66.0533 33.0599 66.1863 33.2594 66.3194 33.592L68.3814 37.3836H65.4546L63.5256 33.725H62.2617V37.3836L59.601 37.3171ZM62.2617 31.3969H63.3925C63.8582 31.3969 64.1908 31.2639 64.3903 31.0643C64.6564 30.8647 64.7229 30.5321 64.7229 30.0665C64.7229 29.4678 64.5233 29.0687 64.1242 28.9357C63.9247 28.8027 63.5921 28.8027 63.1265 28.8027H62.2617V31.3969Z" fill="black"/>
<path d="M68.9801 31.8629C68.9801 30.2664 69.5122 29.0026 70.5766 27.9383C71.6409 26.8739 72.9712 26.3418 74.6342 26.3418C76.2972 26.3418 77.6275 26.8739 78.6918 27.9383C79.7561 29.0026 80.2883 30.3329 80.2883 31.8629C80.2883 33.4593 79.7561 34.7897 78.6918 35.9205C77.6275 36.9848 76.2972 37.517 74.6342 37.517C72.9712 37.517 71.6409 36.9848 70.5766 35.9205C69.5122 34.7897 68.9801 33.4593 68.9801 31.8629ZM71.7074 31.8629C71.7074 32.7941 71.9735 33.5924 72.5056 34.191C73.0378 34.7897 73.7695 35.1223 74.5677 35.1223C75.4324 35.1223 76.0976 34.7897 76.6298 34.191C77.1619 33.5924 77.428 32.7941 77.428 31.8629C77.428 30.9981 77.1619 30.2664 76.6298 29.6677C76.0976 29.0691 75.3659 28.803 74.5677 28.803C73.7029 28.803 73.0378 29.0691 72.5056 29.6677C71.9735 30.2664 71.7074 30.9981 71.7074 31.8629Z" fill="black"/>
<path d="M81.9513 37.3171V26.541H84.612V30.7317H85.6763L87.938 26.541H90.7983L87.8715 31.663L90.9313 37.2505H88.0045L85.7429 32.8603H84.6786V37.2505L81.9513 37.3171Z" fill="black"/>
<path d="M92.1287 37.3835V26.6074H98.9136V28.8691H94.7894V30.8646H98.0488V33.1263H94.7894V35.1884H99.1131V37.45L92.1287 37.3835Z" fill="black"/>
<path d="M100.776 37.3835V26.6074H104.568C105.499 26.6074 106.231 26.6739 106.696 26.8735C107.295 27.1396 107.827 27.5387 108.16 28.0708C108.492 28.603 108.692 29.2682 108.692 30.0664C108.692 30.6651 108.559 31.2637 108.293 31.7959C108.027 32.328 107.628 32.7272 107.095 32.9932C107.228 33.1263 107.361 33.3258 107.495 33.6584L109.557 37.45H106.63L104.701 33.7915H103.437V37.45L100.776 37.3835ZM103.437 31.5298H104.568C105.033 31.5298 105.366 31.3968 105.565 31.1972C105.832 30.9977 105.898 30.6651 105.898 30.1994C105.898 29.6008 105.699 29.2017 105.299 29.0686C105.1 28.9356 104.767 28.9356 104.302 28.9356H103.437V31.5298Z" fill="black"/>
</svg>
