<svg width="53" height="52" viewBox="0 0 53 52" fill="none" xmlns="http://www.w3.org/2000/svg">
<g clip-path="url(#clip0_57_312)">
<path opacity="0.948" fill-rule="evenodd" clip-rule="evenodd" d="M39.9936 2.89452C40.4014 2.83358 40.7569 2.93514 41.06 3.19921C41.2018 3.72816 41.2526 4.26982 41.2123 4.82421C41.7212 4.80736 42.229 4.82428 42.7357 4.87499C43.4152 5.08079 43.8045 5.53782 43.9037 6.24609C43.9715 7.76952 43.9715 9.29296 43.9037 10.8164C43.7729 11.5568 43.3497 12.0476 42.6342 12.2891C42.1614 12.3397 41.6875 12.3567 41.2123 12.3398C41.287 13.5615 40.7961 13.9 39.7396 13.3555C39.606 13.0317 39.5552 12.6931 39.5873 12.3398C39.1121 12.3567 38.6382 12.3397 38.1654 12.2891C37.5154 12.147 37.0923 11.7576 36.8959 11.1211C36.8282 9.42837 36.8282 7.73567 36.8959 6.04296C37.0729 5.49347 37.4284 5.10415 37.9623 4.87499C38.5029 4.82427 39.0446 4.80735 39.5873 4.82421C39.5704 4.31527 39.5874 3.80746 39.6381 3.30077C39.7778 3.17838 39.8963 3.04297 39.9936 2.89452Z" fill="#000100"/>
<path fill-rule="evenodd" clip-rule="evenodd" d="M38.4701 6.44922C39.3164 6.44922 40.1628 6.44922 41.0092 6.44922C41.0092 7.87109 41.0092 9.29297 41.0092 10.7148C40.1289 10.7148 39.2488 10.7148 38.3685 10.7148C38.3351 9.27503 38.3689 7.85316 38.4701 6.44922Z" fill="#69E296"/>
<path fill-rule="evenodd" clip-rule="evenodd" d="M38.4701 6.44921C39.7385 6.34812 41.025 6.31427 42.3295 6.34765C42.3295 7.80338 42.3295 9.25911 42.3295 10.7148C41.8894 10.7148 41.4492 10.7148 41.0092 10.7148C41.0092 9.29296 41.0092 7.87109 41.0092 6.44921C40.1628 6.44921 39.3164 6.44921 38.4701 6.44921Z" fill="#11D59E"/>
<path opacity="0.948" fill-rule="evenodd" clip-rule="evenodd" d="M31.6654 7.26172C32.1025 7.19024 32.4579 7.32565 32.7318 7.66797C32.7826 8.54753 32.7995 9.42773 32.7826 10.3086C33.2578 10.2917 33.7317 10.3087 34.2045 10.3594C34.8545 10.5015 35.2776 10.8908 35.474 11.5273C35.5418 13.2201 35.5418 14.9127 35.474 16.6055C35.2879 17.1979 34.8985 17.5873 34.3061 17.7734C33.7994 17.8241 33.2915 17.8411 32.7826 17.8242C32.9358 18.805 32.5295 19.2281 31.5639 19.0937C31.2044 18.7498 31.0691 18.3266 31.1576 17.8242C30.6487 17.8411 30.1409 17.8241 29.6342 17.7734C28.9421 17.5238 28.5528 17.0329 28.4662 16.3008C28.3985 14.8112 28.3985 13.3216 28.4662 11.832C28.5956 11.0929 29.0188 10.602 29.7357 10.3594C30.2085 10.3087 30.6824 10.2917 31.1576 10.3086C31.1408 9.49539 31.1576 8.68289 31.2084 7.87109C31.2692 7.59137 31.4216 7.38824 31.6654 7.26172Z" fill="#000101"/>
<path opacity="0.963" fill-rule="evenodd" clip-rule="evenodd" d="M26.3842 19.043C26.0196 19.0385 25.7657 18.8692 25.6225 18.5352C25.5717 17.859 25.5548 17.1818 25.5717 16.5039C25.1316 16.5039 24.6914 16.5039 24.2514 16.5039C23.3711 16.5039 22.491 16.5039 21.6107 16.5039C21.5771 18.8574 21.6109 21.1934 21.7123 23.5117C22.9807 23.6128 24.2672 23.6467 25.5717 23.6133C25.5548 22.6986 25.5717 21.7846 25.6225 20.8711C25.8168 20.5888 26.0707 20.4195 26.3842 20.3633C26.6579 20.4073 26.878 20.5426 27.0443 20.7695C27.1393 21.9617 27.1055 23.1466 26.9428 24.3242C26.7271 24.7115 26.4054 24.9654 25.9779 25.0859C25.4712 25.1366 24.9634 25.1536 24.4545 25.1367C24.5491 26.3132 24.0583 26.6857 22.9818 26.2539C22.846 25.8958 22.7953 25.5235 22.8295 25.1367C22.2867 25.1536 21.7451 25.1366 21.2045 25.0859C20.7136 24.8659 20.3582 24.5104 20.1381 24.0195C20.0703 21.3789 20.0703 18.7383 20.1381 16.0977C20.3021 15.5488 20.6576 15.1934 21.2045 15.0313C21.7451 14.9806 22.2867 14.9636 22.8295 14.9805C22.8126 14.0996 22.8295 13.2194 22.8803 12.3399C23.0356 12.0335 23.2895 11.8982 23.642 11.9336C24.0593 11.9273 24.3132 12.1304 24.4037 12.543C24.4545 13.3548 24.4714 14.1673 24.4545 14.9805C24.9972 14.9636 25.5389 14.9806 26.0795 15.0313C26.5365 15.2174 26.8582 15.5391 27.0443 15.9961C27.1121 16.8763 27.1121 17.7565 27.0443 18.6367C26.9151 18.9132 26.6951 19.0487 26.3842 19.043Z" fill="black"/>
<path fill-rule="evenodd" clip-rule="evenodd" d="M32.681 11.9336C32.681 13.3555 32.681 14.7773 32.681 16.1992C31.8008 16.1992 30.9206 16.1992 30.0404 16.1992C30.0404 14.7773 30.0404 13.3555 30.0404 11.9336C30.9206 11.9336 31.8008 11.9336 32.681 11.9336Z" fill="#6AE69A"/>
<path fill-rule="evenodd" clip-rule="evenodd" d="M32.681 11.9336C33.1211 11.9336 33.5613 11.9336 34.0013 11.9336C34.0183 13.3559 34.0013 14.7778 33.9506 16.1992C32.6373 16.3343 31.3338 16.3343 30.0404 16.1992C30.9206 16.1992 31.8008 16.1992 32.681 16.1992C32.681 14.7773 32.681 13.3555 32.681 11.9336Z" fill="#0ECC98"/>
<path opacity="0.983" fill-rule="evenodd" clip-rule="evenodd" d="M52.2826 16.4023C52.2826 22.2592 52.2826 28.1159 52.2826 33.9727C52.0925 34.1863 51.8555 34.3217 51.5717 34.3789C51.2205 34.3172 50.9665 34.114 50.8099 33.7695C50.7761 29.0299 50.7422 24.2904 50.7084 19.5508C50.2757 20.3153 49.8187 21.0602 49.3373 21.7852C48.7798 22.6964 48.2212 23.6104 47.6615 24.5273C47.6107 31.2642 47.5938 38.0012 47.6107 44.7383C48.6419 44.8392 49.6913 44.8732 50.7592 44.8398C50.7422 41.9621 50.7592 39.0844 50.8099 36.207C50.9964 35.9202 51.2503 35.751 51.5717 35.6992C51.8587 35.7498 52.0957 35.8852 52.2826 36.1055C52.2826 39.3893 52.2826 42.6732 52.2826 45.957C52.1997 46.124 52.0642 46.2424 51.8763 46.3125C40.366 46.3463 28.8555 46.3802 17.3451 46.4141C14.6595 48.7021 11.5787 49.4807 8.10291 48.75C6.05348 48.225 4.30998 47.1924 2.87244 45.6523C2.80472 45.3477 2.80472 45.043 2.87244 44.7383C2.91129 44.6818 2.96208 44.648 3.02478 44.6367C3.35152 44.3989 3.69006 44.3819 4.04041 44.5859C4.71399 45.2774 5.45878 45.8698 6.27478 46.3633C9.43849 47.9723 12.5192 47.82 15.517 45.9062C18.9347 43.1541 19.9673 39.684 18.6146 35.4961C18.0091 33.9739 17.0443 32.7551 15.7201 31.8398C15.1476 31.3497 14.5044 30.9604 13.7904 30.6719C9.34923 29.2098 5.77761 30.3778 3.07556 34.1758C1.50661 36.9712 1.38812 39.8318 2.72009 42.7578C2.62375 43.0353 2.48833 43.2892 2.31384 43.5195C1.89709 43.5938 1.54162 43.4922 1.24744 43.2148C0.798116 42.227 0.476501 41.2114 0.282593 40.168C0.282593 39.2201 0.282593 38.2721 0.282593 37.3242C1.29091 32.4059 4.27008 29.4775 9.22009 28.5391C11.237 28.3054 13.1667 28.6101 15.0092 29.4531C16.0031 29.9919 16.9342 30.6183 17.8021 31.332C19.5967 30.4007 21.4249 29.5543 23.2865 28.793C23.7012 28.8731 24.0905 29.0254 24.4545 29.25C25.5143 29.856 26.5807 30.4485 27.6537 31.0273C29.1802 28.4997 30.7205 25.9776 32.2748 23.4609C32.6266 23.378 32.9652 23.4119 33.2904 23.5625C34.5956 24.7494 35.9159 25.9173 37.2513 27.0664C38.6934 25.0469 40.1491 23.0327 41.6185 21.0234C41.8755 20.879 42.1464 20.8452 42.431 20.9219C43.8019 21.6918 45.1561 22.4875 46.4935 23.3086C47.9578 21.0236 49.3966 18.7215 50.8099 16.4023C51.296 15.8841 51.7869 15.8841 52.2826 16.4023Z" fill="#010100"/>
<path fill-rule="evenodd" clip-rule="evenodd" d="M24.2513 16.5039C24.2513 18.8398 24.2513 21.1758 24.2513 23.5117C23.405 23.5117 22.5586 23.5117 21.7123 23.5117C21.6109 21.1934 21.5771 18.8574 21.6107 16.5039C22.491 16.5039 23.3711 16.5039 24.2513 16.5039Z" fill="#6AE397"/>
<path opacity="0.991" fill-rule="evenodd" clip-rule="evenodd" d="M24.2513 16.5039C24.6914 16.5039 25.1316 16.5039 25.5717 16.5039C25.5548 17.1818 25.5717 17.859 25.6224 18.5352C25.7656 18.8692 26.0195 19.0385 26.3842 19.043C26.3842 19.483 26.3842 19.9232 26.3842 20.3633C26.0706 20.4194 25.8167 20.5887 25.6224 20.8711C25.5717 21.7845 25.5548 22.6986 25.5717 23.6133C24.2672 23.6467 22.9807 23.6128 21.7123 23.5117C22.5586 23.5117 23.405 23.5117 24.2513 23.5117C24.2513 21.1758 24.2513 18.8398 24.2513 16.5039Z" fill="#09D49E"/>
<path fill-rule="evenodd" clip-rule="evenodd" d="M51.5717 34.3789C51.5717 34.819 51.5717 35.2591 51.5717 35.6992C51.2503 35.751 50.9964 35.9202 50.8099 36.207C50.7592 39.0844 50.7422 41.9621 50.7592 44.8398C49.6913 44.8732 48.6419 44.8392 47.6107 44.7383C48.2201 44.7383 48.8295 44.7383 49.4388 44.7383C49.4727 37.0701 49.4387 29.4191 49.3373 21.7852C49.8187 21.0602 50.2757 20.3153 50.7084 19.5508C50.7422 24.2904 50.7761 29.0299 50.8099 33.7695C50.9665 34.114 51.2205 34.3172 51.5717 34.3789Z" fill="#02D7A1"/>
<path fill-rule="evenodd" clip-rule="evenodd" d="M49.3373 21.7852C49.4388 29.4191 49.4727 37.0701 49.4389 44.7383C48.8295 44.7383 48.2201 44.7383 47.6107 44.7383C47.5938 38.0012 47.6107 31.2642 47.6615 24.5273C48.2212 23.6104 48.7798 22.6964 49.3373 21.7852Z" fill="#6BE699"/>
<path fill-rule="evenodd" clip-rule="evenodd" d="M42.9388 23.1055C43.9846 23.6283 45.0003 24.2039 45.9857 24.832C45.9857 31.4674 45.9857 38.1029 45.9857 44.7383C44.9701 44.7383 43.9545 44.7383 42.9388 44.7383C42.9388 37.5273 42.9388 30.3164 42.9388 23.1055Z" fill="#6BE699"/>
<path fill-rule="evenodd" clip-rule="evenodd" d="M41.2123 24.2227C41.2184 24.1675 41.2522 24.1337 41.3138 24.1211C41.4491 31.0441 41.4491 37.9504 41.3138 44.8398C41.3477 37.9504 41.3137 31.0779 41.2123 24.2227Z" fill="#275438"/>
<path fill-rule="evenodd" clip-rule="evenodd" d="M41.2123 24.2227C41.3138 31.0779 41.3477 37.9504 41.3139 44.8398C40.2644 44.8398 39.2149 44.8398 38.1654 44.8398C38.1485 39.4231 38.1654 34.0064 38.2162 28.5898C39.2159 27.1312 40.2146 25.6754 41.2123 24.2227Z" fill="#6BE699"/>
<path fill-rule="evenodd" clip-rule="evenodd" d="M42.9388 23.1055C42.9388 30.3164 42.9388 37.5273 42.9388 44.7383C43.9545 44.7383 44.9701 44.7383 45.9857 44.7383C45.9857 38.1029 45.9857 31.4674 45.9857 24.832C46.0872 31.4842 46.121 38.1535 46.0873 44.8398C45.0039 44.8398 43.9206 44.8398 42.8373 44.8398C42.8034 37.5201 42.8373 30.2754 42.9388 23.1055Z" fill="#489B67"/>
<path fill-rule="evenodd" clip-rule="evenodd" d="M33.5951 25.9492C33.4937 32.2289 33.4598 38.5258 33.4936 44.8398C33.3583 38.5259 33.3583 32.1952 33.4936 25.8477C33.5552 25.8602 33.589 25.8941 33.5951 25.9492Z" fill="#1B3C27"/>
<path fill-rule="evenodd" clip-rule="evenodd" d="M33.5951 25.9492C34.6044 26.8394 35.6031 27.7535 36.5912 28.6914C36.642 34.0741 36.659 39.4569 36.642 44.8398C35.5926 44.8398 34.543 44.8398 33.4936 44.8398C33.4599 38.5258 33.4937 32.2289 33.5951 25.9492Z" fill="#6BE699"/>
<path fill-rule="evenodd" clip-rule="evenodd" d="M28.8217 32.3477C28.8217 36.4779 28.8217 40.608 28.8217 44.7383C29.8373 44.7383 30.853 44.7383 31.8686 44.7383C31.9023 38.8982 31.8685 33.0753 31.767 27.2695C31.7958 27.1894 31.8465 27.1217 31.9194 27.0664C31.9701 32.9908 31.9871 38.9153 31.9701 44.8398C30.8868 44.8398 29.8035 44.8398 28.7201 44.8398C28.6864 40.6585 28.7202 36.4945 28.8217 32.3477Z" fill="#4BA06B"/>
<path fill-rule="evenodd" clip-rule="evenodd" d="M31.767 27.2695C31.8684 33.0753 31.9022 38.8982 31.8685 44.7383C30.8529 44.7383 29.8373 44.7383 28.8217 44.7383C28.8217 40.608 28.8217 36.4779 28.8217 32.3477C29.8035 30.6549 30.7852 28.9623 31.767 27.2695Z" fill="#6BE699"/>
<path fill-rule="evenodd" clip-rule="evenodd" d="M15.7201 31.8398C16.7053 33.2716 17.2469 34.8627 17.3451 36.6133C15.9522 33.156 13.3793 31.5141 9.62635 31.6875C6.68087 32.2298 4.7004 33.9056 3.68495 36.7148C2.9216 40.1113 3.95416 42.8027 6.7826 44.7891C8.09333 45.5907 9.5152 45.9462 11.0482 45.8555C10.4479 46.1391 9.80468 46.2915 9.11854 46.3125C8.15067 46.3464 7.20276 46.3634 6.27479 46.3633C5.45879 45.8698 4.714 45.2774 4.04042 44.5859C3.69007 44.3819 3.35153 44.3989 3.02479 44.6367C2.74503 44.2897 2.50804 43.9173 2.31385 43.5195C2.48834 43.2892 2.62376 43.0353 2.7201 42.7578C1.38813 39.8318 1.50663 36.9712 3.07557 34.1758C5.77762 30.3777 9.34924 29.2098 13.7904 30.6719C14.5044 30.9604 15.1476 31.3497 15.7201 31.8398Z" fill="#FAE573"/>
<path fill-rule="evenodd" clip-rule="evenodd" d="M22.3217 30.8242C22.5243 35.4611 22.592 40.1329 22.5248 44.8398C21.2717 44.8568 20.0191 44.8398 18.767 44.7891C20.668 42.0471 21.1927 39.051 20.3412 35.8008C19.9771 34.6663 19.4523 33.6169 18.767 32.6523C19.9708 32.0674 21.1557 31.4581 22.3217 30.8242Z" fill="#6AE498"/>
<path fill-rule="evenodd" clip-rule="evenodd" d="M24.2513 31.0273C24.1499 35.5804 24.116 40.1507 24.1498 44.7383C25.1654 44.7383 26.181 44.7383 27.1966 44.7383C27.1966 40.7096 27.1966 36.681 27.1966 32.6523C27.2981 36.6976 27.3319 40.7601 27.2982 44.8398C26.2148 44.8398 25.1316 44.8398 24.0482 44.8398C24.0144 40.2013 24.0482 35.5633 24.1498 30.9258C24.2114 30.9384 24.2452 30.9722 24.2513 31.0273Z" fill="#4FAA71"/>
<path fill-rule="evenodd" clip-rule="evenodd" d="M24.2514 31.0273C25.2503 31.5436 26.2321 32.0852 27.1967 32.6523C27.1967 36.681 27.1967 40.7096 27.1967 44.7383C26.1811 44.7383 25.1655 44.7383 24.1498 44.7383C24.1161 40.1507 24.1499 35.5804 24.2514 31.0273Z" fill="#6BE699"/>
<path fill-rule="evenodd" clip-rule="evenodd" d="M17.3451 36.6133C18.1215 40.1274 17.0381 42.8865 14.0951 44.8906C13.139 45.4005 12.1234 45.7221 11.0483 45.8555C9.51525 45.9462 8.09337 45.5907 6.78265 44.7891C3.95421 42.8027 2.92165 40.1113 3.68499 36.7148C4.70045 33.9056 6.68091 32.2298 9.6264 31.6875C13.3793 31.5141 15.9522 33.156 17.3451 36.6133Z" fill="#050402"/>
<path fill-rule="evenodd" clip-rule="evenodd" d="M15.7201 31.8398C17.0443 32.7551 18.0091 33.9739 18.6146 35.4961C19.9673 39.684 18.9347 43.1541 15.517 45.9062C12.5192 47.82 9.43849 47.9723 6.27478 46.3633C7.20275 46.3634 8.15066 46.3464 9.11853 46.3125C9.80467 46.2915 10.4479 46.1391 11.0482 45.8555C12.1234 45.7221 13.139 45.4005 14.0951 44.8906C17.0381 42.8865 18.1214 40.1274 17.3451 36.6133C17.2469 34.8628 16.7052 33.2716 15.7201 31.8398Z" fill="#F9E04A"/>
<path fill-rule="evenodd" clip-rule="evenodd" d="M9.62636 33.1601C12.5136 32.9866 14.5618 34.2053 15.7709 36.8164C16.5511 39.5708 15.7894 41.7882 13.4857 43.4687C10.3541 45.0344 7.76429 44.4081 5.7162 41.5898C4.23928 38.4752 4.89944 35.9193 7.69667 33.9219C8.31661 33.5748 8.95983 33.3209 9.62636 33.1601Z" fill="#FBE674"/>
<path fill-rule="evenodd" clip-rule="evenodd" d="M10.1341 34.4805C10.8286 34.335 11.201 34.6059 11.2513 35.293C11.6789 35.317 12.0683 35.4524 12.4193 35.6992C12.698 36.3607 12.4949 36.7669 11.8099 36.918C11.2625 36.7431 10.7039 36.6923 10.1341 36.7656C9.94879 36.9145 9.89801 37.1007 9.98179 37.3242C10.5338 37.6891 11.1262 37.9769 11.7591 38.1875C12.9419 39.1259 13.0943 40.2263 12.2162 41.4883C11.937 41.7344 11.6323 41.9375 11.3021 42.0976C11.2025 42.8931 10.7794 43.1639 10.0326 42.9101C9.79348 42.7328 9.69192 42.4959 9.72788 42.1992C9.21206 42.0852 8.75503 41.8481 8.35679 41.4883C8.27942 40.4001 8.73645 40.1124 9.72788 40.625C10.1003 40.6927 10.4727 40.6927 10.8451 40.625C11.2132 40.4009 11.3318 40.0793 11.2005 39.6601C10.5389 39.3547 9.87872 39.0332 9.22007 38.6953C8.17494 37.7171 8.14108 36.7014 9.11851 35.6484C9.3047 35.5299 9.49091 35.4115 9.6771 35.293C9.70212 34.937 9.85446 34.6662 10.1341 34.4805Z" fill="#050502"/>
</g>
<defs>
<clipPath id="clip0_57_312">
<rect width="52" height="52" fill="white" transform="translate(0.333374)"/>
</clipPath>
</defs>
</svg>
