<svg width="53" height="52" viewBox="0 0 53 52" fill="none" xmlns="http://www.w3.org/2000/svg">
<g clip-path="url(#clip0_57_414)">
<path opacity="0.916" fill-rule="evenodd" clip-rule="evenodd" d="M26.4129 6.34766C26.8762 6.33354 27.1978 6.53667 27.3777 6.95703C27.4455 8.48047 27.4455 10.0039 27.3777 11.5273C27.064 12.0154 26.6408 12.1339 26.1082 11.8828C25.9862 11.7911 25.9015 11.6727 25.8543 11.5273C25.7865 9.97006 25.7865 8.41276 25.8543 6.85547C25.9667 6.59009 26.1529 6.42081 26.4129 6.34766Z" fill="black"/>
<path opacity="0.906" fill-rule="evenodd" clip-rule="evenodd" d="M15.5457 10.8164C15.8321 10.7908 16.1029 10.8416 16.3582 10.9687C17.3908 12.0013 18.4233 13.0338 19.4559 14.0664C19.5899 15.0832 19.1668 15.4387 18.1863 15.1328C17.1877 14.1341 16.1889 13.1354 15.1902 12.1367C14.9542 11.5951 15.0727 11.1549 15.5457 10.8164Z" fill="black"/>
<path opacity="0.912" fill-rule="evenodd" clip-rule="evenodd" d="M37.077 10.8164C38.0727 10.8835 38.3604 11.3575 37.9403 12.2383C36.9754 13.2031 36.0106 14.168 35.0457 15.1328C34.0705 15.4445 33.6474 15.089 33.7762 14.0664C34.8658 12.9598 35.9661 11.8764 37.077 10.8164Z" fill="black"/>
<path opacity="0.966" fill-rule="evenodd" clip-rule="evenodd" d="M52.616 44.2305C52.616 44.5352 52.616 44.8398 52.616 45.1445C52.4521 45.3243 52.249 45.4427 52.0066 45.5C50.28 45.5677 48.5535 45.5677 46.8269 45.5C46.49 45.3497 46.2869 45.0958 46.2175 44.7383C46.2793 44.3871 46.4824 44.1332 46.8269 43.9766C48.1468 43.9258 49.4671 43.9088 50.7878 43.9258C50.6614 43.2486 50.4583 42.6054 50.1785 41.9961C50.1785 41.9623 50.1785 41.9283 50.1785 41.8945C49.7324 40.37 49.2754 38.8465 48.8074 37.3242C48.6889 37.0703 48.5027 36.8841 48.2488 36.7656C45.0326 36.6979 41.8165 36.6979 38.6003 36.7656C38.419 36.8453 38.2666 36.9638 38.1433 37.1211C37.6701 38.6418 37.2131 40.1652 36.7722 41.6914C36.6804 41.7634 36.6466 41.865 36.6707 41.9961C36.448 42.5962 36.2449 43.2056 36.0613 43.8242C38.7689 43.9088 41.4773 43.9596 44.1863 43.9766C44.548 44.1094 44.7512 44.3633 44.7957 44.7383C44.7975 45.1584 44.5944 45.4123 44.1863 45.5C32.3712 45.5677 20.556 45.5677 8.74097 45.5C8.3454 45.3922 8.10843 45.1383 8.03003 44.7383C8.12241 44.4038 8.32554 44.1499 8.6394 43.9766C11.4838 43.9596 14.3275 43.9088 17.1707 43.8242C16.987 43.2056 16.7839 42.5962 16.5613 41.9961C16.5854 41.865 16.5515 41.7634 16.4597 41.6914C16.0188 40.1652 15.5618 38.6418 15.0886 37.1211C15.004 37.0365 14.9193 36.9518 14.8347 36.8672C13.151 36.7501 11.4583 36.6993 9.75659 36.7148C8.13159 36.7318 6.50659 36.7487 4.88159 36.7656C4.69083 36.9223 4.53848 37.1085 4.42456 37.3242C3.99041 38.745 3.56724 40.1668 3.15503 41.5898C3.06012 41.6983 3.02627 41.8337 3.05347 41.9961C2.77362 42.6054 2.5705 43.2486 2.44409 43.9258C3.32495 43.9089 4.20516 43.9258 5.08472 43.9766C5.42925 44.1332 5.63237 44.3871 5.69409 44.7383C5.69724 45.1544 5.49412 45.4083 5.08472 45.5C3.79825 45.5677 2.5118 45.5677 1.22534 45.5C0.98294 45.4427 0.779815 45.3243 0.615967 45.1445C0.615967 44.8398 0.615967 44.5352 0.615967 44.2305C1.45163 41.6383 2.28105 39.0316 3.10425 36.4102C3.44373 35.8341 3.93461 35.4448 4.5769 35.2422C6.10034 35.2084 7.62378 35.1744 9.14722 35.1406C9.97645 32.5852 10.8059 30.0292 11.6355 27.4727C12.069 26.926 12.6276 26.6045 13.3113 26.5078C14.7332 26.474 16.155 26.4401 17.5769 26.4062C17.8539 25.6548 18.1078 24.8931 18.3386 24.1211C18.5649 23.8593 18.8526 23.7239 19.2019 23.7148C19.3903 23.8705 19.5765 24.0398 19.7605 24.2227C19.8096 24.3189 19.8264 24.4205 19.8113 24.5273C19.6 25.1948 19.4307 25.8718 19.3035 26.5586C24.2124 26.5756 29.1213 26.5586 34.03 26.5078C33.8004 25.8017 33.5634 25.1078 33.3191 24.4258C32.8782 22.8996 32.4212 21.3762 31.948 19.8555C31.8634 19.6354 31.7111 19.483 31.491 19.3984C28.241 19.3307 24.991 19.3307 21.741 19.3984C21.5209 19.483 21.3685 19.6354 21.2839 19.8555C21.0674 20.6065 20.8305 21.3513 20.573 22.0898C20.3047 22.3467 19.9831 22.4483 19.6082 22.3945C19.301 22.2385 19.1317 21.9846 19.1003 21.6328C19.3542 20.8033 19.6082 19.974 19.8621 19.1445C20.1653 18.5027 20.6562 18.0794 21.3347 17.875C24.8556 17.8073 28.3764 17.8073 31.8972 17.875C32.5758 18.0794 33.0666 18.5027 33.3699 19.1445C34.0989 21.5529 34.8437 23.9566 35.6042 26.3555C37.0355 26.4392 38.4743 26.4899 39.9207 26.5078C40.6044 26.6045 41.163 26.926 41.5964 27.4727C42.4286 30.0033 43.2411 32.5423 44.0339 35.0898C45.5667 35.1736 47.1071 35.2244 48.655 35.2422C49.2249 35.4061 49.6819 35.7278 50.0261 36.207C50.9028 38.8877 51.7661 41.5621 52.616 44.2305ZM25.0925 28.082C26.1082 28.082 27.1238 28.082 28.1394 28.082C27.6929 29.76 27.1851 31.4189 26.616 33.0586C26.0468 31.4189 25.539 29.76 25.0925 28.082ZM16.6628 36.8164C17.6785 36.8164 18.6941 36.8164 19.7097 36.8164C19.2506 38.4818 18.7597 40.1406 18.2371 41.793C17.6623 40.1533 17.1376 38.4945 16.6628 36.8164ZM33.5222 36.8164C34.5378 36.8164 35.5535 36.8164 36.5691 36.8164C36.0943 38.4945 35.5696 40.1533 34.9949 41.793C34.4722 40.1406 33.9814 38.4818 33.5222 36.8164Z" fill="#010000"/>
<path opacity="0.999" fill-rule="evenodd" clip-rule="evenodd" d="M33.3191 24.4258C28.8337 24.5272 24.3311 24.5611 19.8113 24.5273C19.8264 24.4205 19.8096 24.3189 19.7605 24.2227C19.5765 24.0398 19.3903 23.8705 19.2019 23.7148C19.3826 23.2989 19.518 22.8589 19.6082 22.3945C19.9831 22.4483 20.3047 22.3467 20.573 22.0898C20.8305 21.3513 21.0674 20.6065 21.2839 19.8555C21.3685 19.6354 21.5209 19.483 21.741 19.3984C24.991 19.3307 28.241 19.3307 31.491 19.3984C31.7111 19.483 31.8634 19.6354 31.948 19.8555C32.4212 21.3762 32.8782 22.8996 33.3191 24.4258Z" fill="#FDCE38"/>
<path opacity="0.919" fill-rule="evenodd" clip-rule="evenodd" d="M11.0769 21.582C12.6684 21.5651 14.2596 21.582 15.8504 21.6328C16.3422 22.0777 16.3762 22.5515 15.9519 23.0547C15.8504 23.0885 15.7488 23.1224 15.6472 23.1562C14.1576 23.224 12.6681 23.224 11.1785 23.1562C10.6987 22.9089 10.5464 22.5196 10.7215 21.9883C10.7915 21.8004 10.91 21.6649 11.0769 21.582Z" fill="black"/>
<path opacity="0.918" fill-rule="evenodd" clip-rule="evenodd" d="M37.3816 21.582C38.9731 21.5651 40.5642 21.582 42.155 21.6328C42.532 21.888 42.6504 22.2435 42.5105 22.6992C42.4155 22.9635 42.2294 23.1158 41.9519 23.1562C40.4962 23.224 39.0404 23.224 37.5847 23.1562C37.1616 23.0562 36.9585 22.7853 36.9753 22.3437C36.9682 22.0019 37.1036 21.748 37.3816 21.582Z" fill="black"/>
<path fill-rule="evenodd" clip-rule="evenodd" d="M33.3191 24.4258C33.5635 25.1078 33.8004 25.8017 34.03 26.5078C29.1213 26.5586 24.2124 26.5756 19.3035 26.5586C19.4307 25.8718 19.6 25.1948 19.8113 24.5273C24.3311 24.5611 28.8337 24.5272 33.3191 24.4258Z" fill="#FCAC46"/>
<path fill-rule="evenodd" clip-rule="evenodd" d="M24.8894 33.0586C22.69 33.194 20.4556 33.2617 18.1863 33.2617C15.9347 33.2617 13.7004 33.2279 11.4832 33.1602C11.9292 31.6356 12.3862 30.1122 12.8542 28.5899C12.934 28.4085 13.0524 28.2561 13.2097 28.1328C16.5655 28.0489 19.9171 28.0659 23.2644 28.1836C23.349 28.2852 23.4337 28.3867 23.5183 28.4883C23.9915 30.009 24.4485 31.5324 24.8894 33.0586Z" fill="#FDCF38"/>
<path fill-rule="evenodd" clip-rule="evenodd" d="M41.7488 33.1602C39.5316 33.2279 37.2972 33.2617 35.0457 33.2617C32.7763 33.2617 30.542 33.194 28.3425 33.0586C28.7208 31.7372 29.1102 30.4169 29.5105 29.0977C29.5765 28.7457 29.7289 28.4411 29.9675 28.1836C33.3148 28.0659 36.6664 28.0489 40.0222 28.1328C40.1795 28.2561 40.298 28.4085 40.3777 28.5899C40.8457 30.1122 41.3027 31.6356 41.7488 33.1602Z" fill="#FDCF38"/>
<path fill-rule="evenodd" clip-rule="evenodd" d="M24.8894 33.0586C25.1506 33.7079 25.3537 34.3849 25.4988 35.0898C20.641 35.1913 15.766 35.2251 10.8738 35.1914C11.0188 34.4865 11.2219 33.8094 11.4832 33.1602C13.7004 33.2279 15.9347 33.2617 18.1863 33.2617C20.4556 33.2617 22.69 33.194 24.8894 33.0586Z" fill="#FEAD46"/>
<path fill-rule="evenodd" clip-rule="evenodd" d="M28.3425 33.0586C30.542 33.194 32.7763 33.2617 35.0457 33.2617C37.2972 33.2617 39.5316 33.2279 41.7488 33.1602C42.01 33.8094 42.2131 34.4865 42.3582 35.1914C37.4659 35.2251 32.5909 35.1913 27.7332 35.0898C27.8782 34.3849 28.0813 33.7079 28.3425 33.0586Z" fill="#FEAD46"/>
<path fill-rule="evenodd" clip-rule="evenodd" d="M25.4988 35.0898C25.5539 35.0959 25.5877 35.1298 25.6003 35.1914C20.6748 35.3266 15.7658 35.3266 10.8738 35.1914C15.766 35.2251 20.641 35.1913 25.4988 35.0898Z" fill="#765020"/>
<path fill-rule="evenodd" clip-rule="evenodd" d="M27.7332 35.0898C32.5909 35.1913 37.4659 35.2251 42.3582 35.1914C37.4661 35.3266 32.5572 35.3266 27.6316 35.1914C27.6442 35.1298 27.678 35.0959 27.7332 35.0898Z" fill="#765020"/>
<path fill-rule="evenodd" clip-rule="evenodd" d="M16.4597 41.6914C12.0599 41.894 7.62508 41.9617 3.15503 41.8945C3.15503 41.793 3.15503 41.6914 3.15503 41.5898C3.56724 40.1669 3.99041 38.745 4.42456 37.3242C4.53848 37.1085 4.69083 36.9223 4.88159 36.7656C6.50659 36.7487 8.13159 36.7318 9.75659 36.7148C11.4583 36.6993 13.151 36.7501 14.8347 36.8672C14.9193 36.9518 15.004 37.0365 15.0886 37.1211C15.5618 38.6418 16.0188 40.1652 16.4597 41.6914Z" fill="#FBCD38"/>
<path fill-rule="evenodd" clip-rule="evenodd" d="M33.3191 41.793C31.1197 41.9284 28.8853 41.9961 26.616 41.9961C24.3467 41.9961 22.1123 41.9284 19.9128 41.793C20.3251 40.37 20.7482 38.9481 21.1824 37.5273C21.2348 37.27 21.3533 37.05 21.5378 36.8672C23.2215 36.7501 24.9143 36.6993 26.616 36.7148C28.3176 36.6993 30.0104 36.7501 31.6941 36.8672C31.8786 37.05 31.9972 37.27 32.0496 37.5273C32.4837 38.9481 32.9068 40.37 33.3191 41.793Z" fill="#FBCC38"/>
<path fill-rule="evenodd" clip-rule="evenodd" d="M50.1785 41.8945C45.6746 41.9617 41.2058 41.894 36.7722 41.6914C37.2131 40.1652 37.6701 38.6418 38.1433 37.1211C38.2666 36.9638 38.419 36.8453 38.6003 36.7656C41.8165 36.6979 45.0326 36.6979 48.2488 36.7656C48.5027 36.8841 48.6888 37.0703 48.8074 37.3242C49.2754 38.8465 49.7324 40.37 50.1785 41.8945Z" fill="#FBCD38"/>
<path fill-rule="evenodd" clip-rule="evenodd" d="M3.15508 41.5898C3.15508 41.6914 3.15508 41.793 3.15508 41.8945C7.62513 41.9617 12.06 41.894 16.4598 41.6914C16.5516 41.7634 16.5854 41.865 16.5613 41.9961C12.0588 41.9961 7.55612 41.9961 3.05352 41.9961C3.02632 41.8337 3.06017 41.6983 3.15508 41.5898Z" fill="#FABD3D"/>
<path fill-rule="evenodd" clip-rule="evenodd" d="M36.7722 41.6914C41.2058 41.894 45.6745 41.9617 50.1784 41.8945C50.1784 41.9284 50.1784 41.9623 50.1784 41.9961C45.6758 41.9961 41.1732 41.9961 36.6706 41.9961C36.6465 41.865 36.6803 41.7634 36.7722 41.6914Z" fill="#FCBE3E"/>
<path fill-rule="evenodd" clip-rule="evenodd" d="M3.05347 41.9961C7.55607 41.9961 12.0587 41.9961 16.5613 41.9961C16.7839 42.5962 16.987 43.2056 17.1707 43.8242C14.3275 43.9088 11.4838 43.9596 8.6394 43.9766C8.32554 44.1499 8.12241 44.4038 8.03003 44.7383C7.25138 44.7383 6.47274 44.7383 5.69409 44.7383C5.63237 44.3871 5.42925 44.1332 5.08472 43.9766C4.20516 43.9258 3.32495 43.9089 2.44409 43.9258C2.5705 43.2486 2.77362 42.6054 3.05347 41.9961Z" fill="#FDAD46"/>
<path fill-rule="evenodd" clip-rule="evenodd" d="M19.9128 41.793C22.1123 41.9284 24.3467 41.9961 26.616 41.9961C28.8853 41.9961 31.1197 41.9284 33.3191 41.793C33.5803 42.4423 33.7834 43.1193 33.9285 43.8242C29.0535 43.9596 24.1785 43.9596 19.3035 43.8242C19.4485 43.1193 19.6516 42.4423 19.9128 41.793Z" fill="#FEAD46"/>
<path fill-rule="evenodd" clip-rule="evenodd" d="M36.6707 41.9961C41.1732 41.9961 45.6759 41.9961 50.1785 41.9961C50.4583 42.6054 50.6614 43.2486 50.7878 43.9258C49.4671 43.9088 48.1468 43.9258 46.8269 43.9766C46.4824 44.1332 46.2793 44.3871 46.2175 44.7383C45.7435 44.7383 45.2696 44.7383 44.7957 44.7383C44.7512 44.3633 44.548 44.1094 44.1863 43.9766C41.4773 43.9596 38.7689 43.9088 36.0613 43.8242C36.2449 43.2056 36.448 42.5962 36.6707 41.9961Z" fill="#FDAD46"/>
<path fill-rule="evenodd" clip-rule="evenodd" d="M19.3035 43.8242C24.1785 43.9596 29.0535 43.9596 33.9285 43.8242C33.9836 43.8303 34.0174 43.8641 34.03 43.9258C29.0873 44.0612 24.1446 44.0612 19.2019 43.9258C19.2145 43.8641 19.2483 43.8303 19.3035 43.8242Z" fill="#221709"/>
</g>
<defs>
<clipPath id="clip0_57_414">
<rect width="52" height="52" fill="white" transform="translate(0.666748)"/>
</clipPath>
</defs>
</svg>
