<svg width="21" height="22" viewBox="0 0 21 22" fill="none" xmlns="http://www.w3.org/2000/svg">
<path d="M5.34399 1.83594L1.71446 2.0674C1.1442 2.10429 0.709795 2.5974 0.746694 3.16766L1.64737 17.2933C1.68427 17.8636 2.17737 18.298 2.74763 18.2611L6.37716 18.0296L5.34399 1.83594Z" fill="#003ED3"/>
<path d="M2.31663 18.2812C2.30657 18.2812 2.2965 18.2796 2.28644 18.2762C2.08513 18.1998 1.90999 18.0672 1.78185 17.8941C1.6537 17.7211 1.57793 17.5149 1.56355 17.3001L0.959751 7.83041C0.959886 7.80904 0.968138 7.78853 0.982836 7.77302C0.997533 7.75751 1.01758 7.74817 1.0389 7.74689C1.06023 7.74561 1.08125 7.75249 1.09769 7.76613C1.11414 7.77977 1.12479 7.79915 1.12747 7.82034L1.73128 17.29C1.74325 17.4727 1.80748 17.648 1.91631 17.7952C2.02515 17.9424 2.174 18.0552 2.34514 18.1202C2.38875 18.137 2.41056 18.1856 2.39378 18.2292C2.38204 18.2611 2.35018 18.2812 2.31663 18.2812ZM0.889308 5.48228C0.8457 5.48228 0.8088 5.44874 0.805446 5.40345L0.662881 3.17441C0.644915 2.90863 0.722627 2.64518 0.881969 2.4317C1.04131 2.21822 1.27177 2.06879 1.53169 2.01041C1.55295 2.00689 1.57475 2.01163 1.59262 2.02367C1.61049 2.03571 1.62308 2.05414 1.6278 2.07516C1.63252 2.09619 1.62901 2.11822 1.618 2.13675C1.60699 2.15527 1.58931 2.16888 1.56859 2.17478C1.1107 2.27877 0.800414 2.69472 0.828927 3.16435L0.973169 5.39339C0.976524 5.44035 0.941302 5.47893 0.894339 5.48228H0.889308Z" fill="black"/>
<path d="M15.3454 2.23655L16.246 16.3622C16.2829 16.9325 15.8485 17.4256 15.2783 17.4625L3.92006 18.187C3.3498 18.2239 2.85669 17.7895 2.81979 17.2193L1.91912 3.09362C1.88222 2.52336 2.31662 2.03025 2.88688 1.99335L14.2451 1.26879C14.8154 1.23189 15.3085 1.66629 15.3454 2.23655Z" fill="#158ED8"/>
<path d="M15.3453 2.23675L16.246 16.3624C16.2829 16.9327 15.8485 17.4258 15.2782 17.4627L3.92003 18.1872C3.66677 18.204 3.4286 18.1268 3.23907 17.9876L14.8958 1.44678C15.0258 1.53565 15.1339 1.65299 15.2118 1.78987C15.2897 1.92675 15.3353 2.07958 15.3453 2.23675Z" fill="#015ED4"/>
<path d="M3.85296 18.2727C3.58125 18.2727 3.32128 18.1754 3.11498 17.9926C3.0042 17.8957 2.91379 17.7777 2.849 17.6456C2.78421 17.5134 2.74635 17.3697 2.7376 17.2227L1.83693 3.0971C1.81848 2.79855 1.91576 2.51007 2.11367 2.28532C2.31159 2.06057 2.58498 1.92639 2.88352 1.90794L14.2417 1.18338C14.8606 1.1448 15.3923 1.61275 15.4309 2.22997L16.3316 16.3556C16.3701 16.9728 15.9005 17.5062 15.285 17.5448L3.92676 18.2693C3.89993 18.2727 3.87644 18.2727 3.85296 18.2727ZM14.3122 1.34942C14.2921 1.34942 14.2719 1.34942 14.2501 1.3511L2.89191 2.07566C2.63865 2.09244 2.40551 2.20649 2.23779 2.39769C2.07007 2.5889 1.9862 2.83377 2.0013 3.08703L2.90197 17.2127C2.91874 17.4659 3.0328 17.6991 3.224 17.8668C3.41521 18.0345 3.66008 18.1184 3.91334 18.1033L15.2716 17.3787C15.7965 17.3452 16.1957 16.8923 16.1622 16.3674L15.2615 2.24171C15.2296 1.73854 14.8103 1.34942 14.3122 1.34942Z" fill="black"/>
<path d="M14.3408 2.27197L15.2506 16.458L3.8313 17.1903L2.92157 3.00425L14.3408 2.27197Z" fill="white"/>
<path d="M2.92108 2.9987L3.52522 2.96012L4.43495 17.1461L3.83081 17.1847L2.92108 2.9987ZM13.7038 2.30583L14.3081 2.26709L15.2179 16.4531L14.6136 16.4919L13.7038 2.30583Z" fill="#FADFCB"/>
<path d="M3.82608 17.27C3.80492 17.2702 3.78448 17.2623 3.76891 17.248C3.75334 17.2337 3.7438 17.2139 3.74222 17.1928L2.83652 3.00681C2.83484 2.98501 2.84323 2.96321 2.85664 2.94643C2.87174 2.92966 2.89187 2.9196 2.91367 2.91792L14.3323 2.19C14.3809 2.18832 14.4178 2.22187 14.4212 2.26883L15.3269 16.4549C15.3285 16.4767 15.3202 16.4985 15.3067 16.5152C15.2916 16.532 15.2715 16.5421 15.2497 16.5438L3.83111 17.2717C3.82944 17.27 3.82776 17.27 3.82608 17.27ZM3.00927 3.07726L3.90324 17.0956L15.1541 16.3777L14.2601 2.3594L3.00927 3.07726Z" fill="black"/>
<path d="M11.0986 3.07853L6.32181 3.38378C6.01823 3.40391 5.77671 3.1322 5.83038 2.83533L6.03668 1.68307C6.05533 1.57996 6.10786 1.48602 6.18594 1.41615C6.26402 1.34627 6.36319 1.30445 6.46773 1.29731L7.15539 1.2537C7.3315 1.24196 7.49084 1.13461 7.55625 0.971923C7.68372 0.649894 8.06445 0.403341 8.52905 0.373151C8.99364 0.342961 9.40121 0.540874 9.57061 0.842776C9.65615 0.997081 9.82722 1.08262 10.0033 1.07256L10.691 1.02895C10.9057 1.01553 11.1019 1.15139 11.1673 1.35601L11.5179 2.47137C11.6068 2.76153 11.4021 3.06008 11.0986 3.07853Z" fill="#FFC378"/>
<path d="M6.24801 2.80856C6.19434 3.10543 6.43754 3.37714 6.73944 3.35701L6.32181 3.38385C6.01823 3.40397 5.77671 3.13226 5.83038 2.83539L6.03668 1.68313C6.05471 1.58004 6.10683 1.48598 6.18468 1.41603C6.26254 1.34608 6.36162 1.3043 6.46605 1.29737L6.88368 1.27053C6.77925 1.27746 6.68017 1.31925 6.60231 1.38919C6.52446 1.45914 6.47234 1.5532 6.45431 1.6563L6.24801 2.80856ZM8.73702 0.374893C8.37139 0.453723 8.08122 0.67344 7.97388 0.945152C7.90679 1.1112 7.74913 1.21686 7.57135 1.2286L7.15372 1.25544C7.3315 1.2437 7.48916 1.13803 7.55625 0.971987C7.68372 0.651636 8.06445 0.403406 8.52737 0.373216C8.59949 0.368184 8.66826 0.368184 8.73702 0.374893Z" fill="#FFAB41"/>
<path d="M6.28996 3.46937C6.20919 3.46956 6.12937 3.45198 6.05615 3.41789C5.98292 3.3838 5.91809 3.33402 5.86624 3.27209C5.81439 3.21016 5.77679 3.13759 5.75611 3.05951C5.73542 2.98143 5.73216 2.89976 5.74654 2.82028L5.95284 1.66803C5.99812 1.41644 6.2061 1.23027 6.46104 1.2135L7.1487 1.16989C7.2963 1.15982 7.42545 1.07093 7.47744 0.940108C7.62001 0.58118 8.03931 0.319532 8.52236 0.289342C9.00372 0.257474 9.4549 0.465451 9.64107 0.802575C9.70984 0.925012 9.85072 0.998811 9.99664 0.988747L10.6843 0.945139C10.9392 0.928367 11.169 1.0877 11.2462 1.3309L11.5967 2.44626C11.647 2.60895 11.6219 2.78171 11.5246 2.9226C11.4273 3.06348 11.2747 3.1507 11.1036 3.16244L10.1878 3.22114C10.1409 3.22114 10.1023 3.18928 10.099 3.14231C10.0956 3.09535 10.1308 3.05677 10.1778 3.05342L11.0936 2.99472C11.2126 2.98633 11.32 2.92595 11.3871 2.82867C11.4542 2.73139 11.4726 2.61063 11.4374 2.49658L11.0868 1.38122C11.0332 1.21182 10.8722 1.09944 10.696 1.11286L10.0084 1.15647C9.79705 1.16989 9.59579 1.06255 9.49683 0.884759C9.34085 0.602984 8.95508 0.430229 8.5341 0.457065C8.11479 0.483901 7.75251 0.703618 7.63342 1.00384C7.55795 1.19337 7.37178 1.32587 7.16045 1.33929L6.47278 1.3829C6.29667 1.39464 6.15075 1.52378 6.11888 1.69989L5.91259 2.85215C5.89246 2.96788 5.926 3.08696 6.00483 3.17418C6.08366 3.26307 6.19771 3.31004 6.3168 3.30165L9.14293 3.12219C9.18822 3.12051 9.22847 3.15405 9.23183 3.20102C9.23518 3.24798 9.19996 3.28655 9.153 3.28991L6.32686 3.46937C6.31512 3.4677 6.3017 3.46937 6.28996 3.46937Z" fill="black"/>
<path d="M7.36845 2.21149C7.32484 2.21149 7.28794 2.17794 7.28458 2.13266C7.28123 2.08569 7.31645 2.04712 7.36341 2.04376L9.95138 1.87939C9.97275 1.87953 9.99326 1.88778 10.0088 1.90248C10.0243 1.91718 10.0336 1.93722 10.0349 1.95855C10.0362 1.97987 10.0293 2.00089 10.0157 2.01734C10.002 2.03378 9.98264 2.04443 9.96145 2.04712L7.37348 2.21149H7.36845ZM8.07791 5.14832C8.03431 5.14832 7.99741 5.11477 7.99405 5.06949C7.9907 5.02253 8.02592 4.98395 8.07288 4.9806L13.1834 4.65354C13.2304 4.65186 13.2689 4.6854 13.2723 4.73237C13.2757 4.77933 13.2404 4.8179 13.1935 4.82126L8.08462 5.14664C8.08295 5.14664 8.08127 5.14832 8.07791 5.14832ZM8.13494 6.04061C8.09133 6.04061 8.05443 6.00706 8.05108 5.96178C8.04772 5.91481 8.08295 5.87624 8.12991 5.87288L13.2404 5.5475C13.2891 5.54415 13.326 5.57937 13.3293 5.62633C13.3327 5.67329 13.2975 5.71187 13.2505 5.71522L8.14165 6.04061H8.13494ZM8.19197 6.93289C8.14836 6.93289 8.11146 6.89935 8.1081 6.85406C8.10475 6.8071 8.13997 6.76853 8.18693 6.76517L11.3452 6.5639C11.3955 6.56223 11.4307 6.59577 11.4341 6.64273C11.4374 6.6897 11.4022 6.72827 11.3552 6.73163L8.197 6.93289H8.19197ZM8.32279 8.96402C8.27918 8.96402 8.24228 8.93048 8.23893 8.88519C8.23557 8.83823 8.2708 8.79965 8.31776 8.7963L12.4656 8.5313C12.5159 8.52794 12.5511 8.56316 12.5544 8.61013C12.5578 8.65709 12.5226 8.69566 12.4756 8.69902L8.32782 8.96402H8.32279ZM8.37982 9.85631C8.33621 9.85631 8.29931 9.82276 8.29595 9.77748C8.2926 9.73052 8.32782 9.69194 8.37478 9.68859L12.5226 9.42358C12.5729 9.42023 12.6081 9.45545 12.6115 9.50241C12.6148 9.54938 12.5796 9.58795 12.5326 9.59131L8.38485 9.85631H8.37982ZM8.43684 10.7503C8.39323 10.7503 8.35633 10.7167 8.35298 10.6714C8.34963 10.6245 8.38485 10.5859 8.43181 10.5825L11.59 10.3813C11.6404 10.3779 11.6756 10.4131 11.6789 10.4601C11.6823 10.5071 11.6471 10.5457 11.6001 10.549L8.44187 10.7503C8.4402 10.7486 8.43852 10.7503 8.43684 10.7503ZM8.56599 12.7797C8.52238 12.7797 8.48548 12.7462 8.48213 12.7009C8.47877 12.6539 8.51399 12.6154 8.56096 12.612L13.6715 12.2866C13.7218 12.2849 13.757 12.3185 13.7604 12.3654C13.7637 12.4124 13.7285 12.451 13.6815 12.4543L8.57102 12.7797H8.56599ZM8.62301 13.6737C8.57941 13.6737 8.54251 13.6401 8.53915 13.5949C8.5358 13.5479 8.57102 13.5093 8.61798 13.506L13.7285 13.1806C13.7788 13.1789 13.814 13.2124 13.8174 13.2594C13.8208 13.3064 13.7855 13.3449 13.7386 13.3483L8.62805 13.6737H8.62301ZM8.68004 14.566C8.63643 14.566 8.59953 14.5324 8.59618 14.4871C8.59282 14.4402 8.62805 14.4016 8.67501 14.3983L11.8332 14.197C11.8852 14.1953 11.9188 14.2289 11.9221 14.2758C11.9255 14.3228 11.8903 14.3614 11.8433 14.3647L8.68507 14.566H8.68004Z" fill="black"/>
<path d="M6.85856 6.03727C6.88036 6.37272 6.76296 6.68301 6.55666 6.9195C6.45145 7.03918 6.32367 7.13694 6.18063 7.20716C6.03759 7.27739 5.8821 7.3187 5.72307 7.32874C5.05218 7.37235 4.47521 6.86247 4.4316 6.19326C4.4098 5.85781 4.52721 5.54752 4.73183 5.31271C4.94497 5.07093 5.24542 4.92373 5.56709 4.90347C5.90254 4.88166 6.21282 4.99907 6.44596 5.20369C6.56668 5.30824 6.66535 5.43581 6.7362 5.57893C6.80704 5.72206 6.84864 5.87788 6.85856 6.03727Z" fill="#FF7D83"/>
<path d="M6.85857 6.03735C6.88037 6.3728 6.76297 6.68309 6.55667 6.91958C6.45147 7.03926 6.32368 7.13702 6.18064 7.20724C6.0376 7.27746 5.88212 7.31878 5.72308 7.32882C5.42438 7.34886 5.12894 7.25676 4.89453 7.07053L6.28496 5.08301C6.34198 5.11823 6.39733 5.15848 6.44765 5.20209C6.56789 5.3073 6.66611 5.43527 6.73664 5.57863C6.80716 5.72199 6.84861 5.87789 6.85857 6.03735Z" fill="#FF5671"/>
<path d="M5.64255 7.41589C5.32555 7.41589 5.02533 7.30183 4.78549 7.09218C4.52552 6.8624 4.36953 6.5454 4.34773 6.19989C4.32592 5.85438 4.43998 5.52061 4.66808 5.25729C4.7808 5.1289 4.91784 5.02412 5.07127 4.94899C5.22471 4.87385 5.39151 4.82985 5.56204 4.81953C5.90755 4.79773 6.24132 4.91178 6.50297 5.13988C6.63188 5.25228 6.73712 5.3892 6.81256 5.54269C6.88801 5.69617 6.93215 5.86313 6.94241 6.03385C6.96421 6.37936 6.85016 6.7148 6.62038 6.97645C6.50799 7.1048 6.37126 7.20959 6.21809 7.28473C6.06493 7.35987 5.89838 7.40388 5.72809 7.41421C5.69958 7.41421 5.67106 7.41589 5.64255 7.41589ZM5.64591 4.9839C5.62075 4.9839 5.59727 4.9839 5.57211 4.98558C5.42367 4.99467 5.27849 5.03298 5.14489 5.09831C5.01129 5.16363 4.89191 5.25469 4.79358 5.36627C4.69525 5.47784 4.61992 5.60772 4.57191 5.74847C4.52389 5.88923 4.50414 6.03807 4.51377 6.18647C4.53222 6.48838 4.66808 6.76512 4.89451 6.96471C5.12093 7.1643 5.41277 7.26326 5.71467 7.24481C6.01657 7.22636 6.29164 7.0905 6.49123 6.86408C6.6925 6.63597 6.79146 6.34413 6.77301 6.04391C6.75456 5.74201 6.61702 5.46694 6.3906 5.26567C6.18574 5.08292 5.92044 4.98253 5.64591 4.9839Z" fill="black"/>
<path d="M5.48152 6.53219C5.46139 6.53219 5.44126 6.52548 5.42617 6.51206L5.13601 6.25713C5.12759 6.24985 5.12073 6.24095 5.11582 6.23097C5.11091 6.22098 5.10806 6.21011 5.10743 6.199C5.10681 6.1879 5.10842 6.17678 5.11218 6.1663C5.11593 6.15583 5.12175 6.14622 5.1293 6.13804C5.15949 6.10282 5.21316 6.09947 5.24838 6.13133L5.47481 6.33092L6.01991 5.71203C6.0501 5.6768 6.10377 5.67345 6.13899 5.70364C6.17421 5.73383 6.17757 5.7875 6.14738 5.82272L5.54693 6.50536C5.53183 6.52213 5.51171 6.53219 5.4899 6.53387C5.48487 6.53219 5.4832 6.53219 5.48152 6.53219Z" fill="black"/>
<path d="M7.10172 9.85466C7.12353 10.1901 7.00612 10.5004 6.79982 10.7369C6.69462 10.8566 6.56684 10.9543 6.4238 11.0245C6.28076 11.0948 6.12527 11.1361 5.96624 11.1461C5.29534 11.1897 4.71838 10.6799 4.67477 10.0106C4.65296 9.67519 4.77037 9.36491 4.97499 9.13009C5.18813 8.88832 5.48858 8.74111 5.81025 8.72085C6.1457 8.69904 6.45599 8.81645 6.68912 9.02107C6.80999 9.1255 6.90876 9.25304 6.97962 9.39619C7.05047 9.53934 7.09199 9.69522 7.10172 9.85466Z" fill="#FF7D83"/>
<path d="M7.10173 9.85327C7.12354 10.1887 7.00613 10.499 6.79983 10.7355C6.69463 10.8552 6.56685 10.9529 6.42381 11.0232C6.28077 11.0934 6.12528 11.1347 5.96625 11.1447C5.66754 11.1648 5.3721 11.0727 5.1377 10.8864L6.52812 8.89893C6.58515 8.93415 6.6405 8.9744 6.69081 9.01801C6.8112 9.12309 6.90951 9.25104 6.98005 9.39442C7.05059 9.53781 7.09195 9.69377 7.10173 9.85327Z" fill="#FF5671"/>
<path d="M5.88578 11.2318C5.56878 11.2318 5.26856 11.1178 5.02871 10.9081C4.76874 10.6783 4.61276 10.3613 4.59095 10.0158C4.56915 9.6703 4.6832 9.33653 4.91131 9.07321C5.02403 8.94482 5.16106 8.84004 5.3145 8.7649C5.46794 8.68977 5.63474 8.64577 5.80527 8.63545C6.15078 8.61364 6.48623 8.7277 6.7462 8.9558C6.8751 9.06819 6.98034 9.20512 7.05579 9.3586C7.13123 9.51209 7.17537 9.67905 7.18563 9.84976C7.20744 10.1953 7.09338 10.5307 6.8636 10.7924C6.75102 10.9204 6.6142 11.0248 6.46106 11.0996C6.30791 11.1745 6.14147 11.2183 5.97132 11.2284C5.9428 11.2301 5.91429 11.2318 5.88578 11.2318ZM5.88913 8.79982C5.86397 8.79982 5.84049 8.79982 5.81533 8.80149C5.6669 8.81059 5.52171 8.8489 5.38812 8.91422C5.25452 8.97955 5.13513 9.07061 5.0368 9.18218C4.93848 9.29376 4.86315 9.42364 4.81513 9.56439C4.76712 9.70514 4.74736 9.85399 4.757 10.0024C4.77545 10.3043 4.9113 10.5794 5.13773 10.7806C5.24894 10.8795 5.37876 10.9552 5.51959 11.0033C5.66042 11.0514 5.80943 11.0709 5.9579 11.0607C6.2598 11.0423 6.53487 10.9064 6.73446 10.68C6.93572 10.4519 7.03468 10.1601 7.01623 9.85983C6.99778 9.55793 6.86025 9.28286 6.63382 9.08159C6.42856 8.89951 6.16352 8.79922 5.88913 8.79982Z" fill="black"/>
<path d="M5.72474 10.3476C5.70462 10.3476 5.68449 10.3409 5.66939 10.3275L5.37923 10.0726C5.37082 10.0653 5.36395 10.0564 5.35904 10.0464C5.35413 10.0364 5.35128 10.0255 5.35066 10.0144C5.35003 10.0033 5.35164 9.99221 5.3554 9.98173C5.35916 9.97126 5.36498 9.96165 5.37252 9.95347C5.40271 9.91825 5.45639 9.9149 5.49161 9.94676L5.71803 10.1464L6.26313 9.52746C6.29332 9.49223 6.347 9.48888 6.38222 9.51907C6.41744 9.54926 6.42079 9.60293 6.3906 9.63815L5.79015 10.3208C5.77506 10.3376 5.75493 10.3476 5.73313 10.3493C5.7281 10.3476 5.72642 10.3476 5.72474 10.3476Z" fill="black"/>
<path d="M7.34495 13.6706C7.36675 14.006 7.24934 14.3163 7.04304 14.5528C6.93784 14.6725 6.81006 14.7702 6.66702 14.8405C6.52398 14.9107 6.36849 14.952 6.20946 14.962C5.53857 15.0057 4.9616 14.4958 4.91799 13.8266C4.89619 13.4911 5.01359 13.1808 5.21822 12.946C5.43135 12.7042 5.73181 12.557 6.05348 12.5368C6.38892 12.515 6.69921 12.6324 6.93235 12.837C7.05335 12.9413 7.15222 13.0688 7.22309 13.212C7.29395 13.3552 7.33539 13.5111 7.34495 13.6706Z" fill="#FF7D83"/>
<path d="M7.34496 13.6707C7.36676 14.0061 7.24936 14.3164 7.04306 14.5529C6.93785 14.6726 6.81007 14.7703 6.66703 14.8405C6.52399 14.9108 6.3685 14.9521 6.20947 14.9621C5.91077 14.9822 5.61533 14.8901 5.38092 14.7038L6.77135 12.7163C6.93676 12.8174 7.07529 12.957 7.17517 13.1231C7.27504 13.2893 7.33329 13.4771 7.34496 13.6707Z" fill="#FF5671"/>
<path d="M6.13062 15.0474C5.45134 15.0474 4.87773 14.5174 4.83412 13.8298C4.81231 13.4843 4.92637 13.1505 5.15447 12.8872C5.26719 12.7588 5.40422 12.654 5.55766 12.5789C5.7111 12.5037 5.8779 12.4597 6.04843 12.4494C6.39394 12.4276 6.72939 12.5417 6.98936 12.7698C7.11826 12.8822 7.22351 13.0191 7.29895 13.1726C7.3744 13.3261 7.41853 13.493 7.42879 13.6637C7.4506 14.0092 7.33655 14.3447 7.10677 14.6063C6.99438 14.7347 6.85764 14.8395 6.70448 14.9146C6.55132 14.9898 6.38477 15.0338 6.21448 15.0441C6.18597 15.0474 6.15913 15.0474 6.13062 15.0474ZM6.13397 12.6155C6.10881 12.6155 6.08533 12.6155 6.06017 12.6171C5.91174 12.6262 5.76655 12.6645 5.63296 12.7299C5.49936 12.7952 5.37997 12.8863 5.28165 12.9978C5.18332 13.1094 5.10799 13.2393 5.05997 13.38C5.01196 13.5208 4.9922 13.6696 5.00184 13.818C5.04209 14.4403 5.58216 14.9166 6.20442 14.8764C6.50632 14.8579 6.78138 14.7221 6.98097 14.4956C7.18224 14.2675 7.2812 13.9757 7.26275 13.6755C7.2443 13.3736 7.10677 13.0985 6.88034 12.8972C6.67413 12.7156 6.40876 12.6154 6.13397 12.6155Z" fill="black"/>
<path d="M5.96791 14.165C5.94778 14.165 5.92765 14.1583 5.91256 14.1449L5.6224 13.8899C5.61398 13.8827 5.60712 13.8738 5.60221 13.8638C5.5973 13.8538 5.59445 13.8429 5.59382 13.8318C5.59319 13.8207 5.59481 13.8096 5.59856 13.7991C5.60232 13.7886 5.60814 13.779 5.61569 13.7709C5.64588 13.7356 5.69955 13.7323 5.73477 13.7641L5.9612 13.9637L6.5063 13.3448C6.53649 13.3096 6.59016 13.3063 6.62538 13.3365C6.6606 13.3666 6.66396 13.4203 6.63377 13.4555L6.03332 14.1382C6.01822 14.1549 5.9981 14.165 5.97629 14.1667C5.97126 14.165 5.96958 14.165 5.96791 14.165Z" fill="black"/>
<path d="M13.7701 8.0937L16.755 2.78174L19.2033 4.15757L16.2183 9.46936L13.7701 8.0937Z" fill="#FF7D83"/>
<path d="M13.769 8.09402L16.754 2.78223L17.1737 3.01805L14.1887 8.32984L13.769 8.09402ZM15.8005 9.23487L18.7855 3.92308L19.2051 4.1589L16.2203 9.47069L15.8005 9.23487Z" fill="#FF5671"/>
<path d="M20.1774 2.43276L19.6675 3.33847L17.2171 1.96146L17.727 1.05575C17.8392 0.857019 18.0255 0.710838 18.2453 0.649223C18.465 0.587608 18.7002 0.615582 18.8994 0.727017L19.8504 1.26205C20.0489 1.37397 20.1949 1.56017 20.2563 1.7797C20.3176 1.99923 20.2892 2.23413 20.1774 2.43276Z" fill="#158ED8"/>
<path d="M18.5371 0.621624C18.2168 0.59982 17.8964 0.75748 17.7287 1.05603L17.2188 1.96173L17.6482 2.20325L18.5371 0.621624ZM20.1271 1.51559C20.3116 1.77891 20.3452 2.13449 20.1774 2.43303L19.6676 3.33874L19.2382 3.09722L20.1271 1.51559Z" fill="#015ED4"/>
<path d="M16.7509 2.78279L17.2161 1.95508L19.6687 3.33326L19.2036 4.16114L16.7509 2.78279Z" fill="#FADFCB"/>
<path d="M17.1693 3.01782L17.6344 2.18994L19.2491 3.09732L18.7838 3.92504L17.1693 3.01782Z" fill="white"/>
<path d="M16.2175 9.47536L13.5994 11.2633L13.7688 8.09668L16.2175 9.47536Z" fill="#FFC378"/>
<path d="M13.9533 11.0234L13.5994 11.2633L13.7688 8.09668L14.0975 8.28118L13.9533 11.0234Z" fill="#FFAB41"/>
<path d="M16.2158 9.55954C16.2024 9.55954 16.1873 9.55619 16.1739 9.54948L13.7268 8.17415C13.7067 8.16408 13.6932 8.14563 13.6865 8.12383C13.6798 8.10203 13.6832 8.08022 13.6949 8.0601L16.6804 2.74998C16.7022 2.70973 16.7542 2.69463 16.7944 2.71811L19.2415 4.09344C19.2818 4.11692 19.2969 4.16724 19.2734 4.20749L18.3945 5.77235C18.371 5.8126 18.3207 5.8277 18.2805 5.80422C18.2402 5.78074 18.2251 5.73042 18.2486 5.69017L19.0872 4.19911L16.786 2.90596L13.8828 8.0668L16.1839 9.36163L17.6767 6.70657C17.6985 6.66632 17.7505 6.65122 17.7907 6.6747C17.831 6.69818 17.8461 6.7485 17.8226 6.78875L16.2896 9.51593C16.2745 9.54277 16.246 9.55954 16.2158 9.55954ZM19.6675 3.42255C19.6541 3.42255 19.639 3.4192 19.6256 3.41249L17.1768 2.03548C17.1567 2.02374 17.1433 2.00697 17.1366 1.98516C17.1299 1.96336 17.1332 1.94155 17.145 1.92143L17.6549 1.01572C17.779 0.796005 17.9802 0.636668 18.2234 0.569578C18.4666 0.502489 18.7216 0.532679 18.9413 0.655117L19.8923 1.18848C20.1104 1.3111 20.2709 1.51531 20.3385 1.75622C20.4061 1.99712 20.3753 2.25503 20.2529 2.47324L19.743 3.37894C19.7246 3.40745 19.6977 3.42255 19.6675 3.42255ZM17.3328 1.92981L19.6357 3.22464L20.1036 2.39105C20.3133 2.01871 20.1808 1.54405 19.8067 1.3344L18.8558 0.801036C18.767 0.750476 18.6691 0.718194 18.5677 0.706095C18.4663 0.693997 18.3635 0.702326 18.2654 0.730593C18.1669 0.757803 18.0749 0.804282 17.9946 0.867335C17.9142 0.930387 17.8472 1.00876 17.7974 1.09791L17.3328 1.92981Z" fill="black"/>
<path d="M19.2046 4.25128C19.1912 4.25128 19.1761 4.24792 19.1627 4.24121L16.7106 2.86253C16.6905 2.85079 16.677 2.83402 16.6703 2.81221C16.6636 2.79041 16.667 2.7686 16.6787 2.74848L17.1433 1.9216C17.1534 1.90148 17.1718 1.88806 17.1936 1.88135C17.2154 1.87464 17.2372 1.87799 17.2574 1.88974L19.7095 3.26842C19.7497 3.2919 19.7648 3.34222 19.7413 3.38247L19.2767 4.20935C19.2667 4.22947 19.2482 4.24289 19.2264 4.2496C19.2197 4.2496 19.2113 4.25128 19.2046 4.25128ZM16.8666 2.75686L19.1728 4.05336L19.5552 3.37241L17.249 2.07591L16.8666 2.75686ZM13.5993 11.3476C13.5879 11.3481 13.5765 11.3461 13.5659 11.3419C13.5553 11.3376 13.5457 11.3311 13.5378 11.3229C13.5298 11.3147 13.5238 11.3048 13.5199 11.2941C13.5161 11.2833 13.5145 11.2718 13.5155 11.2604L13.6832 8.09381C13.6849 8.0653 13.7016 8.03847 13.7268 8.02505C13.7519 8.01163 13.7838 8.01163 13.809 8.02505L16.2594 9.40206C16.2846 9.41547 16.3013 9.44231 16.3013 9.47082C16.3019 9.48501 16.2989 9.49911 16.2924 9.51174C16.2859 9.52438 16.2763 9.53513 16.2644 9.54294L13.6463 11.3342C13.6329 11.3426 13.6161 11.3476 13.5993 11.3476ZM13.8442 8.23638L13.6916 11.0994L16.0581 9.48256L13.8442 8.23638Z" fill="black"/>
<path d="M14.9931 8.8703C14.9797 8.8703 14.9646 8.86694 14.9512 8.86023C14.9416 8.85487 14.9331 8.84766 14.9263 8.83901C14.9195 8.83037 14.9145 8.82045 14.9115 8.80985C14.9085 8.79924 14.9077 8.78816 14.9091 8.77723C14.9104 8.7663 14.9139 8.75575 14.9193 8.74618L17.9048 3.43607C17.9266 3.39581 17.9786 3.38072 18.0189 3.4042C18.0591 3.42768 18.0742 3.478 18.0507 3.51825L15.0653 8.82836C15.0502 8.8552 15.0217 8.8703 14.9931 8.8703ZM13.6815 9.71059L13.5994 11.2637L14.8841 10.3865L13.6815 9.71059Z" fill="black"/>
<path d="M13.5993 11.3476C13.5879 11.348 13.5765 11.3461 13.5659 11.3418C13.5553 11.3375 13.5457 11.3311 13.5378 11.3228C13.5298 11.3146 13.5238 11.3048 13.5199 11.294C13.5161 11.2832 13.5145 11.2718 13.5155 11.2604L13.5976 9.70725C13.5993 9.67873 13.6161 9.6519 13.6412 9.63848C13.6664 9.62506 13.6983 9.62506 13.7234 9.63848L14.9243 10.3144C14.9495 10.3278 14.9663 10.3547 14.9663 10.3832C14.9669 10.3974 14.9638 10.4115 14.9573 10.4241C14.9508 10.4367 14.9412 10.4475 14.9294 10.4553L13.6446 11.3325C13.6329 11.3425 13.6161 11.3476 13.5993 11.3476ZM13.7587 9.84981L13.6916 11.0993L14.7247 10.3932L13.7587 9.84981Z" fill="black"/>
<path d="M17.5209 13.4372L18.0059 12.1094L18.806 12.4017L18.3209 13.7294L17.5209 13.4372Z" fill="white"/>
<path d="M18.3291 13.8111C18.3191 13.8111 18.309 13.8094 18.3006 13.8061L17.5006 13.5142C17.48 13.5063 17.4632 13.4907 17.4538 13.4707C17.4444 13.4507 17.4432 13.4278 17.4503 13.4069L17.935 12.0785C17.9501 12.0349 17.9987 12.0131 18.0423 12.0282L18.8424 12.32C18.863 12.328 18.8798 12.3436 18.8892 12.3636C18.8985 12.3836 18.8998 12.4065 18.8927 12.4274L18.408 13.7558C18.3962 13.791 18.3627 13.8111 18.3291 13.8111ZM17.6365 13.3851L18.2788 13.6199L18.7065 12.4492L18.0641 12.2144L17.6365 13.3851Z" fill="black"/>
<path d="M16.7391 20.8622C18.9622 20.8622 20.7645 19.06 20.7645 16.8369C20.7645 14.6137 18.9622 12.8115 16.7391 12.8115C14.516 12.8115 12.7137 14.6137 12.7137 16.8369C12.7137 19.06 14.516 20.8622 16.7391 20.8622Z" fill="#FFC378"/>
<path d="M19.4076 17.813C18.8692 19.2856 17.2373 20.0437 15.7647 19.5053C15.0915 19.2609 14.5364 18.7699 14.2115 18.1317C14.0325 17.7837 13.9275 17.4024 13.9033 17.0118C13.879 16.6212 13.936 16.2298 14.0707 15.8624C14.609 14.3881 16.241 13.63 17.7153 14.1684C18.4281 14.4284 18.9715 14.945 19.2852 15.5739C19.6189 16.2482 19.686 17.0516 19.4076 17.813Z" fill="white"/>
<path d="M20.5196 18.2189C19.7565 20.3054 17.4452 21.3805 15.3571 20.6173C14.4013 20.269 13.6135 19.5705 13.1532 18.6633L20.3418 15.0405C20.8165 15.9982 20.9137 17.1387 20.5196 18.2189Z" fill="#FFAB41"/>
<path d="M16.7341 20.9462C16.2661 20.9462 15.7915 20.8656 15.3286 20.6962C13.2656 19.9415 12.1619 17.7091 12.8161 15.6142C12.8295 15.5706 12.8764 15.5455 12.9217 15.5589C12.9653 15.5723 12.9905 15.6193 12.9771 15.6646C12.3498 17.6739 13.4081 19.8157 15.3873 20.5386C16.3768 20.9009 17.4469 20.8539 18.4012 20.4111C18.8713 20.1938 19.2938 19.8855 19.6441 19.5041C19.9944 19.1227 20.2658 18.6756 20.4424 18.1888C20.803 17.1992 20.7577 16.1291 20.315 15.1748C20.0976 14.7047 19.7894 14.2823 19.4079 13.9319C19.0265 13.5816 18.5795 13.3103 18.0926 13.1336C16.4406 12.5298 14.5688 13.1034 13.5423 14.5291C13.5155 14.566 13.4618 14.5744 13.4249 14.5475C13.388 14.5207 13.3779 14.4687 13.4064 14.4301C14.4765 12.9441 16.4288 12.3453 18.1513 12.9743C19.1828 13.3517 20.0047 14.1064 20.4676 15.1027C20.9305 16.099 20.9775 17.2143 20.6001 18.2441C19.9896 19.9113 18.4113 20.9462 16.7341 20.9462Z" fill="black"/>
<path d="M19.4076 17.8131C18.8692 19.2857 17.2373 20.0438 15.7647 19.5054C15.0915 19.261 14.5364 18.77 14.2115 18.1318L19.2852 15.5757C19.6189 16.2483 19.686 17.0516 19.4076 17.8131Z" fill="#FADFCB"/>
<path d="M16.7408 19.7635C16.402 19.7635 16.0632 19.7031 15.7345 19.5841C14.9998 19.3157 14.4145 18.7773 14.0857 18.0695C13.757 17.3617 13.7235 16.5667 13.9918 15.8338C14.2602 15.1008 14.7986 14.5155 15.5064 14.1851C15.8543 14.0224 16.2311 13.9303 16.6148 13.9142C16.9986 13.8981 17.3817 13.9582 17.7421 14.0911C18.4767 14.3595 19.0621 14.8979 19.3908 15.6057C19.7196 16.3135 19.7531 17.1085 19.4847 17.8414C19.3539 18.2028 19.1527 18.5345 18.8927 18.8175C18.6327 19.1006 18.3192 19.3292 17.9702 19.4901C17.5851 19.6695 17.1656 19.7628 16.7408 19.7635ZM16.7374 14.0777C16.3416 14.0777 15.9475 14.1649 15.5768 14.336C14.9093 14.6463 14.4027 15.1981 14.1495 15.8891C13.8962 16.5801 13.9281 17.3299 14.2384 17.9974C14.5487 18.6649 15.1005 19.1715 15.7915 19.4247C16.4825 19.678 17.2322 19.6461 17.8998 19.3358C18.5673 19.0255 19.0738 18.4737 19.3271 17.7827C19.5804 17.0917 19.5485 16.342 19.2382 15.6744C18.9279 15.0069 18.3761 14.5004 17.6851 14.2471C17.3765 14.1347 17.0561 14.0777 16.7374 14.0777Z" fill="black"/>
<path d="M17.6012 14.5609C17.5878 14.5608 17.5745 14.5576 17.5626 14.5513C17.5507 14.5451 17.5404 14.5361 17.5327 14.5251C17.525 14.5141 17.52 14.5014 17.5182 14.4881C17.5164 14.4747 17.5178 14.4612 17.5224 14.4485L17.6347 14.1399C17.6434 14.1204 17.659 14.105 17.6786 14.0966C17.6982 14.0882 17.7202 14.0876 17.7402 14.0949C17.7602 14.1021 17.7767 14.1167 17.7864 14.1356C17.7961 14.1545 17.7982 14.1765 17.7924 14.1969L17.68 14.5055C17.6683 14.5408 17.6347 14.5609 17.6012 14.5609ZM15.7646 19.5892C15.7512 19.5892 15.7379 19.5859 15.726 19.5797C15.7141 19.5735 15.7038 19.5645 15.6961 19.5534C15.6884 19.5424 15.6834 19.5297 15.6816 19.5164C15.6798 19.5031 15.6813 19.4895 15.6858 19.4768L15.7982 19.1682C15.8068 19.1488 15.8224 19.1333 15.842 19.1249C15.8616 19.1166 15.8836 19.116 15.9036 19.1232C15.9236 19.1304 15.9401 19.145 15.9498 19.1639C15.9595 19.1829 15.9617 19.2048 15.9558 19.2253L15.8435 19.5339C15.83 19.5674 15.7982 19.5892 15.7646 19.5892ZM14.3792 16.0586C14.3692 16.0586 14.3591 16.057 14.3507 16.0536L14.0421 15.9412C14.0227 15.9326 14.0072 15.917 13.9988 15.8974C13.9905 15.8778 13.9898 15.8558 13.9971 15.8358C14.0043 15.8158 14.0189 15.7993 14.0378 15.7896C14.0568 15.7799 14.0787 15.7777 14.0991 15.7836L14.4078 15.896C14.4261 15.9028 14.4415 15.9159 14.4512 15.9329C14.4609 15.95 14.4644 15.9698 14.461 15.9891C14.4576 16.0084 14.4476 16.0259 14.4327 16.0386C14.4177 16.0513 14.3988 16.0584 14.3792 16.0586ZM19.4076 17.8952C19.3975 17.8952 19.3875 17.8935 19.3791 17.8902L19.0705 17.7778C19.051 17.7692 19.0355 17.7535 19.0272 17.734C19.0188 17.7144 19.0182 17.6924 19.0254 17.6724C19.0327 17.6524 19.0472 17.6358 19.0662 17.6262C19.0851 17.6165 19.107 17.6143 19.1275 17.6201L19.4361 17.7325C19.4544 17.7394 19.4698 17.7525 19.4795 17.7695C19.4892 17.7865 19.4927 17.8064 19.4893 17.8257C19.4859 17.845 19.4759 17.8625 19.461 17.8752C19.4461 17.8879 19.4272 17.895 19.4076 17.8952ZM15.6808 14.6431C15.6489 14.6431 15.6187 14.6246 15.6053 14.5944L15.4661 14.2959C15.4613 14.286 15.4586 14.2752 15.458 14.2643C15.4574 14.2533 15.4591 14.2423 15.4628 14.232C15.4666 14.2217 15.4724 14.2123 15.4799 14.2042C15.4873 14.1962 15.4963 14.1897 15.5063 14.1852C15.5162 14.1804 15.527 14.1777 15.5379 14.1771C15.5489 14.1765 15.5599 14.1782 15.5702 14.1819C15.5805 14.1857 15.59 14.1915 15.598 14.1989C15.6061 14.2064 15.6125 14.2154 15.617 14.2254L15.7562 14.524C15.7764 14.5659 15.7579 14.6162 15.716 14.6347C15.7043 14.6397 15.6925 14.6431 15.6808 14.6431ZM17.9366 19.497C17.9048 19.497 17.8746 19.4785 17.8612 19.4483L17.722 19.1498C17.7018 19.1079 17.7203 19.0575 17.7622 19.0391C17.8041 19.0206 17.8545 19.0374 17.8729 19.0793L18.0121 19.3779C18.0322 19.4198 18.0138 19.4701 17.9719 19.4886C17.9601 19.4953 17.9484 19.497 17.9366 19.497ZM14.1629 18.1183C14.131 18.1183 14.1008 18.0998 14.0874 18.0696C14.0826 18.0598 14.0799 18.049 14.0793 18.0381C14.0788 18.0271 14.0804 18.0161 14.0842 18.0058C14.0879 17.9955 14.0937 17.986 14.1012 17.978C14.1086 17.9699 14.1176 17.9635 14.1277 17.959L14.4262 17.8197C14.4681 17.8013 14.5184 17.8181 14.5369 17.86C14.557 17.9019 14.5386 17.9522 14.4966 17.9707L14.1981 18.1099C14.1864 18.1149 14.1746 18.1183 14.1629 18.1183ZM19.0168 15.8624C18.9849 15.8624 18.9547 15.844 18.9413 15.8138C18.9365 15.8039 18.9338 15.7931 18.9332 15.7822C18.9327 15.7712 18.9343 15.7602 18.9381 15.7499C18.9418 15.7396 18.9476 15.7301 18.9551 15.7221C18.9625 15.7141 18.9716 15.7076 18.9816 15.7031L19.2801 15.5639C19.322 15.5454 19.3724 15.5622 19.3908 15.6041C19.4109 15.646 19.3925 15.6964 19.3506 15.7148L19.052 15.854C19.0403 15.8591 19.0285 15.8624 19.0168 15.8624Z" fill="black"/>
<path d="M19.3623 12.4861V12.4878C19.3268 12.584 19.2547 12.6623 19.1616 12.7053C19.0685 12.7484 18.9622 12.7528 18.8658 12.7176L17.7689 12.3167C17.7211 12.2997 17.6771 12.2733 17.6395 12.2391C17.6019 12.2049 17.5714 12.1637 17.5499 12.1176C17.5284 12.0716 17.5162 12.0218 17.5141 11.971C17.5119 11.9203 17.5199 11.8696 17.5375 11.8219V11.8202C17.573 11.7236 17.6454 11.6451 17.7388 11.6017C17.8321 11.5583 17.9389 11.5537 18.0356 11.5888L19.1325 11.9896C19.3338 12.0634 19.4361 12.2865 19.3623 12.4861Z" fill="#FF7D83"/>
<path d="M18.148 12.4563L17.7689 12.3171C17.7212 12.2999 17.6773 12.2734 17.6398 12.2392C17.6024 12.205 17.572 12.1637 17.5505 12.1178C17.529 12.0718 17.5168 12.022 17.5145 11.9713C17.5123 11.9206 17.5201 11.87 17.5375 11.8223V11.8206C17.6113 11.6194 17.8327 11.5137 18.0356 11.5875L18.4147 11.7267C18.2117 11.6529 17.9887 11.7569 17.9149 11.9582V11.9599C17.8427 12.1611 17.945 12.3825 18.148 12.4563Z" fill="#FF5671"/>
<path d="M19 12.8267C18.9447 12.8267 18.8893 12.8166 18.8373 12.7982L17.7404 12.3973C17.623 12.3546 17.5274 12.267 17.4745 12.1538C17.4217 12.0405 17.416 11.911 17.4587 11.7935C17.5023 11.6728 17.5895 11.5788 17.7035 11.5268C17.8176 11.4732 17.945 11.4681 18.0641 11.5117L19.161 11.9126C19.4059 12.0015 19.5317 12.2732 19.4428 12.5181V12.5198C19.3992 12.6388 19.3137 12.7328 19.1996 12.7848C19.1342 12.8116 19.0671 12.8267 19 12.8267ZM17.9014 11.6493C17.8392 11.6493 17.7785 11.6685 17.7275 11.7042C17.6765 11.7399 17.6377 11.7904 17.6163 11.8489C17.5593 12.0065 17.6398 12.181 17.7975 12.238L18.8944 12.6388C18.9715 12.6674 19.0537 12.664 19.1275 12.6305C19.2013 12.5969 19.2566 12.5365 19.2835 12.4611V12.4594C19.311 12.3838 19.3074 12.3003 19.2735 12.2273C19.2395 12.1544 19.1779 12.0979 19.1023 12.0703L18.0054 11.6694C17.9719 11.656 17.9367 11.6493 17.9014 11.6493ZM17.4486 18.4488C17.4167 18.4488 17.3865 18.4303 17.3731 18.4001L16.6636 16.8722C16.6542 16.8522 16.653 16.8293 16.6603 16.8084L17.3094 15.0306C17.318 15.0111 17.3337 14.9956 17.3532 14.9873C17.3728 14.9789 17.3948 14.9783 17.4148 14.9855C17.4348 14.9928 17.4513 15.0073 17.461 15.0263C17.4707 15.0452 17.4729 15.0671 17.467 15.0876L16.8297 16.8319L17.5257 18.328C17.5459 18.3699 17.5274 18.4203 17.4855 18.4387C17.4737 18.4471 17.4603 18.4488 17.4486 18.4488Z" fill="black"/>
<path d="M16.7391 17.2128C16.9466 17.2128 17.1148 17.0446 17.1148 16.8371C17.1148 16.6296 16.9466 16.4614 16.7391 16.4614C16.5316 16.4614 16.3634 16.6296 16.3634 16.8371C16.3634 17.0446 16.5316 17.2128 16.7391 17.2128Z" fill="black"/>
<path d="M14.4312 17.1272C14.3876 17.1272 14.3524 17.0936 14.3474 17.05C14.344 17.0048 14.3776 16.9628 14.4229 16.9595L16.7307 16.7532C16.776 16.7498 16.8179 16.7834 16.8213 16.8286C16.8247 16.8739 16.7911 16.9159 16.7458 16.9192L14.438 17.1255C14.4363 17.1272 14.4346 17.1272 14.4312 17.1272ZM18.7635 9.59307C18.5388 9.5763 18.3694 9.38006 18.3862 9.15699C18.4029 8.93392 18.5975 8.7662 18.8222 8.78129C19.047 8.79806 19.2164 8.99262 19.1996 9.21569C19.1845 9.44044 18.9883 9.60817 18.7635 9.59307ZM18.8088 8.96914C18.6881 8.96075 18.5824 9.04965 18.574 9.17041C18.5726 9.22682 18.593 9.28159 18.631 9.32337C18.6689 9.36515 18.7214 9.39074 18.7777 9.39483C18.834 9.39893 18.8897 9.38122 18.9333 9.34537C18.9768 9.30952 19.0049 9.25829 19.0118 9.20228C19.0138 9.17363 19.0102 9.14486 19.0011 9.11761C18.992 9.09037 18.9776 9.0652 18.9587 9.04353C18.9399 9.02187 18.9169 9.00415 18.8912 8.99138C18.8655 8.97861 18.8375 8.97106 18.8088 8.96914ZM20.9993 10.4116C20.9892 10.5407 20.8785 10.6363 20.7494 10.6279C20.6219 10.6179 20.5246 10.5072 20.533 10.378C20.5431 10.2522 20.6555 10.1549 20.7829 10.1633C20.9121 10.1734 21.0093 10.2858 20.9993 10.4116ZM20.8165 13.1673C20.8064 13.2964 20.6957 13.392 20.5666 13.3836C20.4391 13.3736 20.3418 13.2629 20.3502 13.1337C20.3603 13.0079 20.4726 12.9106 20.6001 12.919C20.7309 12.9274 20.8265 13.0398 20.8165 13.1673ZM19.998 7.30533C19.7732 7.28855 19.6038 7.09232 19.6206 6.86925C19.6374 6.64617 19.8319 6.47845 20.0567 6.49355C20.2814 6.51032 20.4508 6.70488 20.4341 6.92795C20.4304 6.98142 20.4161 7.03363 20.3922 7.08158C20.3682 7.12953 20.335 7.17227 20.2945 7.20734C20.254 7.24241 20.2069 7.26912 20.156 7.28594C20.1051 7.30276 20.0514 7.30935 19.998 7.30533ZM20.0433 6.6814C19.9225 6.67301 19.8168 6.7619 19.8084 6.88266C19.8071 6.93907 19.8275 6.99384 19.8654 7.03562C19.9033 7.0774 19.9559 7.10299 20.0121 7.10709C20.0684 7.11119 20.1241 7.09348 20.1677 7.05763C20.2113 7.02178 20.2394 6.97054 20.2462 6.91453C20.2546 6.79545 20.164 6.69146 20.0433 6.6814ZM20.3502 4.41546C20.3401 4.5446 20.2294 4.64021 20.1003 4.63182C19.9728 4.62176 19.8755 4.51106 19.8839 4.38191C19.894 4.25612 20.0064 4.15884 20.1338 4.16723C20.1952 4.17195 20.2523 4.20063 20.2928 4.24706C20.3333 4.29349 20.3539 4.35397 20.3502 4.41546ZM0.250251 18.994C0.211256 18.9572 0.179889 18.9131 0.157941 18.8642C0.135994 18.8153 0.123896 18.7625 0.122338 18.7089C0.12078 18.6554 0.129794 18.602 0.148864 18.5519C0.167934 18.5018 0.196686 18.456 0.233479 18.417C0.387784 18.2543 0.644401 18.2476 0.808769 18.4019C0.973138 18.5562 0.979847 18.8145 0.827219 18.9772C0.672913 19.1399 0.41462 19.1483 0.250251 18.994ZM0.679622 18.5377C0.592406 18.4556 0.453196 18.4589 0.371012 18.5461C0.288827 18.6333 0.292182 18.7726 0.379398 18.8564C0.466614 18.9386 0.605824 18.9353 0.689686 18.8464C0.77187 18.7591 0.766838 18.6216 0.679622 18.5377ZM2.03818 20.9982C1.94929 21.0922 1.80169 21.0972 1.70777 21.0083C1.61384 20.9211 1.60881 20.7718 1.6977 20.6779C1.78492 20.5856 1.93419 20.5806 2.02644 20.6695C2.12204 20.7567 2.1254 20.9043 2.03818 20.9982ZM2.50445 0.046268C2.70404 -0.0577203 2.95059 0.0194323 3.05458 0.219023C3.15857 0.416936 3.07974 0.663489 2.88183 0.767478C2.68224 0.871466 2.43568 0.794313 2.3317 0.5964C2.22771 0.398487 2.30486 0.150256 2.50445 0.046268ZM2.79461 0.601432C2.90195 0.546083 2.94389 0.413582 2.88854 0.307916C2.83319 0.200573 2.70069 0.158643 2.59334 0.215668C2.486 0.272694 2.44407 0.405196 2.5011 0.510861C2.55477 0.616527 2.68727 0.65678 2.79461 0.601432ZM0.0271792 1.08112C-0.0332011 0.965391 0.0104069 0.826181 0.124459 0.7658C0.23851 0.707097 0.379398 0.749028 0.439778 0.864757C0.498481 0.977132 0.454873 1.1197 0.340822 1.1784C0.22677 1.23878 0.0858824 1.19349 0.0271792 1.08112Z" fill="black"/>
</svg>
