<svg width="10" height="10" viewBox="0 0 10 10" fill="none" xmlns="http://www.w3.org/2000/svg">
<g clip-path="url(#clip0_646_27)">
<path d="M9.58333 9.16672V3.95839C9.58337 3.91759 9.57142 3.87768 9.54898 3.8436C9.52654 3.80953 9.49458 3.7828 9.45708 3.76672L6.54042 2.51672C6.50871 2.50313 6.47413 2.49763 6.43978 2.5007C6.40542 2.50377 6.37237 2.51533 6.34358 2.53433C6.31479 2.55332 6.29117 2.57917 6.27484 2.60956C6.2585 2.63994 6.24997 2.6739 6.25 2.70839V9.16672H5.83333V0.312557C5.83334 0.26192 5.82105 0.212039 5.7975 0.167208C5.77396 0.122377 5.73988 0.0839388 5.69818 0.0552012C5.65649 0.0264636 5.60844 0.00828784 5.55817 0.00223826C5.50789 -0.00381132 5.4569 0.00244654 5.40958 0.0204732L1.03458 1.68714C0.975388 1.70969 0.924443 1.7497 0.888502 1.80186C0.852562 1.85402 0.833322 1.91588 0.833333 1.97922V9.16672H0.416667C0.30616 9.16672 0.200179 9.21062 0.122039 9.28876C0.0438987 9.3669 0 9.47288 0 9.58339C0 9.6939 0.0438987 9.79988 0.122039 9.87802C0.200179 9.95616 0.30616 10.0001 0.416667 10.0001H9.58333C9.69384 10.0001 9.79982 9.95616 9.87796 9.87802C9.9561 9.79988 10 9.6939 10 9.58339C10 9.47288 9.9561 9.3669 9.87796 9.28876C9.79982 9.21062 9.69384 9.16672 9.58333 9.16672ZM8.33333 5.31256C8.33333 5.22968 8.36626 5.15019 8.42486 5.09159C8.48347 5.03298 8.56295 5.00006 8.64583 5.00006C8.72871 5.00006 8.8082 5.03298 8.8668 5.09159C8.92541 5.15019 8.95833 5.22968 8.95833 5.31256V5.93756C8.95833 6.02044 8.92541 6.09992 8.8668 6.15853C8.8082 6.21713 8.72871 6.25006 8.64583 6.25006C8.56295 6.25006 8.48347 6.21713 8.42486 6.15853C8.36626 6.09992 8.33333 6.02044 8.33333 5.93756V5.31256ZM8.33333 7.81256C8.33333 7.72968 8.36626 7.65019 8.42486 7.59159C8.48347 7.53298 8.56295 7.50006 8.64583 7.50006C8.72871 7.50006 8.8082 7.53298 8.8668 7.59159C8.92541 7.65019 8.95833 7.72968 8.95833 7.81256V8.43756C8.95833 8.52044 8.92541 8.59992 8.8668 8.65853C8.8082 8.71713 8.72871 8.75006 8.64583 8.75006C8.56295 8.75006 8.48347 8.71713 8.42486 8.65853C8.36626 8.59992 8.33333 8.52044 8.33333 8.43756V7.81256ZM6.875 5.31256C6.875 5.22968 6.90792 5.15019 6.96653 5.09159C7.02513 5.03298 7.10462 5.00006 7.1875 5.00006C7.27038 5.00006 7.34987 5.03298 7.40847 5.09159C7.46708 5.15019 7.5 5.22968 7.5 5.31256V5.93756C7.5 6.02044 7.46708 6.09992 7.40847 6.15853C7.34987 6.21713 7.27038 6.25006 7.1875 6.25006C7.10462 6.25006 7.02513 6.21713 6.96653 6.15853C6.90792 6.09992 6.875 6.02044 6.875 5.93756V5.31256ZM6.875 7.81256C6.875 7.72968 6.90792 7.65019 6.96653 7.59159C7.02513 7.53298 7.10462 7.50006 7.1875 7.50006C7.27038 7.50006 7.34987 7.53298 7.40847 7.59159C7.46708 7.65019 7.5 7.72968 7.5 7.81256V8.43756C7.5 8.52044 7.46708 8.59992 7.40847 8.65853C7.34987 8.71713 7.27038 8.75006 7.1875 8.75006C7.10462 8.75006 7.02513 8.71713 6.96653 8.65853C6.90792 8.59992 6.875 8.52044 6.875 8.43756V7.81256ZM3.95833 2.81256C3.95833 2.72968 3.99126 2.65019 4.04986 2.59159C4.10847 2.53298 4.18795 2.50006 4.27083 2.50006C4.35371 2.50006 4.4332 2.53298 4.4918 2.59159C4.55041 2.65019 4.58333 2.72968 4.58333 2.81256V3.43756C4.58333 3.52044 4.55041 3.59992 4.4918 3.65853C4.4332 3.71713 4.35371 3.75006 4.27083 3.75006C4.18795 3.75006 4.10847 3.71713 4.04986 3.65853C3.99126 3.59992 3.95833 3.52044 3.95833 3.43756V2.81256ZM3.95833 5.31256C3.95833 5.22968 3.99126 5.15019 4.04986 5.09159C4.10847 5.03298 4.18795 5.00006 4.27083 5.00006C4.35371 5.00006 4.4332 5.03298 4.4918 5.09159C4.55041 5.15019 4.58333 5.22968 4.58333 5.31256V5.93756C4.58333 6.02044 4.55041 6.09992 4.4918 6.15853C4.4332 6.21713 4.35371 6.25006 4.27083 6.25006C4.18795 6.25006 4.10847 6.21713 4.04986 6.15853C3.99126 6.09992 3.95833 6.02044 3.95833 5.93756V5.31256ZM3.95833 7.81256C3.95833 7.72968 3.99126 7.65019 4.04986 7.59159C4.10847 7.53298 4.18795 7.50006 4.27083 7.50006C4.35371 7.50006 4.4332 7.53298 4.4918 7.59159C4.55041 7.65019 4.58333 7.72968 4.58333 7.81256V8.43756C4.58333 8.52044 4.55041 8.59992 4.4918 8.65853C4.4332 8.71713 4.35371 8.75006 4.27083 8.75006C4.18795 8.75006 4.10847 8.71713 4.04986 8.65853C3.99126 8.59992 3.95833 8.52044 3.95833 8.43756V7.81256ZM2.08333 2.81256C2.08333 2.72968 2.11626 2.65019 2.17486 2.59159C2.23347 2.53298 2.31295 2.50006 2.39583 2.50006C2.47871 2.50006 2.5582 2.53298 2.6168 2.59159C2.67541 2.65019 2.70833 2.72968 2.70833 2.81256V3.43756C2.70833 3.52044 2.67541 3.59992 2.6168 3.65853C2.5582 3.71713 2.47871 3.75006 2.39583 3.75006C2.31295 3.75006 2.23347 3.71713 2.17486 3.65853C2.11626 3.59992 2.08333 3.52044 2.08333 3.43756V2.81256ZM2.08333 5.31256C2.08333 5.22968 2.11626 5.15019 2.17486 5.09159C2.23347 5.03298 2.31295 5.00006 2.39583 5.00006C2.47871 5.00006 2.5582 5.03298 2.6168 5.09159C2.67541 5.15019 2.70833 5.22968 2.70833 5.31256V5.93756C2.70833 6.02044 2.67541 6.09992 2.6168 6.15853C2.5582 6.21713 2.47871 6.25006 2.39583 6.25006C2.31295 6.25006 2.23347 6.21713 2.17486 6.15853C2.11626 6.09992 2.08333 6.02044 2.08333 5.93756V5.31256ZM2.08333 7.81256C2.08333 7.72968 2.11626 7.65019 2.17486 7.59159C2.23347 7.53298 2.31295 7.50006 2.39583 7.50006C2.47871 7.50006 2.5582 7.53298 2.6168 7.59159C2.67541 7.65019 2.70833 7.72968 2.70833 7.81256V8.43756C2.70833 8.52044 2.67541 8.59992 2.6168 8.65853C2.5582 8.71713 2.47871 8.75006 2.39583 8.75006C2.31295 8.75006 2.23347 8.71713 2.17486 8.65853C2.11626 8.59992 2.08333 8.52044 2.08333 8.43756V7.81256Z" fill="#667791"/>
</g>
<defs>
<clipPath id="clip0_646_27">
<rect width="10" height="10" fill="white"/>
</clipPath>
</defs>
</svg>
