<svg width="18" height="17" viewBox="0 0 18 17" fill="none" xmlns="http://www.w3.org/2000/svg">
<path d="M5.905 4.93873L7.82495 1.11383C8.04695 0.672844 8.58398 0.495849 9.02193 0.717836C9.19293 0.804837 9.33096 0.945836 9.41789 1.11983L11.2329 4.80973C11.3798 5.11273 11.6709 5.31673 12.0039 5.35573L15.7988 5.81172C16.3148 5.87471 16.6838 6.3457 16.6237 6.86469C16.5968 7.07768 16.5007 7.27568 16.3478 7.42567L13.3448 10.3866C13.2218 10.5066 13.1648 10.6746 13.1858 10.8456L13.6868 14.8415C13.7588 15.4145 13.3538 15.9365 12.7838 16.0085C12.5678 16.0355 12.3519 15.9964 12.1599 15.8915L8.98896 14.1575C8.75792 14.0315 8.48194 14.0285 8.25094 14.1485L4.96302 15.8345C4.50104 16.0715 3.93705 15.8855 3.70005 15.4204C3.61006 15.2465 3.58006 15.0515 3.60706 14.8595L3.86805 13.0235C3.99705 12.1265 4.55203 11.3466 5.35602 10.9356L9.00397 9.07264C9.09992 9.02466 9.13897 8.90468 9.0909 8.80559C9.05195 8.73064 8.97091 8.68561 8.88693 8.69767L4.42304 9.33959C3.74205 9.43563 3.05208 9.24364 2.51509 8.80559L1.03013 7.59367C0.60714 7.24868 0.538141 6.61869 0.883134 6.1927C1.04513 5.99471 1.27612 5.86571 1.52812 5.83271L5.33802 5.34373C5.58102 5.31072 5.79401 5.16073 5.905 4.93873Z" fill="url(#paint0_linear_655_703)"/>
<path d="M9.28304 1.79509C8.89601 1.70809 8.48501 1.89408 8.29902 2.26607L6.37607 6.09098C6.26507 6.31297 6.05508 6.46297 5.80908 6.49596L1.99918 6.98795C1.75319 7.02095 1.52819 7.14095 1.3692 7.32995L2.77916 8.48192C3.22316 8.84494 3.79914 9.00388 4.36612 8.92294L8.82704 8.28392C9.09105 8.24792 9.34897 8.37992 9.46601 8.61694C9.61896 8.9199 9.49898 9.29192 9.19602 9.44791L8.03203 10.0418L9.358 9.84985C9.44198 9.83788 9.52596 9.88291 9.56196 9.95787C9.61298 10.0569 9.57099 10.1768 9.47504 10.2249L5.82709 12.0879C5.02311 12.4988 4.46812 13.2788 4.33912 14.1758L4.16813 15.3668C4.32412 15.5228 4.57011 15.5648 4.77412 15.4597L8.05603 13.7738C8.41302 13.5908 8.83597 13.5967 9.187 13.7887L12.3579 15.5228C12.4719 15.5858 12.604 15.6097 12.7329 15.5948C13.0689 15.5527 13.3119 15.2407 13.2699 14.8958L12.7719 10.8968C12.7359 10.5968 12.8379 10.2999 13.0509 10.0899L16.0538 7.12895C16.1048 7.07795 16.1438 7.01795 16.1708 6.95195L12.4749 6.50796C12.142 6.46896 11.8539 6.26197 11.7039 5.96198L11.5599 5.66499C11.257 5.53299 11.008 5.29899 10.858 4.99601L9.28304 1.79509Z" fill="url(#paint1_linear_655_703)"/>
<path d="M9.211 0.343195C8.56301 0.0162051 7.77701 0.277199 7.45302 0.925184L5.53007 4.75309C5.48206 4.84908 5.38907 4.91509 5.28406 4.92709L1.47417 5.41907C1.11417 5.46408 0.784181 5.65007 0.55619 5.93206C0.0671967 6.53804 0.160202 7.42602 0.763186 7.91801L2.25114 9.133C2.87813 9.64296 3.68511 9.86792 4.48309 9.75392L7.63601 9.30096L5.16407 10.564C4.2371 11.0379 3.60111 11.9319 3.45412 12.9639L3.19012 14.7998C3.15113 15.0789 3.19613 15.3608 3.32512 15.6129C3.66411 16.2819 4.48609 16.5488 5.15507 16.2068L8.43999 14.5208C8.548 14.4638 8.67701 14.4669 8.78502 14.5268L11.9559 16.2578C12.2229 16.4048 12.5319 16.4648 12.8349 16.4258C13.6358 16.3238 14.1998 15.5888 14.1008 14.7908L13.6029 10.7919C13.5969 10.7529 13.6119 10.711 13.6389 10.684L16.6418 7.72301C16.8608 7.50402 17.0018 7.21903 17.0378 6.91303C17.1248 6.16606 16.5968 5.48807 15.8498 5.39807L12.0519 4.94209C11.8629 4.92108 11.6949 4.80109 11.6079 4.6271L9.79592 0.934181C9.66995 0.679191 9.46294 0.472196 9.211 0.343195ZM8.2 1.30018C8.317 1.06618 8.60196 0.973188 8.833 1.09018C8.92296 1.13518 8.99801 1.21318 9.04295 1.30617L10.8579 4.99609C11.068 5.42508 11.4789 5.71606 11.9529 5.77306L15.7508 6.22905C16.0358 6.26206 16.2398 6.52305 16.2068 6.81403C16.1918 6.93404 16.1378 7.04504 16.0538 7.12903L13.0509 10.0899C12.8379 10.3 12.7359 10.597 12.7719 10.897L13.2699 14.8958C13.3119 15.2408 13.0689 15.5528 12.7328 15.5948C12.6039 15.6098 12.4719 15.5858 12.3579 15.5228L9.18697 13.7889C8.83594 13.5969 8.41299 13.5938 8.056 13.7769L4.77108 15.4629C4.51608 15.5919 4.2041 15.4898 4.0721 15.2318C4.0241 15.1359 4.00611 15.0248 4.0211 14.9168L4.28209 13.0839C4.3901 12.3219 4.86408 11.659 5.54507 11.311L9.19295 9.44793C9.49895 9.29194 9.61893 8.92001 9.46598 8.61696C9.346 8.38 9.09102 8.248 8.82701 8.284L4.3631 8.92296C3.79611 9.00399 3.22313 8.84496 2.77913 8.482L1.29417 7.26702C1.04818 7.06603 1.00918 6.70304 1.21017 6.45704C1.30317 6.34305 1.43517 6.26805 1.57916 6.25005L5.38907 5.75806C5.77306 5.71007 6.10605 5.47307 6.28004 5.12808L8.2 1.30018Z" fill="url(#paint2_linear_655_703)"/>
<defs>
<linearGradient id="paint0_linear_655_703" x1="8.64696" y1="0.621838" x2="8.64696" y2="16.0174" gradientUnits="userSpaceOnUse">
<stop stop-color="#FFF0C2"/>
<stop offset="1" stop-color="#FFEBBA"/>
</linearGradient>
<linearGradient id="paint1_linear_655_703" x1="8.77004" y1="1.77408" x2="12.9939" y2="15.5977" gradientUnits="userSpaceOnUse">
<stop stop-color="#FFD147"/>
<stop offset="1" stop-color="#FFB526"/>
</linearGradient>
<linearGradient id="paint2_linear_655_703" x1="8.64699" y1="0.202205" x2="12.3519" y2="16.4348" gradientUnits="userSpaceOnUse">
<stop stop-color="#E58F0D"/>
<stop offset="1" stop-color="#EB7814"/>
</linearGradient>
</defs>
</svg>
