<svg width="41" height="41" viewBox="0 0 41 41" fill="none" xmlns="http://www.w3.org/2000/svg">
<g clip-path="url(#clip0_1103_897)">
<path d="M35.4091 0H5.59091C2.50314 0 0 2.50314 0 5.59091V35.4091C0 38.4969 2.50314 41 5.59091 41H35.4091C38.4969 41 41 38.4969 41 35.4091V5.59091C41 2.50314 38.4969 0 35.4091 0Z" fill="#29A71A"/>
<path d="M29.5386 11.4613C27.4057 9.30721 24.5733 7.98615 21.5522 7.73646C18.5311 7.48676 15.5202 8.32486 13.0626 10.0996C10.6051 11.8743 8.86257 14.4688 8.14948 17.4152C7.43638 20.3615 7.79962 23.4657 9.17367 26.1678L7.82487 32.7161C7.81087 32.7813 7.81047 32.8487 7.8237 32.914C7.83693 32.9793 7.8635 33.0412 7.90174 33.0958C7.95777 33.1787 8.03774 33.2425 8.13098 33.2787C8.22422 33.3149 8.32629 33.3218 8.42356 33.2985L14.8415 31.7773C17.536 33.1166 20.6182 33.4565 23.5398 32.7365C26.4614 32.0165 29.0327 30.2833 30.7964 27.8454C32.5601 25.4075 33.4016 22.4229 33.1713 19.4228C32.9409 16.4226 31.6537 13.6015 29.5386 11.4613ZM27.5375 27.4327C26.0618 28.9043 24.1615 29.8757 22.1044 30.21C20.0474 30.5444 17.9373 30.2248 16.0715 29.2963L15.1769 28.8537L11.2423 29.7856L11.254 29.7366L12.0693 25.7764L11.6313 24.9121C10.678 23.0398 10.3417 20.9138 10.6706 18.8387C10.9995 16.7635 11.9768 14.8457 13.4624 13.3599C15.329 11.4938 17.8605 10.4455 20.4999 10.4455C23.1394 10.4455 25.6708 11.4938 27.5375 13.3599C27.5534 13.3782 27.5705 13.3953 27.5887 13.4112C29.4323 15.2821 30.4614 17.8059 30.4518 20.4325C30.4422 23.0591 29.3946 25.5753 27.5375 27.4327Z" fill="white"/>
<path d="M27.188 24.5278C26.7058 25.2872 25.944 26.2167 24.9866 26.4473C23.3093 26.8527 20.7351 26.4613 17.532 23.4748L17.4924 23.4399C14.676 20.8285 13.9445 18.655 14.1216 16.9311C14.2194 15.9527 15.0347 15.0675 15.722 14.4898C15.8306 14.397 15.9594 14.331 16.0982 14.297C16.2369 14.263 16.3817 14.2619 16.5209 14.2938C16.6601 14.3257 16.7899 14.3898 16.9 14.4808C17.01 14.5719 17.0972 14.6874 17.1546 14.8182L18.1913 17.1478C18.2586 17.2988 18.2836 17.4654 18.2635 17.6295C18.2434 17.7937 18.179 17.9493 18.0771 18.0796L17.553 18.7598C17.4405 18.9003 17.3726 19.0712 17.3581 19.2505C17.3436 19.4299 17.3831 19.6095 17.4714 19.7662C17.765 20.281 18.4685 21.0381 19.2489 21.7393C20.1248 22.5314 21.0962 23.2559 21.7112 23.5028C21.8758 23.57 22.0567 23.5864 22.2307 23.5499C22.4046 23.5133 22.5637 23.4255 22.6873 23.2978L23.2953 22.6851C23.4126 22.5694 23.5585 22.4869 23.7181 22.446C23.8777 22.4051 24.0453 22.4072 24.2038 22.4522L26.6662 23.151C26.802 23.1927 26.9265 23.2649 27.0301 23.362C27.1338 23.4592 27.2139 23.5788 27.2642 23.7116C27.3146 23.8445 27.3339 23.9871 27.3207 24.1285C27.3075 24.27 27.2621 24.4066 27.188 24.5278Z" fill="white"/>
</g>
<defs>
<clipPath id="clip0_1103_897">
<rect width="41" height="41" fill="white"/>
</clipPath>
</defs>
</svg>
