<svg width="15" height="22" viewBox="0 0 15 22" fill="none" xmlns="http://www.w3.org/2000/svg">
<path d="M5.62493 18.8704L5.62493 8.24995C5.62493 7.74368 5.20521 7.33328 4.68745 7.33328C4.16969 7.33328 3.74997 7.74368 3.74997 8.24995L3.74997 18.8704L1.6004 16.7685C1.2343 16.4105 0.640685 16.4105 0.274579 16.7685C-0.0915268 17.1265 -0.0915267 17.7069 0.274579 18.0649L4.02454 21.7316C4.04638 21.753 4.06937 21.7732 4.09327 21.7924C4.10408 21.801 4.11551 21.8086 4.12663 21.8167C4.13999 21.8265 4.15304 21.8366 4.16697 21.8457C4.18028 21.8544 4.19413 21.862 4.20779 21.87C4.22036 21.8773 4.23267 21.8851 4.24563 21.8919C4.25956 21.8992 4.27393 21.9054 4.28817 21.9119C4.30166 21.9181 4.31493 21.9247 4.32877 21.9303C4.34262 21.9359 4.35677 21.9405 4.37083 21.9454C4.38564 21.9506 4.40023 21.9561 4.41535 21.9606C4.42941 21.9647 4.44369 21.9678 4.45793 21.9713C4.47335 21.9751 4.4886 21.9793 4.50433 21.9824C4.52081 21.9855 4.53742 21.9874 4.55399 21.9898C4.56766 21.9916 4.58115 21.9942 4.59499 21.9956C4.65653 22.0015 4.71851 22.0015 4.78004 21.9956C4.79389 21.9942 4.80733 21.9917 4.82105 21.9898C4.83761 21.9874 4.85427 21.9855 4.8707 21.9823C4.88644 21.9793 4.90164 21.9751 4.91707 21.9712C4.9313 21.9678 4.94559 21.9647 4.95965 21.9605C4.97477 21.9561 4.9894 21.9505 5.00416 21.9453C5.01823 21.9404 5.03238 21.9359 5.04622 21.9303C5.06006 21.9247 5.07329 21.9181 5.08678 21.9118C5.10102 21.9053 5.11539 21.8991 5.12936 21.8918C5.14228 21.885 5.15454 21.8773 5.16711 21.87C5.18082 21.862 5.19467 21.8544 5.20803 21.8457C5.22191 21.8366 5.23492 21.8265 5.24828 21.8168C5.25944 21.8086 5.27087 21.801 5.28172 21.7923C5.30545 21.7733 5.32826 21.7532 5.34992 21.732L5.35041 21.7316L9.10037 18.0649C9.46648 17.7069 9.46648 17.1265 9.10037 16.7685C8.73426 16.4105 8.14065 16.4105 7.77455 16.7685L5.62493 18.8704ZM10.9066 0.207649C10.8957 0.198883 10.8843 0.191322 10.8731 0.183115C10.8598 0.173402 10.8468 0.163305 10.8329 0.154281C10.8196 0.145515 10.8057 0.137954 10.792 0.129961C10.7795 0.122655 10.7672 0.114965 10.7543 0.108219C10.7404 0.100914 10.7259 0.0946822 10.7117 0.0881076C10.6982 0.0818782 10.685 0.0753474 10.6712 0.0697169C10.6573 0.0641322 10.6432 0.0595775 10.6291 0.0546775C10.6143 0.04948 10.5997 0.0439353 10.5846 0.0394664C10.5705 0.0352988 10.5562 0.032249 10.542 0.0287681C10.5266 0.0249438 10.5114 0.0207324 10.4957 0.0176826C10.4792 0.014503 10.4626 0.0126109 10.446 0.0102477C10.4323 0.00835755 10.4189 0.00577881 10.405 0.00444748C10.3435 -0.00148246 10.2815 -0.00148246 10.22 0.00444749C10.2061 0.00577882 10.1927 0.00831559 10.179 0.0102477C10.1624 0.012569 10.1457 0.0144592 10.1293 0.0176826C10.1136 0.0207324 10.0984 0.0249439 10.0829 0.0287681C10.0687 0.032249 10.0544 0.0352989 10.0404 0.0394664C10.0252 0.0439353 10.0106 0.04948 9.99584 0.0546775C9.98177 0.0596195 9.96762 0.0641323 9.95378 0.069717C9.93998 0.0753036 9.92675 0.0818782 9.91331 0.0881076C9.89903 0.0946823 9.88461 0.10087 9.87064 0.108219C9.85776 0.114965 9.8455 0.122655 9.83298 0.129961C9.81927 0.137954 9.80538 0.145559 9.79202 0.154281C9.77818 0.163347 9.76517 0.173402 9.7519 0.183115C9.74069 0.191322 9.72922 0.198927 9.71832 0.207649C9.69479 0.226503 9.6722 0.246463 9.65065 0.267461L9.64964 0.268364L5.89968 3.93506C5.53357 4.29304 5.53357 4.87347 5.89968 5.23144C6.26578 5.58942 6.85939 5.58942 7.2255 5.23144L9.37507 3.1296L9.37507 13.75C9.37507 14.2563 9.79479 14.6667 10.3125 14.6667C10.8303 14.6667 11.25 14.2563 11.25 13.75L11.25 3.1296L13.3996 5.23144C13.7657 5.58942 14.3593 5.58942 14.7254 5.23144C15.0915 4.87347 15.0915 4.29304 14.7254 3.93506L10.9755 0.268363L10.9744 0.267461C10.9528 0.246494 10.9302 0.226535 10.9066 0.207649Z" fill="#CFD4DC"/>
</svg>
