<svg width="10" height="10" viewBox="0 0 10 10" fill="none" xmlns="http://www.w3.org/2000/svg">
<g clip-path="url(#clip0_646_24)">
<path fill-rule="evenodd" clip-rule="evenodd" d="M1.95312 0H8.04688C8.56457 0.00099627 9.06078 0.207091 9.42684 0.573158C9.79291 0.939224 9.999 1.43543 10 1.95312V8.04688C9.999 8.56457 9.79291 9.06078 9.42684 9.42684C9.06078 9.79291 8.56457 9.999 8.04688 10H1.95312C1.43543 9.999 0.939224 9.79291 0.573158 9.42684C0.207091 9.06078 0.00099627 8.56457 0 8.04688L0 1.95312C0.00099627 1.43543 0.207091 0.939224 0.573158 0.573158C0.939224 0.207091 1.43543 0.00099627 1.95312 0ZM2.07031 7.5635C2.07034 7.66061 2.10893 7.75374 2.1776 7.82241C2.24628 7.89108 2.33941 7.92967 2.43652 7.92969H4.35318C4.40159 7.93019 4.44962 7.92108 4.49449 7.9029C4.53936 7.88473 4.58018 7.85783 4.61459 7.82377C4.649 7.78972 4.67631 7.74918 4.69496 7.7045C4.7136 7.65982 4.7232 7.61189 4.7232 7.56348C4.7232 7.51506 4.7136 7.46713 4.69496 7.42245C4.67631 7.37777 4.649 7.33723 4.61459 7.30318C4.58018 7.26912 4.53936 7.24223 4.49449 7.22405C4.44962 7.20587 4.40159 7.19677 4.35318 7.19727H3.32066L4.68395 5.83398C4.75264 5.7653 4.79124 5.67215 4.79125 5.57501C4.79126 5.47787 4.75268 5.3847 4.68399 5.31601C4.64999 5.28199 4.60961 5.25501 4.56518 5.2366C4.52074 5.21819 4.47311 5.20871 4.42501 5.2087C4.32788 5.2087 4.23471 5.24728 4.16602 5.31596L2.80273 6.67943V5.64682C2.80174 5.55035 2.76272 5.45817 2.69415 5.3903C2.62558 5.32244 2.533 5.28437 2.43652 5.28437C2.34005 5.28437 2.24747 5.32244 2.1789 5.3903C2.11033 5.45817 2.07131 5.55035 2.07031 5.64682V7.5635ZM7.92969 2.43654C7.92967 2.33942 7.89108 2.24629 7.8224 2.17761C7.75373 2.10893 7.6606 2.07034 7.56348 2.07031H5.64682C5.59841 2.06981 5.55038 2.07892 5.50551 2.0971C5.46064 2.11527 5.41982 2.14217 5.38541 2.17623C5.351 2.21028 5.32369 2.25082 5.30504 2.2955C5.2864 2.34018 5.2768 2.38811 5.2768 2.43652C5.2768 2.48494 5.2864 2.53287 5.30504 2.57755C5.32369 2.62223 5.351 2.66277 5.38541 2.69682C5.41982 2.73088 5.46064 2.75777 5.50551 2.77595C5.55038 2.79413 5.59841 2.80323 5.64682 2.80273H6.67943L5.31596 4.16602C5.24726 4.23471 5.20867 4.32788 5.20867 4.42503C5.20867 4.52218 5.24726 4.61535 5.31596 4.68404C5.38465 4.75274 5.47782 4.79133 5.57497 4.79133C5.67212 4.79133 5.76529 4.75274 5.83398 4.68404L7.19727 3.32057V4.3532C7.19826 4.44967 7.23728 4.54185 7.30585 4.60972C7.37442 4.67758 7.467 4.71565 7.56348 4.71565C7.65995 4.71565 7.75253 4.67758 7.8211 4.60972C7.88967 4.54185 7.92869 4.44967 7.92969 4.3532V2.43654Z" fill="#667791"/>
</g>
<defs>
<clipPath id="clip0_646_24">
<rect width="10" height="10" fill="white"/>
</clipPath>
</defs>
</svg>
