<svg width="44" height="44" viewBox="0 0 44 44" fill="none" xmlns="http://www.w3.org/2000/svg">
<g clip-path="url(#clip0_762_661)">
<path d="M2.74996 2.99382C-0.707708 6.58532 -4.15913e-05 10.4005 -4.15913e-05 21.9908C-4.15913e-05 31.6158 -1.67938 41.2646 7.10963 43.5361C9.85413 44.242 34.1715 44.242 36.9123 43.5325C40.5716 42.5883 43.549 39.6201 43.956 34.4446C44.0128 33.7223 44.0128 10.2721 43.9541 9.53515C43.5215 4.02232 40.128 0.84515 35.6565 0.20165C34.6316 0.05315 34.4263 0.00914999 29.1683 -1.66712e-05C10.5178 0.00914999 6.42946 -0.82135 2.74996 2.99382Z" fill="url(#paint0_linear_762_661)"/>
<path d="M21.9964 5.75481C15.3396 5.75481 9.01823 5.16265 6.60373 11.3593C5.6064 13.9186 5.75123 17.2425 5.75123 22.0018C5.75123 26.1782 5.6174 30.1033 6.60373 32.6425C9.01273 38.8428 15.3854 38.2488 21.9927 38.2488C28.3672 38.2488 34.9397 38.9125 37.3836 32.6425C38.3827 30.0575 38.2361 26.7832 38.2361 22.0018C38.2361 15.6548 38.5862 11.5573 35.5081 8.48098C32.3914 5.36431 28.1766 5.75481 21.9891 5.75481H21.9964ZM20.5407 8.68265C34.4264 8.66065 36.1937 7.11698 35.2184 28.5615C34.8719 36.146 29.0969 35.3136 21.9982 35.3136C9.0549 35.3136 8.68273 34.9433 8.68273 21.9945C8.68273 8.89532 9.7094 8.68998 20.5407 8.67898V8.68265ZM30.6681 11.3795C30.1512 11.3795 29.6555 11.5848 29.29 11.9503C28.9246 12.3158 28.7192 12.8115 28.7192 13.3283C28.7192 13.8452 28.9246 14.3409 29.29 14.7063C29.6555 15.0718 30.1512 15.2771 30.6681 15.2771C31.1849 15.2771 31.6806 15.0718 32.0461 14.7063C32.4116 14.3409 32.6169 13.8452 32.6169 13.3283C32.6169 12.8115 32.4116 12.3158 32.0461 11.9503C31.6806 11.5848 31.1849 11.3795 30.6681 11.3795ZM21.9964 13.6583C20.9008 13.6584 19.816 13.8743 18.8039 14.2937C17.7918 14.7131 16.8722 15.3277 16.0976 16.1024C14.5332 17.6672 13.6545 19.7892 13.6547 22.0018C13.655 24.2144 14.5342 26.3363 16.0989 27.9006C17.6636 29.465 19.7856 30.3437 21.9982 30.3435C24.2108 30.3432 26.3327 29.4641 27.8971 27.8993C29.4614 26.3346 30.3401 24.2126 30.3399 22C30.3397 19.7874 29.4605 17.6655 27.8958 16.1012C26.3311 14.5368 24.209 13.6581 21.9964 13.6583ZM21.9964 16.5861C29.1556 16.5861 29.1647 27.4175 21.9964 27.4175C14.8391 27.4175 14.8281 16.5861 21.9964 16.5861Z" fill="white"/>
</g>
<defs>
<linearGradient id="paint0_linear_762_661" x1="2.83433" y1="41.1897" x2="43.7277" y2="5.79694" gradientUnits="userSpaceOnUse">
<stop stop-color="#FFDD55"/>
<stop offset="0.5" stop-color="#FF543E"/>
<stop offset="1" stop-color="#C837AB"/>
</linearGradient>
<clipPath id="clip0_762_661">
<rect width="44" height="44" fill="white"/>
</clipPath>
</defs>
</svg>
