<svg width="1058" height="261" viewBox="0 0 1058 261" fill="none" xmlns="http://www.w3.org/2000/svg">
<mask id="mask0_1201_1025" style="mask-type:luminance" maskUnits="userSpaceOnUse" x="0" y="0" width="1058" height="261">
<path d="M0 -6.87917e-05H1057.87V260.267H0V-6.87917e-05Z" fill="white"/>
</mask>
<g mask="url(#mask0_1201_1025)">
<path d="M207.467 137.733H293.867C290.533 116.267 276.4 100.4 252.533 100.4C227.6 100.533 212.533 117.333 207.467 137.733ZM329.867 168.4H207.467C212.533 188.267 227.333 203.333 254.533 203.333C269.733 203.333 280.8 198.267 286.8 188.533H328.133C319.067 217.733 289.467 237.6 253.2 237.6C202.4 237.6 168.4 200.267 168.4 153.2C168.4 105.733 203.067 69.7333 251.467 69.7333C297.867 69.7333 330.8 102.667 330.8 150.4C330.933 156.533 330.667 162.4 329.867 168.4Z" fill="#5FD380"/>
<path d="M482.533 231.067C465.067 236.4 456.667 237.733 442.8 237.733C405.2 237.733 381.2 212.533 381.2 171.467V109.2H342.267V73.6H381.333V24.1333H420V73.6H476.133V109.2H420V171.467C420 192.667 431.467 201.733 450.667 201.733C459.6 201.6 468.667 200.267 477.2 197.733L482.533 231.067Z" fill="#5FD380"/>
<path d="M686.267 173.2C680.933 210.933 650.8 236.667 607.733 236.667C556.8 236.667 519.733 201.2 519.733 153.333C519.733 105.467 555.467 70.4 604.667 70.4C622.533 70.4 637.733 75.7333 649.2 85.2V73.3333H685.333V133.067H647.6C643.2 116.267 627.733 105.067 607.867 105.067C579.867 105.067 558.667 126.267 558.667 153.333C558.667 180.267 579.867 201.6 607.867 201.6C627.467 201.6 642.267 190.533 646.667 173.333H686.267V173.2Z" fill="black"/>
<path d="M838.667 184.267V121.867C824.8 108.4 810.667 103.333 795.467 103.333C768.133 103.333 748.267 126.667 748.267 153.2C748.267 179.467 768.133 202.8 795.467 202.8C810.667 202.8 824.8 197.733 838.667 184.267ZM877.467 197.067H903.067V232.8H838.667V221.733C825.467 231.2 808.933 236.533 789.733 236.533C745.2 236.533 709.467 199.467 709.467 153.2C709.467 106.667 745.2 69.6 789.733 69.6C808.933 69.6 825.467 74.9333 838.667 84.4V73.3333H903.067V109.067H877.467V197.067Z" fill="black"/>
<path d="M1057.87 110.4C1029.2 111.467 1007.6 116.533 992.4 121.867V197.067H1032.13V232.8H928.267V197.067H953.6V109.067H928.267V73.3333H992.4V90.5333C1008.27 79.0666 1030.13 70.6666 1057.87 70.6666V110.4Z" fill="black"/>
<path d="M116.8 70C116.667 86.1333 116.533 102.267 116.533 118.4H148V70H116.8Z" fill="#5FD380"/>
<path d="M24.4 118.4C37.4666 118.533 48.2666 108 48.4 94.9333V94.2666C48.4 80.2666 38 69.8666 24.4 69.8666C11.0666 69.8666 0.133301 80.6666 0.133301 94.1333C0.133301 107.6 11.0666 118.4 24.4 118.4Z" fill="#5FD380"/>
<path d="M116.533 134.4V154V154.267C116.267 182.133 93.8665 204.8 66.3999 204.8C49.5999 204.8 33.8665 196.267 24.7999 182.133L23.7332 180.8L0.533203 196.933C21.7332 234.8 69.5999 248.4 107.6 227.2C130.933 214.133 146.133 190.133 147.733 163.333V162.933C147.867 160.4 148 157.867 148 155.2V153.867V134.267L116.533 134.4Z" fill="#5FD380"/>
</g>
</svg>
