<svg width="98" height="98" viewBox="0 0 98 98" fill="none" xmlns="http://www.w3.org/2000/svg">
<g clip-path="url(#clip0_759_638)">
<path fill-rule="evenodd" clip-rule="evenodd" d="M45.7797 53.5649C42.5152 56.3469 42.5721 64.092 42.6417 73.0764L42.6544 75.6244L42.6607 76.6044C42.6986 85.0956 42.8189 92.3603 44.8244 95.6164C45.4887 96.6976 46.7414 97.4879 48.4053 97.9621C48.8355 97.9747 49.2657 97.9937 49.7023 97.9937C53.8272 97.9937 57.832 97.4879 61.6597 96.5395C63.2476 95.7808 64.3928 94.864 64.785 93.9093C65.0191 93.2897 65.152 92.158 65.152 90.6911C65.152 84.8111 63.4058 73.5506 62.5707 68.1258L62.1468 65.2807L62.0646 64.718L61.9444 63.896C61.2358 59.0656 60.0527 53.8811 51.2839 52.528C48.8418 52.1423 47.0451 52.4964 45.7797 53.5649ZM30.2351 89.9956C30.5261 92.2654 30.988 93.9915 31.5954 95.0916C32.5001 95.4583 33.4238 95.7998 34.3601 96.1096C35.1826 95.3825 35.7014 93.3529 35.5305 88.415C35.2838 81.3274 34.0628 71.9826 32.1648 72.0901C30.1149 72.2165 29.3367 82.8764 30.2351 89.9956ZM71.9088 72.4631C69.6123 73.6012 70.5043 86.6573 72.8705 90.8176C73.1172 91.2349 73.6234 91.3044 74.1928 91.2096C75.9832 90.1347 77.6914 88.9334 79.311 87.631C79.5198 87.2074 79.6843 86.7079 79.8045 86.0567C80.2474 83.7995 74.895 71.0216 71.9088 72.4631ZM0 48.5511C0 64.8128 8.08547 79.1967 20.4857 88.004C20.8147 87.6247 21.0615 86.6194 21.2702 85.7848L21.3335 85.4497L21.5992 84.2611C22.6052 79.5444 22.8013 74.9226 22.2445 69.4536C21.8966 65.9193 21.3525 63.8075 20.84 61.9676C20.3212 59.9697 19.8784 58.2436 19.9163 55.5629C19.948 53.1413 20.4478 51.4658 20.9919 49.6829C21.6182 47.6533 22.3205 45.3582 22.4217 41.375C22.6874 33.6488 23.4909 31.7267 25.8128 29.4822C28.122 27.2503 28.8306 26.3209 28.8306 24.6771C28.8306 23.0395 26.6479 19.2965 30.4882 15.3576C32.9619 12.8412 35.366 11.9244 37.0932 11.9244C38.0675 11.9244 38.8331 12.2153 39.2759 12.6768C40.5096 13.9603 40.1617 16.4514 37.7006 19.7454C35.2395 23.0585 35.3154 24.5 35.4609 25.2587C35.6128 26.0301 36.3657 27.0607 37.8081 28.1798C38.909 29.0713 40.187 30.0829 41.0094 31.5434C42.5658 34.3063 43.4642 36.9492 44.7105 40.5973L45.0585 41.6342L45.2167 42.0389C46.4314 44.9283 49.3669 45.9525 54.4283 45.9525C59.6857 45.9525 65.2659 42.5383 65.2659 39.9082C65.2659 37.2969 64.1777 36.9745 64.1777 34.73C64.1777 32.4854 67.5498 26.0111 72.6364 26.0111C75.2303 26.0111 76.5779 27.8826 75.3252 30.4685C74.0979 33.0292 71.6115 36.6836 71.6115 38.2959C71.6115 41.2802 76.0781 38.9724 78.8808 36.6836C81.7342 34.3885 82.3605 33.75 84.3218 30.3231C85.5112 28.2051 87.213 27.8004 88.3392 28.3568C89.5919 28.9764 90.3827 30.8163 89.2502 33.4465C88.3645 35.4887 85.954 38.0809 83.417 40.8313C80.0133 44.492 76.173 48.6523 76.173 51.3204C76.173 64.9076 83.8726 76.7625 84.7646 78.0649C85.6314 79.3547 86.1059 79.7847 86.3653 79.9111C93.565 71.5021 97.9367 60.6336 97.9874 48.7598V48.3362L97.9747 47.432C97.38 21.1364 75.6795 0.00634766 48.9937 0.00634766C21.9345 0.00634766 0 21.7434 0 48.5511Z" fill="white"/>
</g>
<defs>
<clipPath id="clip0_759_638">
<rect width="98" height="98" fill="white"/>
</clipPath>
</defs>
</svg>
