<svg width="14" height="12" viewBox="0 0 14 12" fill="none" xmlns="http://www.w3.org/2000/svg">
<path d="M7 11.5332C6.66464 11.5335 6.33627 11.4374 6.05396 11.2564C5.25304 10.7415 3.71272 9.68497 2.40979 8.39486C0.810847 6.81033 0 5.31806 0 3.95843C0 3.01367 0.279359 2.14804 0.807963 1.4554C1.30923 0.796814 2.01732 0.325831 2.81849 0.118118C3.61965 -0.0895957 4.46738 -0.0219823 5.22549 0.310096C5.90403 0.602911 6.5092 1.09659 7 1.75174C7.4908 1.09499 8.09597 0.601309 8.77451 0.310096C9.53262 -0.0219823 10.3804 -0.0895957 11.1815 0.118118C11.9827 0.325831 12.6908 0.796814 13.192 1.4554C13.7206 2.14804 14 3.01367 14 3.95843C14 5.31806 13.1892 6.80968 11.5902 8.39357C10.2873 9.68369 8.7476 10.7403 7.94604 11.2551C7.66387 11.4365 7.33548 11.5331 7 11.5332ZM3.73739 0.802819C3.484 0.802591 3.2317 0.835988 2.98709 0.902133C2.37316 1.07068 1.83134 1.43572 1.44453 1.9414C1.02357 2.49307 0.800915 3.19083 0.800915 3.95971C0.800915 5.09765 1.53167 6.39833 2.97332 7.82589C4.22275 9.06442 5.71149 10.0845 6.48677 10.581C6.63985 10.6788 6.81771 10.7308 6.99936 10.7308C7.18101 10.7308 7.35887 10.6788 7.51195 10.581C8.28723 10.0832 9.77469 9.06314 11.0254 7.82589C12.467 6.39833 13.1978 5.09765 13.1978 3.95971C13.1978 3.19083 12.9751 2.49435 12.5542 1.9414C12.1674 1.43572 11.6256 1.07068 11.0116 0.902133C9.91693 0.604833 8.37886 0.915588 7.34407 2.67952C7.3088 2.7398 7.25836 2.7898 7.19777 2.82455C7.13719 2.85929 7.06856 2.87757 6.99872 2.87757C6.92888 2.87757 6.86025 2.85929 6.79966 2.82455C6.73908 2.7898 6.68864 2.7398 6.65336 2.67952C5.84027 1.29106 4.71387 0.802819 3.73739 0.802819Z" fill="#CFD4DC"/>
</svg>
