<svg width="14" height="12" viewBox="0 0 14 12" fill="none" xmlns="http://www.w3.org/2000/svg">
<path d="M13.192 1.4554C12.6908 0.796814 11.9827 0.325831 11.1815 0.118118C10.3804 -0.0895957 9.53262 -0.0219823 8.77451 0.310096C8.09597 0.602911 7.4908 1.09659 7 1.75174C6.5092 1.09499 5.90403 0.601309 5.22549 0.310096C4.46738 -0.0219823 3.61965 -0.0895957 2.81849 0.118118C2.01732 0.325831 1.30923 0.796814 0.807963 1.4554C0.279359 2.14804 0 3.01367 0 3.95843C0 5.31806 0.810847 6.80968 2.40979 8.39357C3.71272 9.68369 5.2524 10.7403 6.05396 11.2551C6.33638 11.4358 6.66468 11.5319 7 11.5319C7.33532 11.5319 7.66362 11.4358 7.94604 11.2551C8.74696 10.7403 10.2873 9.68369 11.5902 8.39357C13.1892 6.81032 14 5.31806 14 3.95843C14 3.01367 13.7206 2.14804 13.192 1.4554Z" fill="#F9595F"/>
</svg>
