<svg width="12" height="13" viewBox="0 0 12 13" fill="none" xmlns="http://www.w3.org/2000/svg">
<path fill-rule="evenodd" clip-rule="evenodd" d="M6.42507 1.42428C7.04549 0.8245 7.87645 0.492623 8.73898 0.500124C9.6015 0.507626 10.4266 0.853908 11.0365 1.46439C11.6464 2.07487 11.9924 2.9007 11.9999 3.76401C12.0074 4.62733 11.6758 5.45905 11.0766 6.08005L11.0699 6.08685L9.42516 7.73309C9.09168 8.06697 8.6903 8.32524 8.24836 8.49025C7.8064 8.65526 7.33415 8.72321 6.86364 8.68949C6.39313 8.65576 5.93537 8.52114 5.52141 8.29477C5.10745 8.0684 4.74698 7.75556 4.46443 7.37749C4.28306 7.13479 4.33259 6.79088 4.57506 6.60935C4.81754 6.42781 5.16113 6.47739 5.3425 6.72008C5.53086 6.97213 5.77118 7.18069 6.04715 7.33161C6.32313 7.48252 6.6283 7.57226 6.94197 7.59475C7.25564 7.61723 7.57048 7.57194 7.86512 7.46192C8.15976 7.35191 8.42732 7.17976 8.64965 6.95715L10.291 5.31431C10.6885 4.90066 10.9084 4.34758 10.9034 3.77355C10.8984 3.198 10.6677 2.64745 10.2611 2.24047C9.85452 1.83348 9.30447 1.60263 8.72945 1.59762C8.15568 1.59263 7.60286 1.81292 7.18953 2.21113L6.24948 3.14657C6.03475 3.36025 5.68761 3.35924 5.47412 3.14431C5.26063 2.92937 5.26165 2.58191 5.47638 2.36823L6.4194 1.42983L6.42507 1.42428ZM3.75164 4.50978C4.1936 4.34476 4.66585 4.27681 5.13636 4.31054C5.60687 4.34427 6.06463 4.47888 6.47859 4.70526C6.89254 4.93163 7.25302 5.24446 7.53557 5.62254C7.71694 5.86524 7.66741 6.20914 7.42494 6.39068C7.18246 6.57222 6.83887 6.52264 6.6575 6.27994C6.46914 6.02789 6.22882 5.81934 5.95285 5.66842C5.67687 5.51751 5.3717 5.42776 5.05803 5.40528C4.74436 5.38279 4.42952 5.42809 4.13488 5.5381C3.84024 5.64811 3.57268 5.82026 3.35035 6.04288L1.70903 7.6857C1.31152 8.09935 1.09163 8.65244 1.09662 9.22648C1.10162 9.80202 1.33226 10.3526 1.73887 10.7596C2.14548 11.1665 2.69553 11.3974 3.27055 11.4024C3.84407 11.4074 4.39666 11.1873 4.80992 10.7894L5.7439 9.85459C5.95801 9.64028 6.30516 9.64028 6.51927 9.85459C6.73338 10.0689 6.73338 10.4164 6.51927 10.6307L5.58173 11.5691L5.57493 11.5758C4.95451 12.1755 4.12355 12.5074 3.26102 12.4999C2.3985 12.4924 1.57342 12.1461 0.963504 11.5356C0.353584 10.9252 0.00761945 10.0993 0.000124356 9.23602C-0.00737074 8.3727 0.324203 7.54098 0.923431 6.91998L0.93011 6.91318L2.57484 5.26694C2.90832 4.93305 3.3097 4.67478 3.75164 4.50978Z" fill="#3399FF"/>
</svg>
