<?xml version="1.0" encoding="UTF-8"?>
<!DOCTYPE svg PUBLIC "-//W3C//DTD SVG 1.1//EN" "http://www.w3.org/Graphics/SVG/1.1/DTD/svg11.dtd">
<!-- Creator: CorelDRAW -->
<svg xmlns="http://www.w3.org/2000/svg" xml:space="preserve" width="297mm" height="160mm" version="1.1" style="shape-rendering:geometricPrecision; text-rendering:geometricPrecision; image-rendering:optimizeQuality; fill-rule:evenodd; clip-rule:evenodd"
viewBox="0 0 29700 16000"
 xmlns:xlink="http://www.w3.org/1999/xlink"
 xmlns:xodm="http://www.corel.com/coreldraw/odm/2003">
 <defs>
  <style type="text/css">
   <![CDATA[
    .fil0 {fill:none}
    .fil2 {fill:#434242}
    .fil1 {fill:#434242;fill-rule:nonzero}
   ]]>
  </style>
 </defs>
 <g id="Слой_x0020_1">
  <metadata id="CorelCorpID_0Corel-Layer"/>
  <rect class="fil0" width="29700" height="16000"/>
  <path class="fil1" d="M3842.67 11179.24c111.21,0 210.86,24.55 298.96,73.66 88.11,49.1 157.07,117.7 206.9,205.81 49.83,88.1 74.74,189.92 74.74,305.47 0,115.54 -24.91,217.73 -74.74,306.54 -49.83,88.83 -118.79,157.8 -206.9,206.91 -88.1,49.1 -187.75,73.65 -298.96,73.65 -85.22,0 -163.21,-16.61 -233.98,-49.83 -70.77,-33.21 -129.27,-81.6 -175.48,-145.15l0 181.98 -199.32 0 0 -1607.49 207.99 0 0 632.59c46.22,-60.65 103.99,-106.51 173.32,-137.56 69.31,-31.06 145.14,-46.58 227.47,-46.58zm-17.33 990.06c73.66,0 139.73,-16.97 198.23,-50.91 58.49,-33.94 104.7,-81.6 138.64,-142.99 33.95,-61.38 50.92,-131.78 50.92,-211.22 0,-79.44 -16.97,-149.85 -50.92,-211.23 -33.94,-61.39 -80.15,-108.68 -138.64,-141.91 -58.5,-33.21 -124.57,-49.82 -198.23,-49.82 -72.22,0 -137.93,16.61 -197.15,49.82 -59.21,33.23 -105.43,80.52 -138.65,141.91 -33.22,61.38 -49.83,131.79 -49.83,211.23 0,79.44 16.61,149.84 49.83,211.22 33.22,61.39 79.44,109.05 138.65,142.99 59.22,33.94 124.93,50.91 197.15,50.91zm1869.63 -979.23l-556.78 1263.03c-49.1,116.99 -106.52,199.31 -172.23,246.97 -65.72,47.67 -144.79,71.5 -237.23,71.5 -56.32,0 -110.85,-9.02 -163.56,-27.08 -52.72,-18.05 -96.41,-44.42 -131.06,-79.07l88.81 -155.99c59.22,56.33 127.82,84.5 205.81,84.5 50.55,0 92.8,-13.36 126.74,-40.08 33.94,-26.72 64.64,-72.59 92.07,-137.58l36.83 -80.15 -506.95 -1146.05 216.65 0 400.79 918.57 396.46 -918.57 203.65 0zm808.07 -368.3l639.1 0c160.32,0 302.59,31.78 426.79,95.33 124.2,63.55 220.61,152.73 289.21,267.55 68.61,114.82 102.91,246.62 102.91,395.38 0,148.77 -34.3,280.55 -102.91,395.37 -68.6,114.82 -165.01,204.01 -289.21,267.56 -124.2,63.55 -266.47,95.32 -426.79,95.32l-639.1 0 0 -1516.51zm626.11 1328.03c122.76,0 230.72,-23.82 323.88,-71.49 93.16,-47.66 165,-114.46 215.55,-200.39 50.55,-85.94 75.83,-185.24 75.83,-297.89 0,-112.65 -25.28,-211.95 -75.83,-297.89 -50.55,-85.93 -122.39,-152.73 -215.55,-200.39 -93.16,-47.66 -201.12,-71.5 -323.88,-71.5l-409.46 0 0 1139.55 409.46 0zm2569.39 -970.56c144.42,0 258.88,41.88 343.38,125.66 84.49,83.76 126.73,207.97 126.73,372.62l0 660.76 -207.98 0 0 -636.93c0,-111.21 -25.64,-194.98 -76.91,-251.31 -51.27,-56.33 -124.57,-84.49 -219.89,-84.49 -105.43,0 -189.21,32.86 -251.31,98.58 -62.1,65.71 -93.16,159.95 -93.16,282.71l0 591.44 -207.97 0 0 -636.93c0,-111.21 -25.64,-194.98 -76.91,-251.31 -51.28,-56.33 -124.57,-84.49 -219.9,-84.49 -105.43,0 -189.2,32.86 -251.31,98.58 -62.09,65.71 -93.15,159.95 -93.15,282.71l0 591.44 -207.98 0 0 -1148.21 199.31 0 0 171.15c41.89,-59.22 96.77,-104.35 164.66,-135.4 67.87,-31.06 145.15,-46.58 231.81,-46.58 89.54,0 168.98,18.06 238.31,54.16 69.31,36.11 122.76,88.82 160.31,158.15 43.32,-66.44 103.63,-118.43 180.9,-155.98 77.27,-37.56 164.28,-56.33 261.06,-56.33zm853.57 10.83l207.97 0 0 1148.21 -207.97 0 0 -1148.21zm103.98 -220.97c-40.43,0 -74,-13.01 -100.72,-39 -26.73,-26 -40.09,-57.77 -40.09,-95.32 0,-37.56 13.36,-69.69 40.09,-96.41 26.72,-26.72 60.29,-40.08 100.72,-40.08 40.44,0 74.02,12.63 100.75,37.91 26.72,25.28 40.07,56.69 40.07,94.24 0,38.99 -13.35,71.85 -40.07,98.57 -26.73,26.72 -60.31,40.09 -100.75,40.09zm1146.05 1302.02c-30.33,26 -67.88,45.86 -112.65,59.58 -44.78,13.72 -90.99,20.58 -138.65,20.58 -115.55,0 -205.09,-31.05 -268.64,-93.15 -63.55,-62.11 -95.33,-150.94 -95.33,-266.47l0 -630.44 -194.98 0 0 -171.15 194.98 0 0 -251.31 207.98 0 0 251.31 329.29 0 0 171.15 -329.29 0 0 621.77c0,62.1 15.53,109.76 46.58,142.99 31.05,33.21 75.46,49.82 133.23,49.82 63.55,0 117.71,-18.05 162.49,-54.16l64.99 149.48zm450.62 -888.24c36.12,-66.43 89.55,-116.98 160.32,-151.65 70.77,-34.66 156.7,-51.99 257.8,-51.99l0 201.48c-11.54,-1.45 -27.43,-2.17 -47.66,-2.17 -112.65,0 -201.11,33.58 -265.38,100.74 -64.28,67.16 -96.41,162.85 -96.41,287.05l0 571.94 -207.98 0 0 -1148.21 199.31 0 0 192.81zm673.76 -192.81l207.99 0 0 1148.21 -207.99 0 0 -1148.21zm104 -220.97c-40.45,0 -74.02,-13.01 -100.74,-39 -26.73,-26 -40.09,-57.77 -40.09,-95.32 0,-37.56 13.36,-69.69 40.09,-96.41 26.72,-26.72 60.29,-40.08 100.74,-40.08 40.44,0 74.01,12.63 100.74,37.91 26.72,25.28 40.08,56.69 40.08,94.24 0,38.99 -13.36,71.85 -40.08,98.57 -26.73,26.72 -60.3,40.09 -100.74,40.09zm1516.5 220.97l-556.78 1263.03c-49.1,116.99 -106.52,199.31 -172.23,246.97 -65.72,47.67 -144.78,71.5 -237.22,71.5 -56.32,0 -110.85,-9.02 -163.56,-27.08 -52.72,-18.05 -96.41,-44.42 -131.07,-79.07l88.82 -155.99c59.22,56.33 127.82,84.5 205.81,84.5 50.55,0 92.8,-13.36 126.74,-40.08 33.93,-26.72 64.63,-72.59 92.06,-137.58l36.83 -80.15 -506.94 -1146.05 216.65 0 400.78 918.57 396.46 -918.57 203.65 0zm1302.02 474.45l-277.3 281.63 0 392.13 -216.65 0 0 -1516.51 216.65 0 0 847.08 823.25 -847.08 246.97 0 -647.77 682.44 688.93 834.07 -253.47 0 -580.61 -673.76zm1423.34 -485.28c158.88,0 280.56,39 365.05,116.99 84.49,77.98 126.74,194.25 126.74,348.79l0 693.26 -197.14 0 0 -151.65c-34.67,53.44 -84.13,94.24 -148.41,122.4 -64.27,28.17 -140.46,42.25 -228.56,42.25 -128.54,0 -231.44,-31.05 -308.72,-93.15 -77.27,-62.11 -115.89,-143.71 -115.89,-244.82 0,-101.09 36.82,-182.34 110.48,-243.72 73.66,-61.38 190.65,-92.07 350.96,-92.07l329.3 0 0 -41.16c0,-89.55 -26,-158.16 -77.99,-205.82 -52,-47.66 -128.54,-71.49 -229.64,-71.49 -67.89,0 -134.32,11.19 -199.31,33.58 -64.99,22.39 -119.88,52.36 -164.66,89.91l-86.65 -155.99c59.22,-47.66 129.98,-84.13 212.31,-109.4 82.32,-25.28 169.71,-37.91 262.13,-37.91zm-47.66 1011.73c79.44,0 148.05,-17.7 205.82,-53.09 57.77,-35.38 99.65,-85.57 125.65,-150.56l0 -160.32 -320.63 0c-176.21,0 -264.31,59.22 -264.31,177.65 0,57.78 22.39,103.27 67.16,136.49 44.78,33.21 106.88,49.83 186.31,49.83zm1776.49 -23.84l0 171.15 -961.9 0 0 -134.32 678.09 -842.74 -665.09 0 0 -171.15 931.57 0 0 136.48 -678.1 840.58 695.43 0zm695.42 -987.89c158.88,0 280.55,39 365.04,116.99 84.49,77.98 126.74,194.25 126.74,348.79l0 693.26 -197.14 0 0 -151.65c-34.67,53.44 -84.13,94.24 -148.4,122.4 -64.26,28.17 -140.46,42.25 -228.56,42.25 -128.54,0 -231.44,-31.05 -308.72,-93.15 -77.27,-62.11 -115.89,-143.71 -115.89,-244.82 0,-101.09 36.82,-182.34 110.48,-243.72 73.66,-61.38 190.65,-92.07 350.96,-92.07l329.29 0 0 -41.16c0,-89.55 -25.99,-158.16 -77.99,-205.82 -51.99,-47.66 -128.53,-71.49 -229.63,-71.49 -67.89,0 -134.32,11.19 -199.31,33.58 -64.99,22.39 -119.88,52.36 -164.66,89.91l-86.65 -155.99c59.22,-47.66 129.99,-84.13 212.31,-109.4 82.32,-25.28 169.71,-37.91 262.13,-37.91zm-47.66 1011.73c79.44,0 148.05,-17.7 205.82,-53.09 57.76,-35.38 99.65,-85.57 125.64,-150.56l0 -160.32 -320.62 0c-176.21,0 -264.31,59.22 -264.31,177.65 0,57.78 22.39,103.27 67.16,136.49 44.78,33.21 106.88,49.83 186.31,49.83zm1538.17 -1011.73c145.88,0 261.78,42.24 347.72,126.73 85.93,84.5 128.89,208.34 128.89,371.55l0 660.76 -207.97 0 0 -636.93c0,-111.21 -26.72,-194.98 -80.15,-251.31 -53.45,-56.33 -130,-84.49 -229.65,-84.49 -112.66,0 -201.48,32.86 -266.47,98.58 -65,65.71 -97.49,159.95 -97.49,282.71l0 591.44 -207.98 0 0 -1148.21 199.31 0 0 173.31c41.89,-59.21 98.57,-104.7 170.07,-136.48 71.49,-31.77 152.73,-47.66 243.72,-47.66zm1507.84 1091.88c-30.32,26 -67.88,45.86 -112.65,59.58 -44.77,13.72 -90.99,20.58 -138.65,20.58 -115.55,0 -205.09,-31.05 -268.64,-93.15 -63.55,-62.11 -95.33,-150.94 -95.33,-266.47l0 -630.44 -194.98 0 0 -171.15 194.98 0 0 -251.31 207.98 0 0 251.31 329.3 0 0 171.15 -329.3 0 0 621.77c0,62.1 15.53,109.76 46.58,142.99 31.06,33.21 75.46,49.82 133.23,49.82 63.55,0 117.72,-18.05 162.49,-54.16l64.99 149.48zm580.61 80.16c-93.88,0 -184.15,-12.63 -270.81,-37.91 -86.65,-25.28 -154.53,-57.41 -203.64,-96.41l86.66 -164.65c50.55,36.11 111.92,65 184.14,86.66 72.21,21.67 145.15,32.5 218.81,32.5 181.98,0 272.97,-52 272.97,-155.99 0,-34.66 -12.28,-62.1 -36.83,-82.32 -24.56,-20.22 -55.25,-35.03 -92.07,-44.42 -36.83,-9.38 -89.19,-19.85 -157.07,-31.4 -92.43,-14.45 -167.9,-31.06 -226.39,-49.83 -58.5,-18.78 -108.68,-50.55 -150.56,-95.33 -41.88,-44.77 -62.83,-107.6 -62.83,-188.47 0,-103.99 43.33,-187.41 129.98,-250.23 86.66,-62.83 202.92,-94.24 348.79,-94.24 76.55,0 153.1,9.38 229.65,28.16 76.55,18.78 139.37,44.05 188.48,75.83l-88.82 164.65c-93.88,-60.66 -204.37,-91 -331.47,-91 -88.1,0 -155.26,14.45 -201.48,43.34 -46.22,28.88 -69.33,67.16 -69.33,114.82 0,37.54 13.01,67.16 39,88.82 26,21.66 58.13,37.55 96.41,47.66 38.27,10.12 92.07,21.67 161.4,34.67 92.44,15.89 167.18,32.86 224.22,50.9 57.05,18.06 105.8,48.75 146.24,92.08 40.44,43.33 60.66,103.99 60.66,181.98 0,103.99 -44.42,186.67 -133.23,248.06 -88.83,61.38 -209.79,92.07 -362.88,92.07zm1793.8 -580.6c0,15.89 -1.44,36.83 -4.33,62.82l-931.57 0c13,101.1 57.41,182.34 133.24,243.73 75.82,61.38 170.06,92.07 282.71,92.07 137.22,0 247.7,-46.22 331.48,-138.65l114.82 134.32c-52,60.66 -116.63,106.88 -193.9,138.65 -77.27,31.78 -163.57,47.66 -258.89,47.66 -121.32,0 -228.92,-24.91 -322.8,-74.74 -93.88,-49.83 -166.45,-119.52 -217.72,-209.06 -51.28,-89.55 -76.91,-190.65 -76.91,-303.3 0,-111.22 24.91,-211.6 74.74,-301.14 49.83,-89.54 118.43,-159.23 205.8,-209.06 87.39,-49.83 185.95,-74.74 295.72,-74.74 109.77,0 207.62,24.91 293.56,74.74 85.94,49.83 153.1,119.52 201.47,209.06 48.39,89.54 72.58,192.09 72.58,307.64zm-567.61 -415.96c-99.65,0 -183.06,30.33 -250.22,90.99 -67.15,60.66 -106.52,140.1 -118.07,238.31l736.59 0c-11.56,-96.77 -50.91,-175.84 -118.07,-237.22 -67.16,-61.39 -150.57,-92.08 -250.23,-92.08zm1850.14 -164.65l-502.61 1148.21 -212.32 0 -502.61 -1148.21 216.64 0 394.3 920.74 402.95 -920.74 203.65 0z"/>
  <path class="fil1" d="M12772.29 9303.81l-2208.38 0 -410.33 1014.66 -1507.07 0 2305.36 -5222.5 1454.84 0 2312.83 5222.5 -1536.91 0 -410.34 -1014.66zm-432.72 -1089.26l-671.47 -1671.2 -671.46 1671.2 1342.93 0z"/>
  <polygon class="fil1" points="19852.52,10318.47 19837.59,7550.54 18494.66,9803.68 17838.12,9803.68 16502.65,7625.15 16502.65,10318.47 15137.34,10318.47 15137.34,5095.97 16353.44,5095.97 18188.77,8110.1 19979.35,5095.97 21195.44,5095.97 21210.37,10318.47 "/>
  <polygon class="fil1" points="26357.79,9176.98 26357.79,10318.47 22254.87,10318.47 22254.87,5095.97 26350.81,5095.97 26350.81,6237.46 23717.17,6237.46 23717.17,7117.82 26037.46,7117.82 26037.46,8222.01 23717.17,8222.01 23717.17,9176.98 "/>
  <g id="_2209735151984">
   <g>
    <path class="fil2" d="M5311.32 4889.28l0.72 -0.16 -2.23 -8.3c0.49,2.83 0.99,5.65 1.51,8.46zm235.71 -80.64c7.44,-124.34 -9.33,-168.72 39.43,-304.05 34.85,-96.72 82.02,-176.05 141.02,-235.21 147.13,-147.52 287.07,-233.96 530.95,-226.82 186.97,5.49 390.71,106.83 501.69,247.69 180.8,229.45 166.53,346.82 153.84,579.13 98.29,23.42 182.99,48.89 232.9,74.14 50.03,-108.27 21.21,-346.37 -8.85,-457.02 -40.03,-147.37 -109.76,-246.51 -181.71,-343.3 -56.59,-76.12 -192.84,-182.95 -281.41,-231.7 -314.51,-173.11 -712.24,-142.36 -997.42,69.7 -75.14,55.88 -139.22,123.69 -193.78,193.66 -23.24,29.81 -33.35,49.59 -53.34,81.57 -107.13,171.36 -154.69,405.16 -122.71,611.14 61.75,-24.1 145.34,-43.63 239.39,-58.93z"/>
    <g>
     <path class="fil2" d="M6142.64 4391.81l-1.65 0.08 -5.65 0.03 -1.06 0.05 -142.17 2.28c-6.97,1.06 -12.47,7.77 -13.17,14.99 -1.47,15.21 0.59,41.22 0.8,57.61 0.37,28.55 6.67,28.11 28.63,27.74l173.12 -2.71c1.56,77.39 2.42,154.77 3.63,232.16 0.18,11.64 0.37,23.27 0.55,34.9l0.1 6.05c37.06,0.53 71.52,1.71 102.52,3.49 -0.07,-6.09 -0.65,-12.55 -0.73,-17.85 -1.36,-86.69 -3.54,-173.71 -4.06,-260.35l179.85 -2.78c24.73,-0.16 21.21,-14.7 20.83,-39.29 -0.56,-35.28 5.22,-61.88 -19.69,-61.52 -107.27,1.55 -214.57,3.44 -321.85,5.12z"/>
     <path class="fil2" d="M6065.49 4317.74l0.51 -0.05 345.08 -5.17 5.2 -0.34 2.61 0.13c10.82,-0.17 43.76,0.9 51.66,-1.54 14.56,-4.49 11.1,-24.27 10.81,-42.39 -0.94,-59.86 7.12,-59.18 -47.9,-58.32l-426.76 6.68c-38.75,0.52 -30.36,8.29 -29.7,75.65 0.24,23.76 5.28,26.86 27.27,26.41 17.65,-0.35 35.32,-0.55 52.97,-0.83l2.05 -0.1 6.2 -0.13z"/>
    </g>
   </g>
   <path class="fil2" d="M3415.36 8630.59c28.71,50.2 59.87,131.95 85.9,186.8 30.13,63.48 63.33,130.43 98.14,188.03 196.53,325.3 192.69,286.1 345.81,479.56 424.33,465.06 1011.44,794.15 1677.91,908.75 25.45,3.25 50.81,7.56 77.52,12.36 145.6,21.2 294.78,32.25 446.69,32.25 153.15,0 303.53,-11.22 450.26,-32.81 54.72,-10.78 111.83,-22.35 155.56,-27.06 672.06,-134.52 1258.18,-488.22 1670.38,-978.06 71.24,-86.94 138.03,-181.27 202.34,-289.42 186.72,-314.06 313.57,-621.3 377.61,-1003.13 37.84,-225.63 58.08,-624.48 -2.24,-840.5l-3079.3 -1.44 0.41 1056.83 1578.94 2.04c-5.47,63.51 -127.23,233.33 -172.82,288.53 -465.62,563.78 -1262.95,742.08 -1907.21,376.19 -112.59,-63.95 -272.06,-184.93 -354.96,-276.22 -185.41,-204.15 -358.69,-470.83 -405.58,-856.42 -62.29,-512.34 147.87,-1052.85 505.67,-1346.75 123.01,-101.05 215.14,-181.24 379.76,-251.2 549.43,-233.52 1112.82,-151.1 1562.9,224.12 17.37,14.48 28.46,19.76 45.45,33.8l198.07 198.29 788.33 -486.22c54.73,-33.05 240.61,-130.99 268.19,-167.06 -19.6,-36.71 -141.36,-167.72 -174.67,-200.97 -33.44,-33.38 -60.26,-59.73 -96.42,-91.2l-104.85 -92.67c-123.71,-100.16 -428.69,-329.93 -566.37,-389.18 -28.13,32.03 -208.22,382.93 -236.35,443.34 -51.2,-15.07 -154.6,-59.8 -345.96,-119.39 -173.75,-54.1 -345.18,-102.65 -535.73,-125.29 -505.44,-60.06 -716.13,11.29 -1167.01,123.94 -46.1,-70.09 -105.88,-326.93 -150.62,-441.23 -1050,412.66 -1788.17,1389.81 -1788.17,2529.69 0,327.15 60.9,640.85 172.42,931.7z"/>
   <path class="fil2" d="M5301.43 5070.39l80.56 295.5c52.15,-5.9 266.81,-59.47 415.16,-78.57 289.78,-37.32 602.12,-14.58 886.83,44.32 134.14,27.75 262.48,80.37 383.67,105.94l94.13 -284.58c-123.64,-84.13 -687.26,-173.94 -872.71,-184.85 -256.26,-15.07 -765.7,14.11 -987.64,102.24z"/>
  </g>
  <g id="_2208127191088">
   <path class="fil1" d="M23456.26 4050.89l-336.47 0 0 -245.71 981.25 0 0 245.71 -334.9 0 0 849.8 -309.88 0 0 -849.8zm1802.89 -245.71l0 1095.51 -309.87 0 0 -427.25 -422.56 0 0 427.25 -309.86 0 0 -1095.51 309.86 0 0 411.6 422.56 0 0 -411.6 309.87 0z"/>
   <polygon class="fil1" points="26357.79,4661.23 26357.79,4900.68 25497.14,4900.68 25497.14,3805.18 26356.33,3805.18 26356.33,4044.63 25803.88,4044.63 25803.88,4229.29 26290.6,4229.29 26290.6,4460.91 25803.88,4460.91 25803.88,4661.23 "/>
  </g>
 </g>
</svg>
