<svg width="64" height="56" viewBox="0 0 64 56" fill="none" xmlns="http://www.w3.org/2000/svg">
<path d="M17.6365 43.68H6.05247C4.75418 43.68 3.76676 42.5006 4.00447 41.2114L5.49476 33.1291C5.5814 32.6492 5.83399 32.215 6.20837 31.9025C6.58274 31.59 7.05507 31.419 7.54276 31.4194H16.1553C17.1702 31.4194 18.0296 32.1417 18.2125 33.1291L19.7028 41.2114C19.7561 41.5135 19.7427 41.8236 19.6636 42.1199C19.5844 42.4162 19.4413 42.6917 19.2445 42.9269C19.0476 43.1621 18.8016 43.3514 18.5239 43.4815C18.2461 43.6116 17.9432 43.6793 17.6365 43.68Z" fill="#F9A41A"/>
<path d="M17.6366 44.1371H6.05257C5.29371 44.1371 4.58971 43.808 4.10514 43.2229C3.62057 42.6377 3.41943 41.8789 3.55657 41.1291L5.04686 33.0469C5.15304 32.4621 5.46103 31.9332 5.91714 31.5523C6.37326 31.1714 6.94859 30.9626 7.54286 30.9623H16.1554C17.3897 30.9623 18.4411 31.84 18.6606 33.0469L20.1509 41.1291C20.288 41.8789 20.0869 42.6377 19.6023 43.2229C19.1086 43.7989 18.3954 44.1371 17.6366 44.1371ZM7.53371 31.8766C6.74743 31.8766 6.08 32.4343 5.93371 33.2114L4.44343 41.2937C4.352 41.7783 4.48 42.2628 4.79086 42.6377C5.10171 43.0126 5.54971 43.2229 6.03429 43.2229H17.6183C18.1029 43.2229 18.56 43.0126 18.8709 42.6377C19.1817 42.2628 19.3097 41.7783 19.2183 41.2937L17.728 33.2114C17.6612 32.8361 17.4641 32.4964 17.1714 32.2522C16.8787 32.008 16.5092 31.875 16.128 31.8766H7.53371Z" fill="#000100"/>
<path d="M20.5713 43.68H8.98728C7.689 43.68 6.70157 42.5006 6.93929 41.2114L8.42957 33.1291C8.51621 32.6492 8.76881 32.215 9.14318 31.9025C9.51756 31.59 9.98989 31.419 10.4776 31.4194H19.0901C20.105 31.4194 20.9644 32.1417 21.1473 33.1291L22.6376 41.2114C22.8661 42.4914 21.8879 43.68 20.5713 43.68Z" fill="#FBE063"/>
<path d="M20.5714 44.1371H8.98739C8.22853 44.1371 7.52453 43.808 7.03996 43.2229C6.55539 42.6377 6.35424 41.8789 6.49139 41.1291L7.98167 33.0469C8.08668 32.4616 8.39433 31.932 8.85071 31.5508C9.30709 31.1697 9.88307 30.9613 10.4777 30.9623H19.0902C20.3245 30.9623 21.376 31.84 21.5954 33.0469L23.0857 41.1291C23.2228 41.8789 23.0217 42.6377 22.5371 43.2229C22.0434 43.7989 21.3302 44.1371 20.5714 44.1371ZM10.4777 31.8766C9.69139 31.8766 9.02396 32.4343 8.87767 33.2114L7.38739 41.2937C7.29596 41.7783 7.42396 42.2629 7.73481 42.6377C8.04567 43.0126 8.49367 43.2229 8.97824 43.2229H20.5714C21.056 43.2229 21.5131 43.0126 21.824 42.6377C22.1348 42.2629 22.2628 41.7783 22.1714 41.2937L20.6811 33.2114C20.6143 32.8361 20.4172 32.4964 20.1245 32.2522C19.8318 32.008 19.4623 31.875 19.0811 31.8766H10.4777Z" fill="#000100"/>
<path d="M36.3337 43.68H24.7497C23.4515 43.68 22.464 42.5006 22.7017 41.2114L24.192 33.1291C24.2787 32.6492 24.5313 32.215 24.9056 31.9025C25.28 31.59 25.7523 31.419 26.24 31.4194H34.8526C35.8674 31.4194 36.7269 32.1417 36.9097 33.1291L38.4 41.2114C38.4534 41.5135 38.44 41.8236 38.3608 42.1199C38.2816 42.4162 38.1386 42.6917 37.9417 42.9269C37.7448 43.1621 37.4989 43.3514 37.2211 43.4815C36.9433 43.6116 36.6405 43.6793 36.3337 43.68Z" fill="#F9A41A"/>
<path d="M36.3336 44.1371H24.7496C23.9907 44.1371 23.2867 43.808 22.8022 43.2229C22.3176 42.6377 22.1165 41.8789 22.2536 41.1291L23.7439 33.0469C23.8489 32.4616 24.1565 31.932 24.6129 31.5508C25.0693 31.1697 25.6453 30.9613 26.2399 30.9623H34.8524C36.0867 30.9623 37.1382 31.84 37.3576 33.0469L38.8479 41.1291C38.985 41.8789 38.7839 42.6377 38.2993 43.2229C37.8056 43.7989 37.0925 44.1371 36.3336 44.1371ZM26.2307 31.8766C25.4445 31.8766 24.777 32.4343 24.6307 33.2114L23.1404 41.2937C23.049 41.7783 23.177 42.2629 23.4879 42.6377C23.7987 43.0126 24.2467 43.2229 24.7313 43.2229H36.3153C36.7999 43.2229 37.257 43.0126 37.5679 42.6377C37.8787 42.2629 38.0067 41.7783 37.9153 41.2937L36.425 33.2114C36.3583 32.8361 36.1612 32.4964 35.8684 32.2522C35.5757 32.008 35.2062 31.875 34.825 31.8766H26.2307Z" fill="#000100"/>
<path d="M39.2686 43.68H27.6846C26.3863 43.68 25.3988 42.5006 25.6366 41.2114L27.1268 33.1291C27.2135 32.6492 27.4661 32.215 27.8404 31.9025C28.2148 31.59 28.6872 31.419 29.1748 31.4194H37.7874C38.8023 31.4194 39.6617 32.1417 39.8446 33.1291L41.3348 41.2114C41.5634 42.4914 40.5851 43.68 39.2686 43.68Z" fill="#FBE063"/>
<path d="M39.2684 44.1371H27.6844C26.9256 44.1371 26.2216 43.808 25.737 43.2229C25.2524 42.6377 25.0513 41.8789 25.1884 41.1291L26.6787 33.0469C26.7849 32.4621 27.0929 31.9332 27.549 31.5523C28.0051 31.1714 28.5804 30.9626 29.1747 30.9623H37.7873C39.0216 30.9623 40.073 31.84 40.2924 33.0469L41.7827 41.1291C41.9198 41.8789 41.7187 42.6377 41.2341 43.2229C40.7404 43.7989 40.0273 44.1371 39.2684 44.1371ZM29.1747 31.8766C28.3884 31.8766 27.721 32.4343 27.5747 33.2114L26.0844 41.2937C25.993 41.7783 26.121 42.2628 26.4318 42.6377C26.7427 43.0126 27.1907 43.2229 27.6753 43.2229H39.2593C39.7438 43.2229 40.201 43.0126 40.5118 42.6377C40.8227 42.2628 40.9507 41.7783 40.8593 41.2937L39.369 33.2114C39.3022 32.8361 39.1051 32.4964 38.8124 32.2522C38.5197 32.008 38.1502 31.875 37.769 31.8766H29.1747Z" fill="#000100"/>
<path d="M55.0308 43.68H43.4468C42.1485 43.68 41.161 42.5006 41.3988 41.2114L42.889 33.1291C42.9757 32.6492 43.2283 32.215 43.6027 31.9025C43.977 31.59 44.4494 31.419 44.937 31.4194H53.5496C54.5645 31.4194 55.4239 32.1417 55.6068 33.1291L57.097 41.2114C57.1504 41.5135 57.137 41.8236 57.0578 42.1199C56.9787 42.4162 56.8356 42.6917 56.6388 42.9269C56.4419 43.1621 56.1959 43.3514 55.9181 43.4815C55.6404 43.6116 55.3375 43.6793 55.0308 43.68Z" fill="#F9A41A"/>
<path d="M55.0307 44.1371H43.4376C42.6787 44.1371 41.9747 43.808 41.4902 43.2229C41.0056 42.6377 40.8044 41.8789 40.9416 41.1291L42.4319 33.0469C42.538 32.4621 42.846 31.9332 43.3022 31.5523C43.7583 31.1714 44.3336 30.9626 44.9279 30.9623H53.5404C54.7747 30.9623 55.8262 31.84 56.0456 33.0469L57.5359 41.1291C57.673 41.8789 57.4719 42.6377 56.9873 43.2229C56.5027 43.7989 55.7896 44.1371 55.0307 44.1371ZM44.9279 31.8766C44.1416 31.8766 43.4742 32.4343 43.3279 33.2114L41.8376 41.2937C41.7462 41.7783 41.8742 42.2628 42.185 42.6377C42.4959 43.0126 42.9439 43.2229 43.4284 43.2229H55.0124C55.497 43.2229 55.9542 43.0126 56.265 42.6377C56.5759 42.2628 56.7039 41.7783 56.6124 41.2937L55.1222 33.2114C55.0554 32.8361 54.8583 32.4964 54.5656 32.2522C54.2729 32.008 53.9034 31.875 53.5222 31.8766H44.9279Z" fill="#000100"/>
<path d="M57.9656 43.68H46.3816C45.0833 43.68 44.0959 42.5006 44.3336 41.2114L45.8239 33.1291C45.9105 32.6492 46.1631 32.215 46.5375 31.9025C46.9118 31.59 47.3842 31.419 47.8719 31.4194H56.4844C57.4993 31.4194 58.3587 32.1417 58.5416 33.1291L60.0319 41.2114C60.2604 42.4914 59.2821 43.68 57.9656 43.68Z" fill="#FBE063"/>
<path d="M57.9657 44.1371H46.3817C45.6228 44.1371 44.9188 43.808 44.4342 43.2229C43.9497 42.6377 43.7485 41.8789 43.8857 41.1291L45.376 33.0469C45.4821 32.4621 45.7901 31.9332 46.2462 31.5523C46.7024 31.1714 47.2777 30.9626 47.872 30.9623H56.4845C57.7188 30.9623 58.7702 31.84 58.9897 33.0469L60.48 41.1291C60.6171 41.8789 60.416 42.6377 59.9314 43.2229C59.4377 43.7989 58.7245 44.1371 57.9657 44.1371ZM47.872 31.8766C47.0857 31.8766 46.4182 32.4343 46.272 33.2114L44.7817 41.2937C44.6902 41.7783 44.8182 42.2628 45.1291 42.6377C45.44 43.0126 45.888 43.2229 46.3725 43.2229H57.9657C58.4502 43.2229 58.9074 43.0126 59.2182 42.6377C59.5291 42.2628 59.6571 41.7783 59.5657 41.2937L58.0754 33.2114C58.0086 32.8361 57.8115 32.4964 57.5188 32.2522C57.2261 32.008 56.8566 31.875 56.4754 31.8766H47.872Z" fill="#000100"/>
<path d="M26.057 31.4195H14.4638C13.1656 31.4195 12.1781 30.2401 12.4158 28.9509L13.9061 20.8687C13.9928 20.3887 14.2454 19.9545 14.6197 19.642C14.9941 19.3295 15.4664 19.1585 15.9541 19.1589H24.5667C25.5816 19.1589 26.441 19.8812 26.6238 20.8687L28.1141 28.9509C28.3427 30.2309 27.3644 31.4195 26.057 31.4195Z" fill="#F9A41A"/>
<path d="M26.0571 31.8766H14.4639C13.7051 31.8766 13.0011 31.5475 12.5165 30.9624C12.0319 30.3772 11.8308 29.6184 11.9679 28.8686L13.4582 20.7864C13.5644 20.2016 13.8724 19.6727 14.3285 19.2918C14.7846 18.9109 15.36 18.7021 15.9542 18.7018H24.5668C25.8011 18.7018 26.8525 19.5795 27.0719 20.7864L28.5622 28.8686C28.6994 29.6184 28.4982 30.3772 28.0137 30.9624C27.5291 31.5384 26.8159 31.8766 26.0571 31.8766ZM15.9542 19.6161C15.1679 19.6161 14.5005 20.1738 14.3542 20.9509L12.8639 29.0332C12.7725 29.5178 12.9005 30.0024 13.2114 30.3772C13.5222 30.7521 13.9702 30.9624 14.4548 30.9624H26.0571C26.5417 30.9624 26.9988 30.7521 27.3097 30.3772C27.6205 30.0024 27.7485 29.5178 27.6571 29.0332L26.1668 20.9509C26.1 20.5756 25.9029 20.2359 25.6102 19.9917C25.3175 19.7475 24.948 19.6145 24.5668 19.6161H15.9542Z" fill="#000100"/>
<path d="M28.992 31.4195H17.3989C16.1006 31.4195 15.1132 30.2401 15.3509 28.9509L16.8412 20.8687C16.9278 20.3887 17.1804 19.9545 17.5548 19.642C17.9292 19.3295 18.4015 19.1585 18.8892 19.1589H27.5018C28.5166 19.1589 29.376 19.8812 29.5589 20.8687L31.0492 28.9509C31.2778 30.2309 30.2995 31.4195 28.992 31.4195Z" fill="#FBE063"/>
<path d="M28.9919 31.8766H17.3988C16.6399 31.8766 15.9359 31.5475 15.4513 30.9624C14.9668 30.3772 14.7656 29.6184 14.9028 28.8686L16.393 20.7864C16.4981 20.2011 16.8057 19.6715 17.2621 19.2903C17.7185 18.9092 18.2944 18.7008 18.889 18.7018H27.5016C28.7359 18.7018 29.7873 19.5795 30.0068 20.7864L31.497 28.8686C31.6342 29.6184 31.433 30.3772 30.9485 30.9624C30.4639 31.5384 29.7508 31.8766 28.9919 31.8766ZM18.889 19.6161C18.1028 19.6161 17.4353 20.1738 17.289 20.9509L15.7988 29.0332C15.7073 29.5178 15.8353 30.0024 16.1462 30.3772C16.457 30.7521 16.905 30.9624 17.3896 30.9624H28.9736C29.4582 30.9624 29.9153 30.7521 30.2262 30.3772C30.537 30.0024 30.665 29.5178 30.5736 29.0332L29.0833 20.9509C29.0166 20.5756 28.8195 20.2359 28.5268 19.9917C28.2341 19.7475 27.8645 19.6145 27.4833 19.6161H18.889Z" fill="#000100"/>
<path d="M44.7543 31.4195H33.1611C31.8628 31.4195 30.8754 30.2401 31.1131 28.9509L32.6034 20.8687C32.69 20.3887 32.9426 19.9545 33.317 19.642C33.6914 19.3295 34.1637 19.1585 34.6514 19.1589H43.264C44.2788 19.1589 45.1383 19.8812 45.3211 20.8687L46.8114 28.9509C47.04 30.2309 46.0617 31.4195 44.7543 31.4195Z" fill="#F9A41A"/>
<path d="M44.7544 31.8766H33.1612C32.4024 31.8766 31.6984 31.5475 31.2138 30.9624C30.7292 30.3772 30.5281 29.6184 30.6652 28.8686L32.1555 20.7864C32.2605 20.2011 32.5682 19.6715 33.0245 19.2903C33.4809 18.9092 34.0569 18.7008 34.6515 18.7018H43.2641C44.4984 18.7018 45.5498 19.5795 45.7692 20.7864L47.2595 28.8686C47.3966 29.6184 47.1955 30.3772 46.7109 30.9624C46.2264 31.5384 45.5132 31.8766 44.7544 31.8766ZM34.6515 19.6161C33.8652 19.6161 33.1978 20.1738 33.0515 20.9509L31.5612 29.0332C31.4698 29.5178 31.5978 30.0024 31.9086 30.3772C32.2195 30.7521 32.6675 30.9624 33.1521 30.9624H44.7361C45.2206 30.9624 45.6778 30.7521 45.9886 30.3772C46.2995 30.0024 46.4275 29.5178 46.3361 29.0332L44.8458 20.9509C44.779 20.5756 44.5819 20.2359 44.2892 19.9917C43.9965 19.7475 43.627 19.6145 43.2458 19.6161H34.6515Z" fill="#000100"/>
<path d="M47.6891 31.4195H36.0959C34.7976 31.4195 33.8102 30.2401 34.0479 28.9509L35.5382 20.8687C35.6249 20.3887 35.8774 19.9545 36.2518 19.642C36.6262 19.3295 37.0985 19.1585 37.5862 19.1589H46.1988C47.2136 19.1589 48.0731 19.8812 48.2559 20.8687L49.7462 28.9509C49.9748 30.2309 48.9965 31.4195 47.6891 31.4195Z" fill="#FBE063"/>
<path d="M47.6892 31.8766H36.096C35.3372 31.8766 34.6332 31.5475 34.1486 30.9624C33.664 30.3772 33.4629 29.6184 33.6 28.8686L35.0903 20.7864C35.1965 20.2016 35.5045 19.6727 35.9606 19.2918C36.4167 18.9109 36.992 18.7021 37.5863 18.7018H46.1989C47.4332 18.7018 48.4846 19.5795 48.704 20.7864L50.1943 28.8686C50.3315 29.6184 50.1303 30.3772 49.6457 30.9624C49.1612 31.5384 48.448 31.8766 47.6892 31.8766ZM37.5863 19.6161C36.8 19.6161 36.1326 20.1738 35.9863 20.9509L34.496 29.0332C34.4046 29.5178 34.5326 30.0024 34.8435 30.3772C35.1543 30.7521 35.6023 30.9624 36.0869 30.9624H47.6709C48.1555 30.9624 48.6126 30.7521 48.9235 30.3772C49.2343 30.0024 49.3623 29.5178 49.2709 29.0332L47.7806 20.9509C47.6435 20.1738 46.9669 19.6161 46.1715 19.6161H37.5863Z" fill="#000100"/>
<path d="M35.2364 19.1589H23.6433C22.345 19.1589 21.3576 17.9795 21.5953 16.6903L23.0856 8.60803C23.1722 8.1281 23.4248 7.69391 23.7992 7.38137C24.1736 7.06884 24.6459 6.89785 25.1336 6.89832H33.7461C34.761 6.89832 35.6204 7.6206 35.8033 8.60803L37.2936 16.6903C37.5221 17.9703 36.5439 19.1589 35.2364 19.1589Z" fill="#F9A41A"/>
<path d="M35.2365 19.616H23.6434C22.8845 19.616 22.1805 19.2869 21.696 18.7017C21.2114 18.1166 21.0102 17.3577 21.1474 16.608L22.6377 8.52573C22.7439 7.94103 23.0518 7.41212 23.508 7.03119C23.9641 6.65025 24.5394 6.44145 25.1337 6.44116H33.7463C34.9805 6.44116 36.032 7.31888 36.2514 8.52573L37.7417 16.608C37.8788 17.3577 37.6777 18.1166 37.1931 18.7017C36.7085 19.2777 35.9954 19.616 35.2365 19.616ZM25.1337 7.35545C24.3474 7.35545 23.68 7.91316 23.5337 8.69031L22.0434 16.7726C21.952 17.2572 22.08 17.7417 22.3908 18.1166C22.7017 18.4914 23.1497 18.7017 23.6343 18.7017H35.2183C35.7028 18.7017 36.16 18.4914 36.4708 18.1166C36.7817 17.7417 36.9097 17.2572 36.8183 16.7726L35.328 8.69031C35.1908 7.91316 34.5143 7.35545 33.7188 7.35545H25.1337Z" fill="#000100"/>
<path d="M38.1715 19.1589H26.5783C25.2801 19.1589 24.2926 17.9795 24.5303 16.6903L26.0206 8.60803C26.1073 8.1281 26.3599 7.69391 26.7342 7.38137C27.1086 7.06884 27.581 6.89785 28.0686 6.89832H36.6812C37.6961 6.89832 38.5555 7.6206 38.7383 8.60803L40.2286 16.6903C40.4572 17.9703 39.4789 19.1589 38.1715 19.1589Z" fill="#FBE063"/>
<path d="M38.1713 19.616H26.5782C25.8193 19.616 25.1153 19.2869 24.6308 18.7017C24.1462 18.1166 23.945 17.3577 24.0822 16.608L25.5725 8.52573C25.6787 7.94103 25.9866 7.41212 26.4428 7.03119C26.8989 6.65025 27.4742 6.44145 28.0685 6.44116H36.681C37.9153 6.44116 38.9668 7.31888 39.1862 8.52573L40.6765 16.608C40.8136 17.3577 40.6125 18.1166 40.1279 18.7017C39.6433 19.2777 38.9302 19.616 38.1713 19.616ZM28.0685 7.35545C27.2822 7.35545 26.6148 7.91316 26.4685 8.69031L24.9782 16.7726C24.8868 17.2572 25.0148 17.7417 25.3256 18.1166C25.6365 18.4914 26.0845 18.7017 26.569 18.7017H38.153C38.6376 18.7017 39.0948 18.4914 39.4056 18.1166C39.7165 17.7417 39.8445 17.2572 39.753 16.7726L38.2628 8.69031C38.196 8.315 37.9989 7.9753 37.7062 7.7311C37.4135 7.4869 37.044 7.35386 36.6628 7.35545H28.0685ZM12.5073 17.4492C12.4474 17.4499 12.3879 17.4381 12.3328 17.4144C12.2777 17.3908 12.2282 17.3559 12.1873 17.312L8.41134 13.5269C8.22848 13.344 8.22848 13.0606 8.41134 12.8777C8.59419 12.6949 8.87762 12.6949 9.06048 12.8777L12.8365 16.672C13.0102 16.8549 13.0102 17.1383 12.8365 17.3212C12.7451 17.4034 12.6262 17.4492 12.5073 17.4492ZM10.6788 19.4514C10.6239 19.4514 10.5599 19.4423 10.5051 19.4149L7.00334 17.9429C6.77477 17.8423 6.65591 17.5772 6.75648 17.3486C6.85705 17.12 7.12219 17.0012 7.35077 17.1017L10.8525 18.5737C10.949 18.6148 11.0285 18.6879 11.0775 18.7806C11.1266 18.8734 11.1422 18.9802 11.1218 19.0831C11.1015 19.186 11.0463 19.2788 10.9656 19.3459C10.885 19.4129 10.7837 19.4502 10.6788 19.4514ZM14.4365 16.0137C14.2445 16.0137 14.0708 15.8949 14.0068 15.7029L12.7908 12.1097C12.7085 11.872 12.8365 11.6069 13.0742 11.5337C13.3119 11.4606 13.5771 11.5794 13.6502 11.8172L14.8662 15.4103C14.9485 15.648 14.8205 15.9132 14.5828 15.9863C14.5371 16.0046 14.4913 16.0137 14.4365 16.0137ZM49.4262 18.5189C49.3073 18.5189 49.1976 18.4732 49.1062 18.3817C48.9233 18.1989 48.9233 17.9154 49.1062 17.7326L52.8822 13.9383C53.065 13.7554 53.3485 13.7554 53.5313 13.9383C53.7142 14.1212 53.7142 14.4046 53.5313 14.5874L49.7553 18.3817C49.6548 18.4732 49.5359 18.5189 49.4262 18.5189ZM51.2548 20.512C51.0719 20.512 50.9073 20.4023 50.8342 20.2286C50.7336 20 50.8433 19.7257 51.081 19.6343L54.5828 18.1623C54.8205 18.0617 55.0856 18.1714 55.177 18.4092C55.2776 18.6377 55.1679 18.912 54.9302 19.0034L51.4285 20.4754C51.3736 20.5029 51.3096 20.512 51.2548 20.512ZM47.4879 17.0834C47.4422 17.0834 47.3873 17.0743 47.3416 17.056C47.2851 17.037 47.2329 17.0069 47.188 16.9676C47.1431 16.9283 47.1064 16.8805 47.0801 16.827C47.0538 16.7734 47.0383 16.7152 47.0345 16.6557C47.0307 16.5961 47.0388 16.5364 47.0582 16.48L48.2742 12.8869C48.2934 12.8304 48.3235 12.7784 48.3629 12.7336C48.4022 12.6888 48.45 12.6522 48.5035 12.6259C48.557 12.5995 48.6151 12.584 48.6746 12.5802C48.7341 12.5763 48.7938 12.5842 48.8502 12.6034C48.9066 12.6227 48.9587 12.6528 49.0035 12.6921C49.0483 12.7315 49.0849 12.7793 49.1112 12.8327C49.1375 12.8862 49.153 12.9444 49.1569 13.0039C49.1607 13.0634 49.1528 13.123 49.1336 13.1794L47.9176 16.7726C47.8628 16.9554 47.6799 17.0834 47.4879 17.0834Z" fill="#000100"/>
<path d="M61.4217 46.3863C61.4217 47.136 61.1199 47.8126 60.6262 48.3063C60.1325 48.8 59.4559 49.1018 58.7062 49.1018H5.28452C4.56434 49.1018 3.87366 48.8157 3.36442 48.3064C2.85518 47.7972 2.56909 47.1065 2.56909 46.3863C2.56909 45.6662 2.85518 44.9755 3.36442 44.4662C3.87366 43.957 4.56434 43.6709 5.28452 43.6709H58.7062C59.4264 43.6709 60.1171 43.957 60.6263 44.4662C61.1356 44.9755 61.4217 45.6662 61.4217 46.3863Z" fill="#8F90FB"/>
<path d="M58.7062 49.5589H5.29367C3.54738 49.5589 2.12109 48.1326 2.12109 46.3863C2.12109 45.536 2.45024 44.7406 3.05367 44.1463C3.65709 43.5429 4.45252 43.2137 5.29367 43.2137H58.7154C60.4617 43.2137 61.888 44.64 61.888 46.3863C61.888 47.2366 61.5588 48.032 60.9554 48.6263C60.3519 49.2297 59.5565 49.5589 58.7062 49.5589ZM5.29367 44.128C4.69024 44.128 4.12338 44.3657 3.69367 44.7863C3.3788 45.103 3.16468 45.5058 3.07828 45.944C2.99188 46.3821 3.03706 46.836 3.20813 47.2486C3.3792 47.6611 3.66851 48.0138 4.03963 48.2622C4.41075 48.5106 4.84708 48.6437 5.29367 48.6446H58.7154C59.3188 48.6446 59.8857 48.4069 60.3154 47.9863C60.6303 47.6696 60.8444 47.2668 60.9308 46.8287C61.0172 46.3905 60.972 45.9366 60.8009 45.5241C60.6298 45.1115 60.3405 44.7589 59.9694 44.5104C59.5983 44.262 59.162 44.129 58.7154 44.128H5.29367Z" fill="#000100"/>
</svg>
