<svg width="52" height="52" viewBox="0 0 52 52" fill="none" xmlns="http://www.w3.org/2000/svg">
<g clip-path="url(#clip0_57_369)">
<path opacity="0.987" fill-rule="evenodd" clip-rule="evenodd" d="M13.1523 -0.0507812C14.3711 -0.0507812 15.5898 -0.0507812 16.8086 -0.0507812C17.0289 0.136126 17.1643 0.373105 17.2148 0.660156C17.1599 0.990111 16.9906 1.24402 16.707 1.42188C15.9292 1.47263 15.1505 1.48956 14.3711 1.47266C14.2695 14.2525 14.2357 27.0493 14.2695 39.8633C22.1576 39.8463 30.0456 39.8633 37.9336 39.9141C38.8411 40.3242 39.1966 41.0182 39 41.9961C38.3804 44.2021 38.2788 46.4365 38.6953 48.6992C38.8639 49.2722 39.0162 49.8478 39.1523 50.4258C40.9815 50.6563 42.6065 50.1993 44.0273 49.0547C44.1761 48.8745 44.3115 48.6883 44.4336 48.4961C45.0841 47.7845 45.4735 46.9382 45.6015 45.957C45.6354 42.707 45.6693 39.457 45.7031 36.207C45.8773 35.9128 46.1312 35.7773 46.4648 35.8008C46.7757 35.7951 46.9958 35.9306 47.125 36.207C47.1927 39.5586 47.1927 42.9102 47.125 46.2617C46.5384 49.3364 44.7272 51.2323 41.6914 51.9492C34.0404 51.9492 26.3893 51.9492 18.7383 51.9492C18.5272 51.7573 18.3918 51.5202 18.332 51.2383C18.3882 50.9248 18.5575 50.6709 18.8398 50.4766C25.0689 50.4258 31.2981 50.4088 37.5273 50.4258C36.9238 48.1234 36.7715 45.7874 37.0703 43.418C37.1441 42.9291 37.2627 42.4553 37.4258 41.9961C37.4389 41.8218 37.4727 41.6525 37.5273 41.4883C32.4493 41.4205 27.3542 41.3867 22.2422 41.3867C17.1129 41.3867 12.0178 41.4545 6.95702 41.5898C6.88246 41.7125 6.84861 41.8479 6.85546 41.9961C6.3121 43.6702 6.1259 45.3968 6.29686 47.1758C6.44662 48.2758 6.66667 49.3592 6.95702 50.4258C9.93638 50.4088 12.9156 50.4258 15.8945 50.4766C16.2969 50.5907 16.5339 50.8446 16.6055 51.2383C16.5456 51.5202 16.4103 51.7573 16.1992 51.9492C12.9492 51.9492 9.69921 51.9492 6.44921 51.9492C5.97118 51.7243 5.64956 51.3518 5.48436 50.832C4.59463 47.9153 4.49307 44.9699 5.17968 41.9961C5.32104 41.4302 5.52416 40.8886 5.78905 40.3711C6.00025 40.2063 6.2203 40.0539 6.44921 39.9141C8.54789 39.8633 10.6469 39.8463 12.7461 39.8633C12.7291 26.694 12.7461 13.5247 12.7969 0.355469C12.8669 0.167555 12.9854 0.0321379 13.1523 -0.0507812Z" fill="black"/>
<path opacity="0.989" fill-rule="evenodd" clip-rule="evenodd" d="M19.4492 -0.0507812C28.556 -0.0507812 37.6627 -0.0507812 46.7695 -0.0507812C46.9365 0.0321379 47.0549 0.167555 47.125 0.355469C47.1927 11.392 47.1927 22.4284 47.125 33.4648C46.9958 33.7413 46.7757 33.8768 46.4648 33.8711C46.1312 33.8946 45.8773 33.7591 45.7031 33.4648C45.6523 22.8009 45.6354 12.1368 45.6523 1.47266C36.9518 1.48959 28.2512 1.47266 19.5508 1.42188C19.2672 1.24402 19.0979 0.990111 19.043 0.660156C19.0935 0.373105 19.2289 0.136126 19.4492 -0.0507812Z" fill="black"/>
<path fill-rule="evenodd" clip-rule="evenodd" d="M17.2148 0.660156C17.8242 0.660156 18.4336 0.660156 19.043 0.660156C19.0979 0.99011 19.2672 1.24402 19.5508 1.42188C28.2512 1.47266 36.9518 1.48959 45.6523 1.47266C45.6354 12.1368 45.6523 22.8009 45.7031 33.4648C45.8773 33.7591 46.1312 33.8946 46.4648 33.8711C46.4648 34.5143 46.4648 35.1576 46.4648 35.8008C46.1312 35.7773 45.8773 35.9128 45.7031 36.207C45.6693 39.457 45.6354 42.707 45.6016 45.957C45.4735 46.9382 45.0841 47.7845 44.4336 48.4961C42.9939 49.5624 41.3689 50.0363 39.5586 49.918C38.904 47.3173 38.8871 44.7106 39.5078 42.0977C39.8186 40.9087 39.4293 40.0454 38.3398 39.5078C30.3561 39.3564 22.3665 39.3056 14.3711 39.3555C14.3711 26.7279 14.3711 14.1002 14.3711 1.47266C15.1505 1.48956 15.9292 1.47263 16.707 1.42188C16.9906 1.24402 17.1599 0.99011 17.2148 0.660156Z" fill="#DDEEFD"/>
<path fill-rule="evenodd" clip-rule="evenodd" d="M28.8945 5.53516C31.8694 5.31457 33.7144 6.63488 34.4296 9.4961C34.5355 12.4031 33.1644 14.1465 30.3164 14.7266C27.7374 14.7887 26.0616 13.5869 25.289 11.1211C25.0106 8.29028 26.2125 6.4283 28.8945 5.53516Z" fill="#B4C7DB"/>
<path fill-rule="evenodd" clip-rule="evenodd" d="M28.793 6.14453C31.335 5.84817 33.0108 6.89764 33.8203 9.29296C34.1036 11.7582 33.0711 13.3662 30.7227 14.1172C29.0654 14.4112 27.6943 13.9203 26.6094 12.6445C25.2535 10.4528 25.5412 8.50622 27.4727 6.80468C27.9083 6.55025 28.3483 6.3302 28.793 6.14453Z" fill="#020304"/>
<path fill-rule="evenodd" clip-rule="evenodd" d="M29.3008 7.5664C31.431 7.54672 32.4296 8.59621 32.2969 10.7148C31.6946 12.3956 30.5267 12.9881 28.793 12.4922C27.2643 11.5508 26.9088 10.2813 27.7266 8.68359C28.1457 8.14551 28.6705 7.77312 29.3008 7.5664Z" fill="#006BEF"/>
<path fill-rule="evenodd" clip-rule="evenodd" d="M19.8555 9.39454C20.6839 9.32559 21.0393 9.69799 20.9219 10.5117C20.5062 10.9806 20.0661 11.0146 19.6016 10.6133C19.3431 10.1281 19.4277 9.72186 19.8555 9.39454Z" fill="#0B0C0D"/>
<path fill-rule="evenodd" clip-rule="evenodd" d="M22.4961 9.39452C23.2742 9.30952 23.6296 9.64807 23.5625 10.4101C23.254 10.908 22.8477 11.0096 22.3438 10.7148C21.9838 10.2255 22.0346 9.7854 22.4961 9.39452Z" fill="#090A0B"/>
<path fill-rule="evenodd" clip-rule="evenodd" d="M36.7149 9.39454C37.6573 9.35277 37.962 9.75902 37.629 10.6133C37.163 11.0512 36.7398 11.0174 36.3594 10.5117C36.2236 10.0417 36.3422 9.6693 36.7149 9.39454Z" fill="#0B0C0C"/>
<path fill-rule="evenodd" clip-rule="evenodd" d="M39.3555 9.39453C40.4224 9.3934 40.6933 9.85043 40.168 10.7656C39.2974 11.0469 38.908 10.7252 39 9.80078C39.1398 9.67839 39.2582 9.54298 39.3555 9.39453Z" fill="#0B0B0C"/>
<path fill-rule="evenodd" clip-rule="evenodd" d="M24.6289 18.2305C28.1837 18.2135 31.7384 18.2305 35.2929 18.2812C35.8575 18.4293 36.0437 18.7848 35.8515 19.3477C35.733 19.4662 35.6146 19.5846 35.496 19.7031C31.806 19.7709 28.1158 19.7709 24.4257 19.7031C23.8366 19.1043 23.9043 18.6135 24.6289 18.2305Z" fill="#040405"/>
<path fill-rule="evenodd" clip-rule="evenodd" d="M19.1445 21.0742C26.3555 21.0573 33.5665 21.0742 40.7773 21.125C41.3931 21.32 41.5454 21.7093 41.2343 22.293C41.1154 22.4344 40.9631 22.5191 40.7773 22.5469C33.5664 22.6146 26.3554 22.6146 19.1445 22.5469C18.6534 22.3648 18.4673 22.0093 18.5859 21.4805C18.7382 21.2805 18.9244 21.1451 19.1445 21.0742Z" fill="black"/>
<path fill-rule="evenodd" clip-rule="evenodd" d="M18.9414 23.918C23.7149 23.901 28.4883 23.918 33.2617 23.9687C33.6387 24.233 33.7571 24.5885 33.6171 25.0352C33.4832 25.237 33.297 25.3555 33.0586 25.3906C28.3867 25.4584 23.7148 25.4584 19.0429 25.3906C18.4273 24.9371 18.3934 24.4463 18.9414 23.918Z" fill="#040405"/>
<path fill-rule="evenodd" clip-rule="evenodd" d="M34.9883 23.918C36.9521 23.901 38.9157 23.918 40.8789 23.9687C41.4046 24.2244 41.5231 24.6138 41.2344 25.1367C41.1069 25.2089 40.9885 25.2935 40.8789 25.3906C38.9492 25.4584 37.0196 25.4584 35.0899 25.3906C34.4717 24.928 34.4378 24.4372 34.9883 23.918Z" fill="#050606"/>
<path fill-rule="evenodd" clip-rule="evenodd" d="M36.4102 28.3867C37.2553 28.3525 37.5938 28.7587 37.4258 29.6055C37.846 29.5695 38.2522 29.6203 38.6445 29.7578C38.9862 30.0651 39.037 30.4206 38.7969 30.8242C38.678 30.9657 38.5256 31.0504 38.3399 31.0781C37.5274 31.1119 36.7149 31.1459 35.9024 31.1797C35.4517 31.6454 35.5194 32.0178 36.1055 32.2969C36.681 32.3307 37.2565 32.3646 37.832 32.3984C39.324 33.048 39.7133 34.1144 39 35.5977C38.6532 36.0674 38.1961 36.3721 37.6289 36.5117C37.6275 37.3429 37.2212 37.7322 36.4102 37.6797C36.0582 37.3709 35.9227 36.9815 36.0039 36.5117C35.5838 36.5477 35.1775 36.4969 34.7852 36.3594C34.466 35.8509 34.5337 35.4109 34.9883 35.0391C35.8346 35.0052 36.681 34.9713 37.5274 34.9375C37.9469 34.5286 37.9131 34.1562 37.4258 33.8203C36.8164 33.7865 36.207 33.7526 35.5977 33.7187C34.349 33.1938 33.8919 32.2627 34.2266 30.9258C34.5656 30.2062 35.1242 29.7661 35.9024 29.6055C35.9095 29.1196 36.0788 28.7133 36.4102 28.3867Z" fill="#030404"/>
<path fill-rule="evenodd" clip-rule="evenodd" d="M18.9414 29.4023C21.7516 29.3854 24.5614 29.4023 27.3711 29.4531C27.9127 29.8932 27.9127 30.3334 27.3711 30.7734C24.5612 30.8412 21.7513 30.8412 18.9414 30.7734C18.4053 30.3167 18.4053 29.8597 18.9414 29.4023Z" fill="#010101"/>
<path fill-rule="evenodd" clip-rule="evenodd" d="M19.0429 32.1445C21.7176 32.1276 24.3921 32.1445 27.0664 32.1953C27.8762 32.5179 27.9778 32.9919 27.3711 33.6172C24.5611 33.6849 21.7513 33.6849 18.9414 33.6172C18.3897 33.0851 18.4235 32.5942 19.0429 32.1445Z" fill="#070808"/>
<path fill-rule="evenodd" clip-rule="evenodd" d="M19.0429 34.9883C21.7853 34.9713 24.5275 34.9883 27.2695 35.0391C27.7072 35.2733 27.8596 35.6287 27.7265 36.1055C27.5926 36.3073 27.4064 36.4258 27.1679 36.4609C24.4257 36.5287 21.6836 36.5287 18.9414 36.4609C18.3897 35.9289 18.4235 35.438 19.0429 34.9883Z" fill="#040404"/>
<path fill-rule="evenodd" clip-rule="evenodd" d="M14.3711 1.47266C14.3711 14.1002 14.3711 26.7279 14.3711 39.3555C22.3665 39.3056 30.3561 39.3564 38.3398 39.5078C39.4293 40.0454 39.8186 40.9087 39.5078 42.0977C38.887 44.7106 38.904 47.3173 39.5586 49.918C41.3689 50.0363 42.9939 49.5624 44.4336 48.4961C44.3115 48.6883 44.1761 48.8745 44.0273 49.0547C42.6065 50.1993 40.9815 50.6563 39.1523 50.4258C39.0162 49.8478 38.8639 49.2722 38.6953 48.6992C38.2788 46.4365 38.3804 44.2021 39 41.9961C39.1966 41.0182 38.8411 40.3242 37.9336 39.9141C30.0456 39.8633 22.1576 39.8463 14.2695 39.8633C14.2357 27.0493 14.2695 14.2525 14.3711 1.47266Z" fill="#B6C9DB"/>
<path fill-rule="evenodd" clip-rule="evenodd" d="M37.5273 41.4883C27.3301 41.4547 17.14 41.4885 6.95703 41.5898C12.0178 41.4545 17.1129 41.3867 22.2422 41.3867C27.3542 41.3867 32.4493 41.4205 37.5273 41.4883Z" fill="#5FA2DF"/>
<path fill-rule="evenodd" clip-rule="evenodd" d="M37.5274 41.4883C37.4727 41.6525 37.4389 41.8218 37.4258 41.9961C27.2357 41.9961 17.0455 41.9961 6.85548 41.9961C6.84863 41.8479 6.88248 41.7125 6.95704 41.5898C17.14 41.4885 27.3301 41.4547 37.5274 41.4883Z" fill="#66B2F6"/>
<path fill-rule="evenodd" clip-rule="evenodd" d="M6.85544 41.9961C17.0455 41.9961 27.2357 41.9961 37.4258 41.9961C37.2626 42.4553 37.1441 42.9291 37.0703 43.418C36.7715 45.7874 36.9238 48.1234 37.5273 50.4258C31.2981 50.4088 25.0688 50.4258 18.8398 50.4766C18.5575 50.6709 18.3882 50.9248 18.332 51.2383C17.7565 51.2383 17.181 51.2383 16.6054 51.2383C16.5338 50.8446 16.2969 50.5907 15.8945 50.4766C12.9156 50.4258 9.93636 50.4088 6.95701 50.4258C6.66666 49.3592 6.4466 48.2758 6.29685 47.1758C6.12589 45.3968 6.31208 43.6702 6.85544 41.9961Z" fill="#349AF6"/>
</g>
<defs>
<clipPath id="clip0_57_369">
<rect width="52" height="52" fill="white"/>
</clipPath>
</defs>
</svg>
