<svg width="12" height="10" viewBox="0 0 12 10" fill="none" xmlns="http://www.w3.org/2000/svg">
<path d="M8.72916 0H5.29309C5.07547 7.46362e-05 4.86677 0.0865619 4.71289 0.24045L0.240348 4.71217C-0.080116 5.03264 -0.080116 5.55211 0.240348 5.87298L3.67641 9.30905C3.99688 9.62951 4.51635 9.62951 4.83681 9.30905L9.30935 4.83732C9.46323 4.68304 9.54981 4.47419 9.54981 4.2563V0.82065C9.54981 0.367241 9.18256 0 8.72916 0ZM7.29302 2.87228C6.95327 2.87228 6.67753 2.59654 6.67753 2.25679C6.67753 1.91704 6.95327 1.6413 7.29302 1.6413C7.63277 1.6413 7.9085 1.91704 7.9085 2.25679C7.9085 2.59654 7.63277 2.87228 7.29302 2.87228Z" fill="#667791"/>
<path d="M10.3705 0.820801L10.3701 4.64052C10.3701 4.73427 10.3516 4.82711 10.3157 4.91372C10.2798 5.00032 10.2272 5.07899 10.1608 5.14522L5.61603 9.68998L5.68578 9.75973C6.00625 10.0802 6.52572 10.0802 6.84618 9.75973L10.9503 5.65648C11.0266 5.58036 11.0872 5.48994 11.1285 5.39038C11.1698 5.29082 11.1911 5.18408 11.1911 5.07628V1.64145C11.1911 1.18804 10.8239 0.820801 10.3705 0.820801Z" fill="#667791"/>
</svg>
