<svg width="24" height="24" viewBox="0 0 24 24" fill="none" xmlns="http://www.w3.org/2000/svg">
<path opacity="0.998" fill-rule="evenodd" clip-rule="evenodd" d="M11.4141 1.94532C15.4532 1.89786 18.5392 3.56974 20.6719 6.96094C22.4924 10.4094 22.4455 13.8313 20.5313 17.2266C18.658 20.1135 15.9939 21.6994 12.5391 21.9844C8.49861 22.0545 5.41269 20.3904 3.28128 16.9922C1.4608 13.5437 1.50768 10.1218 3.42191 6.72657C5.30478 3.84309 7.96887 2.24934 11.4141 1.94532Z" fill="#2196F3"/>
<path fill-rule="evenodd" clip-rule="evenodd" d="M11.5078 5.97696C13.5416 5.91021 14.8462 6.84771 15.4219 8.78946C15.6273 10.3543 15.0882 11.5809 13.8047 12.4691C13.5501 12.6121 13.2845 12.7293 13.0078 12.8207C12.9812 13.3389 12.9422 13.8545 12.8906 14.3676C12.5359 14.9707 12.0437 15.1191 11.4141 14.8129C11.2611 14.6914 11.144 14.5429 11.0625 14.3676C10.9868 13.7146 10.9712 13.0583 11.0156 12.3988C11.2954 11.5254 11.8814 10.9707 12.7734 10.7348C13.3005 10.3444 13.5271 9.82094 13.4531 9.16446C13.1699 8.28837 12.5684 7.90554 11.6484 8.01602C11.0469 8.18009 10.6641 8.56291 10.5 9.16446C10.5334 10.0686 10.1037 10.4983 9.21093 10.4535C8.85815 10.3507 8.63156 10.1242 8.53124 9.77384C8.46674 8.00965 9.25579 6.79868 10.8984 6.14102C11.1093 6.09232 11.3124 6.03762 11.5078 5.97696Z" fill="#FDFEFE"/>
<path fill-rule="evenodd" clip-rule="evenodd" d="M11.7422 15.961C12.6043 15.9557 13.0028 16.3776 12.9375 17.2266C12.7274 17.8123 12.3133 18.0545 11.6953 17.9532C11.0399 17.6431 10.8446 17.1509 11.1094 16.4766C11.264 16.2319 11.475 16.06 11.7422 15.961Z" fill="#FCFDFE"/>
</svg>
