<svg width="64" height="64" viewBox="0 0 64 64" fill="none" xmlns="http://www.w3.org/2000/svg">
<g clip-path="url(#clip0_337_2)">
<path d="M54.8436 29.6388L53.7107 26.0639C57.6222 24.8245 60.2501 21.2323 60.2501 17.125V7.75H54.6251V5.875C54.6251 4.8395 55.4646 4 56.5001 4H64.0001V17.125C64.0001 19.9691 63.1051 22.6755 61.4119 24.9517C59.7528 27.1821 57.4817 28.8029 54.8436 29.6388Z" fill="#FDBF00"/>
<path d="M9.15637 29.6388C6.51837 28.8028 4.24713 27.1821 2.58812 24.9517C0.895 22.6755 0 19.969 0 17.125V4H7.5C8.5355 4 9.375 4.8395 9.375 5.875V7.75H3.75V17.125C3.75 21.2323 6.37788 24.8245 10.2893 26.064L9.15637 29.6388Z" fill="#FFDA2D"/>
<path d="M47 4L45.125 24.625V47.757L50.7361 42.2627L56.375 47.9016V4H47Z" fill="#FF641A"/>
<path d="M17 4H7.625V47.757L13.2361 42.2627L18.875 47.9016V24.625L17 4Z" fill="#FF9100"/>
<path d="M48.875 24.625V0H15.125V24.625C15.125 31.835 19.6825 38.1825 26.375 40.54V52.75H21.1925C17.8475 52.75 15.125 55.4725 15.125 58.8175V64H48.875V58.8175C48.875 55.4725 46.1525 52.75 42.8075 52.75H37.625V40.54C44.3175 38.1825 48.875 31.8337 48.875 24.625Z" fill="#FFDA2D"/>
<path d="M37.625 40.54V52.75H42.8075C46.1525 52.75 48.875 55.4725 48.875 58.8175V64H32V0H48.875V24.625C48.875 31.8337 44.3175 38.1825 37.625 40.54Z" fill="#FDBF00"/>
<path d="M43.5989 14.7912L35.5501 13.6499L32.0001 6.62744L28.4501 13.6499L20.4014 14.7912L26.2289 20.3374L24.8651 28.1024L32.0001 24.4399L39.1351 28.1024L37.7714 20.3374L43.5989 14.7912Z" fill="#FDBF00"/>
<path d="M37.7713 20.3374L39.135 28.1024L32 24.4399V6.62744L35.55 13.6499L43.5988 14.7912L37.7713 20.3374Z" fill="#FF9100"/>
</g>
<defs>
<clipPath id="clip0_337_2">
<rect width="64" height="64" fill="white"/>
</clipPath>
</defs>
</svg>
