<svg width="15" height="15" viewBox="0 0 15 15" fill="none" xmlns="http://www.w3.org/2000/svg">
<g clip-path="url(#clip0_426_749)">
<path d="M6.03703 12.0691C7.37774 12.0691 8.68013 11.6218 9.73785 10.7979L13.7283 14.7884C14.0264 15.0763 14.5014 15.068 14.7893 14.7699C15.0702 14.4791 15.0702 14.0181 14.7893 13.7274L10.7989 9.73691C12.8432 7.10532 12.3671 3.31476 9.73555 1.27044C7.10396 -0.773876 3.31343 -0.297826 1.26911 2.33376C-0.775204 4.96535 -0.299154 8.75591 2.33243 10.8002C3.39189 11.6233 4.69544 12.0697 6.03703 12.0691ZM2.83072 2.82974C4.60153 1.05889 7.47259 1.05886 9.24344 2.82967C11.0143 4.60049 11.0143 7.47155 9.24351 9.24239C7.47269 11.0132 4.60163 11.0133 2.83078 9.24246L2.83072 9.24239C1.0599 7.48448 1.04947 4.62389 2.80738 2.85307L2.83072 2.82974Z" fill="#667791"/>
</g>
<defs>
<clipPath id="clip0_426_749">
<rect width="15" height="15" fill="white"/>
</clipPath>
</defs>
</svg>
