<svg width="60" height="60" viewBox="0 0 60 60" fill="none" xmlns="http://www.w3.org/2000/svg">
<path fill-rule="evenodd" clip-rule="evenodd" d="M33.7199 1.53072C32.5624 0.961678 31.2897 0.665771 29.9999 0.665771C28.7101 0.665771 27.4374 0.961678 26.2799 1.53072L2.94124 13.0241C-0.0907638 14.5174 -0.0907638 18.8187 2.94124 20.3121L26.2799 31.8027C27.4374 32.372 28.71 32.668 29.9999 32.668C31.2898 32.668 32.5624 32.372 33.7199 31.8027L57.0586 20.3094C60.0906 18.8161 60.0906 14.5147 57.0586 13.0214L33.7199 1.53072ZM3.07457 26.2934C3.25789 26.2031 3.45953 26.1561 3.6639 26.1561C3.86827 26.1561 4.06991 26.2031 4.25324 26.2934L26.2799 37.1387C27.4374 37.7078 28.7101 38.0037 29.9999 38.0037C31.2897 38.0037 32.5624 37.7078 33.7199 37.1387L55.7466 26.2934C55.9299 26.2031 56.1315 26.1561 56.3359 26.1561C56.5403 26.1561 56.7419 26.2031 56.9252 26.2934L57.0586 26.3574C60.0906 27.8507 60.0906 32.1547 57.0586 33.6454L33.7199 45.1387C32.5624 45.7078 31.2897 46.0037 29.9999 46.0037C28.7101 46.0037 27.4374 45.7078 26.2799 45.1387L2.94124 33.6454C-0.0907638 32.1521 -0.0907638 27.8507 2.94124 26.3574L3.07457 26.2934ZM4.25324 39.6267C4.06991 39.5364 3.86827 39.4894 3.6639 39.4894C3.45953 39.4894 3.25789 39.5364 3.07457 39.6267L2.94124 39.6934C-0.0907638 41.1867 -0.0907638 45.4881 2.94124 46.9814L26.2799 58.4721C27.4374 59.0411 28.7101 59.337 29.9999 59.337C31.2897 59.337 32.5624 59.0411 33.7199 58.4721L57.0586 46.9787C60.0906 45.4854 60.0906 41.1841 57.0586 39.6907L56.9252 39.6267C56.7419 39.5364 56.5403 39.4894 56.3359 39.4894C56.1315 39.4894 55.9299 39.5364 55.7466 39.6267L33.7199 50.4721C32.5624 51.0411 31.2897 51.337 29.9999 51.337C28.7101 51.337 27.4374 51.0411 26.2799 50.4721L4.25324 39.6267Z" fill="#BDBDBD"/>
</svg>
