<svg width="64" height="64" viewBox="0 0 64 64" fill="none" xmlns="http://www.w3.org/2000/svg">
<path d="M2.78149 25.8338C2.78149 38.4246 12.9846 48.64 25.5876 48.64C38.1784 48.64 48.3938 38.4369 48.3938 25.8338C48.3938 13.2307 38.1784 3.03998 25.5753 3.03998C12.9846 3.03998 2.78149 13.2431 2.78149 25.8338Z" fill="#AFDEE0"/>
<path d="M18.5108 39.6061V59.0768C18.5108 59.7784 19.077 60.3445 19.7785 60.3445H26.8062C27.52 60.3445 28.0862 59.7784 28.0862 59.0768V39.6061C28.0862 38.9045 27.52 38.3384 26.8062 38.3384H19.7785C19.077 38.3384 18.5108 38.9045 18.5108 39.6061Z" fill="black"/>
<path d="M19.7786 60.9599H26.8063C27.8524 60.9599 28.7017 60.1107 28.7017 59.0769V39.6061C28.7017 38.5723 27.8524 37.723 26.8063 37.723H19.7786C18.7447 37.723 17.8955 38.5723 17.8955 39.6061V59.0769C17.8955 60.123 18.7447 60.9599 19.7786 60.9599ZM26.8063 38.9538C27.1755 38.9538 27.4709 39.2369 27.4709 39.6061V59.0769C27.4709 59.4461 27.1755 59.7292 26.8063 59.7292H19.7786C19.4217 59.7292 19.1263 59.4338 19.1263 59.0769V39.6061C19.1263 39.2492 19.4217 38.9538 19.7786 38.9538H26.8063Z" fill="black"/>
<path d="M20.9725 39.6061V59.0768C20.9725 59.7784 21.5386 60.3445 22.2402 60.3445H29.2679C29.9817 60.3445 30.5479 59.7784 30.5479 59.0768V39.6061C30.5479 38.9045 29.9817 38.3384 29.2679 38.3384H22.2402C21.5386 38.3384 20.9725 38.9045 20.9725 39.6061Z" fill="#00AAE8"/>
<path d="M22.2401 60.96H29.2678C30.3139 60.96 31.1631 60.1108 31.1631 59.0769V39.6061C31.1631 38.5723 30.3139 37.7231 29.2678 37.7231H22.2401C21.2062 37.7231 20.357 38.5723 20.357 39.6061V59.0769C20.357 60.1231 21.2062 60.96 22.2401 60.96ZM29.2678 38.9538C29.637 38.9538 29.9324 39.2369 29.9324 39.6061V59.0769C29.9324 59.4461 29.637 59.7292 29.2678 59.7292H22.2401C21.8831 59.7292 21.5878 59.4338 21.5878 59.0769V39.6061C21.5878 39.2492 21.8831 38.9538 22.2401 38.9538H29.2678ZM48.5662 25.3415V59.0769C48.5662 59.7785 49.1324 60.3446 49.8339 60.3446H56.8739C57.5754 60.3446 58.1416 59.7785 58.1416 59.0769V25.3415C58.1416 24.64 57.5754 24.0615 56.8739 24.0615H49.8339C49.1324 24.0615 48.5662 24.64 48.5662 25.3415Z" fill="black"/>
<path d="M49.834 60.96H56.874C57.9078 60.96 58.7571 60.1108 58.7571 59.0769V25.3416C58.7571 24.2954 57.9078 23.4462 56.874 23.4462H49.834C48.8002 23.4462 47.9509 24.2954 47.9509 25.3416V59.0769C47.9509 60.1231 48.8002 60.96 49.834 60.96ZM56.874 24.6769C57.2309 24.6769 57.5263 24.9723 57.5263 25.3416V59.0769C57.5263 59.4339 57.2309 59.7292 56.874 59.7292H49.834C49.4771 59.7292 49.1817 59.4339 49.1817 59.0769V25.3416C49.1817 24.9723 49.4771 24.6769 49.834 24.6769H56.874Z" fill="black"/>
<path d="M51.0276 25.3415V59.0769C51.0276 59.7784 51.5938 60.3446 52.2953 60.3446H59.3353C60.0369 60.3446 60.603 59.7784 60.603 59.0769V25.3415C60.603 24.64 60.0369 24.0615 59.3353 24.0615H52.2953C51.5938 24.0615 51.0276 24.64 51.0276 25.3415Z" fill="#00AAE8"/>
<path d="M52.2954 60.96H59.3354C60.3693 60.96 61.2185 60.1108 61.2185 59.0769V25.3416C61.2185 24.2954 60.3693 23.4462 59.3354 23.4462H52.2954C51.2616 23.4462 50.4124 24.2954 50.4124 25.3416V59.0769C50.4124 60.1231 51.2616 60.96 52.2954 60.96ZM59.3354 24.6769C59.6924 24.6769 59.9877 24.9723 59.9877 25.3416V59.0769C59.9877 59.4339 59.6924 59.7292 59.3354 59.7292H52.2954C51.9385 59.7292 51.6431 59.4339 51.6431 59.0769V25.3416C51.6431 24.9723 51.9385 24.6769 52.2954 24.6769H59.3354Z" fill="black"/>
<path d="M57.5017 30.2523C57.3294 32.1723 57.1817 34.0923 57.0709 36.0123C57.0217 36.9723 56.8617 37.9323 56.9478 38.8923C57.034 39.8523 57.157 40.8123 57.5017 41.7723C57.514 41.8093 57.5509 41.8216 57.5878 41.8093C57.6124 41.797 57.6247 41.7846 57.6247 41.7723C57.9694 40.8123 58.0924 39.8523 58.1786 38.8923C58.2647 37.9323 58.1047 36.9723 58.0555 36.0123C57.9447 34.0923 57.797 32.1723 57.6247 30.2523C57.6247 30.2154 57.5878 30.1908 57.5632 30.1908C57.5386 30.2031 57.514 30.2277 57.5017 30.2523Z" fill="white"/>
<path d="M3.48321 46.5846V59.0769C3.48321 59.7784 4.04936 60.3446 4.7509 60.3446H11.7786C12.4801 60.3446 13.0586 59.7784 13.0586 59.0769V46.5846C13.0586 45.883 12.4801 45.3169 11.7786 45.3169H4.7509C4.04936 45.3169 3.48321 45.883 3.48321 46.5846Z" fill="black"/>
<path d="M4.75075 60.96H11.7784C12.8246 60.96 13.6738 60.1108 13.6738 59.0769V46.5846C13.6738 45.5508 12.8246 44.7015 11.7784 44.7015H4.75075C3.7169 44.7015 2.86768 45.5508 2.86768 46.5846V59.0769C2.86768 60.1231 3.7169 60.96 4.75075 60.96ZM11.7784 45.9323C12.1477 45.9323 12.4431 46.2277 12.4431 46.5846V59.0769C12.4431 59.4338 12.1477 59.7292 11.7784 59.7292H4.75075C4.39383 59.7292 4.09844 59.4338 4.09844 59.0769V46.5846C4.09844 46.2277 4.39383 45.9323 4.75075 45.9323H11.7784Z" fill="black"/>
<path d="M5.94464 46.5846V59.0769C5.94464 59.7784 6.51079 60.3446 7.21233 60.3446H14.24C14.9416 60.3446 15.52 59.7784 15.52 59.0769V46.5846C15.52 45.883 14.9416 45.3169 14.24 45.3169H7.21233C6.51079 45.3169 5.94464 45.883 5.94464 46.5846Z" fill="white"/>
<path d="M7.21223 60.96H14.2399C15.2861 60.96 16.1353 60.1108 16.1353 59.077V46.5846C16.1353 45.5508 15.2861 44.7016 14.2399 44.7016H7.21223C6.17838 44.7016 5.32915 45.5508 5.32915 46.5846V59.077C5.32915 60.1231 6.17838 60.96 7.21223 60.96ZM14.2399 45.9323C14.6092 45.9323 14.9045 46.2277 14.9045 46.5846V59.077C14.9045 59.4339 14.6092 59.7293 14.2399 59.7293H7.21223C6.85531 59.7293 6.55992 59.4339 6.55992 59.077V46.5846C6.55992 46.2277 6.85531 45.9323 7.21223 45.9323H14.2399ZM33.5384 33.8462V59.077C33.5384 59.7785 34.1168 60.3446 34.8184 60.3446H41.8461C42.5476 60.3446 43.1138 59.7785 43.1138 59.077V33.8462C43.1138 33.1446 42.5476 32.5785 41.8461 32.5785H34.8184C34.1168 32.5785 33.5384 33.1446 33.5384 33.8462Z" fill="black"/>
<path d="M34.8185 60.9599H41.8462C42.88 60.9599 43.7292 60.1107 43.7292 59.0769V33.8461C43.7292 32.8122 42.88 31.963 41.8462 31.963H34.8185C33.7723 31.963 32.9231 32.8122 32.9231 33.8461V59.0769C32.9231 60.123 33.7846 60.9599 34.8185 60.9599ZM41.8462 33.1938C42.2031 33.1938 42.4985 33.4892 42.4985 33.8461V59.0769C42.4985 59.4338 42.2031 59.7292 41.8462 59.7292H34.8185C34.4492 59.7292 34.1539 59.4338 34.1539 59.0769V33.8461C34.1539 33.4892 34.4492 33.1938 34.8185 33.1938H41.8462Z" fill="black"/>
<path d="M36.0001 33.8462V59.077C36.0001 59.7785 36.5785 60.3446 37.2801 60.3446H44.3077C45.0093 60.3446 45.5754 59.7785 45.5754 59.077V33.8462C45.5754 33.1446 45.0093 32.5785 44.3077 32.5785H37.2801C36.5785 32.5785 36.0001 33.1446 36.0001 33.8462Z" fill="white"/>
<path d="M37.2801 60.9599H44.3078C45.3417 60.9599 46.1909 60.1107 46.1909 59.0769V33.8461C46.1909 32.8122 45.3417 31.963 44.3078 31.963H37.2801C36.234 31.963 35.3848 32.8122 35.3848 33.8461V59.0769C35.3848 60.123 36.2463 60.9599 37.2801 60.9599ZM44.3078 33.1938C44.6648 33.1938 44.9601 33.4892 44.9601 33.8461V59.0769C44.9601 59.4338 44.6648 59.7292 44.3078 59.7292H37.2801C36.9109 59.7292 36.6155 59.4338 36.6155 59.0769V33.8461C36.6155 33.4892 36.9109 33.1938 37.2801 33.1938H44.3078Z" fill="black"/>
<path d="M52.2894 8.07381C52.3633 6.79381 51.034 5.90766 49.8894 6.47381L45.1263 8.82458C44.8643 8.95438 44.641 9.15085 44.4789 9.39426C44.3168 9.63768 44.2216 9.91946 44.2029 10.2113C44.1842 10.5031 44.2426 10.7948 44.3723 11.0569C44.502 11.319 44.6984 11.5424 44.9417 11.7046L46.0494 12.443C42.0494 18.1292 34.1971 28.3569 29.8648 29.8092C28.2033 30.3753 24.9663 29.3661 22.111 28.4677C19.2925 27.5938 16.6463 26.7569 14.6156 26.9907C10.8248 27.4092 2.40634 34.1292 1.45865 34.8923C1.20404 35.0979 1.04155 35.3963 1.00693 35.7217C0.972306 36.0472 1.06839 36.373 1.27403 36.6277C1.47968 36.8823 1.77804 37.0448 2.10349 37.0794C2.42894 37.114 2.75481 37.0179 3.00942 36.8123C6.36942 34.0923 12.5602 29.6861 14.8863 29.4277C16.4002 29.2677 18.9356 30.0554 21.3725 30.8184C24.7448 31.8769 28.2279 32.96 30.6525 32.1477C36.1417 30.2892 44.7079 18.6584 48.0925 13.8092L49.3602 14.6461C50.4186 15.36 51.8586 14.6461 51.9448 13.3661L52.2894 8.07381Z" fill="black"/>
</svg>
