<svg width="25" height="25" viewBox="0 0 25 25" fill="none" xmlns="http://www.w3.org/2000/svg">
<path d="M11.4181 23.5896C16.972 23.5896 21.4744 19.1337 21.4744 13.6371C21.4744 8.14046 16.972 3.68457 11.4181 3.68457C5.86421 3.68457 1.36188 8.14046 1.36188 13.6371C1.36188 19.1337 5.86421 23.5896 11.4181 23.5896Z" fill="#C63734"/>
<path d="M11.4181 21.3931C15.7459 21.3931 19.2543 17.9208 19.2543 13.6375C19.2543 9.35415 15.7459 5.88184 11.4181 5.88184C7.09026 5.88184 3.58185 9.35415 3.58185 13.6375C3.58185 17.9208 7.09026 21.3931 11.4181 21.3931Z" fill="#FAE7AC"/>
<path d="M11.4181 18.5079C14.1361 18.5079 16.3394 16.3272 16.3394 13.6372C16.3394 10.9473 14.1361 8.7666 11.4181 8.7666C8.70021 8.7666 6.49689 10.9473 6.49689 13.6372C6.49689 16.3272 8.70021 18.5079 11.4181 18.5079Z" fill="#C63734"/>
<path d="M11.4181 15.8603C12.6591 15.8603 13.665 14.865 13.665 13.6372C13.665 12.4094 12.6591 11.4141 11.4181 11.4141C10.1772 11.4141 9.17126 12.4094 9.17126 13.6372C9.17126 14.865 10.1772 15.8603 11.4181 15.8603Z" fill="#F9DF88"/>
<path d="M11.4187 23.7458C5.78749 23.7458 1.20624 19.2108 1.20624 13.6371C1.20624 8.06332 5.78749 3.52832 11.4187 3.52832C17.05 3.52832 21.6306 8.06332 21.6306 13.6371C21.6306 19.2108 17.0494 23.7458 11.4181 23.7458H11.4187ZM11.4187 3.84082C5.95999 3.84082 1.51874 8.2352 1.51874 13.6371C1.51874 19.0389 5.95999 23.4333 11.4187 23.4333C16.8775 23.4333 21.3181 19.0389 21.3181 13.6371C21.3181 8.2352 16.8769 3.84082 11.4181 3.84082H11.4187Z" fill="#2B2C2D"/>
<path d="M11.4187 21.5493C7.01061 21.5493 3.42499 18 3.42499 13.6375C3.42499 9.27496 7.01124 5.72559 11.4187 5.72559C15.8262 5.72559 19.4106 9.27496 19.4106 13.6375C19.4106 18 15.8256 21.5493 11.4187 21.5493ZM11.4187 6.03809C7.18374 6.03809 3.73811 9.44746 3.73811 13.6375C3.73811 17.8275 7.18374 21.2368 11.4181 21.2368C15.6531 21.2368 19.0981 17.8275 19.0981 13.6375C19.0981 9.44746 15.6531 6.03809 11.4187 6.03809Z" fill="#2B2C2D"/>
<path d="M11.4188 18.6638C8.61876 18.6638 6.34064 16.4095 6.34064 13.6376C6.34064 10.8657 8.61876 8.61133 11.4181 8.61133C14.2175 8.61133 16.4956 10.8657 16.4956 13.6376C16.4956 16.4095 14.2181 18.6638 11.4181 18.6638H11.4188ZM11.4188 8.92383C8.79064 8.92383 6.65314 11.0382 6.65314 13.6376C6.65314 16.237 8.79064 18.3513 11.4181 18.3513C14.0456 18.3513 16.1831 16.237 16.1831 13.6376C16.1831 11.0382 14.0456 8.92383 11.4181 8.92383H11.4188Z" fill="#2B2C2D"/>
<path d="M17.4337 6.93343C18.7275 5.24593 19.9075 3.42906 21.1087 1.68406C21.1337 1.64781 21.1687 1.60718 21.2118 1.61531C21.2587 1.62406 21.2743 1.68218 21.2806 1.72968C21.3543 2.34343 21.3506 2.96968 21.5068 3.56718C21.6637 4.16718 22.9993 3.77843 23.4125 3.75031C23.8787 3.71906 22.7343 4.63468 22.6106 4.71718C22.0043 5.11906 19.1131 6.87031 18.2625 7.32406" fill="#444935"/>
<path d="M11.4188 16.0173C10.0938 16.0173 9.01562 14.9498 9.01562 13.6373C9.01562 12.3248 10.0931 11.2573 11.4181 11.2573C12.7431 11.2573 13.8212 12.3248 13.8212 13.6373C13.8212 14.9498 12.7431 16.0173 11.4181 16.0173H11.4188ZM11.4188 11.5698C10.2656 11.5698 9.32812 12.4973 9.32812 13.6373C9.32812 14.7773 10.2656 15.7048 11.4181 15.7048C12.5706 15.7048 13.5087 14.7773 13.5087 13.6373C13.5087 12.4973 12.5712 11.5698 11.4181 11.5698H11.4188ZM18.2625 7.47985C18.2278 7.47974 18.194 7.46806 18.1667 7.44666C18.1393 7.42525 18.1199 7.39534 18.1114 7.36164C18.103 7.32795 18.106 7.2924 18.12 7.26061C18.134 7.22881 18.1582 7.2026 18.1887 7.1861C19.1844 6.65485 22.7169 4.61235 23.4081 3.9686C23.4192 3.95843 23.4298 3.94779 23.44 3.93672C23.3409 3.92653 23.2409 3.92926 23.1425 3.94485L22.9781 3.97047C22.6081 4.02922 22.2256 4.09047 21.8356 4.00797C21.7253 3.98723 21.62 3.94589 21.525 3.8861C21.03 3.5561 21.12 2.82297 21.1919 2.2336C21.2156 2.03735 21.2381 1.85235 21.2344 1.71672L21.2337 1.70047L21.2 1.7486C21.1681 1.79547 21.135 1.8436 21.1025 1.88735C20.4675 2.73735 19.8962 3.50485 19.3431 4.30485C18.7263 5.19169 18.134 6.09537 17.5669 7.01485C17.5563 7.03252 17.5423 7.04791 17.5257 7.06009C17.5091 7.07227 17.4902 7.08101 17.4702 7.08579C17.4501 7.09056 17.4294 7.09128 17.409 7.0879C17.3887 7.08452 17.3693 7.0771 17.3519 7.0661C17.3344 7.05535 17.3192 7.04126 17.3072 7.02463C17.2951 7.00801 17.2865 6.98918 17.2817 6.96921C17.2769 6.94925 17.2762 6.92854 17.2794 6.90827C17.2827 6.88801 17.2899 6.86858 17.3006 6.8511C17.8706 5.92671 18.4661 5.01824 19.0862 4.12672C19.6425 3.32297 20.215 2.55172 20.8519 1.69985C20.8825 1.65985 20.9125 1.61547 20.9425 1.57172C21.075 1.37922 21.1881 1.21422 21.3575 1.26235C21.52 1.30985 21.5406 1.51672 21.5469 1.70735C21.5512 1.8661 21.5275 2.0636 21.5019 2.27172C21.4406 2.7761 21.3644 3.40297 21.6987 3.62672C21.7475 3.65922 21.8113 3.68297 21.9013 3.70172C22.235 3.77422 22.5719 3.7186 22.9288 3.66235L23.0956 3.6361C23.2644 3.6111 23.665 3.57485 23.7706 3.7936C23.8288 3.91485 23.7788 4.05047 23.6206 4.19735C22.8619 4.90422 19.16 7.02235 18.3356 7.46172C18.3132 7.47388 18.288 7.47969 18.2625 7.47985Z" fill="#2B2C2D"/>
<path d="M18.1237 7.52759L11.5975 13.6088C11.5494 13.6538 11.48 13.6438 11.4419 13.587C11.4244 13.5597 11.4162 13.5274 11.4186 13.4951C11.4209 13.4628 11.4337 13.4321 11.455 13.4076L11.46 13.4026L17.6437 6.88259L17.6581 6.86759C17.8081 6.70946 18.0375 6.72571 18.1706 6.90321C18.2374 6.99632 18.2693 7.10996 18.2607 7.22423C18.2522 7.3385 18.2037 7.44548 18.1237 7.52759Z" fill="#FAE7AC"/>
<path d="M11.5294 13.7934C11.486 13.7928 11.4436 13.7815 11.4056 13.7606C11.3677 13.7396 11.3355 13.7097 11.3119 13.6734C11.2744 13.6156 11.2575 13.547 11.2637 13.4784C11.2699 13.4099 11.299 13.3454 11.3462 13.2953L15.4944 8.75967C15.815 8.40779 16.1356 8.05654 16.4587 7.70654C16.5219 7.63779 16.5887 7.55717 16.6587 7.47342C16.9206 7.16092 17.2162 6.80717 17.5819 6.68717C17.8606 6.59654 18.185 6.71092 18.3394 6.95467C18.4737 7.16717 18.4406 7.42154 18.2544 7.61842L18.23 7.64217L11.7044 13.7234C11.657 13.768 11.5944 13.793 11.5294 13.7934ZM17.7812 6.96842C17.7465 6.9683 17.7119 6.97357 17.6787 6.98404C17.3975 7.07592 17.1325 7.39342 16.8987 7.67342C16.8244 7.76217 16.7544 7.84592 16.6875 7.91842C16.3656 8.26779 16.045 8.61904 15.725 8.97029L12.1425 12.8878L18.015 7.41467L18.0194 7.41092C18.1169 7.30842 18.1331 7.21404 18.0744 7.12217C18.0415 7.07473 17.9978 7.03593 17.9467 7.00905C17.8957 6.98217 17.8389 6.96864 17.7812 6.96842Z" fill="#2B2C2D"/>
</svg>
