<svg width="64" height="64" viewBox="0 0 64 64" fill="none" xmlns="http://www.w3.org/2000/svg">
<path d="M31.9813 63.9625C49.644 63.9625 63.9625 49.644 63.9625 31.9813C63.9625 14.3185 49.644 0 31.9813 0C14.3185 0 0 14.3185 0 31.9813C0 49.644 14.3185 63.9625 31.9813 63.9625Z" fill="#FFD200"/>
<path d="M31.9812 62.3128C48.7329 62.3128 62.3128 48.7329 62.3128 31.9812C62.3128 15.2296 48.7329 1.64966 31.9812 1.64966C15.2296 1.64966 1.64966 15.2296 1.64966 31.9812C1.64966 48.7329 15.2296 62.3128 31.9812 62.3128Z" fill="#FFAA00"/>
<path d="M31.9811 61.0381C48.0288 61.0381 61.038 48.0289 61.038 31.9813C61.038 15.9336 48.0288 2.92444 31.9811 2.92444C15.9335 2.92444 2.92432 15.9336 2.92432 31.9813C2.92432 48.0289 15.9335 61.0381 31.9811 61.0381Z" fill="#FFF9DD"/>
<path fill-rule="evenodd" clip-rule="evenodd" d="M19.0087 9.52311C18.7088 9.67308 18.3338 9.59809 18.1464 9.29815C17.9589 8.96072 18.0714 8.58579 18.3713 8.39832C19.4211 7.83593 20.4709 7.31104 21.5582 6.82363C22.683 6.37372 23.8078 5.99879 24.9326 5.69885C30.8939 4.08667 37.0052 4.61156 42.4041 6.82363C47.8031 9.07319 52.4897 13.0474 55.5641 18.3714C55.5641 18.4089 55.6016 18.4089 55.6016 18.4089C55.939 19.0088 56.2389 19.6086 56.5389 20.171C56.8388 20.8084 57.1013 21.4083 57.3262 22.0457C57.4762 22.3456 57.2887 22.7205 56.9888 22.8705C56.6514 22.983 56.2764 22.833 56.164 22.4956C55.9015 21.8957 55.6766 21.2958 55.3766 20.7334C55.1142 20.171 54.8142 19.6086 54.4768 19.0462V19.0088C51.5524 13.9472 47.0907 10.1605 41.9167 8.0234C36.7802 5.88632 30.9689 5.39891 25.27 6.93611C24.1827 7.23605 23.0954 7.57349 22.0456 8.0234C20.9958 8.43582 19.9835 8.96072 19.0087 9.52311ZM10.1604 17.959C9.97298 18.2589 9.56056 18.3339 9.29811 18.1464C8.99817 17.959 8.88569 17.5465 9.07316 17.2841C9.52307 16.6092 10.0105 15.9344 10.4979 15.297C10.9853 14.6221 11.5102 14.0222 12.0726 13.4223C12.2975 13.1599 12.7099 13.1599 12.9724 13.3849C13.2348 13.6473 13.2348 14.0222 13.0099 14.2847C12.485 14.8471 11.9601 15.4469 11.5102 16.0468C11.0228 16.6842 10.5729 17.2841 10.1604 17.959ZM53.8019 46.116C53.9894 45.816 54.3643 45.741 54.6643 45.9285C54.9642 46.116 55.0392 46.4909 54.8517 46.7908C53.6894 48.5905 52.3397 50.2402 50.765 51.7399C49.2278 53.1646 47.5032 54.4768 45.591 55.5641C39.1048 59.3134 31.6812 60.1007 24.9326 58.3011C18.2214 56.5014 12.1851 52.1148 8.39829 45.5911V45.5536C6.41118 42.1417 5.2864 38.4675 4.91147 34.7932C4.49905 30.9689 4.94896 27.1072 6.14873 23.4704C6.26121 23.1329 6.59864 22.9455 6.93608 23.058C7.27351 23.1704 7.46097 23.5454 7.3485 23.8828C6.22371 27.3321 5.8113 31.0064 6.18622 34.6807C6.52366 38.1675 7.61094 41.6918 9.48558 44.9537H9.52307C13.0849 51.1775 18.8587 55.3392 25.27 57.0638C31.6812 58.7885 38.7674 58.0386 44.9537 54.4768H44.9911C46.7908 53.427 48.4405 52.1898 49.8652 50.8025C51.4024 49.3778 52.6771 47.8031 53.8019 46.116ZM57.9261 33.181C57.9261 32.8061 58.2261 32.5436 58.601 32.5436C58.9384 32.5811 59.2009 32.881 59.2009 33.2185C59.1634 33.8933 59.1259 34.5307 59.0509 35.1681C58.9759 35.8055 58.8634 36.4428 58.751 37.1177C58.676 37.4552 58.3385 37.6801 58.0011 37.6051C57.6637 37.5301 57.4387 37.1927 57.4762 36.8553C57.5887 36.2554 57.7012 35.6555 57.7761 35.0181C57.8511 34.3808 57.8886 33.7809 57.9261 33.181Z" fill="#FFE0C7"/>
<path d="M43.9886 30.088H42.2302C42.1294 30.088 42.0398 30.0096 42.023 29.9088C41.7598 28.5368 41.2278 27.26 40.4494 26.112C40.4203 26.0713 40.4061 26.0218 40.4092 25.9718C40.4123 25.9219 40.4324 25.8745 40.4662 25.8376L41.715 24.5888C42.0118 24.2864 42.0118 23.7936 41.715 23.4968L40.2646 22.0464C39.9622 21.7496 39.475 21.7496 39.1726 22.0464L37.9294 23.2952C37.8566 23.368 37.7502 23.3792 37.6606 23.312C36.5118 22.5384 35.2184 22.0051 33.8582 21.744C33.7518 21.7216 33.679 21.6376 33.679 21.5424V19.7728C33.679 19.3472 33.3318 19 32.9062 19H30.8622C30.4366 19 30.0894 19.3472 30.0894 19.7728V21.5424C30.0894 21.6376 30.0166 21.7216 29.9102 21.744C28.5382 22.0072 27.2614 22.5392 26.1078 23.3176C26.0238 23.3736 25.9118 23.368 25.839 23.2952L24.5958 22.0464C24.299 21.7496 23.8062 21.7496 23.4982 22.0464L22.059 23.4912C21.7566 23.7824 21.7454 24.2976 22.059 24.5944L23.3022 25.8376C23.3694 25.9104 23.375 26.0224 23.319 26.1064C22.5437 27.2549 22.0085 28.5483 21.7454 29.9088C21.723 30.0096 21.639 30.088 21.5438 30.088H19.7742C19.3486 30.088 19.0014 30.4352 19.0014 30.8608V32.9048C19.0014 33.3304 19.3486 33.6776 19.7742 33.6776H21.5438C21.639 33.6776 21.723 33.7504 21.7454 33.8568C21.9414 34.876 22.2886 35.856 22.787 36.7744L19.8694 39.692C18.7102 40.8512 18.7102 42.7328 19.8694 43.8864C20.9782 45.0456 22.9662 45.04 24.0694 43.8864L26.987 40.9744C27.9054 41.4728 28.891 41.82 29.9102 42.016C30.011 42.0384 30.0894 42.128 30.0894 42.2288V43.9872C30.0894 44.4128 30.4366 44.76 30.8622 44.76H32.9062C33.3318 44.76 33.679 44.4128 33.679 43.9872V42.2288C33.679 42.1224 33.7574 42.0384 33.8582 42.016C35.219 41.7584 36.4958 41.232 37.655 40.448C37.6957 40.4189 37.7452 40.4047 37.7952 40.4078C37.8451 40.4109 37.8925 40.431 37.9294 40.4648L39.1726 41.7136C39.475 42.0104 39.9622 42.0104 40.2646 41.7136L41.715 40.2632C42.0118 39.972 42.0118 39.4568 41.715 39.1712L40.4718 37.928C40.4362 37.8935 40.4143 37.8472 40.4101 37.7978C40.406 37.7484 40.42 37.6991 40.4494 37.6592C41.2334 36.5 41.7598 35.2232 42.0174 33.8624C42.0398 33.756 42.1294 33.6776 42.2302 33.6776H43.9886C44.4142 33.6776 44.7614 33.3304 44.7614 32.9048V30.8608C44.7614 30.4352 44.4142 30.088 43.9886 30.088ZM26.7406 40.4256L23.6718 43.4944C22.7814 44.4296 21.163 44.4296 20.267 43.4944C19.3262 42.5536 19.3262 41.0248 20.267 40.0896C22.2494 38.1072 25.1334 35.2288 27.099 33.2632C27.1662 33.1904 27.1942 33.0952 27.1718 32.9944C26.7798 31.348 27.267 29.6512 28.4598 28.4528C29.731 27.176 31.7022 26.7 33.4214 27.2376L30.4982 30.1608C30.3078 30.3624 30.3078 30.6872 30.5038 30.9L32.8614 33.252C33.0574 33.4648 33.4214 33.4648 33.6118 33.2576L36.4902 30.3792C37.0558 32.1208 36.6078 34.008 35.3086 35.3072C34.1158 36.5 32.419 36.9816 30.767 36.5952C30.7192 36.5851 30.6697 36.587 30.6228 36.6006C30.5759 36.6143 30.5331 36.6394 30.4982 36.6736C29.6022 37.5696 27.6534 39.5184 26.7406 40.4256ZM36.9998 30.1384C36.8878 29.78 36.3894 29.6736 36.1318 29.9424L33.2646 32.86L30.9014 30.5472L33.819 27.6296C34.099 27.3664 33.9702 26.868 33.6062 26.756C31.6742 26.112 29.5014 26.6216 28.0678 28.0552C26.7686 29.3544 26.2198 31.1856 26.595 32.972L25.4302 34.1368C25.1771 33.4113 25.0483 32.6483 25.0494 31.88C25.0494 28.1112 28.1126 25.048 31.8814 25.048C35.6502 25.048 38.719 28.1112 38.719 31.88C38.719 35.6488 35.6502 38.7176 31.8814 38.7176C31.1086 38.7176 30.3526 38.5888 29.6246 38.3368L30.7894 37.172C32.5814 37.5416 34.407 36.9984 35.7062 35.7048C36.4219 34.9915 36.9226 34.0913 37.1513 33.1071C37.3801 32.1229 37.3276 31.0942 36.9998 30.1384ZM44.2014 32.9048C44.2014 33.0224 44.1062 33.1176 43.9886 33.1176H42.2302C41.8606 33.1176 41.547 33.3752 41.4686 33.7504C41.2222 35.0384 40.7238 36.248 39.9846 37.3456C39.7774 37.6536 39.811 38.0568 40.0742 38.32L41.3174 39.5688C41.3958 39.6416 41.4014 39.7872 41.3174 39.8656L39.8726 41.316C39.8528 41.336 39.8293 41.3518 39.8033 41.3627C39.7774 41.3735 39.7495 41.3791 39.7214 41.3791C39.6933 41.3791 39.6654 41.3735 39.6395 41.3627C39.6135 41.3518 39.59 41.336 39.5702 41.316L38.327 40.0728C38.0638 39.8096 37.6606 39.7704 37.347 39.9832C36.2633 40.7158 35.0421 41.2207 33.7574 41.4672C33.3878 41.5344 33.119 41.8536 33.119 42.2288V43.9872C33.119 44.1048 33.0294 44.2 32.9062 44.2H30.8622C30.8058 44.2 30.7516 44.1776 30.7117 44.1377C30.6718 44.0978 30.6494 44.0436 30.6494 43.9872V42.2288C30.6476 42.0484 30.5837 41.8742 30.4684 41.7355C30.3532 41.5967 30.1936 41.502 30.0166 41.4672C29.1038 41.2936 28.2246 40.9856 27.4014 40.56L29.1934 38.768C30.0502 39.104 30.9518 39.2776 31.8814 39.2776C35.9582 39.2776 39.279 35.9568 39.279 31.88C39.279 27.8032 35.9582 24.488 31.8814 24.488C27.8046 24.488 24.4894 27.8032 24.4894 31.88C24.4894 32.8096 24.663 33.7112 24.9934 34.568L23.2014 36.36C22.7758 35.5368 22.4678 34.6576 22.2942 33.756C22.227 33.3864 21.9078 33.1176 21.5438 33.1176H19.7742C19.7178 33.1176 19.6636 33.0952 19.6237 33.0553C19.5838 33.0154 19.5614 32.9612 19.5614 32.9048V30.8608C19.5614 30.7432 19.6566 30.648 19.7742 30.648H21.5438C21.9078 30.648 22.2214 30.3792 22.2942 30.0152C22.5395 28.7302 23.0445 27.5087 23.7782 26.4256C23.991 26.1176 23.9574 25.7032 23.6942 25.44L22.451 24.1968C22.431 24.177 22.4152 24.1535 22.4043 24.1275C22.3935 24.1016 22.3879 24.0737 22.3879 24.0456C22.3879 24.0175 22.3935 23.9896 22.4043 23.9637C22.4152 23.9377 22.431 23.9142 22.451 23.8944L23.8902 22.4496C23.9798 22.3656 24.1198 22.36 24.1982 22.444L25.4414 23.6872C25.699 23.956 26.119 23.9952 26.427 23.7768C27.5134 23.0432 28.7174 22.5448 30.0166 22.2928C30.3806 22.22 30.6494 21.9064 30.6494 21.5424V19.7728C30.6494 19.6608 30.7446 19.56 30.8622 19.56H32.9062C33.0238 19.56 33.119 19.6608 33.119 19.7728V21.5424C33.119 21.9064 33.3878 22.2256 33.7518 22.2928C35.051 22.5448 36.2606 23.0432 37.3414 23.7768C37.655 23.9896 38.0582 23.956 38.327 23.6872L39.5702 22.444C39.59 22.424 39.6135 22.4082 39.6395 22.3973C39.6654 22.3865 39.6933 22.3809 39.7214 22.3809C39.7495 22.3809 39.7774 22.3865 39.8033 22.3973C39.8293 22.4082 39.8528 22.424 39.8726 22.444L41.3174 23.8944C41.4014 23.9728 41.4014 24.1128 41.3174 24.1968L40.0742 25.44C39.8166 25.6976 39.7774 26.112 39.9846 26.4256C40.7238 27.5064 41.2222 28.716 41.4742 30.0208C41.547 30.3848 41.8662 30.648 42.2302 30.648H43.9886C44.1062 30.648 44.2014 30.7432 44.2014 30.8608V32.9048Z" fill="black"/>
<path d="M44.2013 30.8609V32.9049C44.2013 33.0225 44.1061 33.1177 43.9885 33.1177H42.2301C41.8605 33.1177 41.5469 33.3753 41.4685 33.7505C41.2221 35.0385 40.7237 36.2481 39.9845 37.3457C39.7773 37.6537 39.8109 38.0569 40.0741 38.3201L41.3173 39.5689C41.3957 39.6417 41.4013 39.7873 41.3173 39.8657L39.8725 41.3161C39.8527 41.336 39.8291 41.3519 39.8032 41.3627C39.7772 41.3735 39.7494 41.3791 39.7213 41.3791C39.6932 41.3791 39.6653 41.3735 39.6394 41.3627C39.6134 41.3519 39.5899 41.336 39.5701 41.3161L38.3269 40.0729C38.0637 39.8097 37.6605 39.7705 37.3469 39.9833C36.2632 40.7159 35.042 41.2208 33.7573 41.4673C33.3877 41.5345 33.1189 41.8537 33.1189 42.2289V43.9873C33.1189 44.1049 33.0293 44.2001 32.9061 44.2001H30.8621C30.8056 44.2001 30.7515 44.1776 30.7116 44.1377C30.6717 44.0978 30.6493 44.0437 30.6493 43.9873V42.2289C30.6475 42.0485 30.5836 41.8743 30.4683 41.7355C30.3531 41.5968 30.1935 41.502 30.0165 41.4673C29.1037 41.2937 28.2245 40.9857 27.4013 40.5601L29.1933 38.7681C30.0501 39.1041 30.9517 39.2777 31.8813 39.2777C35.9581 39.2777 39.2789 35.9569 39.2789 31.8801C39.2789 27.8033 35.9581 24.4881 31.8813 24.4881C27.8045 24.4881 24.4893 27.8033 24.4893 31.8801C24.4893 32.8097 24.6629 33.7113 24.9933 34.5681L23.2013 36.3601C22.7757 35.5369 22.4677 34.6577 22.2941 33.7561C22.2269 33.3865 21.9077 33.1177 21.5437 33.1177H19.7741C19.7176 33.1177 19.6635 33.0952 19.6236 33.0553C19.5837 33.0154 19.5613 32.9613 19.5613 32.9049V30.8609C19.5613 30.7433 19.6565 30.6481 19.7741 30.6481H21.5437C21.9077 30.6481 22.2213 30.3793 22.2941 30.0153C22.5394 28.7302 23.0444 27.5088 23.7781 26.4257C23.9909 26.1177 23.9573 25.7033 23.6941 25.4401L22.4509 24.1969C22.4309 24.1771 22.415 24.1535 22.4042 24.1276C22.3934 24.1016 22.3878 24.0738 22.3878 24.0457C22.3878 24.0175 22.3934 23.9897 22.4042 23.9637C22.415 23.9378 22.4309 23.9142 22.4509 23.8945L23.8901 22.4497C23.9797 22.3657 24.1197 22.3601 24.1981 22.4441L25.4413 23.6873C25.6989 23.9561 26.1189 23.9953 26.4269 23.7769C27.5133 23.0433 28.7173 22.5449 30.0165 22.2929C30.3805 22.2201 30.6493 21.9065 30.6493 21.5425V19.7729C30.6493 19.6609 30.7445 19.5601 30.8621 19.5601H32.9061C33.0237 19.5601 33.1189 19.6609 33.1189 19.7729V21.5425C33.1189 21.9065 33.3877 22.2257 33.7517 22.2929C35.0509 22.5449 36.2605 23.0433 37.3413 23.7769C37.6549 23.9897 38.0581 23.9561 38.3269 23.6873L39.5701 22.4441C39.5899 22.4241 39.6134 22.4082 39.6394 22.3974C39.6653 22.3866 39.6932 22.381 39.7213 22.381C39.7494 22.381 39.7772 22.3866 39.8032 22.3974C39.8291 22.4082 39.8527 22.4241 39.8725 22.4441L41.3173 23.8945C41.4013 23.9729 41.4013 24.1129 41.3173 24.1969L40.0741 25.4401C39.8165 25.6977 39.7773 26.1121 39.9845 26.4257C40.7237 27.5065 41.2221 28.7161 41.4741 30.0209C41.5469 30.3849 41.8661 30.6481 42.2301 30.6481H43.9885C44.1061 30.6481 44.2013 30.7433 44.2013 30.8609Z" fill="#E0E0E0"/>
<path d="M36.4901 30.3793L33.6117 33.2576C33.4213 33.4648 33.0573 33.4649 32.8613 33.2521L30.5037 30.9001C30.4098 30.8002 30.357 30.6686 30.356 30.5315C30.3549 30.3945 30.4057 30.2621 30.4981 30.1609L33.4213 27.2376C31.7021 26.7 29.7309 27.176 28.4597 28.4528C27.2669 29.6512 26.7797 31.3481 27.1717 32.9945C27.1941 33.0953 27.1661 33.1904 27.0989 33.2632C25.1333 35.2288 22.2493 38.1072 20.2669 40.0896C19.3261 41.0248 19.3261 42.5537 20.2669 43.4945C21.1629 44.4297 22.7813 44.4297 23.6717 43.4945L26.7405 40.4256C27.6533 39.5184 29.6021 37.5697 30.4981 36.6737C30.5653 36.6065 30.6717 36.5728 30.7669 36.5952C32.4189 36.9816 34.1157 36.5001 35.3085 35.3073C35.943 34.6762 36.3895 33.8811 36.5982 33.0108C36.8068 32.1406 36.7694 31.2295 36.4901 30.3793ZM21.9805 43.388C21.0957 43.388 20.3733 42.6712 20.3733 41.7864C20.3733 40.9016 21.0957 40.1792 21.9805 40.1792C22.8653 40.1792 23.5877 40.9016 23.5877 41.7864C23.5877 42.6712 22.8653 43.388 21.9805 43.388Z" fill="#B0BEC5"/>
<path d="M21.9805 40.1792C21.0957 40.1792 20.3733 40.9016 20.3733 41.7864C20.3733 42.6712 21.0957 43.388 21.9805 43.388C22.8653 43.388 23.5877 42.6712 23.5877 41.7864C23.5877 40.9016 22.8653 40.1792 21.9805 40.1792ZM21.9805 42.828C21.4037 42.828 20.9333 42.3632 20.9333 41.7864C20.9333 41.2096 21.4037 40.7392 21.9805 40.7392C22.5573 40.7392 23.0277 41.2096 23.0277 41.7864C23.0277 42.3632 22.5573 42.828 21.9805 42.828Z" fill="black"/>
</svg>
