<svg width="15" height="15" viewBox="0 0 15 15" fill="none" xmlns="http://www.w3.org/2000/svg">
<g clip-path="url(#clip0_1497_2112)">
<path opacity="0.993" fill-rule="evenodd" clip-rule="evenodd" d="M6.81152 -0.015625C7.26073 -0.015625 7.70997 -0.015625 8.15918 -0.015625C9.64828 0.133536 10.9764 0.670645 12.1436 1.5957C9.03325 1.62499 5.918 1.63475 2.79785 1.625C3.96981 0.682892 5.30771 0.136017 6.81152 -0.015625Z" fill="#29AAEE"/>
<path opacity="0.998" fill-rule="evenodd" clip-rule="evenodd" d="M12.1436 1.59766C13.0247 2.29625 13.718 3.14585 14.2236 4.14648C9.73629 4.15624 5.25387 4.14648 0.776367 4.11719C1.26199 3.13724 1.93582 2.30716 2.79785 1.62695C5.918 1.6367 9.03325 1.62694 12.1436 1.59766Z" fill="#29A9EB"/>
<path opacity="0.999" fill-rule="evenodd" clip-rule="evenodd" d="M0.776367 4.11719C5.25387 4.14648 9.73629 4.15624 14.2236 4.14648C14.4926 4.69952 14.6977 5.27567 14.8389 5.875C13.5205 5.875 12.2021 5.875 10.8838 5.875C10.8838 5.8457 10.8838 5.81641 10.8838 5.78711C10.918 5.45512 10.9424 5.12307 10.957 4.79102C10.8935 4.58526 10.7518 4.48759 10.5322 4.49805C10.181 4.5661 9.83918 4.66864 9.50684 4.80566C8.63707 5.16247 7.76792 5.51893 6.89941 5.875C4.64147 5.86533 2.38562 5.87509 0.131836 5.9043C0.266186 5.27641 0.481031 4.68071 0.776367 4.11719Z" fill="#28A7E8"/>
<path fill-rule="evenodd" clip-rule="evenodd" d="M10.8837 5.78592C10.6854 7.1031 10.4705 8.42146 10.2392 9.74099C10.1847 10.1717 10.0871 10.5916 9.94625 11.0008C9.89451 11.0673 9.83592 11.1307 9.77047 11.1912C9.58493 11.2498 9.39936 11.2498 9.21383 11.1912C9.09116 11.1348 8.97397 11.0713 8.86226 11.0008C8.20689 10.541 7.54282 10.0918 6.87008 9.6531C6.6986 9.55525 6.54722 9.42831 6.41597 9.27224C6.33312 9.16086 6.32337 9.04367 6.38668 8.92068C6.49666 8.75199 6.62849 8.60061 6.78219 8.46658C7.53793 7.79873 8.26549 7.10049 8.9648 6.37185C8.97904 6.21095 8.9058 6.15725 8.74508 6.21072C7.6608 6.90907 6.58657 7.62195 5.52242 8.34939C5.20994 8.55804 4.86813 8.62642 4.49703 8.55447C3.96406 8.43541 3.44647 8.26938 2.94429 8.05642C2.78019 7.89845 2.78995 7.75197 2.97359 7.61697C3.09588 7.54115 3.22282 7.4728 3.35445 7.41189C4.54027 6.90133 5.7219 6.38864 6.89937 5.87381C7.76788 5.51773 8.63703 5.16128 9.50679 4.80447C9.83914 4.66745 10.1809 4.56491 10.5322 4.49685C10.7518 4.48639 10.8934 4.58407 10.957 4.78982C10.9424 5.12187 10.918 5.45392 10.8837 5.78592Z" fill="#FEFEFE"/>
<path opacity="0.999" fill-rule="evenodd" clip-rule="evenodd" d="M6.89941 5.8747C5.72194 6.38954 4.54031 6.90223 3.35449 7.41279C3.22286 7.4737 3.09592 7.54205 2.97363 7.61787C2.78999 7.75287 2.78023 7.89935 2.94434 8.05732C3.44651 8.27028 3.9641 8.4363 4.49707 8.55537C4.86817 8.62732 5.20998 8.55894 5.52246 8.35029C6.58661 7.62285 7.66084 6.90997 8.74512 6.21162C8.90584 6.15815 8.97908 6.21185 8.96484 6.37275C8.26553 7.10139 7.53797 7.79962 6.78223 8.46748C6.62853 8.60151 6.4967 8.75289 6.38672 8.92158C6.32341 9.04457 6.33316 9.16175 6.41602 9.27314C6.54727 9.4292 6.69864 9.55615 6.87012 9.654C4.67285 9.654 2.47559 9.654 0.27832 9.654C0.142345 9.15973 0.0446892 8.66168 -0.0146484 8.15986C-0.0146484 7.71065 -0.0146484 7.26141 -0.0146484 6.8122C0.0255193 6.512 0.0743476 6.20924 0.131836 5.904C2.38562 5.87479 4.64147 5.86503 6.89941 5.8747Z" fill="#27A5E4"/>
<path opacity="0.998" fill-rule="evenodd" clip-rule="evenodd" d="M10.8838 5.78516C10.8838 5.81445 10.8838 5.84375 10.8838 5.87305C12.2021 5.87305 13.5205 5.87305 14.8389 5.87305C14.8929 6.18866 14.9417 6.50117 14.9854 6.81055C14.9854 7.25976 14.9854 7.70899 14.9854 8.1582C14.926 8.66003 14.8283 9.15808 14.6924 9.65234C13.2178 9.65234 11.7432 9.65234 10.2686 9.65234C10.2755 9.69017 10.2657 9.71946 10.2393 9.74023C10.4706 8.4207 10.6854 7.10234 10.8838 5.78516Z" fill="#27A5E4"/>
<path fill-rule="evenodd" clip-rule="evenodd" d="M0.27832 9.65234C2.47559 9.65234 4.67285 9.65234 6.87012 9.65234C7.54286 10.0911 8.20693 10.5403 8.8623 11C6.19137 10.9902 3.52535 11 0.864258 11.0293C0.623795 10.5916 0.428481 10.1326 0.27832 9.65234Z" fill="#25A3E1"/>
<path opacity="0.999" fill-rule="evenodd" clip-rule="evenodd" d="M14.6924 9.65234C14.5412 10.1158 14.3556 10.565 14.1357 11C12.7392 11 11.3428 11 9.94629 11C10.0871 10.5908 10.1848 10.1709 10.2393 9.74023C10.2657 9.71946 10.2755 9.69017 10.2686 9.65234C11.7432 9.65234 13.2178 9.65234 14.6924 9.65234Z" fill="#25A3E1"/>
<path opacity="0.996" fill-rule="evenodd" clip-rule="evenodd" d="M8.8623 11.0017C8.97401 11.0722 9.0912 11.1357 9.21387 11.1921C9.3994 11.2507 9.58497 11.2507 9.77051 11.1921C9.83596 11.1317 9.89455 11.0682 9.94629 11.0017C11.3428 11.0017 12.7392 11.0017 14.1357 11.0017C13.0224 12.9981 11.3525 14.2725 9.12598 14.8249C8.80148 14.891 8.47922 14.9447 8.15918 14.9861C7.70997 14.9861 7.26073 14.9861 6.81152 14.9861C4.55156 14.7279 2.74005 13.6927 1.37695 11.8806C1.187 11.6079 1.0161 11.3247 0.864258 11.031C3.52535 11.0017 6.19137 10.9919 8.8623 11.0017Z" fill="#23A1DD"/>
</g>
<defs>
<clipPath id="clip0_1497_2112">
<rect width="15" height="15" fill="white"/>
</clipPath>
</defs>
</svg>
