<svg width="60" height="60" viewBox="0 0 60 60" fill="none" xmlns="http://www.w3.org/2000/svg">
<path d="M5.10161 24.2523C5.27392 26.1723 5.42161 28.0923 5.53238 30.0123C5.58161 30.9723 5.74161 31.9323 5.65545 32.8923C5.5693 33.8523 5.44622 34.8123 5.10161 35.7723C5.0893 35.8093 5.05238 35.8216 5.01545 35.8093C4.99084 35.7969 4.97853 35.7846 4.97853 35.7723C4.63392 34.8123 4.51084 33.8523 4.42468 32.8923C4.33853 31.9323 4.49853 30.9723 4.54776 30.0123C4.65853 28.0923 4.80622 26.1723 4.97853 24.2523C4.97853 24.2154 5.01545 24.1908 5.04007 24.1908C5.07699 24.1908 5.0893 24.2154 5.10161 24.2523Z" fill="white"/>
<path d="M59.4524 23.2431C59.4524 35.8338 49.2493 46.0492 36.6462 46.0492C24.0555 46.0492 13.8401 35.8461 13.8401 23.2431C13.8401 10.64 24.0555 0.449219 36.6586 0.449219C49.2493 0.449219 59.4524 10.6523 59.4524 23.2431Z" fill="#AFDEE0"/>
<path d="M42.9107 24.5107H42.3322V17.2861C42.3322 15.1938 40.6214 13.483 38.5291 13.483H8.37528C6.84912 13.483 5.47066 14.0984 4.47374 15.0953C3.53835 16.0307 2.93527 17.2984 2.87374 18.7138C2.86143 19.083 2.88604 19.44 2.93528 19.7846C2.89835 19.5261 2.84912 19.2676 2.84912 18.9846V53.4092C2.84912 56.4615 5.32297 58.923 8.36297 58.923H42.8984C45.003 58.923 46.7014 57.2123 46.7014 55.12V28.3261C46.7137 26.2215 45.003 24.5107 42.9107 24.5107ZM8.37528 24.5107C5.63066 24.5107 3.37835 22.5046 2.94758 19.8953C3.41527 22.5169 5.87681 24.5107 8.67066 24.5107H8.37528Z" fill="black"/>
<path d="M42.9107 59.5508H8.37533C4.99071 59.5508 2.24609 56.7938 2.24609 53.4092V18.9969C2.24609 18.96 2.24609 18.9354 2.2584 18.8984V18.6892C2.33225 17.1754 2.95994 15.7354 4.04302 14.6646C5.19994 13.5077 6.7384 12.8677 8.37533 12.8677H38.5292C40.9661 12.8677 42.9599 14.8492 42.9599 17.2861V23.9077C45.3846 23.9323 47.3415 25.9015 47.3415 28.3261V55.1323C47.3356 56.3045 46.8666 57.4268 46.0365 58.2545C45.2065 59.0822 44.0829 59.5482 42.9107 59.5508ZM3.47686 22.6769V53.4215C3.47686 56.1292 5.67994 58.3323 8.37533 58.3323H42.9107C43.7561 58.3323 44.5669 57.9964 45.1647 57.3986C45.7626 56.8008 46.0984 55.99 46.0984 55.1446V28.3261C46.0984 27.4807 45.7626 26.6699 45.1647 26.0721C44.5669 25.4743 43.7561 25.1384 42.9107 25.1384H42.3322C41.9876 25.1384 41.7169 24.8677 41.7169 24.5231V17.2861C41.7169 15.5261 40.2892 14.0984 38.5169 14.0984H8.37533C7.07071 14.0984 5.83994 14.6154 4.90456 15.5384C4.04302 16.4 3.5384 17.5446 3.47686 18.7508C3.46456 19.0092 3.47686 19.2677 3.51379 19.5508C3.51379 19.5877 3.52609 19.6123 3.52609 19.6492V19.7477C3.52609 19.76 3.5384 19.7723 3.5384 19.7846C3.95686 22.1354 6.15994 23.8954 8.6584 23.8954C9.00302 23.8954 9.27379 24.1661 9.27379 24.5108C9.27379 24.8554 9.00302 25.1261 8.6584 25.1261H8.37533C6.38148 25.1261 4.59686 24.1784 3.47686 22.6769Z" fill="black"/>
<path d="M40.6338 15.5876V22.8123H6.9723C3.78461 22.8123 1.00307 20.203 1.16307 17.0153C1.23692 15.6 1.82769 14.3323 2.77538 13.3969C3.7723 12.4 5.15077 11.7846 6.67692 11.7846H36.8308C37.3306 11.7829 37.8259 11.8802 38.2881 12.0707C38.7502 12.2613 39.1701 12.5414 39.5236 12.8948C39.877 13.2483 40.1571 13.6682 40.3477 14.1303C40.5382 14.5925 40.6355 15.0878 40.6338 15.5876Z" fill="white"/>
<path d="M40.6338 23.4276H6.97228C5.18766 23.4276 3.45228 22.6892 2.22151 21.3846C1.06458 20.1661 0.461507 18.603 0.547661 16.9784C0.625883 15.4627 1.26146 14.0294 2.33228 12.9538C3.4892 11.7969 5.02766 11.1569 6.66458 11.1569H36.8184C39.2554 11.1569 41.2369 13.1384 41.2369 15.5753V22.7999C41.2492 23.1569 40.9784 23.4276 40.6338 23.4276ZM6.67689 12.3876C5.37228 12.3876 4.14151 12.9046 3.20612 13.8276C2.34458 14.6892 1.83997 15.8338 1.77843 17.0399C1.71689 18.3199 2.18458 19.563 3.10766 20.5353C3.60396 21.0585 4.20127 21.4755 4.86344 21.7611C5.5256 22.0467 6.23884 22.195 6.95997 22.1969H40.0061V15.5876C40.0061 14.7422 39.6703 13.9314 39.0725 13.3336C38.4747 12.7358 37.6639 12.3999 36.8184 12.3999H6.67689V12.3876Z" fill="black"/>
<path d="M34.1722 15.6738C34.1722 23.0092 28.2276 28.9538 20.9045 28.9538C13.5814 28.9538 7.62451 23.0092 7.62451 15.6738C7.62451 8.33844 13.5691 2.40613 20.8922 2.40613C28.2153 2.40613 34.1722 8.33844 34.1722 15.6738Z" fill="white"/>
<path d="M20.9046 29.5692C13.2492 29.5692 7.02148 23.3415 7.02148 15.6738C7.02148 8.01846 13.2492 1.79077 20.9046 1.79077C28.5599 1.79077 34.7876 8.01846 34.7876 15.6738C34.7876 23.3292 28.5599 29.5692 20.9046 29.5692ZM20.9046 3.00923C13.9261 3.00923 8.25225 8.68308 8.25225 15.6615C8.25225 22.64 13.9261 28.3262 20.9046 28.3262C27.883 28.3262 33.5569 22.64 33.5569 15.6615C33.5569 8.69539 27.883 3.00923 20.9046 3.00923Z" fill="black"/>
<path d="M20.9047 26.4677C14.9478 26.4677 10.1108 21.6184 10.1108 15.6615C10.1108 9.7046 14.9478 4.86768 20.9047 4.86768C26.8616 4.86768 31.6985 9.7046 31.6985 15.6615C31.6985 21.6308 26.8493 26.4677 20.9047 26.4677Z" fill="#00AAE8"/>
<path d="M12.3384 13.2123C12.6091 11.9323 13.1876 10.7138 14.0245 9.66764C14.443 9.15072 14.8861 8.62149 15.4522 8.26456C16.0184 7.89533 16.6338 7.62456 17.3107 7.51379L17.3353 7.57533C16.8184 7.99379 16.3138 8.37533 15.8338 8.78149C15.3661 9.18764 14.8491 9.54456 14.4061 9.99995C13.5322 10.9107 12.843 12.0061 12.3999 13.2246L12.3384 13.2123Z" fill="white"/>
<path d="M24.9169 17.9507C24.9169 18.5415 24.7692 19.0707 24.4738 19.5138C24.1784 19.9692 23.7723 20.3261 23.2677 20.6092C22.8246 20.843 22.3323 20.9907 21.7661 21.0646V22.1723C21.7661 22.3692 21.6923 22.5661 21.5446 22.7015C21.4092 22.8492 21.2123 22.9353 21.0031 22.9353C20.7692 22.9353 20.5969 22.8615 20.4492 22.7015C20.3131 22.5591 20.238 22.3692 20.24 22.1723V21.1261C19.6861 21.0892 19.1692 21.003 18.7138 20.8676C18.1723 20.7076 17.7169 20.5107 17.3477 20.3015C17.1779 20.2078 17.0438 20.0607 16.9661 19.883C16.8923 19.723 16.8677 19.5507 16.8923 19.3784C16.9046 19.2061 16.9661 19.0584 17.0769 18.9353C17.1754 18.8123 17.3231 18.7138 17.4707 18.6769C17.6307 18.6523 17.8277 18.6892 18.0369 18.8123C18.32 18.9599 18.7015 19.1323 19.1569 19.2676C19.6123 19.4153 20.1661 19.5015 20.8184 19.5015C21.3231 19.5015 21.7415 19.4399 22.0615 19.3169C22.3692 19.2061 22.6031 19.0215 22.7507 18.8246C22.8984 18.603 22.9846 18.3692 22.9846 18.0861C22.9846 17.8523 22.9354 17.6676 22.8369 17.5076C22.7384 17.3476 22.5538 17.1876 22.3323 17.0646C22.0984 16.9415 21.7907 16.8307 21.3969 16.7446L19.7723 16.3999C18.8615 16.203 18.16 15.8584 17.7046 15.3784C17.2492 14.9107 17.0154 14.283 17.0154 13.5076C17.0154 12.9169 17.1631 12.363 17.4584 11.8953C17.7538 11.4276 18.1723 11.0461 18.6892 10.763C19.1446 10.5046 19.6615 10.3569 20.2523 10.2953V9.18764C20.2523 8.99071 20.3138 8.79379 20.4615 8.65841C20.6092 8.51071 20.7938 8.42456 21.0154 8.42456C21.2123 8.42456 21.4092 8.49841 21.5446 8.65841C21.6923 8.79379 21.7784 8.99071 21.7784 9.18764V10.2584C22.1231 10.2953 22.5046 10.3692 22.8984 10.4923C23.4154 10.6523 23.8584 10.8861 24.24 11.1815C24.3877 11.3046 24.4984 11.4523 24.5477 11.5999C24.5969 11.7599 24.5969 11.9199 24.56 12.0553C24.5231 12.203 24.4492 12.3384 24.3261 12.4369C24.2061 12.5334 24.0608 12.5932 23.9077 12.6092C23.7072 12.614 23.5098 12.5582 23.3415 12.4492C23.0461 12.2769 22.7138 12.1292 22.3569 12.0307C21.9877 11.9323 21.5569 11.8707 21.0523 11.8707C20.4 11.8707 19.8954 12.0184 19.5138 12.3138C19.1446 12.5969 18.9723 12.9784 18.9723 13.4461C18.9723 13.7907 19.0707 14.0738 19.3046 14.2707C19.5384 14.4923 19.92 14.6523 20.4492 14.763L22.1107 15.1323C23.0831 15.3538 23.7969 15.6861 24.2523 16.1538C24.6831 16.5846 24.9169 17.1999 24.9169 17.9507Z" fill="black"/>
<path d="M45.0277 26.6277V53.4338C45.0277 55.5385 43.3169 57.2369 41.2246 57.2369H6.67693C3.62463 57.2369 1.16309 54.7631 1.16309 51.7231V17.2985C1.16309 20.3508 3.63693 22.8123 6.67693 22.8123H41.2123C43.3169 22.8123 45.0277 24.5231 45.0277 26.6277Z" fill="#00AAE8"/>
<path d="M41.2122 57.8523H6.67684C3.29222 57.8523 0.547607 55.0954 0.547607 51.7231V17.2985H1.77838C1.77838 20.0062 3.98145 22.1969 6.67684 22.1969H41.2122C43.6491 22.1969 45.6307 24.1785 45.6307 26.6154V53.4215C45.6323 54.0028 45.5192 54.5787 45.2979 55.1162C45.0766 55.6537 44.7514 56.1422 44.3409 56.5538C43.9305 56.9654 43.4428 57.292 42.9059 57.5148C42.3691 57.7376 41.7935 57.8523 41.2122 57.8523ZM1.77838 20.9785V51.7231C1.77838 54.4308 3.98145 56.6215 6.67684 56.6215H41.2122C42.0577 56.6215 42.8685 56.2857 43.4663 55.6879C44.0641 55.0901 44.3999 54.2793 44.3999 53.4338V26.6277C44.3999 25.7823 44.0641 24.9715 43.4663 24.3737C42.8685 23.7758 42.0577 23.44 41.2122 23.44H6.67684C5.72588 23.4349 4.78898 23.21 3.93926 22.783C3.08954 22.356 2.35001 21.7384 1.77838 20.9785Z" fill="black"/>
<path d="M45.0278 35.3416V44.72H33.2493C31.5139 44.72 30.1108 43.3169 30.1108 41.5816V38.48C30.1108 36.7446 31.5139 35.3416 33.2493 35.3416H45.0278Z" fill="white"/>
<path d="M45.0277 45.3354H33.2492C31.1815 45.3354 29.4954 43.6493 29.4954 41.5816V38.48C29.4954 36.4123 31.1815 34.7262 33.2492 34.7262H45.0277C45.3723 34.7262 45.6431 34.997 45.6431 35.3416V44.72C45.6431 45.0647 45.36 45.3354 45.0277 45.3354ZM33.2492 35.957C31.8584 35.957 30.7261 37.0893 30.7261 38.48V41.5816C30.7261 42.9724 31.8584 44.1047 33.2492 44.1047H44.4123V35.957H33.2492Z" fill="black"/>
<path d="M33.2368 39.8339H34.6768V41.0646H33.2368V39.8339Z" fill="black"/>
<path d="M5.64311 30.6646C5.81542 32.5846 5.96311 34.5046 6.07388 36.4246C6.12311 37.3846 6.28311 38.3446 6.19696 39.3046C6.1108 40.2646 5.98773 41.2246 5.64311 42.1846C5.6308 42.2215 5.59388 42.2338 5.55696 42.2215C5.53234 42.2092 5.52003 42.1969 5.52003 42.1846C5.17542 41.2246 5.05234 40.2646 4.96619 39.3046C4.88003 38.3446 5.04003 37.3846 5.08927 36.4246C5.20003 34.5046 5.34773 32.5846 5.52003 30.6646C5.52003 30.6276 5.55696 30.603 5.58157 30.603C5.6185 30.6153 5.64311 30.64 5.64311 30.6646Z" fill="white"/>
</svg>
